  0
SECTION
  2
HEADER
  9
$ACADVER
  1
AC1014
  9
$HANDSEED
  5
FFFF
  9
$MEASUREMENT
 70
     1
  0
ENDSEC
  0
SECTION
  2
TABLES
  0
TABLE
  2
VPORT
  5
8
330
0
100
AcDbSymbolTable
 70
     4
  0
VPORT
  5
2E
330
8
100
AcDbSymbolTableRecord
100
AcDbViewportTableRecord
  2
*ACTIVE
 70
     0
 10
0.0
 20
0.0
 11
1.0
 21
1.0
 12
210.0
 22
148.5
 13
0.0
 23
0.0
 14
10.0
 24
10.0
 15
10.0
 25
10.0
 16
0.0
 26
0.0
 36
1.0
 17
0.0
 27
0.0
 37
0.0
 40
341.0
 41
1.24
 42
50.0
 43
0.0
 44
0.0
 50
0.0
 51
0.0
 71
     0
 72
   100
 73
     1
 74
     3
 75
     0
 76
     0
 77
     0
 78
     0
  0
ENDTAB
  0
TABLE
  2
LTYPE
  5
5
330
0
100
AcDbSymbolTable
 70
     1
  0
LTYPE
  5
14
330
5
100
AcDbSymbolTableRecord
100
AcDbLinetypeTableRecord
  2
BYBLOCK
 70
     0
  3

 72
    65
 73
     0
 40
0.0
  0
LTYPE
  5
15
330
5
100
AcDbSymbolTableRecord
100
AcDbLinetypeTableRecord
  2
BYLAYER
 70
     0
  3

 72
    65
 73
     0
 40
0.0
  0
LTYPE
  5
16
330
5
100
AcDbSymbolTableRecord
100
AcDbLinetypeTableRecord
  2
CONTINUOUS
 70
     0
  3
Solid line
 72
    65
 73
     0
 40
0.0
  0
ENDTAB
  0
TABLE
  2
LAYER
  5
2
100
AcDbSymbolTable
 70
3
  0
LAYER
  5
50
100
AcDbSymbolTableRecord
100
AcDbLayerTableRecord
  2
0
 70
0
  6
CONTINUOUS
  0
LAYER
  5
51
100
AcDbSymbolTableRecord
100
AcDbLayerTableRecord
  2
logo
 70
0
  6
CONTINUOUS
  0
LAYER
  5
52
100
AcDbSymbolTableRecord
100
AcDbLayerTableRecord
  2
text
 70
0
  6
CONTINUOUS
  0
ENDTAB
  0
TABLE
  2
STYLE
  5
3
330
0
100
AcDbSymbolTable
 70
     1
  0
STYLE
  5
11
330
3
100
AcDbSymbolTableRecord
100
AcDbTextStyleTableRecord
  2
STANDARD
 70
     0
 40
0.0
 41
1.0
 50
0.0
 71
     0
 42
2.5
  3
txt
  4

  0
ENDTAB
  0
TABLE
  2
VIEW
  5
6
330
0
100
AcDbSymbolTable
 70
     0
  0
ENDTAB
  0
TABLE
  2
UCS
  5
7
330
0
100
AcDbSymbolTable
 70
     0
  0
ENDTAB
  0
TABLE
  2
APPID
  5
9
330
0
100
AcDbSymbolTable
 70
     2
  0
APPID
  5
12
330
9
100
AcDbSymbolTableRecord
100
AcDbRegAppTableRecord
  2
ACAD
 70
     0
  0
ENDTAB
  0
TABLE
  2
DIMSTYLE
  5
A
330
0
100
AcDbSymbolTable
 70
     1
  0
DIMSTYLE
105
27
330
A
100
AcDbSymbolTableRecord
100
AcDbDimStyleTableRecord
  2
ISO-25
 70
     0
  3

  4

  5

  6

  7

 40
1.0
 41
2.5
 42
0.625
 43
3.75
 44
1.25
 45
0.0
 46
0.0
 47
0.0
 48
0.0
140
2.5
141
2.5
142
0.0
143
0.03937007874016
144
1.0
145
0.0
146
1.0
147
0.625
 71
     0
 72
     0
 73
     0
 74
     0
 75
     0
 76
     0
 77
     1
 78
     8
170
     0
171
     3
172
     1
173
     0
174
     0
175
     0
176
     0
177
     0
178
     0
270
     2
271
     2
272
     2
273
     2
274
     3
340
11
275
     0
280
     0
281
     0
282
     0
283
     0
284
     8
285
     0
286
     0
287
     3
288
     0
  0
ENDTAB
  0
TABLE
  2
BLOCK_RECORD
  5
1
330
0
100
AcDbSymbolTable
 70
     1
  0
BLOCK_RECORD
  5
1F
330
1
100
AcDbSymbolTableRecord
100
AcDbBlockTableRecord
  2
*MODEL_SPACE
  0
BLOCK_RECORD
  5
1B
330
1
100
AcDbSymbolTableRecord
100
AcDbBlockTableRecord
  2
*PAPER_SPACE
  0
ENDTAB
  0
ENDSEC
  0
SECTION
  2
BLOCKS
  0
BLOCK
  5
20
330
1F
100
AcDbEntity
  8
0
100
AcDbBlockBegin
  2
*MODEL_SPACE
 70
     0
 10
0.0
 20
0.0
 30
0.0
  3
*MODEL_SPACE
  1

  0
ENDBLK
  5
21
330
1F
100
AcDbEntity
  8
0
100
AcDbBlockEnd
  0
BLOCK
  5
1C
330
1B
100
AcDbEntity
 67
     1
  8
0
100
AcDbBlockBegin
  2
*PAPER_SPACE
  1

  0
ENDBLK
  5
1D
330
1B
100
AcDbEntity
 67
     1
  8
0
100
AcDbBlockEnd
  0
ENDSEC
  0
SECTION
  2
ENTITIES
  0
SPLINE
  5
100
100
AcDbEntity
  8
logo
 62
7
100
AcDbSpline
 70
8
 71
3
 72
8
 73
4
 74
0
 40
0
 40
0
 40
0
 40
0
 40
1
 40
1
 40
1
 40
1
 10
133.926236
 20
58.591216
 30
0.0
 10
133.453446
 20
57.778424
 30
0.0
 10
133.078872
 20
56.860005
 30
0.0
 10
132.965986
 20
55.923262
 30
0.0
  0
SPLINE
  5
101
100
AcDbEntity
  8
logo
 62
7
100
AcDbSpline
 70
8
 71
3
 72
8
 73
4
 74
0
 40
0
 40
0
 40
0
 40
0
 40
1
 40
1
 40
1
 40
1
 10
132.965986
 20
55.923262
 30
0.0
 10
132.822518
 20
54.722926
 30
0.0
 10
132.196180
 20
53.600203
 30
0.0
 10
131.838025
 20
52.436872
 30
0.0
  0
SPLINE
  5
102
100
AcDbEntity
  8
logo
 62
7
100
AcDbSpline
 70
8
 71
3
 72
8
 73
4
 74
0
 40
0
 40
0
 40
0
 40
0
 40
1
 40
1
 40
1
 40
1
 10
131.838025
 20
52.436872
 30
0.0
 10
130.687431
 20
49.299512
 30
0.0
 10
129.604841
 20
46.129273
 30
0.0
 10
128.283973
 20
43.068672
 30
0.0
  0
SPLINE
  5
103
100
AcDbEntity
  8
logo
 62
7
100
AcDbSpline
 70
8
 71
3
 72
8
 73
4
 74
0
 40
0
 40
0
 40
0
 40
0
 40
1
 40
1
 40
1
 40
1
 10
128.283973
 20
43.068672
 30
0.0
 10
128.058858
 20
42.500601
 30
0.0
 10
127.865169
 20
41.923905
 30
0.0
 10
127.664659
 20
41.349258
 30
0.0
  0
SPLINE
  5
104
100
AcDbEntity
  8
logo
 62
7
100
AcDbSpline
 70
8
 71
3
 72
8
 73
4
 74
0
 40
0
 40
0
 40
0
 40
0
 40
1
 40
1
 40
1
 40
1
 10
127.664659
 20
41.349258
 30
0.0
 10
127.682552
 20
43.227885
 30
0.0
 10
127.421270
 20
45.174171
 30
0.0
 10
127.662119
 20
47.012346
 30
0.0
  0
SPLINE
  5
105
100
AcDbEntity
  8
logo
 62
7
100
AcDbSpline
 70
8
 71
3
 72
8
 73
4
 74
0
 40
0
 40
0
 40
0
 40
0
 40
1
 40
1
 40
1
 40
1
 10
127.662119
 20
47.012346
 30
0.0
 10
127.863335
 20
47.755717
 30
0.0
 10
127.918515
 20
48.613845
 30
0.0
 10
127.702014
 20
49.350464
 30
0.0
  0
SPLINE
  5
106
100
AcDbEntity
  8
logo
 62
7
100
AcDbSpline
 70
8
 71
3
 72
8
 73
4
 74
0
 40
0
 40
0
 40
0
 40
0
 40
1
 40
1
 40
1
 40
1
 10
127.702014
 20
49.350464
 30
0.0
 10
127.262763
 20
49.725919
 30
0.0
 10
126.797793
 20
49.006701
 30
0.0
 10
126.526307
 20
48.701427
 30
0.0
  0
SPLINE
  5
107
100
AcDbEntity
  8
logo
 62
7
100
AcDbSpline
 70
8
 71
3
 72
8
 73
4
 74
0
 40
0
 40
0
 40
0
 40
0
 40
1
 40
1
 40
1
 40
1
 10
126.526307
 20
48.701427
 30
0.0
 10
126.232039
 20
48.018550
 30
0.0
 10
126.297504
 20
47.164281
 30
0.0
 10
126.512986
 20
46.469712
 30
0.0
  0
SPLINE
  5
108
100
AcDbEntity
  8
logo
 62
7
100
AcDbSpline
 70
8
 71
3
 72
8
 73
4
 74
0
 40
0
 40
0
 40
0
 40
0
 40
1
 40
1
 40
1
 40
1
 10
126.512986
 20
46.469712
 30
0.0
 10
126.865151
 20
45.678144
 30
0.0
 10
126.633275
 20
44.717005
 30
0.0
 10
126.732826
 20
43.864284
 30
0.0
  0
SPLINE
  5
109
100
AcDbEntity
  8
logo
 62
7
100
AcDbSpline
 70
8
 71
3
 72
8
 73
4
 74
0
 40
0
 40
0
 40
0
 40
0
 40
1
 40
1
 40
1
 40
1
 10
126.732826
 20
43.864284
 30
0.0
 10
126.785147
 20
41.017729
 30
0.0
 10
126.874036
 20
38.158064
 30
0.0
 10
126.637720
 20
35.326441
 30
0.0
  0
SPLINE
  5
10a
100
AcDbEntity
  8
logo
 62
7
100
AcDbSpline
 70
8
 71
3
 72
8
 73
4
 74
0
 40
0
 40
0
 40
0
 40
0
 40
1
 40
1
 40
1
 40
1
 10
126.637720
 20
35.326441
 30
0.0
 10
126.608668
 20
34.615541
 30
0.0
 10
126.691692
 20
33.895642
 30
0.0
 10
126.755037
 20
33.183144
 30
0.0
  0
SPLINE
  5
10b
100
AcDbEntity
  8
logo
 62
7
100
AcDbSpline
 70
8
 71
3
 72
8
 73
4
 74
0
 40
0
 40
0
 40
0
 40
0
 40
1
 40
1
 40
1
 40
1
 10
126.755037
 20
33.183144
 30
0.0
 10
125.829608
 20
34.385713
 30
0.0
 10
124.632458
 20
35.400951
 30
0.0
 10
123.813102
 20
36.667708
 30
0.0
  0
SPLINE
  5
10c
100
AcDbEntity
  8
logo
 62
7
100
AcDbSpline
 70
8
 71
3
 72
8
 73
4
 74
0
 40
0
 40
0
 40
0
 40
0
 40
1
 40
1
 40
1
 40
1
 10
123.813102
 20
36.667708
 30
0.0
 10
123.919446
 20
37.473695
 30
0.0
 10
123.036753
 20
37.919067
 30
0.0
 10
122.602811
 20
38.457869
 30
0.0
  0
SPLINE
  5
10d
100
AcDbEntity
  8
logo
 62
7
100
AcDbSpline
 70
8
 71
3
 72
8
 73
4
 74
0
 40
0
 40
0
 40
0
 40
0
 40
1
 40
1
 40
1
 40
1
 10
122.602811
 20
38.457869
 30
0.0
 10
122.255907
 20
37.789293
 30
0.0
 10
121.254915
 20
36.837668
 30
0.0
 10
122.081457
 20
36.133049
 30
0.0
  0
SPLINE
  5
10e
100
AcDbEntity
  8
logo
 62
7
100
AcDbSpline
 70
8
 71
3
 72
8
 73
4
 74
0
 40
0
 40
0
 40
0
 40
0
 40
1
 40
1
 40
1
 40
1
 10
122.081457
 20
36.133049
 30
0.0
 10
122.324275
 20
35.840379
 30
0.0
 10
122.758062
 20
35.267550
 30
0.0
 10
123.153424
 20
35.672875
 30
0.0
  0
SPLINE
  5
10f
100
AcDbEntity
  8
logo
 62
7
100
AcDbSpline
 70
8
 71
3
 72
8
 73
4
 74
0
 40
0
 40
0
 40
0
 40
0
 40
1
 40
1
 40
1
 40
1
 10
123.153424
 20
35.672875
 30
0.0
 10
124.577063
 20
33.933102
 30
0.0
 10
126.224964
 20
32.351342
 30
0.0
 10
127.497168
 20
30.504545
 30
0.0
  0
SPLINE
  5
110
100
AcDbEntity
  8
logo
 62
7
100
AcDbSpline
 70
8
 71
3
 72
8
 73
4
 74
0
 40
0
 40
0
 40
0
 40
0
 40
1
 40
1
 40
1
 40
1
 10
127.497168
 20
30.504545
 30
0.0
 10
127.883048
 20
29.459394
 30
0.0
 10
128.647297
 20
28.602963
 30
0.0
 10
129.516090
 20
27.916392
 30
0.0
  0
SPLINE
  5
111
100
AcDbEntity
  8
logo
 62
7
100
AcDbSpline
 70
8
 71
3
 72
8
 73
4
 74
0
 40
0
 40
0
 40
0
 40
0
 40
1
 40
1
 40
1
 40
1
 10
129.516090
 20
27.916392
 30
0.0
 10
127.575835
 20
27.653000
 30
0.0
 10
125.628154
 20
27.196150
 30
0.0
 10
123.693403
 20
27.030624
 30
0.0
  0
SPLINE
  5
112
100
AcDbEntity
  8
logo
 62
7
100
AcDbSpline
 70
8
 71
3
 72
8
 73
4
 74
0
 40
0
 40
0
 40
0
 40
0
 40
1
 40
1
 40
1
 40
1
 10
123.693403
 20
27.030624
 30
0.0
 10
123.554448
 20
27.700772
 30
0.0
 10
122.685720
 20
27.283864
 30
0.0
 10
122.245521
 20
27.256331
 30
0.0
  0
SPLINE
  5
113
100
AcDbEntity
  8
logo
 62
7
100
AcDbSpline
 70
8
 71
3
 72
8
 73
4
 74
0
 40
0
 40
0
 40
0
 40
0
 40
1
 40
1
 40
1
 40
1
 10
122.245521
 20
27.256331
 30
0.0
 10
121.817875
 20
27.213295
 30
0.0
 10
121.313651
 20
27.086346
 30
0.0
 10
121.270166
 20
26.575772
 30
0.0
  0
SPLINE
  5
114
100
AcDbEntity
  8
logo
 62
7
100
AcDbSpline
 70
8
 71
3
 72
8
 73
4
 74
0
 40
0
 40
0
 40
0
 40
0
 40
1
 40
1
 40
1
 40
1
 10
121.270166
 20
26.575772
 30
0.0
 10
121.219657
 20
26.144042
 30
0.0
 10
120.719980
 20
25.436793
 30
0.0
 10
121.235586
 20
25.142043
 30
0.0
  0
SPLINE
  5
115
100
AcDbEntity
  8
logo
 62
7
100
AcDbSpline
 70
8
 71
3
 72
8
 73
4
 74
0
 40
0
 40
0
 40
0
 40
0
 40
1
 40
1
 40
1
 40
1
 10
121.235586
 20
25.142043
 30
0.0
 10
121.895819
 20
25.043954
 30
0.0
 10
122.691593
 20
25.061424
 30
0.0
 10
123.249185
 20
25.469215
 30
0.0
  0
SPLINE
  5
116
100
AcDbEntity
  8
logo
 62
7
100
AcDbSpline
 70
8
 71
3
 72
8
 73
4
 74
0
 40
0
 40
0
 40
0
 40
0
 40
1
 40
1
 40
1
 40
1
 10
123.249185
 20
25.469215
 30
0.0
 10
123.396906
 20
26.045504
 30
0.0
 10
124.152570
 20
25.873577
 30
0.0
 10
124.595131
 20
26.033135
 30
0.0
  0
SPLINE
  5
117
100
AcDbEntity
  8
logo
 62
7
100
AcDbSpline
 70
8
 71
3
 72
8
 73
4
 74
0
 40
0
 40
0
 40
0
 40
0
 40
1
 40
1
 40
1
 40
1
 10
124.595131
 20
26.033135
 30
0.0
 10
126.881018
 20
26.317567
 30
0.0
 10
129.168677
 20
26.811969
 30
0.0
 10
131.471165
 20
26.998704
 30
0.0
  0
SPLINE
  5
118
100
AcDbEntity
  8
logo
 62
7
100
AcDbSpline
 70
8
 71
3
 72
8
 73
4
 74
0
 40
0
 40
0
 40
0
 40
0
 40
1
 40
1
 40
1
 40
1
 10
131.471165
 20
26.998704
 30
0.0
 10
133.459542
 20
26.794508
 30
0.0
 10
135.529619
 20
27.060277
 30
0.0
 10
137.294643
 20
28.061615
 30
0.0
  0
SPLINE
  5
119
100
AcDbEntity
  8
logo
 62
7
100
AcDbSpline
 70
8
 71
3
 72
8
 73
4
 74
0
 40
0
 40
0
 40
0
 40
0
 40
1
 40
1
 40
1
 40
1
 10
137.294643
 20
28.061615
 30
0.0
 10
139.424167
 20
29.098136
 30
0.0
 10
141.304941
 20
30.748647
 30
0.0
 10
142.927674
 20
32.353230
 30
0.0
  0
SPLINE
  5
11a
100
AcDbEntity
  8
logo
 62
7
100
AcDbSpline
 70
8
 71
3
 72
8
 73
4
 74
0
 40
0
 40
0
 40
0
 40
0
 40
1
 40
1
 40
1
 40
1
 10
142.927674
 20
32.353230
 30
0.0
 10
141.123137
 20
28.822721
 30
0.0
 10
139.494627
 20
25.185187
 30
0.0
 10
137.634322
 20
21.681415
 30
0.0
  0
SPLINE
  5
11b
100
AcDbEntity
  8
logo
 62
7
100
AcDbSpline
 70
8
 71
3
 72
8
 73
4
 74
0
 40
0
 40
0
 40
0
 40
0
 40
1
 40
1
 40
1
 40
1
 10
137.634322
 20
21.681415
 30
0.0
 10
136.941168
 20
21.503180
 30
0.0
 10
136.749471
 20
20.582893
 30
0.0
 10
136.392121
 20
20.034891
 30
0.0
  0
SPLINE
  5
11c
100
AcDbEntity
  8
logo
 62
7
100
AcDbSpline
 70
8
 71
3
 72
8
 73
4
 74
0
 40
0
 40
0
 40
0
 40
0
 40
1
 40
1
 40
1
 40
1
 10
136.392121
 20
20.034891
 30
0.0
 10
136.055718
 20
19.143816
 30
0.0
 10
135.311049
 20
18.314289
 30
0.0
 10
135.346745
 20
17.329698
 30
0.0
  0
SPLINE
  5
11d
100
AcDbEntity
  8
logo
 62
7
100
AcDbSpline
 70
8
 71
3
 72
8
 73
4
 74
0
 40
0
 40
0
 40
0
 40
0
 40
1
 40
1
 40
1
 40
1
 10
135.346745
 20
17.329698
 30
0.0
 10
135.534936
 20
16.890464
 30
0.0
 10
136.045710
 20
16.453903
 30
0.0
 10
136.535753
 20
16.497125
 30
0.0
  0
SPLINE
  5
11e
100
AcDbEntity
  8
logo
 62
7
100
AcDbSpline
 70
8
 71
3
 72
8
 73
4
 74
0
 40
0
 40
0
 40
0
 40
0
 40
1
 40
1
 40
1
 40
1
 10
136.535753
 20
16.497125
 30
0.0
 10
137.270831
 20
17.007405
 30
0.0
 10
137.419105
 20
18.042803
 30
0.0
 10
137.883669
 20
18.768006
 30
0.0
  0
SPLINE
  5
11f
100
AcDbEntity
  8
logo
 62
7
100
AcDbSpline
 70
8
 71
3
 72
8
 73
4
 74
0
 40
0
 40
0
 40
0
 40
0
 40
1
 40
1
 40
1
 40
1
 10
137.883669
 20
18.768006
 30
0.0
 10
138.100119
 20
19.447262
 30
0.0
 10
138.755083
 20
20.103945
 30
0.0
 10
138.629159
 20
20.846184
 30
0.0
  0
SPLINE
  5
120
100
AcDbEntity
  8
logo
 62
7
100
AcDbSpline
 70
8
 71
3
 72
8
 73
4
 74
0
 40
0
 40
0
 40
0
 40
0
 40
1
 40
1
 40
1
 40
1
 10
138.629159
 20
20.846184
 30
0.0
 10
138.391615
 20
21.284130
 30
0.0
 10
138.951995
 20
21.777709
 30
0.0
 10
139.048157
 20
22.212094
 30
0.0
  0
SPLINE
  5
121
100
AcDbEntity
  8
logo
 62
7
100
AcDbSpline
 70
8
 71
3
 72
8
 73
4
 74
0
 40
0
 40
0
 40
0
 40
0
 40
1
 40
1
 40
1
 40
1
 10
139.048157
 20
22.212094
 30
0.0
 10
141.317246
 20
26.740677
 30
0.0
 10
143.465237
 20
31.369785
 30
0.0
 10
145.789805
 20
35.864394
 30
0.0
  0
SPLINE
  5
122
100
AcDbEntity
  8
logo
 62
7
100
AcDbSpline
 70
8
 71
3
 72
8
 73
4
 74
0
 40
0
 40
0
 40
0
 40
0
 40
1
 40
1
 40
1
 40
1
 10
145.789805
 20
35.864394
 30
0.0
 10
147.023404
 20
37.856778
 30
0.0
 10
148.240090
 20
39.899590
 30
0.0
 10
149.069552
 20
42.096718
 30
0.0
  0
SPLINE
  5
123
100
AcDbEntity
  8
logo
 62
7
100
AcDbSpline
 70
8
 71
3
 72
8
 73
4
 74
0
 40
0
 40
0
 40
0
 40
0
 40
1
 40
1
 40
1
 40
1
 10
149.069552
 20
42.096718
 30
0.0
 10
148.947547
 20
38.597236
 30
0.0
 10
148.784860
 20
35.073508
 30
0.0
 10
148.643958
 20
31.579177
 30
0.0
  0
SPLINE
  5
124
100
AcDbEntity
  8
logo
 62
7
100
AcDbSpline
 70
8
 71
3
 72
8
 73
4
 74
0
 40
0
 40
0
 40
0
 40
0
 40
1
 40
1
 40
1
 40
1
 10
148.643958
 20
31.579177
 30
0.0
 10
148.574286
 20
31.201244
 30
0.0
 10
148.077397
 20
31.071318
 30
0.0
 10
148.117283
 20
30.616268
 30
0.0
  0
SPLINE
  5
125
100
AcDbEntity
  8
logo
 62
7
100
AcDbSpline
 70
8
 71
3
 72
8
 73
4
 74
0
 40
0
 40
0
 40
0
 40
0
 40
1
 40
1
 40
1
 40
1
 10
148.117283
 20
30.616268
 30
0.0
 10
148.014196
 20
29.331626
 30
0.0
 10
147.874361
 20
28.011600
 30
0.0
 10
148.042805
 20
26.738024
 30
0.0
  0
SPLINE
  5
126
100
AcDbEntity
  8
logo
 62
7
100
AcDbSpline
 70
8
 71
3
 72
8
 73
4
 74
0
 40
0
 40
0
 40
0
 40
0
 40
1
 40
1
 40
1
 40
1
 10
148.042805
 20
26.738024
 30
0.0
 10
148.464374
 20
26.361266
 30
0.0
 10
149.135826
 20
26.770612
 30
0.0
 10
149.609528
 20
26.894968
 30
0.0
  0
SPLINE
  5
127
100
AcDbEntity
  8
logo
 62
7
100
AcDbSpline
 70
8
 71
3
 72
8
 73
4
 74
0
 40
0
 40
0
 40
0
 40
0
 40
1
 40
1
 40
1
 40
1
 10
149.609528
 20
26.894968
 30
0.0
 10
150.447177
 20
27.131261
 30
0.0
 10
150.103374
 20
28.221768
 30
0.0
 10
150.235779
 20
28.848569
 30
0.0
  0
SPLINE
  5
128
100
AcDbEntity
  8
logo
 62
7
100
AcDbSpline
 70
8
 71
3
 72
8
 73
4
 74
0
 40
0
 40
0
 40
0
 40
0
 40
1
 40
1
 40
1
 40
1
 10
150.235779
 20
28.848569
 30
0.0
 10
150.175183
 20
29.732743
 30
0.0
 10
150.486533
 20
30.710940
 30
0.0
 10
150.160143
 20
31.547257
 30
0.0
  0
SPLINE
  5
129
100
AcDbEntity
  8
logo
 62
7
100
AcDbSpline
 70
8
 71
3
 72
8
 73
4
 74
0
 40
0
 40
0
 40
0
 40
0
 40
1
 40
1
 40
1
 40
1
 10
150.160143
 20
31.547257
 30
0.0
 10
150.019631
 20
31.755069
 30
0.0
 10
149.630249
 20
31.669471
 30
0.0
 10
149.763802
 20
32.028714
 30
0.0
  0
SPLINE
  5
12a
100
AcDbEntity
  8
logo
 62
7
100
AcDbSpline
 70
8
 71
3
 72
8
 73
4
 74
0
 40
0
 40
0
 40
0
 40
0
 40
1
 40
1
 40
1
 40
1
 10
149.763802
 20
32.028714
 30
0.0
 10
149.968441
 20
36.591892
 30
0.0
 10
150.058064
 20
41.200019
 30
0.0
 10
150.290485
 20
45.770137
 30
0.0
  0
SPLINE
  5
12b
100
AcDbEntity
  8
logo
 62
7
100
AcDbSpline
 70
8
 71
3
 72
8
 73
4
 74
0
 40
0
 40
0
 40
0
 40
0
 40
1
 40
1
 40
1
 40
1
 10
150.290485
 20
45.770137
 30
0.0
 10
150.661889
 20
47.776438
 30
0.0
 10
150.919442
 20
49.815507
 30
0.0
 10
150.734697
 20
51.848179
 30
0.0
  0
SPLINE
  5
12c
100
AcDbEntity
  8
logo
 62
7
100
AcDbSpline
 70
8
 71
3
 72
8
 73
4
 74
0
 40
0
 40
0
 40
0
 40
0
 40
1
 40
1
 40
1
 40
1
 10
150.734697
 20
51.848179
 30
0.0
 10
152.369678
 20
49.969062
 30
0.0
 10
153.963384
 20
48.029089
 30
0.0
 10
155.583828
 20
46.153177
 30
0.0
  0
SPLINE
  5
12d
100
AcDbEntity
  8
logo
 62
7
100
AcDbSpline
 70
8
 71
3
 72
8
 73
4
 74
0
 40
0
 40
0
 40
0
 40
0
 40
1
 40
1
 40
1
 40
1
 10
155.583828
 20
46.153177
 30
0.0
 10
154.975154
 20
45.608703
 30
0.0
 10
155.719670
 20
44.892341
 30
0.0
 10
156.070605
 20
44.453452
 30
0.0
  0
SPLINE
  5
12e
100
AcDbEntity
  8
logo
 62
7
100
AcDbSpline
 70
8
 71
3
 72
8
 73
4
 74
0
 40
0
 40
0
 40
0
 40
0
 40
1
 40
1
 40
1
 40
1
 10
156.070605
 20
44.453452
 30
0.0
 10
156.535634
 20
43.916758
 30
0.0
 10
157.003917
 20
43.382842
 30
0.0
 10
157.469747
 20
42.846828
 30
0.0
  0
SPLINE
  5
12f
100
AcDbEntity
  8
logo
 62
7
100
AcDbSpline
 70
8
 71
3
 72
8
 73
4
 74
0
 40
0
 40
0
 40
0
 40
0
 40
1
 40
1
 40
1
 40
1
 10
157.469747
 20
42.846828
 30
0.0
 10
158.033822
 20
43.553332
 30
0.0
 10
158.735852
 20
44.165833
 30
0.0
 10
159.209373
 20
44.937567
 30
0.0
  0
SPLINE
  5
130
100
AcDbEntity
  8
logo
 62
7
100
AcDbSpline
 70
8
 71
3
 72
8
 73
4
 74
0
 40
0
 40
0
 40
0
 40
0
 40
1
 40
1
 40
1
 40
1
 10
159.209373
 20
44.937567
 30
0.0
 10
158.580861
 20
45.879873
 30
0.0
 10
157.701813
 20
46.662783
 30
0.0
 10
156.980314
 20
47.544344
 30
0.0
  0
SPLINE
  5
131
100
AcDbEntity
  8
logo
 62
7
100
AcDbSpline
 70
8
 71
3
 72
8
 73
4
 74
0
 40
0
 40
0
 40
0
 40
0
 40
1
 40
1
 40
1
 40
1
 10
156.980314
 20
47.544344
 30
0.0
 10
156.746586
 20
47.274548
 30
0.0
 10
156.487718
 20
46.896991
 30
0.0
 10
156.251478
 20
47.379422
 30
0.0
  0
SPLINE
  5
132
100
AcDbEntity
  8
logo
 62
7
100
AcDbSpline
 70
8
 71
3
 72
8
 73
4
 74
0
 40
0
 40
0
 40
0
 40
0
 40
1
 40
1
 40
1
 40
1
 10
156.251478
 20
47.379422
 30
0.0
 10
154.284849
 20
49.655758
 30
0.0
 10
152.223267
 20
51.873300
 30
0.0
 10
150.367619
 20
54.231520
 30
0.0
  0
SPLINE
  5
133
100
AcDbEntity
  8
logo
 62
7
100
AcDbSpline
 70
8
 71
3
 72
8
 73
4
 74
0
 40
0
 40
0
 40
0
 40
0
 40
1
 40
1
 40
1
 40
1
 10
150.367619
 20
54.231520
 30
0.0
 10
149.820926
 20
55.149552
 30
0.0
 10
149.388796
 20
56.149807
 30
0.0
 10
148.545542
 20
56.856915
 30
0.0
  0
SPLINE
  5
134
100
AcDbEntity
  8
logo
 62
7
100
AcDbSpline
 70
8
 71
3
 72
8
 73
4
 74
0
 40
0
 40
0
 40
0
 40
0
 40
1
 40
1
 40
1
 40
1
 10
148.545542
 20
56.856915
 30
0.0
 10
148.155934
 20
57.215004
 30
0.0
 10
147.659920
 20
57.649722
 30
0.0
 10
148.569474
 20
57.545845
 30
0.0
  0
SPLINE
  5
135
100
AcDbEntity
  8
logo
 62
7
100
AcDbSpline
 70
8
 71
3
 72
8
 73
4
 74
0
 40
0
 40
0
 40
0
 40
0
 40
1
 40
1
 40
1
 40
1
 10
148.569474
 20
57.545845
 30
0.0
 10
150.825705
 20
57.747397
 30
0.0
 10
153.139402
 20
57.989772
 30
0.0
 10
155.360387
 20
58.154988
 30
0.0
  0
SPLINE
  5
136
100
AcDbEntity
  8
logo
 62
7
100
AcDbSpline
 70
8
 71
3
 72
8
 73
4
 74
0
 40
0
 40
0
 40
0
 40
0
 40
1
 40
1
 40
1
 40
1
 10
155.360387
 20
58.154988
 30
0.0
 10
155.338797
 20
57.480821
 30
0.0
 10
156.246308
 20
57.757063
 30
0.0
 10
156.640386
 20
57.762332
 30
0.0
  0
SPLINE
  5
137
100
AcDbEntity
  8
logo
 62
7
100
AcDbSpline
 70
8
 71
3
 72
8
 73
4
 74
0
 40
0
 40
0
 40
0
 40
0
 40
1
 40
1
 40
1
 40
1
 10
156.640386
 20
57.762332
 30
0.0
 10
157.320937
 20
57.929379
 30
0.0
 10
158.283029
 20
57.645622
 30
0.0
 10
158.789088
 20
58.237447
 30
0.0
  0
SPLINE
  5
138
100
AcDbEntity
  8
logo
 62
7
100
AcDbSpline
 70
8
 71
3
 72
8
 73
4
 74
0
 40
0
 40
0
 40
0
 40
0
 40
1
 40
1
 40
1
 40
1
 10
158.789088
 20
58.237447
 30
0.0
 10
159.002273
 20
58.795062
 30
0.0
 10
159.415709
 20
59.446981
 30
0.0
 10
159.227988
 20
60.048891
 30
0.0
  0
SPLINE
  5
139
100
AcDbEntity
  8
logo
 62
7
100
AcDbSpline
 70
8
 71
3
 72
8
 73
4
 74
0
 40
0
 40
0
 40
0
 40
0
 40
1
 40
1
 40
1
 40
1
 10
159.227988
 20
60.048891
 30
0.0
 10
158.652566
 20
60.345413
 30
0.0
 10
157.900401
 20
60.041553
 30
0.0
 10
157.264930
 20
60.032945
 30
0.0
  0
SPLINE
  5
13a
100
AcDbEntity
  8
logo
 62
7
100
AcDbSpline
 70
8
 71
3
 72
8
 73
4
 74
0
 40
0
 40
0
 40
0
 40
0
 40
1
 40
1
 40
1
 40
1
 10
157.264930
 20
60.032945
 30
0.0
 10
156.665738
 20
60.014177
 30
0.0
 10
156.096626
 20
59.799268
 30
0.0
 10
155.655642
 20
59.397209
 30
0.0
  0
SPLINE
  5
13b
100
AcDbEntity
  8
logo
 62
7
100
AcDbSpline
 70
8
 71
3
 72
8
 73
4
 74
0
 40
0
 40
0
 40
0
 40
0
 40
1
 40
1
 40
1
 40
1
 10
155.655642
 20
59.397209
 30
0.0
 10
154.063057
 20
59.036145
 30
0.0
 10
152.377453
 20
59.044944
 30
0.0
 10
150.745328
 20
58.822658
 30
0.0
  0
SPLINE
  5
13c
100
AcDbEntity
  8
logo
 62
7
100
AcDbSpline
 70
8
 71
3
 72
8
 73
4
 74
0
 40
0
 40
0
 40
0
 40
0
 40
1
 40
1
 40
1
 40
1
 10
150.745328
 20
58.822658
 30
0.0
 10
148.622478
 20
58.609682
 30
0.0
 10
146.542608
 20
58.285631
 30
0.0
 10
144.419910
 20
58.492819
 30
0.0
  0
SPLINE
  5
13d
100
AcDbEntity
  8
logo
 62
7
100
AcDbSpline
 70
8
 71
3
 72
8
 73
4
 74
0
 40
0
 40
0
 40
0
 40
0
 40
1
 40
1
 40
1
 40
1
 10
144.419910
 20
58.492819
 30
0.0
 10
143.892250
 20
58.479639
 30
0.0
 10
143.369149
 20
58.421118
 30
0.0
 10
142.853190
 20
58.319913
 30
0.0
  0
SPLINE
  5
13e
100
AcDbEntity
  8
logo
 62
7
100
AcDbSpline
 70
8
 71
3
 72
8
 73
4
 74
0
 40
0
 40
0
 40
0
 40
0
 40
1
 40
1
 40
1
 40
1
 10
142.853190
 20
58.319913
 30
0.0
 10
145.154879
 20
60.011248
 30
0.0
 10
147.457363
 20
61.726264
 30
0.0
 10
149.785078
 20
63.368549
 30
0.0
  0
SPLINE
  5
13f
100
AcDbEntity
  8
logo
 62
7
100
AcDbSpline
 70
8
 71
3
 72
8
 73
4
 74
0
 40
0
 40
0
 40
0
 40
0
 40
1
 40
1
 40
1
 40
1
 10
149.785078
 20
63.368549
 30
0.0
 10
150.433524
 20
63.269300
 30
0.0
 10
150.932289
 20
63.958154
 30
0.0
 10
151.471500
 20
64.225057
 30
0.0
  0
SPLINE
  5
140
100
AcDbEntity
  8
logo
 62
7
100
AcDbSpline
 70
8
 71
3
 72
8
 73
4
 74
0
 40
0
 40
0
 40
0
 40
0
 40
1
 40
1
 40
1
 40
1
 10
151.471500
 20
64.225057
 30
0.0
 10
151.872473
 20
64.681168
 30
0.0
 10
152.832441
 20
64.860204
 30
0.0
 10
152.882795
 20
65.489164
 30
0.0
  0
SPLINE
  5
141
100
AcDbEntity
  8
logo
 62
7
100
AcDbSpline
 70
8
 71
3
 72
8
 73
4
 74
0
 40
0
 40
0
 40
0
 40
0
 40
1
 40
1
 40
1
 40
1
 10
152.882795
 20
65.489164
 30
0.0
 10
152.831842
 20
65.874542
 30
0.0
 10
152.989161
 20
66.827437
 30
0.0
 10
152.357274
 20
66.744051
 30
0.0
  0
SPLINE
  5
142
100
AcDbEntity
  8
logo
 62
7
100
AcDbSpline
 70
8
 71
3
 72
8
 73
4
 74
0
 40
0
 40
0
 40
0
 40
0
 40
1
 40
1
 40
1
 40
1
 10
152.357274
 20
66.744051
 30
0.0
 10
151.357609
 20
66.150535
 30
0.0
 10
150.386305
 20
65.410503
 30
0.0
 10
149.606861
 20
64.536280
 30
0.0
  0
SPLINE
  5
143
100
AcDbEntity
  8
logo
 62
7
100
AcDbSpline
 70
8
 71
3
 72
8
 73
4
 74
0
 40
0
 40
0
 40
0
 40
0
 40
1
 40
1
 40
1
 40
1
 10
149.606861
 20
64.536280
 30
0.0
 10
149.165341
 20
63.795035
 30
0.0
 10
148.218203
 20
63.487063
 30
0.0
 10
147.604014
 20
62.896837
 30
0.0
  0
SPLINE
  5
144
100
AcDbEntity
  8
logo
 62
7
100
AcDbSpline
 70
8
 71
3
 72
8
 73
4
 74
0
 40
0
 40
0
 40
0
 40
0
 40
1
 40
1
 40
1
 40
1
 10
147.604014
 20
62.896837
 30
0.0
 10
144.514872
 20
60.685663
 30
0.0
 10
141.565703
 20
58.244974
 30
0.0
 10
138.304631
 20
56.308978
 30
0.0
  0
SPLINE
  5
145
100
AcDbEntity
  8
logo
 62
7
100
AcDbSpline
 70
8
 71
3
 72
8
 73
4
 74
0
 40
0
 40
0
 40
0
 40
0
 40
1
 40
1
 40
1
 40
1
 10
138.304631
 20
56.308978
 30
0.0
 10
135.608568
 20
54.457764
 30
0.0
 10
133.372572
 20
51.988339
 30
0.0
 10
131.524358
 20
49.305266
 30
0.0
  0
SPLINE
  5
146
100
AcDbEntity
  8
logo
 62
7
100
AcDbSpline
 70
8
 71
3
 72
8
 73
4
 74
0
 40
0
 40
0
 40
0
 40
0
 40
1
 40
1
 40
1
 40
1
 10
131.524358
 20
49.305266
 30
0.0
 10
132.357924
 20
51.524013
 30
0.0
 10
133.062946
 20
53.805147
 30
0.0
 10
134.011433
 20
55.973822
 30
0.0
  0
SPLINE
  5
147
100
AcDbEntity
  8
logo
 62
7
100
AcDbSpline
 70
8
 71
3
 72
8
 73
4
 74
0
 40
0
 40
0
 40
0
 40
0
 40
1
 40
1
 40
1
 40
1
 10
134.011433
 20
55.973822
 30
0.0
 10
134.587099
 20
56.723252
 30
0.0
 10
134.828610
 20
57.723267
 30
0.0
 10
135.083406
 20
58.625816
 30
0.0
  0
SPLINE
  5
148
100
AcDbEntity
  8
logo
 62
7
100
AcDbSpline
 70
8
 71
3
 72
8
 73
4
 74
0
 40
0
 40
0
 40
0
 40
0
 40
1
 40
1
 40
1
 40
1
 10
135.083406
 20
58.625816
 30
0.0
 10
135.118444
 20
59.324714
 30
0.0
 10
134.143773
 20
58.886765
 30
0.0
 10
133.926318
 20
58.591236
 30
0.0
  0
LINE
  5
149
100
AcDbEntity
  8
logo
 62
7
100
AcDbLine
 10
133.926318
 20
58.591236
 30
0.0
 11
133.926236
 21
58.591216
 31
0.0
  0
SPLINE
  5
14a
100
AcDbEntity
  8
logo
 62
7
100
AcDbSpline
 70
8
 71
3
 72
8
 73
4
 74
0
 40
0
 40
0
 40
0
 40
0
 40
1
 40
1
 40
1
 40
1
 10
136.814966
 20
53.750060
 30
0.0
 10
138.749030
 20
55.553065
 30
0.0
 10
141.261699
 20
57.012761
 30
0.0
 10
143.962312
 20
57.093654
 30
0.0
  0
SPLINE
  5
14b
100
AcDbEntity
  8
logo
 62
7
100
AcDbSpline
 70
8
 71
3
 72
8
 73
4
 74
0
 40
0
 40
0
 40
0
 40
0
 40
1
 40
1
 40
1
 40
1
 10
143.962312
 20
57.093654
 30
0.0
 10
145.746673
 20
57.123048
 30
0.0
 10
147.599691
 20
56.188336
 30
0.0
 10
148.356591
 20
54.529442
 30
0.0
  0
SPLINE
  5
14c
100
AcDbEntity
  8
logo
 62
7
100
AcDbSpline
 70
8
 71
3
 72
8
 73
4
 74
0
 40
0
 40
0
 40
0
 40
0
 40
1
 40
1
 40
1
 40
1
 10
148.356591
 20
54.529442
 30
0.0
 10
148.890592
 20
53.669943
 30
0.0
 10
149.115955
 20
52.637859
 30
0.0
 10
149.245024
 20
51.672628
 30
0.0
  0
SPLINE
  5
14d
100
AcDbEntity
  8
logo
 62
7
100
AcDbSpline
 70
8
 71
3
 72
8
 73
4
 74
0
 40
0
 40
0
 40
0
 40
0
 40
1
 40
1
 40
1
 40
1
 10
149.245024
 20
51.672628
 30
0.0
 10
149.463867
 20
50.431443
 30
0.0
 10
149.293831
 20
49.125415
 30
0.0
 10
149.230997
 20
47.858085
 30
0.0
  0
SPLINE
  5
14e
100
AcDbEntity
  8
logo
 62
7
100
AcDbSpline
 70
8
 71
3
 72
8
 73
4
 74
0
 40
0
 40
0
 40
0
 40
0
 40
1
 40
1
 40
1
 40
1
 10
149.230997
 20
47.858085
 30
0.0
 10
149.128805
 20
47.089681
 30
0.0
 10
149.118915
 20
46.317947
 30
0.0
 10
148.808776
 20
45.591930
 30
0.0
  0
SPLINE
  5
14f
100
AcDbEntity
  8
logo
 62
7
100
AcDbSpline
 70
8
 71
3
 72
8
 73
4
 74
0
 40
0
 40
0
 40
0
 40
0
 40
1
 40
1
 40
1
 40
1
 10
148.808776
 20
45.591930
 30
0.0
 10
147.898657
 20
41.786104
 30
0.0
 10
145.995997
 20
38.289557
 30
0.0
 10
143.602919
 20
35.216301
 30
0.0
  0
SPLINE
  5
150
100
AcDbEntity
  8
logo
 62
7
100
AcDbSpline
 70
8
 71
3
 72
8
 73
4
 74
0
 40
0
 40
0
 40
0
 40
0
 40
1
 40
1
 40
1
 40
1
 10
143.602919
 20
35.216301
 30
0.0
 10
141.705158
 20
33.051897
 30
0.0
 10
139.697398
 20
30.849959
 30
0.0
 10
137.067126
 20
29.598061
 30
0.0
  0
SPLINE
  5
151
100
AcDbEntity
  8
logo
 62
7
100
AcDbSpline
 70
8
 71
3
 72
8
 73
4
 74
0
 40
0
 40
0
 40
0
 40
0
 40
1
 40
1
 40
1
 40
1
 10
137.067126
 20
29.598061
 30
0.0
 10
134.973551
 20
28.495221
 30
0.0
 10
132.137906
 20
28.042994
 30
0.0
 10
130.103838
 20
29.520365
 30
0.0
  0
SPLINE
  5
152
100
AcDbEntity
  8
logo
 62
7
100
AcDbSpline
 70
8
 71
3
 72
8
 73
4
 74
0
 40
0
 40
0
 40
0
 40
0
 40
1
 40
1
 40
1
 40
1
 10
130.103838
 20
29.520365
 30
0.0
 10
128.087885
 20
31.217080
 30
0.0
 10
127.682354
 20
34.084350
 30
0.0
 10
127.800300
 20
36.579937
 30
0.0
  0
SPLINE
  5
153
100
AcDbEntity
  8
logo
 62
7
100
AcDbSpline
 70
8
 71
3
 72
8
 73
4
 74
0
 40
0
 40
0
 40
0
 40
0
 40
1
 40
1
 40
1
 40
1
 10
127.800300
 20
36.579937
 30
0.0
 10
128.126995
 20
41.213219
 30
0.0
 10
130.107422
 20
45.625357
 30
0.0
 10
132.742531
 20
49.395690
 30
0.0
  0
SPLINE
  5
154
100
AcDbEntity
  8
logo
 62
7
100
AcDbSpline
 70
8
 71
3
 72
8
 73
4
 74
0
 40
0
 40
0
 40
0
 40
0
 40
1
 40
1
 40
1
 40
1
 10
132.742531
 20
49.395690
 30
0.0
 10
131.391688
 20
47.095077
 30
0.0
 10
130.661060
 20
44.530772
 30
0.0
 10
129.694201
 20
42.064802
 30
0.0
  0
SPLINE
  5
155
100
AcDbEntity
  8
logo
 62
7
100
AcDbSpline
 70
8
 71
3
 72
8
 73
4
 74
0
 40
0
 40
0
 40
0
 40
0
 40
1
 40
1
 40
1
 40
1
 10
129.694201
 20
42.064802
 30
0.0
 10
128.590353
 20
39.591942
 30
0.0
 10
127.612092
 20
36.688866
 30
0.0
 10
128.587655
 20
34.026362
 30
0.0
  0
SPLINE
  5
156
100
AcDbEntity
  8
logo
 62
7
100
AcDbSpline
 70
8
 71
3
 72
8
 73
4
 74
0
 40
0
 40
0
 40
0
 40
0
 40
1
 40
1
 40
1
 40
1
 10
128.587655
 20
34.026362
 30
0.0
 10
129.007221
 20
32.920350
 30
0.0
 10
130.065393
 20
32.221108
 30
0.0
 10
131.189109
 20
31.967543
 30
0.0
  0
SPLINE
  5
157
100
AcDbEntity
  8
logo
 62
7
100
AcDbSpline
 70
8
 71
3
 72
8
 73
4
 74
0
 40
0
 40
0
 40
0
 40
0
 40
1
 40
1
 40
1
 40
1
 10
131.189109
 20
31.967543
 30
0.0
 10
132.311527
 20
31.488580
 30
0.0
 10
133.588238
 20
31.536095
 30
0.0
 10
134.676334
 20
32.087241
 30
0.0
  0
SPLINE
  5
158
100
AcDbEntity
  8
logo
 62
7
100
AcDbSpline
 70
8
 71
3
 72
8
 73
4
 74
0
 40
0
 40
0
 40
0
 40
0
 40
1
 40
1
 40
1
 40
1
 10
134.676334
 20
32.087241
 30
0.0
 10
137.521826
 20
33.474725
 30
0.0
 10
139.516104
 20
36.150180
 30
0.0
 10
140.786587
 20
38.980672
 30
0.0
  0
SPLINE
  5
159
100
AcDbEntity
  8
logo
 62
7
100
AcDbSpline
 70
8
 71
3
 72
8
 73
4
 74
0
 40
0
 40
0
 40
0
 40
0
 40
1
 40
1
 40
1
 40
1
 10
140.786587
 20
38.980672
 30
0.0
 10
142.169933
 20
41.949853
 30
0.0
 10
144.485273
 20
44.549280
 30
0.0
 10
144.986392
 20
47.866204
 30
0.0
  0
SPLINE
  5
15a
100
AcDbEntity
  8
logo
 62
7
100
AcDbSpline
 70
8
 71
3
 72
8
 73
4
 74
0
 40
0
 40
0
 40
0
 40
0
 40
1
 40
1
 40
1
 40
1
 10
144.986392
 20
47.866204
 30
0.0
 10
145.185988
 20
48.278387
 30
0.0
 10
144.746712
 20
48.626816
 30
0.0
 10
144.369276
 20
48.387562
 30
0.0
  0
SPLINE
  5
15b
100
AcDbEntity
  8
logo
 62
7
100
AcDbSpline
 70
8
 71
3
 72
8
 73
4
 74
0
 40
0
 40
0
 40
0
 40
0
 40
1
 40
1
 40
1
 40
1
 10
144.369276
 20
48.387562
 30
0.0
 10
143.568561
 20
47.994643
 30
0.0
 10
143.719513
 20
46.894578
 30
0.0
 10
143.395728
 20
46.190425
 30
0.0
  0
SPLINE
  5
15c
100
AcDbEntity
  8
logo
 62
7
100
AcDbSpline
 70
8
 71
3
 72
8
 73
4
 74
0
 40
0
 40
0
 40
0
 40
0
 40
1
 40
1
 40
1
 40
1
 10
143.395728
 20
46.190425
 30
0.0
 10
143.288441
 20
45.801949
 30
0.0
 10
143.057138
 20
45.191609
 30
0.0
 10
142.895653
 20
44.993436
 30
0.0
  0
SPLINE
  5
15d
100
AcDbEntity
  8
logo
 62
7
100
AcDbSpline
 70
8
 71
3
 72
8
 73
4
 74
0
 40
0
 40
0
 40
0
 40
0
 40
1
 40
1
 40
1
 40
1
 10
142.895653
 20
44.993436
 30
0.0
 10
143.061811
 20
46.356792
 30
0.0
 10
143.173379
 20
47.784916
 30
0.0
 10
142.469421
 20
49.005944
 30
0.0
  0
SPLINE
  5
15e
100
AcDbEntity
  8
logo
 62
7
100
AcDbSpline
 70
8
 71
3
 72
8
 73
4
 74
0
 40
0
 40
0
 40
0
 40
0
 40
1
 40
1
 40
1
 40
1
 10
142.469421
 20
49.005944
 30
0.0
 10
141.932163
 20
50.355119
 30
0.0
 10
140.392127
 20
50.881125
 30
0.0
 10
139.038022
 20
50.780146
 30
0.0
  0
SPLINE
  5
15f
100
AcDbEntity
  8
logo
 62
7
100
AcDbSpline
 70
8
 71
3
 72
8
 73
4
 74
0
 40
0
 40
0
 40
0
 40
0
 40
1
 40
1
 40
1
 40
1
 10
139.038022
 20
50.780146
 30
0.0
 10
137.100702
 20
50.910724
 30
0.0
 10
135.223337
 20
50.013808
 30
0.0
 10
133.940415
 20
48.575541
 30
0.0
  0
SPLINE
  5
160
100
AcDbEntity
  8
logo
 62
7
100
AcDbSpline
 70
8
 71
3
 72
8
 73
4
 74
0
 40
0
 40
0
 40
0
 40
0
 40
1
 40
1
 40
1
 40
1
 10
133.940415
 20
48.575541
 30
0.0
 10
133.380745
 20
48.038893
 30
0.0
 10
132.733232
 20
47.316912
 30
0.0
 10
132.306294
 20
46.820836
 30
0.0
  0
SPLINE
  5
161
100
AcDbEntity
  8
logo
 62
7
100
AcDbSpline
 70
8
 71
3
 72
8
 73
4
 74
0
 40
0
 40
0
 40
0
 40
0
 40
1
 40
1
 40
1
 40
1
 10
132.306294
 20
46.820836
 30
0.0
 10
133.326440
 20
49.257610
 30
0.0
 10
135.003165
 20
51.354087
 30
0.0
 10
136.562256
 20
53.465453
 30
0.0
  0
SPLINE
  5
162
100
AcDbEntity
  8
logo
 62
7
100
AcDbSpline
 70
8
 71
3
 72
8
 73
4
 74
0
 40
0
 40
0
 40
0
 40
0
 40
1
 40
1
 40
1
 40
1
 10
136.562256
 20
53.465453
 30
0.0
 10
136.642658
 20
53.563788
 30
0.0
 10
136.727652
 20
53.657853
 30
0.0
 10
136.814952
 20
53.750066
 30
0.0
  0
LINE
  5
163
100
AcDbEntity
  8
logo
 62
7
100
AcDbLine
 10
136.814952
 20
53.750066
 30
0.0
 11
136.814966
 21
53.750060
 31
0.0
  0
SPLINE
  5
164
100
AcDbEntity
  8
logo
 62
7
100
AcDbSpline
 70
8
 71
3
 72
8
 73
4
 74
0
 40
0
 40
0
 40
0
 40
0
 40
1
 40
1
 40
1
 40
1
 10
133.662894
 20
46.778271
 30
0.0
 10
134.695113
 20
47.824308
 30
0.0
 10
135.697829
 20
49.000162
 30
0.0
 10
137.203324
 20
49.291946
 30
0.0
  0
SPLINE
  5
165
100
AcDbEntity
  8
logo
 62
7
100
AcDbSpline
 70
8
 71
3
 72
8
 73
4
 74
0
 40
0
 40
0
 40
0
 40
0
 40
1
 40
1
 40
1
 40
1
 10
137.203324
 20
49.291946
 30
0.0
 10
138.213313
 20
49.441032
 30
0.0
 10
139.334130
 20
49.397824
 30
0.0
 10
140.307509
 20
49.033930
 30
0.0
  0
SPLINE
  5
166
100
AcDbEntity
  8
logo
 62
7
100
AcDbSpline
 70
8
 71
3
 72
8
 73
4
 74
0
 40
0
 40
0
 40
0
 40
0
 40
1
 40
1
 40
1
 40
1
 10
140.307509
 20
49.033930
 30
0.0
 10
141.361245
 20
48.453297
 30
0.0
 10
141.756844
 20
47.150045
 30
0.0
 10
141.714638
 20
46.009537
 30
0.0
  0
SPLINE
  5
167
100
AcDbEntity
  8
logo
 62
7
100
AcDbSpline
 70
8
 71
3
 72
8
 73
4
 74
0
 40
0
 40
0
 40
0
 40
0
 40
1
 40
1
 40
1
 40
1
 10
141.714638
 20
46.009537
 30
0.0
 10
141.691270
 20
43.274632
 30
0.0
 10
140.269914
 20
40.852522
 30
0.0
 10
139.176074
 20
38.422179
 30
0.0
  0
SPLINE
  5
168
100
AcDbEntity
  8
logo
 62
7
100
AcDbSpline
 70
8
 71
3
 72
8
 73
4
 74
0
 40
0
 40
0
 40
0
 40
0
 40
1
 40
1
 40
1
 40
1
 10
139.176074
 20
38.422179
 30
0.0
 10
138.369345
 20
36.730542
 30
0.0
 10
137.001752
 20
35.374272
 30
0.0
 10
135.609996
 20
34.138071
 30
0.0
  0
SPLINE
  5
169
100
AcDbEntity
  8
logo
 62
7
100
AcDbSpline
 70
8
 71
3
 72
8
 73
4
 74
0
 40
0
 40
0
 40
0
 40
0
 40
1
 40
1
 40
1
 40
1
 10
135.609996
 20
34.138071
 30
0.0
 10
134.504574
 20
33.425754
 30
0.0
 10
133.093079
 20
32.815747
 30
0.0
 10
131.814121
 20
33.473077
 30
0.0
  0
SPLINE
  5
16a
100
AcDbEntity
  8
logo
 62
7
100
AcDbSpline
 70
8
 71
3
 72
8
 73
4
 74
0
 40
0
 40
0
 40
0
 40
0
 40
1
 40
1
 40
1
 40
1
 10
131.814121
 20
33.473077
 30
0.0
 10
130.846235
 20
33.728959
 30
0.0
 10
129.804239
 20
34.237642
 30
0.0
 10
129.561215
 20
35.313781
 30
0.0
  0
SPLINE
  5
16b
100
AcDbEntity
  8
logo
 62
7
100
AcDbSpline
 70
8
 71
3
 72
8
 73
4
 74
0
 40
0
 40
0
 40
0
 40
0
 40
1
 40
1
 40
1
 40
1
 10
129.561215
 20
35.313781
 30
0.0
 10
129.387129
 20
35.869818
 30
0.0
 10
129.306278
 20
36.489818
 30
0.0
 10
129.308521
 20
37.050740
 30
0.0
  0
SPLINE
  5
16c
100
AcDbEntity
  8
logo
 62
7
100
AcDbSpline
 70
8
 71
3
 72
8
 73
4
 74
0
 40
0
 40
0
 40
0
 40
0
 40
1
 40
1
 40
1
 40
1
 10
129.308521
 20
37.050740
 30
0.0
 10
129.504381
 20
39.578771
 30
0.0
 10
130.699485
 20
41.926135
 30
0.0
 10
131.800913
 20
44.160855
 30
0.0
  0
SPLINE
  5
16d
100
AcDbEntity
  8
logo
 62
7
100
AcDbSpline
 70
8
 71
3
 72
8
 73
4
 74
0
 40
0
 40
0
 40
0
 40
0
 40
1
 40
1
 40
1
 40
1
 10
131.800913
 20
44.160855
 30
0.0
 10
132.282190
 20
45.129777
 30
0.0
 10
132.857875
 20
46.037644
 30
0.0
 10
133.662894
 20
46.778271
 30
0.0
  0
LINE
  5
16e
100
AcDbEntity
  8
logo
 62
7
100
AcDbLine
 10
133.662894
 20
46.778271
 30
0.0
 11
133.662894
 21
46.778271
 31
0.0
  0
SPLINE
  5
16f
100
AcDbEntity
  8
logo
 62
7
100
AcDbSpline
 70
8
 71
3
 72
8
 73
4
 74
0
 40
0
 40
0
 40
0
 40
0
 40
1
 40
1
 40
1
 40
1
 10
53.167661
 20
16.259560
 30
0.0
 10
53.091192
 20
15.932132
 30
0.0
 10
52.994141
 20
15.653231
 30
0.0
 10
52.876506
 20
15.422857
 30
0.0
  0
SPLINE
  5
170
100
AcDbEntity
  8
logo
 62
7
100
AcDbSpline
 70
8
 71
3
 72
8
 73
4
 74
0
 40
0
 40
0
 40
0
 40
0
 40
1
 40
1
 40
1
 40
1
 10
52.876506
 20
15.422857
 30
0.0
 10
52.758864
 20
15.192480
 30
0.0
 10
52.602994
 20
14.997887
 30
0.0
 10
52.408894
 20
14.839075
 30
0.0
  0
SPLINE
  5
171
100
AcDbEntity
  8
logo
 62
7
100
AcDbSpline
 70
8
 71
3
 72
8
 73
4
 74
0
 40
0
 40
0
 40
0
 40
0
 40
1
 40
1
 40
1
 40
1
 10
52.408894
 20
14.839075
 30
0.0
 10
52.228511
 20
14.693988
 30
0.0
 10
52.032936
 20
14.586152
 30
0.0
 10
51.822171
 20
14.515570
 30
0.0
  0
SPLINE
  5
172
100
AcDbEntity
  8
logo
 62
7
100
AcDbSpline
 70
8
 71
3
 72
8
 73
4
 74
0
 40
0
 40
0
 40
0
 40
0
 40
1
 40
1
 40
1
 40
1
 10
51.822171
 20
14.515570
 30
0.0
 10
51.611400
 20
14.444986
 30
0.0
 10
51.363868
 20
14.409695
 30
0.0
 10
51.079577
 20
14.409695
 30
0.0
  0
SPLINE
  5
173
100
AcDbEntity
  8
logo
 62
7
100
AcDbSpline
 70
8
 71
3
 72
8
 73
4
 74
0
 40
0
 40
0
 40
0
 40
0
 40
1
 40
1
 40
1
 40
1
 10
51.079577
 20
14.409695
 30
0.0
 10
50.618825
 20
14.409695
 30
0.0
 10
50.275713
 20
14.513609
 30
0.0
 10
50.050241
 20
14.721437
 30
0.0
  0
SPLINE
  5
174
100
AcDbEntity
  8
logo
 62
7
100
AcDbSpline
 70
8
 71
3
 72
8
 73
4
 74
0
 40
0
 40
0
 40
0
 40
0
 40
1
 40
1
 40
1
 40
1
 10
50.050241
 20
14.721437
 30
0.0
 10
49.824766
 20
14.929265
 30
0.0
 10
49.712029
 20
15.216498
 30
0.0
 10
49.712031
 20
15.583139
 30
0.0
  0
SPLINE
  5
175
100
AcDbEntity
  8
logo
 62
7
100
AcDbSpline
 70
8
 71
3
 72
8
 73
4
 74
0
 40
0
 40
0
 40
0
 40
0
 40
1
 40
1
 40
1
 40
1
 10
49.712031
 20
15.583139
 30
0.0
 10
49.712029
 20
15.706659
 30
0.0
 10
49.720361
 20
15.821355
 30
0.0
 10
49.737027
 20
15.927232
 30
0.0
  0
SPLINE
  5
176
100
AcDbEntity
  8
logo
 62
7
100
AcDbSpline
 70
8
 71
3
 72
8
 73
4
 74
0
 40
0
 40
0
 40
0
 40
0
 40
1
 40
1
 40
1
 40
1
 10
49.737027
 20
15.927232
 30
0.0
 10
49.753692
 20
16.033104
 30
0.0
 10
49.774769
 20
16.143881
 30
0.0
 10
49.800259
 20
16.259560
 30
0.0
  0
LINE
  5
177
100
AcDbEntity
  8
logo
 62
7
100
AcDbLine
 10
49.800259
 20
16.259560
 30
0.0
 11
50.406097
 21
18.879958
 31
0.0
  0
LINE
  5
178
100
AcDbEntity
  8
logo
 62
7
100
AcDbLine
 10
50.406097
 20
18.879958
 30
0.0
 11
50.994289
 21
18.879958
 31
0.0
  0
LINE
  5
179
100
AcDbEntity
  8
logo
 62
7
100
AcDbLine
 10
50.994289
 20
18.879958
 30
0.0
 11
50.382569
 21
16.230151
 31
0.0
  0
SPLINE
  5
17a
100
AcDbEntity
  8
logo
 62
7
100
AcDbSpline
 70
8
 71
3
 72
8
 73
4
 74
0
 40
0
 40
0
 40
0
 40
0
 40
1
 40
1
 40
1
 40
1
 10
50.382569
 20
16.230151
 30
0.0
 10
50.359041
 20
16.137999
 30
0.0
 10
50.339925
 20
16.034576
 30
0.0
 10
50.325221
 20
15.919880
 30
0.0
  0
SPLINE
  5
17b
100
AcDbEntity
  8
logo
 62
7
100
AcDbSpline
 70
8
 71
3
 72
8
 73
4
 74
0
 40
0
 40
0
 40
0
 40
0
 40
1
 40
1
 40
1
 40
1
 10
50.325221
 20
15.919880
 30
0.0
 10
50.310519
 20
15.805180
 30
0.0
 10
50.303162
 20
15.715482
 30
0.0
 10
50.303163
 20
15.650782
 30
0.0
  0
SPLINE
  5
17c
100
AcDbEntity
  8
logo
 62
7
100
AcDbSpline
 70
8
 71
3
 72
8
 73
4
 74
0
 40
0
 40
0
 40
0
 40
0
 40
1
 40
1
 40
1
 40
1
 10
50.303163
 20
15.650782
 30
0.0
 10
50.303162
 20
15.403740
 30
0.0
 10
50.376686
 20
15.215028
 30
0.0
 10
50.523735
 20
15.084647
 30
0.0
  0
SPLINE
  5
17d
100
AcDbEntity
  8
logo
 62
7
100
AcDbSpline
 70
8
 71
3
 72
8
 73
4
 74
0
 40
0
 40
0
 40
0
 40
0
 40
1
 40
1
 40
1
 40
1
 10
50.523735
 20
15.084647
 30
0.0
 10
50.670783
 20
14.954263
 30
0.0
 10
50.890374
 20
14.889072
 30
0.0
 10
51.182512
 20
14.889072
 30
0.0
  0
SPLINE
  5
17e
100
AcDbEntity
  8
logo
 62
7
100
AcDbSpline
 70
8
 71
3
 72
8
 73
4
 74
0
 40
0
 40
0
 40
0
 40
0
 40
1
 40
1
 40
1
 40
1
 10
51.182512
 20
14.889072
 30
0.0
 10
51.392298
 20
14.889072
 30
0.0
 10
51.576598
 20
14.921422
 30
0.0
 10
51.735412
 20
14.986124
 30
0.0
  0
SPLINE
  5
17f
100
AcDbEntity
  8
logo
 62
7
100
AcDbSpline
 70
8
 71
3
 72
8
 73
4
 74
0
 40
0
 40
0
 40
0
 40
0
 40
1
 40
1
 40
1
 40
1
 10
51.735412
 20
14.986124
 30
0.0
 10
51.894222
 20
15.050824
 30
0.0
 10
52.032447
 20
15.147877
 30
0.0
 10
52.150088
 20
15.277278
 30
0.0
  0
SPLINE
  5
180
100
AcDbEntity
  8
logo
 62
7
100
AcDbSpline
 70
8
 71
3
 72
8
 73
4
 74
0
 40
0
 40
0
 40
0
 40
0
 40
1
 40
1
 40
1
 40
1
 10
52.150088
 20
15.277278
 30
0.0
 10
52.255961
 20
15.398838
 30
0.0
 10
52.340757
 20
15.533633
 30
0.0
 10
52.404481
 20
15.681662
 30
0.0
  0
SPLINE
  5
181
100
AcDbEntity
  8
logo
 62
7
100
AcDbSpline
 70
8
 71
3
 72
8
 73
4
 74
0
 40
0
 40
0
 40
0
 40
0
 40
1
 40
1
 40
1
 40
1
 10
52.404481
 20
15.681662
 30
0.0
 10
52.468199
 20
15.829689
 30
0.0
 10
52.523587
 20
16.007617
 30
0.0
 10
52.570646
 20
16.215446
 30
0.0
  0
LINE
  5
182
100
AcDbEntity
  8
logo
 62
7
100
AcDbLine
 10
52.570646
 20
16.215446
 30
0.0
 11
53.185307
 21
18.879958
 31
0.0
  0
LINE
  5
183
100
AcDbEntity
  8
logo
 62
7
100
AcDbLine
 10
53.185307
 20
18.879958
 30
0.0
 11
53.773500
 21
18.879958
 31
0.0
  0
LINE
  5
184
100
AcDbEntity
  8
logo
 62
7
100
AcDbLine
 10
53.773500
 20
18.879958
 30
0.0
 11
53.167661
 21
16.259560
 31
0.0
  0
SPLINE
  5
185
100
AcDbEntity
  8
logo
 62
7
100
AcDbSpline
 70
8
 71
3
 72
8
 73
4
 74
0
 40
0
 40
0
 40
0
 40
0
 40
1
 40
1
 40
1
 40
1
 10
55.388088
 20
14.421460
 30
0.0
 10
55.103794
 20
14.421460
 30
0.0
 10
54.833225
 20
14.451358
 30
0.0
 10
54.576383
 20
14.511158
 30
0.0
  0
SPLINE
  5
186
100
AcDbEntity
  8
logo
 62
7
100
AcDbSpline
 70
8
 71
3
 72
8
 73
4
 74
0
 40
0
 40
0
 40
0
 40
0
 40
1
 40
1
 40
1
 40
1
 10
54.576383
 20
14.511158
 30
0.0
 10
54.319538
 20
14.570958
 30
0.0
 10
54.067596
 20
14.662617
 30
0.0
 10
53.820556
 20
14.786138
 30
0.0
  0
LINE
  5
187
100
AcDbEntity
  8
logo
 62
7
100
AcDbLine
 10
53.820556
 20
14.786138
 30
0.0
 11
53.961721
 21
15.453736
 31
0.0
  0
LINE
  5
188
100
AcDbEntity
  8
logo
 62
7
100
AcDbLine
 10
53.961721
 20
15.453736
 30
0.0
 11
54.002894
 21
15.453736
 31
0.0
  0
SPLINE
  5
189
100
AcDbEntity
  8
logo
 62
7
100
AcDbSpline
 70
8
 71
3
 72
8
 73
4
 74
0
 40
0
 40
0
 40
0
 40
0
 40
1
 40
1
 40
1
 40
1
 10
54.002894
 20
15.453736
 30
0.0
 10
54.191115
 20
15.275317
 30
0.0
 10
54.421982
 20
15.138563
 30
0.0
 10
54.695492
 20
15.043473
 30
0.0
  0
SPLINE
  5
18a
100
AcDbEntity
  8
logo
 62
7
100
AcDbSpline
 70
8
 71
3
 72
8
 73
4
 74
0
 40
0
 40
0
 40
0
 40
0
 40
1
 40
1
 40
1
 40
1
 10
54.695492
 20
15.043473
 30
0.0
 10
54.969001
 20
14.948380
 30
0.0
 10
55.233197
 20
14.900835
 30
0.0
 10
55.488081
 20
14.900836
 30
0.0
  0
SPLINE
  5
18b
100
AcDbEntity
  8
logo
 62
7
100
AcDbSpline
 70
8
 71
3
 72
8
 73
4
 74
0
 40
0
 40
0
 40
0
 40
0
 40
1
 40
1
 40
1
 40
1
 10
55.488081
 20
14.900836
 30
0.0
 10
55.905697
 20
14.900835
 30
0.0
 10
56.225770
 20
14.983673
 30
0.0
 10
56.448306
 20
15.149347
 30
0.0
  0
SPLINE
  5
18c
100
AcDbEntity
  8
logo
 62
7
100
AcDbSpline
 70
8
 71
3
 72
8
 73
4
 74
0
 40
0
 40
0
 40
0
 40
0
 40
1
 40
1
 40
1
 40
1
 10
56.448306
 20
15.149347
 30
0.0
 10
56.670835
 20
15.315020
 30
0.0
 10
56.782101
 20
15.526280
 30
0.0
 10
56.782105
 20
15.783125
 30
0.0
  0
SPLINE
  5
18d
100
AcDbEntity
  8
logo
 62
7
100
AcDbSpline
 70
8
 71
3
 72
8
 73
4
 74
0
 40
0
 40
0
 40
0
 40
0
 40
1
 40
1
 40
1
 40
1
 10
56.782105
 20
15.783125
 30
0.0
 10
56.782101
 20
15.918408
 30
0.0
 10
56.742400
 20
16.031145
 30
0.0
 10
56.662996
 20
16.121336
 30
0.0
  0
SPLINE
  5
18e
100
AcDbEntity
  8
logo
 62
7
100
AcDbSpline
 70
8
 71
3
 72
8
 73
4
 74
0
 40
0
 40
0
 40
0
 40
0
 40
1
 40
1
 40
1
 40
1
 10
56.662996
 20
16.121336
 30
0.0
 10
56.583587
 20
16.211523
 30
0.0
 10
56.467419
 20
16.278185
 30
0.0
 10
56.314493
 20
16.321321
 30
0.0
  0
SPLINE
  5
18f
100
AcDbEntity
  8
logo
 62
7
100
AcDbSpline
 70
8
 71
3
 72
8
 73
4
 74
0
 40
0
 40
0
 40
0
 40
0
 40
1
 40
1
 40
1
 40
1
 10
56.314493
 20
16.321321
 30
0.0
 10
56.187047
 20
16.356611
 30
0.0
 10
56.035588
 20
16.390432
 30
0.0
 10
55.860114
 20
16.422784
 30
0.0
  0
SPLINE
  5
190
100
AcDbEntity
  8
logo
 62
7
100
AcDbSpline
 70
8
 71
3
 72
8
 73
4
 74
0
 40
0
 40
0
 40
0
 40
0
 40
1
 40
1
 40
1
 40
1
 10
55.860114
 20
16.422784
 30
0.0
 10
55.684634
 20
16.455132
 30
0.0
 10
55.517490
 20
16.489934
 30
0.0
 10
55.358679
 20
16.527188
 30
0.0
  0
SPLINE
  5
191
100
AcDbEntity
  8
logo
 62
7
100
AcDbSpline
 70
8
 71
3
 72
8
 73
4
 74
0
 40
0
 40
0
 40
0
 40
0
 40
1
 40
1
 40
1
 40
1
 10
55.358679
 20
16.527188
 30
0.0
 10
55.050857
 20
16.595809
 30
0.0
 10
54.812639
 20
16.713448
 30
0.0
 10
54.644025
 20
16.880104
 30
0.0
  0
SPLINE
  5
192
100
AcDbEntity
  8
logo
 62
7
100
AcDbSpline
 70
8
 71
3
 72
8
 73
4
 74
0
 40
0
 40
0
 40
0
 40
0
 40
1
 40
1
 40
1
 40
1
 10
54.644025
 20
16.880104
 30
0.0
 10
54.475408
 20
17.046756
 30
0.0
 10
54.391101
 20
17.253603
 30
0.0
 10
54.391103
 20
17.500647
 30
0.0
  0
SPLINE
  5
193
100
AcDbEntity
  8
logo
 62
7
100
AcDbSpline
 70
8
 71
3
 72
8
 73
4
 74
0
 40
0
 40
0
 40
0
 40
0
 40
1
 40
1
 40
1
 40
1
 10
54.391103
 20
17.500647
 30
0.0
 10
54.391101
 20
17.918261
 30
0.0
 10
54.568048
 20
18.265784
 30
0.0
 10
54.921946
 20
18.543218
 30
0.0
  0
SPLINE
  5
194
100
AcDbEntity
  8
logo
 62
7
100
AcDbSpline
 70
8
 71
3
 72
8
 73
4
 74
0
 40
0
 40
0
 40
0
 40
0
 40
1
 40
1
 40
1
 40
1
 10
54.921946
 20
18.543218
 30
0.0
 10
55.275841
 20
18.820645
 30
0.0
 10
55.733160
 20
18.959360
 30
0.0
 10
56.293905
 20
18.959365
 30
0.0
  0
SPLINE
  5
195
100
AcDbEntity
  8
logo
 62
7
100
AcDbSpline
 70
8
 71
3
 72
8
 73
4
 74
0
 40
0
 40
0
 40
0
 40
0
 40
1
 40
1
 40
1
 40
1
 10
56.293905
 20
18.959365
 30
0.0
 10
56.599763
 20
18.959360
 30
0.0
 10
56.877684
 20
18.927501
 30
0.0
 10
57.127668
 20
18.863783
 30
0.0
  0
SPLINE
  5
196
100
AcDbEntity
  8
logo
 62
7
100
AcDbSpline
 70
8
 71
3
 72
8
 73
4
 74
0
 40
0
 40
0
 40
0
 40
0
 40
1
 40
1
 40
1
 40
1
 10
57.127668
 20
18.863783
 30
0.0
 10
57.377647
 20
18.800059
 30
0.0
 10
57.592827
 20
18.725064
 30
0.0
 10
57.773209
 20
18.638800
 30
0.0
  0
LINE
  5
197
100
AcDbEntity
  8
logo
 62
7
100
AcDbLine
 10
57.773209
 20
18.638800
 30
0.0
 11
57.640867
 21
18.012375
 31
0.0
  0
LINE
  5
198
100
AcDbEntity
  8
logo
 62
7
100
AcDbLine
 10
57.640867
 20
18.012375
 30
0.0
 11
57.599693
 21
18.012375
 31
0.0
  0
SPLINE
  5
199
100
AcDbEntity
  8
logo
 62
7
100
AcDbSpline
 70
8
 71
3
 72
8
 73
4
 74
0
 40
0
 40
0
 40
0
 40
0
 40
1
 40
1
 40
1
 40
1
 10
57.599693
 20
18.012375
 30
0.0
 10
57.460483
 20
18.139813
 30
0.0
 10
57.261969
 20
18.249608
 30
0.0
 10
57.004148
 20
18.341762
 30
0.0
  0
SPLINE
  5
19a
100
AcDbEntity
  8
logo
 62
7
100
AcDbSpline
 70
8
 71
3
 72
8
 73
4
 74
0
 40
0
 40
0
 40
0
 40
0
 40
1
 40
1
 40
1
 40
1
 10
57.004148
 20
18.341762
 30
0.0
 10
56.746321
 20
18.433910
 30
0.0
 10
56.475261
 20
18.479983
 30
0.0
 10
56.190972
 20
18.479988
 30
0.0
  0
SPLINE
  5
19b
100
AcDbEntity
  8
logo
 62
7
100
AcDbSpline
 70
8
 71
3
 72
8
 73
4
 74
0
 40
0
 40
0
 40
0
 40
0
 40
1
 40
1
 40
1
 40
1
 10
56.190972
 20
18.479988
 30
0.0
 10
55.834132
 20
18.479983
 30
0.0
 10
55.549349
 20
18.401559
 30
0.0
 10
55.336621
 20
18.244711
 30
0.0
  0
SPLINE
  5
19c
100
AcDbEntity
  8
logo
 62
7
100
AcDbSpline
 70
8
 71
3
 72
8
 73
4
 74
0
 40
0
 40
0
 40
0
 40
0
 40
1
 40
1
 40
1
 40
1
 10
55.336621
 20
18.244711
 30
0.0
 10
55.123890
 20
18.087856
 30
0.0
 10
55.017525
 20
17.888850
 30
0.0
 10
55.017527
 20
17.647696
 30
0.0
  0
SPLINE
  5
19d
100
AcDbEntity
  8
logo
 62
7
100
AcDbSpline
 70
8
 71
3
 72
8
 73
4
 74
0
 40
0
 40
0
 40
0
 40
0
 40
1
 40
1
 40
1
 40
1
 10
55.017527
 20
17.647696
 30
0.0
 10
55.017525
 20
17.518289
 30
0.0
 10
55.055759
 20
17.404573
 30
0.0
 10
55.132225
 20
17.306544
 30
0.0
  0
SPLINE
  5
19e
100
AcDbEntity
  8
logo
 62
7
100
AcDbSpline
 70
8
 71
3
 72
8
 73
4
 74
0
 40
0
 40
0
 40
0
 40
0
 40
1
 40
1
 40
1
 40
1
 10
55.132225
 20
17.306544
 30
0.0
 10
55.208688
 20
17.208509
 30
0.0
 10
55.344953
 20
17.134984
 30
0.0
 10
55.541019
 20
17.085972
 30
0.0
  0
SPLINE
  5
19f
100
AcDbEntity
  8
logo
 62
7
100
AcDbSpline
 70
8
 71
3
 72
8
 73
4
 74
0
 40
0
 40
0
 40
0
 40
0
 40
1
 40
1
 40
1
 40
1
 10
55.541019
 20
17.085972
 30
0.0
 10
55.666498
 20
17.056560
 30
0.0
 10
55.833153
 20
17.020777
 30
0.0
 10
56.040982
 20
16.978626
 30
0.0
  0
SPLINE
  5
1a0
100
AcDbEntity
  8
logo
 62
7
100
AcDbSpline
 70
8
 71
3
 72
8
 73
4
 74
0
 40
0
 40
0
 40
0
 40
0
 40
1
 40
1
 40
1
 40
1
 10
56.040982
 20
16.978626
 30
0.0
 10
56.248809
 20
16.936470
 30
0.0
 10
56.423305
 20
16.896767
 30
0.0
 10
56.564473
 20
16.859517
 30
0.0
  0
SPLINE
  5
1a1
100
AcDbEntity
  8
logo
 62
7
100
AcDbSpline
 70
8
 71
3
 72
8
 73
4
 74
0
 40
0
 40
0
 40
0
 40
0
 40
1
 40
1
 40
1
 40
1
 10
56.564473
 20
16.859517
 30
0.0
 10
56.842882
 20
16.783049
 30
0.0
 10
57.054141
 20
16.669334
 30
0.0
 10
57.198252
 20
16.518365
 30
0.0
  0
SPLINE
  5
1a2
100
AcDbEntity
  8
logo
 62
7
100
AcDbSpline
 70
8
 71
3
 72
8
 73
4
 74
0
 40
0
 40
0
 40
0
 40
0
 40
1
 40
1
 40
1
 40
1
 10
57.198252
 20
16.518365
 30
0.0
 10
57.342355
 20
16.367394
 30
0.0
 10
57.414408
 20
16.177213
 30
0.0
 10
57.414413
 20
15.947818
 30
0.0
  0
SPLINE
  5
1a3
100
AcDbEntity
  8
logo
 62
7
100
AcDbSpline
 70
8
 71
3
 72
8
 73
4
 74
0
 40
0
 40
0
 40
0
 40
0
 40
1
 40
1
 40
1
 40
1
 10
57.414413
 20
15.947818
 30
0.0
 10
57.414408
 20
15.755675
 30
0.0
 10
57.367354
 20
15.564512
 30
0.0
 10
57.273246
 20
15.374331
 30
0.0
  0
SPLINE
  5
1a4
100
AcDbEntity
  8
logo
 62
7
100
AcDbSpline
 70
8
 71
3
 72
8
 73
4
 74
0
 40
0
 40
0
 40
0
 40
0
 40
1
 40
1
 40
1
 40
1
 10
57.273246
 20
15.374331
 30
0.0
 10
57.179131
 20
15.184149
 30
0.0
 10
57.047768
 20
15.021415
 30
0.0
 10
56.879157
 20
14.886131
 30
0.0
  0
SPLINE
  5
1a5
100
AcDbEntity
  8
logo
 62
7
100
AcDbSpline
 70
8
 71
3
 72
8
 73
4
 74
0
 40
0
 40
0
 40
0
 40
0
 40
1
 40
1
 40
1
 40
1
 10
56.879157
 20
14.886131
 30
0.0
 10
56.698775
 20
14.741044
 30
0.0
 10
56.487516
 20
14.627326
 30
0.0
 10
56.245379
 20
14.544979
 30
0.0
  0
SPLINE
  5
1a6
100
AcDbEntity
  8
logo
 62
7
100
AcDbSpline
 70
8
 71
3
 72
8
 73
4
 74
0
 40
0
 40
0
 40
0
 40
0
 40
1
 40
1
 40
1
 40
1
 10
56.245379
 20
14.544979
 30
0.0
 10
56.003237
 20
14.462632
 30
0.0
 10
55.717474
 20
14.421460
 30
0.0
 10
55.388088
 20
14.421460
 30
0.0
  0
LINE
  5
1a7
100
AcDbEntity
  8
logo
 62
7
100
AcDbLine
 10
55.388088
 20
14.421460
 30
0.0
 11
55.388088
 21
14.421460
 31
0.0
  0
LINE
  5
1a8
100
AcDbEntity
  8
logo
 62
7
100
AcDbLine
 10
62.014078
 20
18.382936
 30
0.0
 11
60.452427
 21
18.382936
 31
0.0
  0
LINE
  5
1a9
100
AcDbEntity
  8
logo
 62
7
100
AcDbLine
 10
60.452427
 20
18.382936
 30
0.0
 11
59.555433
 21
14.500865
 31
0.0
  0
LINE
  5
1aa
100
AcDbEntity
  8
logo
 62
7
100
AcDbLine
 10
59.555433
 20
14.500865
 30
0.0
 11
58.967240
 21
14.500865
 31
0.0
  0
LINE
  5
1ab
100
AcDbEntity
  8
logo
 62
7
100
AcDbLine
 10
58.967240
 20
14.500865
 30
0.0
 11
59.864234
 21
18.382936
 31
0.0
  0
LINE
  5
1ac
100
AcDbEntity
  8
logo
 62
7
100
AcDbLine
 10
59.864234
 20
18.382936
 30
0.0
 11
58.302583
 21
18.382936
 31
0.0
  0
LINE
  5
1ad
100
AcDbEntity
  8
logo
 62
7
100
AcDbLine
 10
58.302583
 20
18.382936
 30
0.0
 11
58.414339
 21
18.879958
 31
0.0
  0
LINE
  5
1ae
100
AcDbEntity
  8
logo
 62
7
100
AcDbLine
 10
58.414339
 20
18.879958
 30
0.0
 11
62.125834
 21
18.879958
 31
0.0
  0
LINE
  5
1af
100
AcDbEntity
  8
logo
 62
7
100
AcDbLine
 10
62.125834
 20
18.879958
 30
0.0
 11
62.014078
 21
18.382936
 31
0.0
  0
SPLINE
  5
1b0
100
AcDbEntity
  8
logo
 62
7
100
AcDbSpline
 70
8
 71
3
 72
8
 73
4
 74
0
 40
0
 40
0
 40
0
 40
0
 40
1
 40
1
 40
1
 40
1
 10
64.716824
 20
17.791803
 30
0.0
 10
64.716820
 20
17.895714
 30
0.0
 10
64.701126
 20
17.983452
 30
0.0
 10
64.669768
 20
18.055018
 30
0.0
  0
SPLINE
  5
1b1
100
AcDbEntity
  8
logo
 62
7
100
AcDbSpline
 70
8
 71
3
 72
8
 73
4
 74
0
 40
0
 40
0
 40
0
 40
0
 40
1
 40
1
 40
1
 40
1
 10
64.669768
 20
18.055018
 30
0.0
 10
64.638394
 20
18.126578
 30
0.0
 10
64.590359
 20
18.187849
 30
0.0
 10
64.525661
 20
18.238829
 30
0.0
  0
SPLINE
  5
1b2
100
AcDbEntity
  8
logo
 62
7
100
AcDbSpline
 70
8
 71
3
 72
8
 73
4
 74
0
 40
0
 40
0
 40
0
 40
0
 40
1
 40
1
 40
1
 40
1
 10
64.525661
 20
18.238829
 30
0.0
 10
64.451154
 20
18.299605
 30
0.0
 10
64.359984
 20
18.341759
 30
0.0
 10
64.252150
 20
18.365290
 30
0.0
  0
SPLINE
  5
1b3
100
AcDbEntity
  8
logo
 62
7
100
AcDbSpline
 70
8
 71
3
 72
8
 73
4
 74
0
 40
0
 40
0
 40
0
 40
0
 40
1
 40
1
 40
1
 40
1
 10
64.252150
 20
18.365290
 30
0.0
 10
64.144314
 20
18.388815
 30
0.0
 10
64.011970
 20
18.400578
 30
0.0
 10
63.855121
 20
18.400581
 30
0.0
  0
LINE
  5
1b4
100
AcDbEntity
  8
logo
 62
7
100
AcDbLine
 10
63.855121
 20
18.400581
 30
0.0
 11
63.196346
 21
18.400581
 31
0.0
  0
LINE
  5
1b5
100
AcDbEntity
  8
logo
 62
7
100
AcDbLine
 10
63.196346
 20
18.400581
 30
0.0
 11
62.805197
 21
16.712469
 31
0.0
  0
LINE
  5
1b6
100
AcDbEntity
  8
logo
 62
7
100
AcDbLine
 10
62.805197
 20
16.712469
 30
0.0
 11
63.422800
 21
16.712469
 31
0.0
  0
SPLINE
  5
1b7
100
AcDbEntity
  8
logo
 62
7
100
AcDbSpline
 70
8
 71
3
 72
8
 73
4
 74
0
 40
0
 40
0
 40
0
 40
0
 40
1
 40
1
 40
1
 40
1
 10
63.422800
 20
16.712469
 30
0.0
 10
63.614940
 20
16.712467
 30
0.0
 10
63.781595
 20
16.730113
 30
0.0
 10
63.922763
 20
16.765407
 30
0.0
  0
SPLINE
  5
1b8
100
AcDbEntity
  8
logo
 62
7
100
AcDbSpline
 70
8
 71
3
 72
8
 73
4
 74
0
 40
0
 40
0
 40
0
 40
0
 40
1
 40
1
 40
1
 40
1
 10
63.922763
 20
16.765407
 30
0.0
 10
64.063926
 20
16.800695
 30
0.0
 10
64.192349
 20
16.862456
 30
0.0
 10
64.308029
 20
16.950688
 30
0.0
  0
SPLINE
  5
1b9
100
AcDbEntity
  8
logo
 62
7
100
AcDbSpline
 70
8
 71
3
 72
8
 73
4
 74
0
 40
0
 40
0
 40
0
 40
0
 40
1
 40
1
 40
1
 40
1
 10
64.308029
 20
16.950688
 30
0.0
 10
64.437429
 20
17.048716
 30
0.0
 10
64.537912
 20
17.171747
 30
0.0
 10
64.609478
 20
17.319779
 30
0.0
  0
SPLINE
  5
1ba
100
AcDbEntity
  8
logo
 62
7
100
AcDbSpline
 70
8
 71
3
 72
8
 73
4
 74
0
 40
0
 40
0
 40
0
 40
0
 40
1
 40
1
 40
1
 40
1
 10
64.609478
 20
17.319779
 30
0.0
 10
64.681038
 20
17.467803
 30
0.0
 10
64.716820
 20
17.625145
 30
0.0
 10
64.716824
 20
17.791803
 30
0.0
  0
LINE
  5
1bb
100
AcDbEntity
  8
logo
 62
7
100
AcDbLine
 10
64.716824
 20
17.791803
 30
0.0
 11
64.716824
 21
17.791803
 31
0.0
  0
LINE
  5
1bc
100
AcDbEntity
  8
logo
 62
7
100
AcDbLine
 10
65.369716
 20
14.500865
 30
0.0
 11
64.684473
 21
14.500865
 31
0.0
  0
LINE
  5
1bd
100
AcDbEntity
  8
logo
 62
7
100
AcDbLine
 10
64.684473
 20
14.500865
 30
0.0
 11
63.531616
 21
16.250737
 31
0.0
  0
LINE
  5
1be
100
AcDbEntity
  8
logo
 62
7
100
AcDbLine
 10
63.531616
 20
16.250737
 30
0.0
 11
62.699322
 21
16.250737
 31
0.0
  0
LINE
  5
1bf
100
AcDbEntity
  8
logo
 62
7
100
AcDbLine
 10
62.699322
 20
16.250737
 30
0.0
 11
62.296410
 21
14.500865
 31
0.0
  0
LINE
  5
1c0
100
AcDbEntity
  8
logo
 62
7
100
AcDbLine
 10
62.296410
 20
14.500865
 30
0.0
 11
61.708217
 21
14.500865
 31
0.0
  0
LINE
  5
1c1
100
AcDbEntity
  8
logo
 62
7
100
AcDbLine
 10
61.708217
 20
14.500865
 30
0.0
 11
62.716969
 21
18.879958
 31
0.0
  0
LINE
  5
1c2
100
AcDbEntity
  8
logo
 62
7
100
AcDbLine
 10
62.716969
 20
18.879958
 30
0.0
 11
63.911000
 21
18.879958
 31
0.0
  0
SPLINE
  5
1c3
100
AcDbEntity
  8
logo
 62
7
100
AcDbSpline
 70
8
 71
3
 72
8
 73
4
 74
0
 40
0
 40
0
 40
0
 40
0
 40
1
 40
1
 40
1
 40
1
 10
63.911000
 20
18.879958
 30
0.0
 10
64.177644
 20
18.879955
 30
0.0
 10
64.394294
 20
18.862799
 30
0.0
 10
64.560952
 20
18.828492
 30
0.0
  0
SPLINE
  5
1c4
100
AcDbEntity
  8
logo
 62
7
100
AcDbSpline
 70
8
 71
3
 72
8
 73
4
 74
0
 40
0
 40
0
 40
0
 40
0
 40
1
 40
1
 40
1
 40
1
 10
64.560952
 20
18.828492
 30
0.0
 10
64.727603
 20
18.794176
 30
0.0
 10
64.872691
 20
18.731925
 30
0.0
 10
64.996215
 20
18.641741
 30
0.0
  0
SPLINE
  5
1c5
100
AcDbEntity
  8
logo
 62
7
100
AcDbSpline
 70
8
 71
3
 72
8
 73
4
 74
0
 40
0
 40
0
 40
0
 40
0
 40
1
 40
1
 40
1
 40
1
 10
64.996215
 20
18.641741
 30
0.0
 10
65.106006
 20
18.561350
 30
0.0
 10
65.192275
 20
18.464299
 30
0.0
 10
65.255020
 20
18.350585
 30
0.0
  0
SPLINE
  5
1c6
100
AcDbEntity
  8
logo
 62
7
100
AcDbSpline
 70
8
 71
3
 72
8
 73
4
 74
0
 40
0
 40
0
 40
0
 40
0
 40
1
 40
1
 40
1
 40
1
 10
65.255020
 20
18.350585
 30
0.0
 10
65.317755
 20
18.236864
 30
0.0
 10
65.349127
 20
18.094719
 30
0.0
 10
65.349130
 20
17.924147
 30
0.0
  0
SPLINE
  5
1c7
100
AcDbEntity
  8
logo
 62
7
100
AcDbSpline
 70
8
 71
3
 72
8
 73
4
 74
0
 40
0
 40
0
 40
0
 40
0
 40
1
 40
1
 40
1
 40
1
 10
65.349130
 20
17.924147
 30
0.0
 10
65.349127
 20
17.559463
 30
0.0
 10
65.234918
 20
17.239389
 30
0.0
 10
65.006508
 20
16.963921
 30
0.0
  0
SPLINE
  5
1c8
100
AcDbEntity
  8
logo
 62
7
100
AcDbSpline
 70
8
 71
3
 72
8
 73
4
 74
0
 40
0
 40
0
 40
0
 40
0
 40
1
 40
1
 40
1
 40
1
 10
65.006508
 20
16.963921
 30
0.0
 10
64.778090
 20
16.688449
 30
0.0
 10
64.478601
 20
16.496797
 30
0.0
 10
64.108043
 20
16.388963
 30
0.0
  0
LINE
  5
1c9
100
AcDbEntity
  8
logo
 62
7
100
AcDbLine
 10
64.108043
 20
16.388963
 30
0.0
 11
65.369716
 21
14.500865
 31
0.0
  0
LINE
  5
1ca
100
AcDbEntity
  8
logo
 62
7
100
AcDbLine
 10
69.398836
 20
14.500865
 30
0.0
 11
68.807703
 21
14.500865
 31
0.0
  0
LINE
  5
1cb
100
AcDbEntity
  8
logo
 62
7
100
AcDbLine
 10
68.807703
 20
14.500865
 30
0.0
 11
68.660654
 21
15.733129
 31
0.0
  0
LINE
  5
1cc
100
AcDbEntity
  8
logo
 62
7
100
AcDbLine
 10
68.660654
 20
15.733129
 30
0.0
 11
66.772556
 21
15.733129
 31
0.0
  0
LINE
  5
1cd
100
AcDbEntity
  8
logo
 62
7
100
AcDbLine
 10
66.772556
 20
15.733129
 30
0.0
 11
66.054961
 21
14.500865
 31
0.0
  0
LINE
  5
1ce
100
AcDbEntity
  8
logo
 62
7
100
AcDbLine
 10
66.054961
 20
14.500865
 30
0.0
 11
65.440300
 21
14.500865
 31
0.0
  0
LINE
  5
1cf
100
AcDbEntity
  8
logo
 62
7
100
AcDbLine
 10
65.440300
 20
14.500865
 30
0.0
 11
68.045993
 21
18.879958
 31
0.0
  0
LINE
  5
1d0
100
AcDbEntity
  8
logo
 62
7
100
AcDbLine
 10
68.045993
 20
18.879958
 30
0.0
 11
68.816526
 21
18.879958
 31
0.0
  0
LINE
  5
1d1
100
AcDbEntity
  8
logo
 62
7
100
AcDbLine
 10
68.816526
 20
18.879958
 30
0.0
 11
69.398836
 21
14.500865
 31
0.0
  0
LINE
  5
1d2
100
AcDbEntity
  8
logo
 62
7
100
AcDbLine
 10
68.595954
 20
16.209564
 30
0.0
 11
68.322444
 21
18.371173
 31
0.0
  0
LINE
  5
1d3
100
AcDbEntity
  8
logo
 62
7
100
AcDbLine
 10
68.322444
 20
18.371173
 30
0.0
 11
67.051948
 21
16.209564
 31
0.0
  0
LINE
  5
1d4
100
AcDbEntity
  8
logo
 62
7
100
AcDbLine
 10
67.051948
 20
16.209564
 30
0.0
 11
68.595954
 21
16.209564
 31
0.0
  0
LINE
  5
1d5
100
AcDbEntity
  8
logo
 62
7
100
AcDbLine
 10
72.786827
 20
14.500865
 30
0.0
 11
70.013499
 21
14.500865
 31
0.0
  0
LINE
  5
1d6
100
AcDbEntity
  8
logo
 62
7
100
AcDbLine
 10
70.013499
 20
14.500865
 30
0.0
 11
71.025189
 21
18.879958
 31
0.0
  0
LINE
  5
1d7
100
AcDbEntity
  8
logo
 62
7
100
AcDbLine
 10
71.025189
 20
18.879958
 30
0.0
 11
71.613382
 21
18.879958
 31
0.0
  0
LINE
  5
1d8
100
AcDbEntity
  8
logo
 62
7
100
AcDbLine
 10
71.613382
 20
18.879958
 30
0.0
 11
70.716389
 21
14.997887
 31
0.0
  0
LINE
  5
1d9
100
AcDbEntity
  8
logo
 62
7
100
AcDbLine
 10
70.716389
 20
14.997887
 30
0.0
 11
72.901525
 21
14.997887
 31
0.0
  0
LINE
  5
1da
100
AcDbEntity
  8
logo
 62
7
100
AcDbLine
 10
72.901525
 20
14.997887
 30
0.0
 11
72.786827
 21
14.500865
 31
0.0
  0
LINE
  5
1db
100
AcDbEntity
  8
logo
 62
7
100
AcDbLine
 10
74.916085
 20
14.500865
 30
0.0
 11
73.180916
 21
14.500865
 31
0.0
  0
LINE
  5
1dc
100
AcDbEntity
  8
logo
 62
7
100
AcDbLine
 10
73.180916
 20
14.500865
 30
0.0
 11
73.277968
 21
14.927305
 31
0.0
  0
LINE
  5
1dd
100
AcDbEntity
  8
logo
 62
7
100
AcDbLine
 10
73.277968
 20
14.927305
 30
0.0
 11
73.851456
 21
14.927305
 31
0.0
  0
LINE
  5
1de
100
AcDbEntity
  8
logo
 62
7
100
AcDbLine
 10
73.851456
 20
14.927305
 30
0.0
 11
74.669043
 21
18.453520
 31
0.0
  0
LINE
  5
1df
100
AcDbEntity
  8
logo
 62
7
100
AcDbLine
 10
74.669043
 20
18.453520
 30
0.0
 11
74.095556
 21
18.453520
 31
0.0
  0
LINE
  5
1e0
100
AcDbEntity
  8
logo
 62
7
100
AcDbLine
 10
74.095556
 20
18.453520
 30
0.0
 11
74.192608
 21
18.879958
 31
0.0
  0
LINE
  5
1e1
100
AcDbEntity
  8
logo
 62
7
100
AcDbLine
 10
74.192608
 20
18.879958
 30
0.0
 11
75.927775
 21
18.879958
 31
0.0
  0
LINE
  5
1e2
100
AcDbEntity
  8
logo
 62
7
100
AcDbLine
 10
75.927775
 20
18.879958
 30
0.0
 11
75.830724
 21
18.453520
 31
0.0
  0
LINE
  5
1e3
100
AcDbEntity
  8
logo
 62
7
100
AcDbLine
 10
75.830724
 20
18.453520
 30
0.0
 11
75.257235
 21
18.453520
 31
0.0
  0
LINE
  5
1e4
100
AcDbEntity
  8
logo
 62
7
100
AcDbLine
 10
75.257235
 20
18.453520
 30
0.0
 11
74.439648
 21
14.927305
 31
0.0
  0
LINE
  5
1e5
100
AcDbEntity
  8
logo
 62
7
100
AcDbLine
 10
74.439648
 20
14.927305
 30
0.0
 11
75.013136
 21
14.927305
 31
0.0
  0
LINE
  5
1e6
100
AcDbEntity
  8
logo
 62
7
100
AcDbLine
 10
75.013136
 20
14.927305
 30
0.0
 11
74.916085
 21
14.500865
 31
0.0
  0
LINE
  5
1e7
100
AcDbEntity
  8
logo
 62
7
100
AcDbLine
 10
79.409875
 20
14.500865
 30
0.0
 11
78.818742
 21
14.500865
 31
0.0
  0
LINE
  5
1e8
100
AcDbEntity
  8
logo
 62
7
100
AcDbLine
 10
78.818742
 20
14.500865
 30
0.0
 11
78.671693
 21
15.733129
 31
0.0
  0
LINE
  5
1e9
100
AcDbEntity
  8
logo
 62
7
100
AcDbLine
 10
78.671693
 20
15.733129
 30
0.0
 11
76.783594
 21
15.733129
 31
0.0
  0
LINE
  5
1ea
100
AcDbEntity
  8
logo
 62
7
100
AcDbLine
 10
76.783594
 20
15.733129
 30
0.0
 11
76.066000
 21
14.500865
 31
0.0
  0
LINE
  5
1eb
100
AcDbEntity
  8
logo
 62
7
100
AcDbLine
 10
76.066000
 20
14.500865
 30
0.0
 11
75.451339
 21
14.500865
 31
0.0
  0
LINE
  5
1ec
100
AcDbEntity
  8
logo
 62
7
100
AcDbLine
 10
75.451339
 20
14.500865
 30
0.0
 11
78.057032
 21
18.879958
 31
0.0
  0
LINE
  5
1ed
100
AcDbEntity
  8
logo
 62
7
100
AcDbLine
 10
78.057032
 20
18.879958
 30
0.0
 11
78.827565
 21
18.879958
 31
0.0
  0
LINE
  5
1ee
100
AcDbEntity
  8
logo
 62
7
100
AcDbLine
 10
78.827565
 20
18.879958
 30
0.0
 11
79.409875
 21
14.500865
 31
0.0
  0
LINE
  5
1ef
100
AcDbEntity
  8
logo
 62
7
100
AcDbLine
 10
78.606991
 20
16.209564
 30
0.0
 11
78.333482
 21
18.371173
 31
0.0
  0
LINE
  5
1f0
100
AcDbEntity
  8
logo
 62
7
100
AcDbLine
 10
78.333482
 20
18.371173
 30
0.0
 11
77.062987
 21
16.209564
 31
0.0
  0
LINE
  5
1f1
100
AcDbEntity
  8
logo
 62
7
100
AcDbLine
 10
77.062987
 20
16.209564
 30
0.0
 11
78.606991
 21
16.209564
 31
0.0
  0
LINE
  5
1f2
100
AcDbEntity
  8
logo
 62
7
100
AcDbLine
 10
83.371353
 20
14.500865
 30
0.0
 11
82.677286
 21
14.500865
 31
0.0
  0
LINE
  5
1f3
100
AcDbEntity
  8
logo
 62
7
100
AcDbLine
 10
82.677286
 20
14.500865
 30
0.0
 11
81.480314
 21
18.418227
 31
0.0
  0
LINE
  5
1f4
100
AcDbEntity
  8
logo
 62
7
100
AcDbLine
 10
81.480314
 20
18.418227
 30
0.0
 11
80.574497
 21
14.500865
 31
0.0
  0
LINE
  5
1f5
100
AcDbEntity
  8
logo
 62
7
100
AcDbLine
 10
80.574497
 20
14.500865
 30
0.0
 11
80.024537
 21
14.500865
 31
0.0
  0
LINE
  5
1f6
100
AcDbEntity
  8
logo
 62
7
100
AcDbLine
 10
80.024537
 20
14.500865
 30
0.0
 11
81.036228
 21
18.879958
 31
0.0
  0
LINE
  5
1f7
100
AcDbEntity
  8
logo
 62
7
100
AcDbLine
 10
81.036228
 20
18.879958
 30
0.0
 11
81.912636
 21
18.879958
 31
0.0
  0
LINE
  5
1f8
100
AcDbEntity
  8
logo
 62
7
100
AcDbLine
 10
81.912636
 20
18.879958
 30
0.0
 11
83.006674
 21
15.303748
 31
0.0
  0
LINE
  5
1f9
100
AcDbEntity
  8
logo
 62
7
100
AcDbLine
 10
83.006674
 20
15.303748
 30
0.0
 11
83.833084
 21
18.879958
 31
0.0
  0
LINE
  5
1fa
100
AcDbEntity
  8
logo
 62
7
100
AcDbLine
 10
83.833084
 20
18.879958
 30
0.0
 11
84.383045
 21
18.879958
 31
0.0
  0
LINE
  5
1fb
100
AcDbEntity
  8
logo
 62
7
100
AcDbLine
 10
84.383045
 20
18.879958
 30
0.0
 11
83.371353
 21
14.500865
 31
0.0
  0
LINE
  5
1fc
100
AcDbEntity
  8
logo
 62
7
100
AcDbLine
 10
76.822193
 20
24.555523
 30
0.0
 11
74.730695
 21
22.103219
 31
0.0
  0
LINE
  5
1fd
100
AcDbEntity
  8
logo
 62
7
100
AcDbLine
 10
74.730695
 20
22.103219
 30
0.0
 11
74.287755
 21
20.187723
 31
0.0
  0
LINE
  5
1fe
100
AcDbEntity
  8
logo
 62
7
100
AcDbLine
 10
74.287755
 20
20.187723
 30
0.0
 11
73.701080
 21
20.187723
 31
0.0
  0
LINE
  5
1ff
100
AcDbEntity
  8
logo
 62
7
100
AcDbLine
 10
73.701080
 20
20.187723
 30
0.0
 11
74.129353
 21
22.041618
 31
0.0
  0
LINE
  5
200
100
AcDbEntity
  8
logo
 62
7
100
AcDbLine
 10
74.129353
 20
22.041618
 30
0.0
 11
73.155471
 21
24.555523
 31
0.0
  0
LINE
  5
201
100
AcDbEntity
  8
logo
 62
7
100
AcDbLine
 10
73.155471
 20
24.555523
 30
0.0
 11
73.777347
 21
24.555523
 31
0.0
  0
LINE
  5
202
100
AcDbEntity
  8
logo
 62
7
100
AcDbLine
 10
73.777347
 20
24.555523
 30
0.0
 11
74.534158
 21
22.593093
 31
0.0
  0
LINE
  5
203
100
AcDbEntity
  8
logo
 62
7
100
AcDbLine
 10
74.534158
 20
22.593093
 30
0.0
 11
76.185651
 21
24.555523
 31
0.0
  0
LINE
  5
204
100
AcDbEntity
  8
logo
 62
7
100
AcDbLine
 10
76.185651
 20
24.555523
 30
0.0
 11
76.822193
 21
24.555523
 31
0.0
  0
LINE
  5
205
100
AcDbEntity
  8
logo
 62
7
100
AcDbLine
 10
79.770239
 20
20.187723
 30
0.0
 11
79.077963
 21
20.187723
 31
0.0
  0
LINE
  5
206
100
AcDbEntity
  8
logo
 62
7
100
AcDbLine
 10
79.077963
 20
20.187723
 30
0.0
 11
77.884076
 21
24.094983
 31
0.0
  0
LINE
  5
207
100
AcDbEntity
  8
logo
 62
7
100
AcDbLine
 10
77.884076
 20
24.094983
 30
0.0
 11
76.980596
 21
20.187723
 31
0.0
  0
LINE
  5
208
100
AcDbEntity
  8
logo
 62
7
100
AcDbLine
 10
76.980596
 20
20.187723
 30
0.0
 11
76.432054
 21
20.187723
 31
0.0
  0
LINE
  5
209
100
AcDbEntity
  8
logo
 62
7
100
AcDbLine
 10
76.432054
 20
20.187723
 30
0.0
 11
77.441137
 21
24.555523
 31
0.0
  0
LINE
  5
20a
100
AcDbEntity
  8
logo
 62
7
100
AcDbLine
 10
77.441137
 20
24.555523
 30
0.0
 11
78.315283
 21
24.555523
 31
0.0
  0
LINE
  5
20b
100
AcDbEntity
  8
logo
 62
7
100
AcDbLine
 10
78.315283
 20
24.555523
 30
0.0
 11
79.406499
 21
20.988536
 31
0.0
  0
LINE
  5
20c
100
AcDbEntity
  8
logo
 62
7
100
AcDbLine
 10
79.406499
 20
20.988536
 30
0.0
 11
80.230780
 21
24.555523
 31
0.0
  0
LINE
  5
20d
100
AcDbEntity
  8
logo
 62
7
100
AcDbLine
 10
80.230780
 20
24.555523
 30
0.0
 11
80.779322
 21
24.555523
 31
0.0
  0
LINE
  5
20e
100
AcDbEntity
  8
logo
 62
7
100
AcDbLine
 10
80.779322
 20
24.555523
 30
0.0
 11
79.770239
 21
20.187723
 31
0.0
  0
SPLINE
  5
20f
100
AcDbEntity
  8
logo
 62
7
100
AcDbSpline
 70
8
 71
3
 72
8
 73
4
 74
0
 40
0
 40
0
 40
0
 40
0
 40
1
 40
1
 40
1
 40
1
 10
82.885487
 20
20.108521
 30
0.0
 10
82.332054
 20
20.108521
 30
0.0
 10
81.897915
 20
20.251768
 30
0.0
 10
81.583067
 20
20.538261
 30
0.0
  0
SPLINE
  5
210
100
AcDbEntity
  8
logo
 62
7
100
AcDbSpline
 70
8
 71
3
 72
8
 73
4
 74
0
 40
0
 40
0
 40
0
 40
0
 40
1
 40
1
 40
1
 40
1
 10
81.583067
 20
20.538261
 30
0.0
 10
81.268216
 20
20.824754
 30
0.0
 10
81.110792
 20
21.231027
 30
0.0
 10
81.110792
 20
21.757080
 30
0.0
  0
SPLINE
  5
211
100
AcDbEntity
  8
logo
 62
7
100
AcDbSpline
 70
8
 71
3
 72
8
 73
4
 74
0
 40
0
 40
0
 40
0
 40
0
 40
1
 40
1
 40
1
 40
1
 10
81.110792
 20
21.757080
 30
0.0
 10
81.110792
 20
22.159929
 30
0.0
 10
81.171416
 20
22.535400
 30
0.0
 10
81.292662
 20
22.883497
 30
0.0
  0
SPLINE
  5
212
100
AcDbEntity
  8
logo
 62
7
100
AcDbSpline
 70
8
 71
3
 72
8
 73
4
 74
0
 40
0
 40
0
 40
0
 40
0
 40
1
 40
1
 40
1
 40
1
 10
81.292662
 20
22.883497
 30
0.0
 10
81.413907
 20
23.231588
 30
0.0
 10
81.587954
 20
23.536660
 30
0.0
 10
81.814803
 20
23.798712
 30
0.0
  0
SPLINE
  5
213
100
AcDbEntity
  8
logo
 62
7
100
AcDbSpline
 70
8
 71
3
 72
8
 73
4
 74
0
 40
0
 40
0
 40
0
 40
0
 40
1
 40
1
 40
1
 40
1
 10
81.814803
 20
23.798712
 30
0.0
 10
82.039694
 20
24.056844
 30
0.0
 10
82.316410
 20
24.260714
 30
0.0
 10
82.644950
 20
24.410320
 30
0.0
  0
SPLINE
  5
214
100
AcDbEntity
  8
logo
 62
7
100
AcDbSpline
 70
8
 71
3
 72
8
 73
4
 74
0
 40
0
 40
0
 40
0
 40
0
 40
1
 40
1
 40
1
 40
1
 10
82.644950
 20
24.410320
 30
0.0
 10
82.973485
 20
24.559919
 30
0.0
 10
83.340157
 20
24.634720
 30
0.0
 10
83.744967
 20
24.634725
 30
0.0
  0
SPLINE
  5
215
100
AcDbEntity
  8
logo
 62
7
100
AcDbSpline
 70
8
 71
3
 72
8
 73
4
 74
0
 40
0
 40
0
 40
0
 40
0
 40
1
 40
1
 40
1
 40
1
 10
83.744967
 20
24.634725
 30
0.0
 10
83.997234
 20
24.634720
 30
0.0
 10
84.235815
 20
24.603919
 30
0.0
 10
84.460710
 20
24.542323
 30
0.0
  0
SPLINE
  5
216
100
AcDbEntity
  8
logo
 62
7
100
AcDbSpline
 70
8
 71
3
 72
8
 73
4
 74
0
 40
0
 40
0
 40
0
 40
0
 40
1
 40
1
 40
1
 40
1
 10
84.460710
 20
24.542323
 30
0.0
 10
84.685600
 20
24.480718
 30
0.0
 10
84.916358
 20
24.383428
 30
0.0
 10
85.152989
 20
24.250452
 30
0.0
  0
LINE
  5
217
100
AcDbEntity
  8
logo
 62
7
100
AcDbLine
 10
85.152989
 20
24.250452
 30
0.0
 11
85.020987
 21
23.593375
 31
0.0
  0
LINE
  5
218
100
AcDbEntity
  8
logo
 62
7
100
AcDbLine
 10
85.020987
 20
23.593375
 30
0.0
 11
84.976985
 21
23.593375
 31
0.0
  0
SPLINE
  5
219
100
AcDbEntity
  8
logo
 62
7
100
AcDbSpline
 70
8
 71
3
 72
8
 73
4
 74
0
 40
0
 40
0
 40
0
 40
0
 40
1
 40
1
 40
1
 40
1
 10
84.976985
 20
23.593375
 30
0.0
 10
84.912447
 20
23.657906
 30
0.0
 10
84.847424
 20
23.718040
 30
0.0
 10
84.781915
 20
23.773778
 30
0.0
  0
SPLINE
  5
21a
100
AcDbEntity
  8
logo
 62
7
100
AcDbSpline
 70
8
 71
3
 72
8
 73
4
 74
0
 40
0
 40
0
 40
0
 40
0
 40
1
 40
1
 40
1
 40
1
 10
84.781915
 20
23.773778
 30
0.0
 10
84.716400
 20
23.829509
 30
0.0
 10
84.618131
 20
23.890620
 30
0.0
 10
84.487111
 20
23.957113
 30
0.0
  0
SPLINE
  5
21b
100
AcDbEntity
  8
logo
 62
7
100
AcDbSpline
 70
8
 71
3
 72
8
 73
4
 74
0
 40
0
 40
0
 40
0
 40
0
 40
1
 40
1
 40
1
 40
1
 10
84.487111
 20
23.957113
 30
0.0
 10
84.379551
 20
24.013822
 30
0.0
 10
84.251460
 20
24.061245
 30
0.0
 10
84.102838
 20
24.099382
 30
0.0
  0
SPLINE
  5
21c
100
AcDbEntity
  8
logo
 62
7
100
AcDbSpline
 70
8
 71
3
 72
8
 73
4
 74
0
 40
0
 40
0
 40
0
 40
0
 40
1
 40
1
 40
1
 40
1
 10
84.102838
 20
24.099382
 30
0.0
 10
83.954212
 20
24.137513
 30
0.0
 10
83.789943
 20
24.156579
 30
0.0
 10
83.610031
 20
24.156584
 30
0.0
  0
SPLINE
  5
21d
100
AcDbEntity
  8
logo
 62
7
100
AcDbSpline
 70
8
 71
3
 72
8
 73
4
 74
0
 40
0
 40
0
 40
0
 40
0
 40
1
 40
1
 40
1
 40
1
 10
83.610031
 20
24.156584
 30
0.0
 10
83.336246
 20
24.156579
 30
0.0
 10
83.084954
 20
24.099379
 30
0.0
 10
82.856153
 20
23.984981
 30
0.0
  0
SPLINE
  5
21e
100
AcDbEntity
  8
logo
 62
7
100
AcDbSpline
 70
8
 71
3
 72
8
 73
4
 74
0
 40
0
 40
0
 40
0
 40
0
 40
1
 40
1
 40
1
 40
1
 10
82.856153
 20
23.984981
 30
0.0
 10
82.627348
 20
23.870575
 30
0.0
 10
82.428856
 20
23.710707
 30
0.0
 10
82.260677
 20
23.505373
 30
0.0
  0
SPLINE
  5
21f
100
AcDbEntity
  8
logo
 62
7
100
AcDbSpline
 70
8
 71
3
 72
8
 73
4
 74
0
 40
0
 40
0
 40
0
 40
0
 40
1
 40
1
 40
1
 40
1
 10
82.260677
 20
23.505373
 30
0.0
 10
82.096406
 20
23.305901
 30
0.0
 10
81.967338
 20
23.063408
 30
0.0
 10
81.873472
 20
22.777895
 30
0.0
  0
SPLINE
  5
220
100
AcDbEntity
  8
logo
 62
7
100
AcDbSpline
 70
8
 71
3
 72
8
 73
4
 74
0
 40
0
 40
0
 40
0
 40
0
 40
1
 40
1
 40
1
 40
1
 10
81.873472
 20
22.777895
 30
0.0
 10
81.779602
 20
22.492377
 30
0.0
 10
81.732668
 20
22.188285
 30
0.0
 10
81.732670
 20
21.865615
 30
0.0
  0
SPLINE
  5
221
100
AcDbEntity
  8
logo
 62
7
100
AcDbSpline
 70
8
 71
3
 72
8
 73
4
 74
0
 40
0
 40
0
 40
0
 40
0
 40
1
 40
1
 40
1
 40
1
 10
81.732670
 20
21.865615
 30
0.0
 10
81.732668
 20
21.462764
 30
0.0
 10
81.837291
 20
21.149381
 30
0.0
 10
82.046540
 20
20.925468
 30
0.0
  0
SPLINE
  5
222
100
AcDbEntity
  8
logo
 62
7
100
AcDbSpline
 70
8
 71
3
 72
8
 73
4
 74
0
 40
0
 40
0
 40
0
 40
0
 40
1
 40
1
 40
1
 40
1
 10
82.046540
 20
20.925468
 30
0.0
 10
82.255787
 20
20.701553
 30
0.0
 10
82.557924
 20
20.589594
 30
0.0
 10
82.952954
 20
20.589596
 30
0.0
  0
SPLINE
  5
223
100
AcDbEntity
  8
logo
 62
7
100
AcDbSpline
 70
8
 71
3
 72
8
 73
4
 74
0
 40
0
 40
0
 40
0
 40
0
 40
1
 40
1
 40
1
 40
1
 10
82.952954
 20
20.589596
 30
0.0
 10
83.138732
 20
20.589594
 30
0.0
 10
83.315223
 20
20.610617
 30
0.0
 10
83.482430
 20
20.652664
 30
0.0
  0
SPLINE
  5
224
100
AcDbEntity
  8
logo
 62
7
100
AcDbSpline
 70
8
 71
3
 72
8
 73
4
 74
0
 40
0
 40
0
 40
0
 40
0
 40
1
 40
1
 40
1
 40
1
 10
83.482430
 20
20.652664
 30
0.0
 10
83.649628
 20
20.694707
 30
0.0
 10
83.801675
 20
20.747997
 30
0.0
 10
83.938569
 20
20.812532
 30
0.0
  0
SPLINE
  5
225
100
AcDbEntity
  8
logo
 62
7
100
AcDbSpline
 70
8
 71
3
 72
8
 73
4
 74
0
 40
0
 40
0
 40
0
 40
0
 40
1
 40
1
 40
1
 40
1
 10
83.938569
 20
20.812532
 30
0.0
 10
84.065679
 20
20.873155
 30
0.0
 10
84.180080
 20
20.936711
 30
0.0
 10
84.281774
 20
21.003202
 30
0.0
  0
SPLINE
  5
226
100
AcDbEntity
  8
logo
 62
7
100
AcDbSpline
 70
8
 71
3
 72
8
 73
4
 74
0
 40
0
 40
0
 40
0
 40
0
 40
1
 40
1
 40
1
 40
1
 10
84.281774
 20
21.003202
 30
0.0
 10
84.383462
 20
21.069690
 30
0.0
 10
84.470485
 20
21.131291
 30
0.0
 10
84.542846
 20
21.188005
 30
0.0
  0
LINE
  5
227
100
AcDbEntity
  8
logo
 62
7
100
AcDbLine
 10
84.542846
 20
21.188005
 30
0.0
 11
84.583913
 21
21.188005
 31
0.0
  0
LINE
  5
228
100
AcDbEntity
  8
logo
 62
7
100
AcDbLine
 10
84.583913
 20
21.188005
 30
0.0
 11
84.446044
 21
20.513327
 31
0.0
  0
SPLINE
  5
229
100
AcDbEntity
  8
logo
 62
7
100
AcDbSpline
 70
8
 71
3
 72
8
 73
4
 74
0
 40
0
 40
0
 40
0
 40
0
 40
1
 40
1
 40
1
 40
1
 10
84.446044
 20
20.513327
 30
0.0
 10
84.240703
 20
20.409681
 30
0.0
 10
84.004568
 20
20.316302
 30
0.0
 10
83.737633
 20
20.233190
 30
0.0
  0
SPLINE
  5
22a
100
AcDbEntity
  8
logo
 62
7
100
AcDbSpline
 70
8
 71
3
 72
8
 73
4
 74
0
 40
0
 40
0
 40
0
 40
0
 40
1
 40
1
 40
1
 40
1
 10
83.737633
 20
20.233190
 30
0.0
 10
83.470692
 20
20.150078
 30
0.0
 10
83.186645
 20
20.108521
 30
0.0
 10
82.885487
 20
20.108521
 30
0.0
  0
LINE
  5
22b
100
AcDbEntity
  8
logo
 62
7
100
AcDbLine
 10
82.885487
 20
20.108521
 30
0.0
 11
82.885487
 21
20.108521
 31
0.0
  0
LINE
  5
22c
100
AcDbEntity
  8
logo
 62
7
100
AcDbLine
 10
89.476787
 20
24.555523
 30
0.0
 11
88.470639
 21
20.187723
 31
0.0
  0
LINE
  5
22d
100
AcDbEntity
  8
logo
 62
7
100
AcDbLine
 10
88.470639
 20
20.187723
 30
0.0
 11
87.889829
 21
20.187723
 31
0.0
  0
LINE
  5
22e
100
AcDbEntity
  8
logo
 62
7
100
AcDbLine
 10
87.889829
 20
20.187723
 30
0.0
 11
88.385570
 21
22.334955
 31
0.0
  0
LINE
  5
22f
100
AcDbEntity
  8
logo
 62
7
100
AcDbLine
 10
88.385570
 20
22.334955
 30
0.0
 11
86.206069
 21
22.334955
 31
0.0
  0
LINE
  5
230
100
AcDbEntity
  8
logo
 62
7
100
AcDbLine
 10
86.206069
 20
22.334955
 30
0.0
 11
85.710329
 21
20.187723
 31
0.0
  0
LINE
  5
231
100
AcDbEntity
  8
logo
 62
7
100
AcDbLine
 10
85.710329
 20
20.187723
 30
0.0
 11
85.129520
 21
20.187723
 31
0.0
  0
LINE
  5
232
100
AcDbEntity
  8
logo
 62
7
100
AcDbLine
 10
85.129520
 20
20.187723
 30
0.0
 11
86.135668
 21
24.555523
 31
0.0
  0
LINE
  5
233
100
AcDbEntity
  8
logo
 62
7
100
AcDbLine
 10
86.135668
 20
24.555523
 30
0.0
 11
86.716478
 21
24.555523
 31
0.0
  0
LINE
  5
234
100
AcDbEntity
  8
logo
 62
7
100
AcDbLine
 10
86.716478
 20
24.555523
 30
0.0
 11
86.320472
 21
22.827763
 31
0.0
  0
LINE
  5
235
100
AcDbEntity
  8
logo
 62
7
100
AcDbLine
 10
86.320472
 20
22.827763
 30
0.0
 11
88.499972
 21
22.827763
 31
0.0
  0
LINE
  5
236
100
AcDbEntity
  8
logo
 62
7
100
AcDbLine
 10
88.499972
 20
22.827763
 30
0.0
 11
88.895978
 21
24.555523
 31
0.0
  0
LINE
  5
237
100
AcDbEntity
  8
logo
 62
7
100
AcDbLine
 10
88.895978
 20
24.555523
 30
0.0
 11
89.476787
 21
24.555523
 31
0.0
  0
SPLINE
  5
238
100
AcDbEntity
  8
logo
 62
7
100
AcDbSpline
 70
8
 71
3
 72
8
 73
4
 74
0
 40
0
 40
0
 40
0
 40
0
 40
1
 40
1
 40
1
 40
1
 10
92.644835
 20
23.470173
 30
0.0
 10
92.644832
 20
23.573816
 30
0.0
 10
92.629186
 20
23.661328
 30
0.0
 10
92.597901
 20
23.732710
 30
0.0
  0
SPLINE
  5
239
100
AcDbEntity
  8
logo
 62
7
100
AcDbSpline
 70
8
 71
3
 72
8
 73
4
 74
0
 40
0
 40
0
 40
0
 40
0
 40
1
 40
1
 40
1
 40
1
 10
92.597901
 20
23.732710
 30
0.0
 10
92.566610
 20
23.804085
 30
0.0
 10
92.518697
 20
23.865198
 30
0.0
 10
92.454167
 20
23.916047
 30
0.0
  0
SPLINE
  5
23a
100
AcDbEntity
  8
logo
 62
7
100
AcDbSpline
 70
8
 71
3
 72
8
 73
4
 74
0
 40
0
 40
0
 40
0
 40
0
 40
1
 40
1
 40
1
 40
1
 10
92.454167
 20
23.916047
 30
0.0
 10
92.379851
 20
23.976665
 30
0.0
 10
92.288917
 20
24.018710
 30
0.0
 10
92.181361
 20
24.042182
 30
0.0
  0
SPLINE
  5
23b
100
AcDbEntity
  8
logo
 62
7
100
AcDbSpline
 70
8
 71
3
 72
8
 73
4
 74
0
 40
0
 40
0
 40
0
 40
0
 40
1
 40
1
 40
1
 40
1
 10
92.181361
 20
24.042182
 30
0.0
 10
92.073802
 20
24.065645
 30
0.0
 10
91.941800
 20
24.077379
 30
0.0
 10
91.785355
 20
24.077382
 30
0.0
  0
LINE
  5
23c
100
AcDbEntity
  8
logo
 62
7
100
AcDbLine
 10
91.785355
 20
24.077382
 30
0.0
 11
91.128278
 21
24.077382
 31
0.0
  0
LINE
  5
23d
100
AcDbEntity
  8
logo
 62
7
100
AcDbLine
 10
91.128278
 20
24.077382
 30
0.0
 11
90.738139
 21
22.393624
 31
0.0
  0
LINE
  5
23e
100
AcDbEntity
  8
logo
 62
7
100
AcDbLine
 10
90.738139
 20
22.393624
 30
0.0
 11
91.354148
 21
22.393624
 31
0.0
  0
SPLINE
  5
23f
100
AcDbEntity
  8
logo
 62
7
100
AcDbSpline
 70
8
 71
3
 72
8
 73
4
 74
0
 40
0
 40
0
 40
0
 40
0
 40
1
 40
1
 40
1
 40
1
 10
91.354148
 20
22.393624
 30
0.0
 10
91.545795
 20
22.393620
 30
0.0
 10
91.712019
 20
22.411221
 30
0.0
 10
91.852824
 20
22.446424
 30
0.0
  0
SPLINE
  5
240
100
AcDbEntity
  8
logo
 62
7
100
AcDbSpline
 70
8
 71
3
 72
8
 73
4
 74
0
 40
0
 40
0
 40
0
 40
0
 40
1
 40
1
 40
1
 40
1
 10
91.852824
 20
22.446424
 30
0.0
 10
91.993623
 20
22.481622
 30
0.0
 10
92.121714
 20
22.543223
 30
0.0
 10
92.237095
 20
22.631226
 30
0.0
  0
SPLINE
  5
241
100
AcDbEntity
  8
logo
 62
7
100
AcDbSpline
 70
8
 71
3
 72
8
 73
4
 74
0
 40
0
 40
0
 40
0
 40
0
 40
1
 40
1
 40
1
 40
1
 10
92.237095
 20
22.631226
 30
0.0
 10
92.366162
 20
22.729003
 30
0.0
 10
92.466386
 20
22.851716
 30
0.0
 10
92.537767
 20
22.999366
 30
0.0
  0
SPLINE
  5
242
100
AcDbEntity
  8
logo
 62
7
100
AcDbSpline
 70
8
 71
3
 72
8
 73
4
 74
0
 40
0
 40
0
 40
0
 40
0
 40
1
 40
1
 40
1
 40
1
 10
92.537767
 20
22.999366
 30
0.0
 10
92.609143
 20
23.147010
 30
0.0
 10
92.644832
 20
23.303946
 30
0.0
 10
92.644835
 20
23.470173
 30
0.0
  0
LINE
  5
243
100
AcDbEntity
  8
logo
 62
7
100
AcDbLine
 10
92.644835
 20
23.470173
 30
0.0
 11
92.644835
 21
23.470173
 31
0.0
  0
LINE
  5
244
100
AcDbEntity
  8
logo
 62
7
100
AcDbLine
 10
93.296046
 20
20.187723
 30
0.0
 11
92.612568
 21
20.187723
 31
0.0
  0
LINE
  5
245
100
AcDbEntity
  8
logo
 62
7
100
AcDbLine
 10
92.612568
 20
20.187723
 30
0.0
 11
91.462683
 21
21.933083
 31
0.0
  0
LINE
  5
246
100
AcDbEntity
  8
logo
 62
7
100
AcDbLine
 10
91.462683
 20
21.933083
 30
0.0
 11
90.632538
 21
21.933083
 31
0.0
  0
LINE
  5
247
100
AcDbEntity
  8
logo
 62
7
100
AcDbLine
 10
90.632538
 20
21.933083
 30
0.0
 11
90.230665
 21
20.187723
 31
0.0
  0
LINE
  5
248
100
AcDbEntity
  8
logo
 62
7
100
AcDbLine
 10
90.230665
 20
20.187723
 30
0.0
 11
89.643989
 21
20.187723
 31
0.0
  0
LINE
  5
249
100
AcDbEntity
  8
logo
 62
7
100
AcDbLine
 10
89.643989
 20
20.187723
 30
0.0
 11
90.650137
 21
24.555523
 31
0.0
  0
LINE
  5
24a
100
AcDbEntity
  8
logo
 62
7
100
AcDbLine
 10
90.650137
 20
24.555523
 30
0.0
 11
91.841090
 21
24.555523
 31
0.0
  0
SPLINE
  5
24b
100
AcDbEntity
  8
logo
 62
7
100
AcDbSpline
 70
8
 71
3
 72
8
 73
4
 74
0
 40
0
 40
0
 40
0
 40
0
 40
1
 40
1
 40
1
 40
1
 10
91.841090
 20
24.555523
 30
0.0
 10
92.107047
 20
24.555518
 30
0.0
 10
92.323139
 20
24.538407
 30
0.0
 10
92.489366
 20
24.504188
 30
0.0
  0
SPLINE
  5
24c
100
AcDbEntity
  8
logo
 62
7
100
AcDbSpline
 70
8
 71
3
 72
8
 73
4
 74
0
 40
0
 40
0
 40
0
 40
0
 40
1
 40
1
 40
1
 40
1
 10
92.489366
 20
24.504188
 30
0.0
 10
92.655587
 20
24.469961
 30
0.0
 10
92.800301
 20
24.407872
 30
0.0
 10
92.923506
 20
24.317919
 30
0.0
  0
SPLINE
  5
24d
100
AcDbEntity
  8
logo
 62
7
100
AcDbSpline
 70
8
 71
3
 72
8
 73
4
 74
0
 40
0
 40
0
 40
0
 40
0
 40
1
 40
1
 40
1
 40
1
 10
92.923506
 20
24.317919
 30
0.0
 10
93.033016
 20
24.237737
 30
0.0
 10
93.119062
 20
24.140935
 30
0.0
 10
93.181643
 20
24.027514
 30
0.0
  0
SPLINE
  5
24e
100
AcDbEntity
  8
logo
 62
7
100
AcDbSpline
 70
8
 71
3
 72
8
 73
4
 74
0
 40
0
 40
0
 40
0
 40
0
 40
1
 40
1
 40
1
 40
1
 10
93.181643
 20
24.027514
 30
0.0
 10
93.244218
 20
23.914087
 30
0.0
 10
93.275508
 20
23.772307
 30
0.0
 10
93.275511
 20
23.602175
 30
0.0
  0
SPLINE
  5
24f
100
AcDbEntity
  8
logo
 62
7
100
AcDbSpline
 70
8
 71
3
 72
8
 73
4
 74
0
 40
0
 40
0
 40
0
 40
0
 40
1
 40
1
 40
1
 40
1
 10
93.275511
 20
23.602175
 30
0.0
 10
93.275508
 20
23.238434
 30
0.0
 10
93.161595
 20
22.919183
 30
0.0
 10
92.933773
 20
22.644428
 30
0.0
  0
SPLINE
  5
250
100
AcDbEntity
  8
logo
 62
7
100
AcDbSpline
 70
8
 71
3
 72
8
 73
4
 74
0
 40
0
 40
0
 40
0
 40
0
 40
1
 40
1
 40
1
 40
1
 10
92.933773
 20
22.644428
 30
0.0
 10
92.705945
 20
22.369665
 30
0.0
 10
92.407229
 20
22.178507
 30
0.0
 10
92.037626
 20
22.070952
 30
0.0
  0
LINE
  5
251
100
AcDbEntity
  8
logo
 62
7
100
AcDbLine
 10
92.037626
 20
22.070952
 30
0.0
 11
93.296046
 21
20.187723
 31
0.0
  0
SPLINE
  5
252
100
AcDbEntity
  8
logo
 62
7
100
AcDbSpline
 70
8
 71
3
 72
8
 73
4
 74
0
 40
0
 40
0
 40
0
 40
0
 40
1
 40
1
 40
1
 40
1
 10
98.200654
 20
23.009633
 30
0.0
 10
98.200649
 20
22.630247
 30
0.0
 10
98.143450
 20
22.264553
 30
0.0
 10
98.029052
 20
21.912549
 30
0.0
  0
SPLINE
  5
253
100
AcDbEntity
  8
logo
 62
7
100
AcDbSpline
 70
8
 71
3
 72
8
 73
4
 74
0
 40
0
 40
0
 40
0
 40
0
 40
1
 40
1
 40
1
 40
1
 10
98.029052
 20
21.912549
 30
0.0
 10
97.914646
 20
21.560542
 30
0.0
 10
97.748909
 20
21.250583
 30
0.0
 10
97.531845
 20
20.982668
 30
0.0
  0
SPLINE
  5
254
100
AcDbEntity
  8
logo
 62
7
100
AcDbSpline
 70
8
 71
3
 72
8
 73
4
 74
0
 40
0
 40
0
 40
0
 40
0
 40
1
 40
1
 40
1
 40
1
 10
97.531845
 20
20.982668
 30
0.0
 10
97.308904
 20
20.706930
 30
0.0
 10
97.040989
 20
20.490350
 30
0.0
 10
96.728099
 20
20.332924
 30
0.0
  0
SPLINE
  5
255
100
AcDbEntity
  8
logo
 62
7
100
AcDbSpline
 70
8
 71
3
 72
8
 73
4
 74
0
 40
0
 40
0
 40
0
 40
0
 40
1
 40
1
 40
1
 40
1
 10
96.728099
 20
20.332924
 30
0.0
 10
96.415202
 20
20.175500
 30
0.0
 10
96.062219
 20
20.096788
 30
0.0
 10
95.669149
 20
20.096788
 30
0.0
  0
SPLINE
  5
256
100
AcDbEntity
  8
logo
 62
7
100
AcDbSpline
 70
8
 71
3
 72
8
 73
4
 74
0
 40
0
 40
0
 40
0
 40
0
 40
1
 40
1
 40
1
 40
1
 10
95.669149
 20
20.096788
 30
0.0
 10
95.148962
 20
20.096788
 30
0.0
 10
94.742200
 20
20.239056
 30
0.0
 10
94.448863
 20
20.523594
 30
0.0
  0
SPLINE
  5
257
100
AcDbEntity
  8
logo
 62
7
100
AcDbSpline
 70
8
 71
3
 72
8
 73
4
 74
0
 40
0
 40
0
 40
0
 40
0
 40
1
 40
1
 40
1
 40
1
 10
94.448863
 20
20.523594
 30
0.0
 10
94.155526
 20
20.808131
 30
0.0
 10
94.008857
 20
21.212449
 30
0.0
 10
94.008857
 20
21.736547
 30
0.0
  0
SPLINE
  5
258
100
AcDbEntity
  8
logo
 62
7
100
AcDbSpline
 70
8
 71
3
 72
8
 73
4
 74
0
 40
0
 40
0
 40
0
 40
0
 40
1
 40
1
 40
1
 40
1
 10
94.008857
 20
21.736547
 30
0.0
 10
94.008857
 20
22.135483
 30
0.0
 10
94.067524
 20
22.508023
 30
0.0
 10
94.184859
 20
22.854164
 30
0.0
  0
SPLINE
  5
259
100
AcDbEntity
  8
logo
 62
7
100
AcDbSpline
 70
8
 71
3
 72
8
 73
4
 74
0
 40
0
 40
0
 40
0
 40
0
 40
1
 40
1
 40
1
 40
1
 10
94.184859
 20
22.854164
 30
0.0
 10
94.302194
 20
23.200300
 30
0.0
 10
94.471352
 20
23.509281
 30
0.0
 10
94.692334
 20
23.781111
 30
0.0
  0
SPLINE
  5
25a
100
AcDbEntity
  8
logo
 62
7
100
AcDbSpline
 70
8
 71
3
 72
8
 73
4
 74
0
 40
0
 40
0
 40
0
 40
0
 40
1
 40
1
 40
1
 40
1
 10
94.692334
 20
23.781111
 30
0.0
 10
94.907447
 20
24.043155
 30
0.0
 10
95.173895
 20
24.252891
 30
0.0
 10
95.491680
 20
24.410320
 30
0.0
  0
SPLINE
  5
25b
100
AcDbEntity
  8
logo
 62
7
100
AcDbSpline
 70
8
 71
3
 72
8
 73
4
 74
0
 40
0
 40
0
 40
0
 40
0
 40
1
 40
1
 40
1
 40
1
 10
95.491680
 20
24.410320
 30
0.0
 10
95.809460
 20
24.567741
 30
0.0
 10
96.158043
 20
24.646452
 30
0.0
 10
96.537429
 20
24.646457
 30
0.0
  0
SPLINE
  5
25c
100
AcDbEntity
  8
logo
 62
7
100
AcDbSpline
 70
8
 71
3
 72
8
 73
4
 74
0
 40
0
 40
0
 40
0
 40
0
 40
1
 40
1
 40
1
 40
1
 10
96.537429
 20
24.646457
 30
0.0
 10
97.055655
 20
24.646452
 30
0.0
 10
97.462418
 20
24.505162
 30
0.0
 10
97.757715
 20
24.222584
 30
0.0
  0
SPLINE
  5
25d
100
AcDbEntity
  8
logo
 62
7
100
AcDbSpline
 70
8
 71
3
 72
8
 73
4
 74
0
 40
0
 40
0
 40
0
 40
0
 40
1
 40
1
 40
1
 40
1
 10
97.757715
 20
24.222584
 30
0.0
 10
98.053003
 20
23.939999
 30
0.0
 10
98.200649
 20
23.535682
 30
0.0
 10
98.200654
 20
23.009633
 30
0.0
  0
LINE
  5
25e
100
AcDbEntity
  8
logo
 62
7
100
AcDbLine
 10
98.200654
 20
23.009633
 30
0.0
 11
98.200654
 21
23.009633
 31
0.0
  0
SPLINE
  5
25f
100
AcDbEntity
  8
logo
 62
7
100
AcDbSpline
 70
8
 71
3
 72
8
 73
4
 74
0
 40
0
 40
0
 40
0
 40
0
 40
1
 40
1
 40
1
 40
1
 10
97.088903
 20
21.273072
 30
0.0
 10
97.253169
 20
21.496008
 30
0.0
 10
97.377350
 20
21.744856
 30
0.0
 10
97.461443
 20
22.019618
 30
0.0
  0
SPLINE
  5
260
100
AcDbEntity
  8
logo
 62
7
100
AcDbSpline
 70
8
 71
3
 72
8
 73
4
 74
0
 40
0
 40
0
 40
0
 40
0
 40
1
 40
1
 40
1
 40
1
 10
97.461443
 20
22.019618
 30
0.0
 10
97.545529
 20
22.294375
 30
0.0
 10
97.587574
 20
22.597001
 30
0.0
 10
97.587579
 20
22.927497
 30
0.0
  0
SPLINE
  5
261
100
AcDbEntity
  8
logo
 62
7
100
AcDbSpline
 70
8
 71
3
 72
8
 73
4
 74
0
 40
0
 40
0
 40
0
 40
0
 40
1
 40
1
 40
1
 40
1
 10
97.587579
 20
22.927497
 30
0.0
 10
97.587574
 20
23.326434
 30
0.0
 10
97.487350
 20
23.632972
 30
0.0
 10
97.286907
 20
23.847113
 30
0.0
  0
SPLINE
  5
262
100
AcDbEntity
  8
logo
 62
7
100
AcDbSpline
 70
8
 71
3
 72
8
 73
4
 74
0
 40
0
 40
0
 40
0
 40
0
 40
1
 40
1
 40
1
 40
1
 10
97.286907
 20
23.847113
 30
0.0
 10
97.086456
 20
24.061245
 30
0.0
 10
96.806318
 20
24.168313
 30
0.0
 10
96.446495
 20
24.168316
 30
0.0
  0
SPLINE
  5
263
100
AcDbEntity
  8
logo
 62
7
100
AcDbSpline
 70
8
 71
3
 72
8
 73
4
 74
0
 40
0
 40
0
 40
0
 40
0
 40
1
 40
1
 40
1
 40
1
 10
96.446495
 20
24.168316
 30
0.0
 10
96.166844
 20
24.168313
 30
0.0
 10
95.914573
 20
24.104268
 30
0.0
 10
95.689683
 20
23.976181
 30
0.0
  0
SPLINE
  5
264
100
AcDbEntity
  8
logo
 62
7
100
AcDbSpline
 70
8
 71
3
 72
8
 73
4
 74
0
 40
0
 40
0
 40
0
 40
0
 40
1
 40
1
 40
1
 40
1
 10
95.689683
 20
23.976181
 30
0.0
 10
95.464789
 20
23.848085
 30
0.0
 10
95.271186
 20
23.674528
 30
0.0
 10
95.108874
 20
23.455506
 30
0.0
  0
SPLINE
  5
265
100
AcDbEntity
  8
logo
 62
7
100
AcDbSpline
 70
8
 71
3
 72
8
 73
4
 74
0
 40
0
 40
0
 40
0
 40
0
 40
1
 40
1
 40
1
 40
1
 10
95.108874
 20
23.455506
 30
0.0
 10
94.952426
 20
23.240389
 30
0.0
 10
94.832157
 20
22.990562
 30
0.0
 10
94.748068
 20
22.706028
 30
0.0
  0
SPLINE
  5
266
100
AcDbEntity
  8
logo
 62
7
100
AcDbSpline
 70
8
 71
3
 72
8
 73
4
 74
0
 40
0
 40
0
 40
0
 40
0
 40
1
 40
1
 40
1
 40
1
 10
94.748068
 20
22.706028
 30
0.0
 10
94.663978
 20
22.421488
 30
0.0
 10
94.621932
 20
22.128639
 30
0.0
 10
94.621932
 20
21.827481
 30
0.0
  0
SPLINE
  5
267
100
AcDbEntity
  8
logo
 62
7
100
AcDbSpline
 70
8
 71
3
 72
8
 73
4
 74
0
 40
0
 40
0
 40
0
 40
0
 40
1
 40
1
 40
1
 40
1
 10
94.621932
 20
21.827481
 30
0.0
 10
94.621932
 20
21.424630
 30
0.0
 10
94.722155
 20
21.115157
 30
0.0
 10
94.922604
 20
20.899067
 30
0.0
  0
SPLINE
  5
268
100
AcDbEntity
  8
logo
 62
7
100
AcDbSpline
 70
8
 71
3
 72
8
 73
4
 74
0
 40
0
 40
0
 40
0
 40
0
 40
1
 40
1
 40
1
 40
1
 10
94.922604
 20
20.899067
 30
0.0
 10
95.123051
 20
20.682975
 30
0.0
 10
95.404166
 20
20.574928
 30
0.0
 10
95.765951
 20
20.574929
 30
0.0
  0
SPLINE
  5
269
100
AcDbEntity
  8
logo
 62
7
100
AcDbSpline
 70
8
 71
3
 72
8
 73
4
 74
0
 40
0
 40
0
 40
0
 40
0
 40
1
 40
1
 40
1
 40
1
 10
95.765951
 20
20.574929
 30
0.0
 10
96.041686
 20
20.574928
 30
0.0
 10
96.292490
 20
20.638485
 30
0.0
 10
96.518363
 20
20.765598
 30
0.0
  0
SPLINE
  5
26a
100
AcDbEntity
  8
logo
 62
7
100
AcDbSpline
 70
8
 71
3
 72
8
 73
4
 74
0
 40
0
 40
0
 40
0
 40
0
 40
1
 40
1
 40
1
 40
1
 10
96.518363
 20
20.765598
 30
0.0
 10
96.744230
 20
20.892711
 30
0.0
 10
96.934410
 20
21.061869
 30
0.0
 10
97.088903
 20
21.273072
 30
0.0
  0
LINE
  5
26b
100
AcDbEntity
  8
logo
 62
7
100
AcDbLine
 10
97.088903
 20
21.273072
 30
0.0
 11
97.088903
 21
21.273072
 31
0.0
  0
LINE
  5
26c
100
AcDbEntity
  8
logo
 62
7
100
AcDbLine
 10
102.562587
 20
24.059781
 30
0.0
 11
101.004964
 21
24.059781
 31
0.0
  0
LINE
  5
26d
100
AcDbEntity
  8
logo
 62
7
100
AcDbLine
 10
101.004964
 20
24.059781
 30
0.0
 11
100.110283
 21
20.187723
 31
0.0
  0
LINE
  5
26e
100
AcDbEntity
  8
logo
 62
7
100
AcDbLine
 10
100.110283
 20
20.187723
 30
0.0
 11
99.523608
 21
20.187723
 31
0.0
  0
LINE
  5
26f
100
AcDbEntity
  8
logo
 62
7
100
AcDbLine
 10
99.523608
 20
20.187723
 30
0.0
 11
100.418288
 21
24.059781
 31
0.0
  0
LINE
  5
270
100
AcDbEntity
  8
logo
 62
7
100
AcDbLine
 10
100.418288
 20
24.059781
 30
0.0
 11
98.860663
 21
24.059781
 31
0.0
  0
LINE
  5
271
100
AcDbEntity
  8
logo
 62
7
100
AcDbLine
 10
98.860663
 20
24.059781
 30
0.0
 11
98.972132
 21
24.555523
 31
0.0
  0
LINE
  5
272
100
AcDbEntity
  8
logo
 62
7
100
AcDbLine
 10
98.972132
 20
24.555523
 30
0.0
 11
102.674056
 21
24.555523
 31
0.0
  0
LINE
  5
273
100
AcDbEntity
  8
logo
 62
7
100
AcDbLine
 10
102.674056
 20
24.555523
 30
0.0
 11
102.562587
 21
24.059781
 31
0.0
  0
SPLINE
  5
274
100
AcDbEntity
  8
logo
 62
7
100
AcDbSpline
 70
8
 71
3
 72
8
 73
4
 74
0
 40
0
 40
0
 40
0
 40
0
 40
1
 40
1
 40
1
 40
1
 10
105.258363
 20
23.470173
 30
0.0
 10
105.258360
 20
23.573816
 30
0.0
 10
105.242714
 20
23.661328
 30
0.0
 10
105.211429
 20
23.732710
 30
0.0
  0
SPLINE
  5
275
100
AcDbEntity
  8
logo
 62
7
100
AcDbSpline
 70
8
 71
3
 72
8
 73
4
 74
0
 40
0
 40
0
 40
0
 40
0
 40
1
 40
1
 40
1
 40
1
 10
105.211429
 20
23.732710
 30
0.0
 10
105.180138
 20
23.804085
 30
0.0
 10
105.132224
 20
23.865198
 30
0.0
 10
105.067695
 20
23.916047
 30
0.0
  0
SPLINE
  5
276
100
AcDbEntity
  8
logo
 62
7
100
AcDbSpline
 70
8
 71
3
 72
8
 73
4
 74
0
 40
0
 40
0
 40
0
 40
0
 40
1
 40
1
 40
1
 40
1
 10
105.067695
 20
23.916047
 30
0.0
 10
104.993379
 20
23.976665
 30
0.0
 10
104.902445
 20
24.018710
 30
0.0
 10
104.794889
 20
24.042182
 30
0.0
  0
SPLINE
  5
277
100
AcDbEntity
  8
logo
 62
7
100
AcDbSpline
 70
8
 71
3
 72
8
 73
4
 74
0
 40
0
 40
0
 40
0
 40
0
 40
1
 40
1
 40
1
 40
1
 10
104.794889
 20
24.042182
 30
0.0
 10
104.687330
 20
24.065645
 30
0.0
 10
104.555328
 20
24.077379
 30
0.0
 10
104.398883
 20
24.077382
 30
0.0
  0
LINE
  5
278
100
AcDbEntity
  8
logo
 62
7
100
AcDbLine
 10
104.398883
 20
24.077382
 30
0.0
 11
103.741806
 21
24.077382
 31
0.0
  0
LINE
  5
279
100
AcDbEntity
  8
logo
 62
7
100
AcDbLine
 10
103.741806
 20
24.077382
 30
0.0
 11
103.351667
 21
22.393624
 31
0.0
  0
LINE
  5
27a
100
AcDbEntity
  8
logo
 62
7
100
AcDbLine
 10
103.351667
 20
22.393624
 30
0.0
 11
103.967676
 21
22.393624
 31
0.0
  0
SPLINE
  5
27b
100
AcDbEntity
  8
logo
 62
7
100
AcDbSpline
 70
8
 71
3
 72
8
 73
4
 74
0
 40
0
 40
0
 40
0
 40
0
 40
1
 40
1
 40
1
 40
1
 10
103.967676
 20
22.393624
 30
0.0
 10
104.159322
 20
22.393620
 30
0.0
 10
104.325547
 20
22.411221
 30
0.0
 10
104.466352
 20
22.446424
 30
0.0
  0
SPLINE
  5
27c
100
AcDbEntity
  8
logo
 62
7
100
AcDbSpline
 70
8
 71
3
 72
8
 73
4
 74
0
 40
0
 40
0
 40
0
 40
0
 40
1
 40
1
 40
1
 40
1
 10
104.466352
 20
22.446424
 30
0.0
 10
104.607151
 20
22.481622
 30
0.0
 10
104.735241
 20
22.543223
 30
0.0
 10
104.850623
 20
22.631226
 30
0.0
  0
SPLINE
  5
27d
100
AcDbEntity
  8
logo
 62
7
100
AcDbSpline
 70
8
 71
3
 72
8
 73
4
 74
0
 40
0
 40
0
 40
0
 40
0
 40
1
 40
1
 40
1
 40
1
 10
104.850623
 20
22.631226
 30
0.0
 10
104.979690
 20
22.729003
 30
0.0
 10
105.079914
 20
22.851716
 30
0.0
 10
105.151295
 20
22.999366
 30
0.0
  0
SPLINE
  5
27e
100
AcDbEntity
  8
logo
 62
7
100
AcDbSpline
 70
8
 71
3
 72
8
 73
4
 74
0
 40
0
 40
0
 40
0
 40
0
 40
1
 40
1
 40
1
 40
1
 10
105.151295
 20
22.999366
 30
0.0
 10
105.222671
 20
23.147010
 30
0.0
 10
105.258360
 20
23.303946
 30
0.0
 10
105.258363
 20
23.470173
 30
0.0
  0
LINE
  5
27f
100
AcDbEntity
  8
logo
 62
7
100
AcDbLine
 10
105.258363
 20
23.470173
 30
0.0
 11
105.258363
 21
23.470173
 31
0.0
  0
LINE
  5
280
100
AcDbEntity
  8
logo
 62
7
100
AcDbLine
 10
105.909574
 20
20.187723
 30
0.0
 11
105.226096
 21
20.187723
 31
0.0
  0
LINE
  5
281
100
AcDbEntity
  8
logo
 62
7
100
AcDbLine
 10
105.226096
 20
20.187723
 30
0.0
 11
104.076211
 21
21.933083
 31
0.0
  0
LINE
  5
282
100
AcDbEntity
  8
logo
 62
7
100
AcDbLine
 10
104.076211
 20
21.933083
 30
0.0
 11
103.246066
 21
21.933083
 31
0.0
  0
LINE
  5
283
100
AcDbEntity
  8
logo
 62
7
100
AcDbLine
 10
103.246066
 20
21.933083
 30
0.0
 11
102.844193
 21
20.187723
 31
0.0
  0
LINE
  5
284
100
AcDbEntity
  8
logo
 62
7
100
AcDbLine
 10
102.844193
 20
20.187723
 30
0.0
 11
102.257517
 21
20.187723
 31
0.0
  0
LINE
  5
285
100
AcDbEntity
  8
logo
 62
7
100
AcDbLine
 10
102.257517
 20
20.187723
 30
0.0
 11
103.263667
 21
24.555523
 31
0.0
  0
LINE
  5
286
100
AcDbEntity
  8
logo
 62
7
100
AcDbLine
 10
103.263667
 20
24.555523
 30
0.0
 11
104.454618
 21
24.555523
 31
0.0
  0
SPLINE
  5
287
100
AcDbEntity
  8
logo
 62
7
100
AcDbSpline
 70
8
 71
3
 72
8
 73
4
 74
0
 40
0
 40
0
 40
0
 40
0
 40
1
 40
1
 40
1
 40
1
 10
104.454618
 20
24.555523
 30
0.0
 10
104.720575
 20
24.555518
 30
0.0
 10
104.936667
 20
24.538407
 30
0.0
 10
105.102894
 20
24.504188
 30
0.0
  0
SPLINE
  5
288
100
AcDbEntity
  8
logo
 62
7
100
AcDbSpline
 70
8
 71
3
 72
8
 73
4
 74
0
 40
0
 40
0
 40
0
 40
0
 40
1
 40
1
 40
1
 40
1
 10
105.102894
 20
24.504188
 30
0.0
 10
105.269115
 20
24.469961
 30
0.0
 10
105.413829
 20
24.407872
 30
0.0
 10
105.537034
 20
24.317919
 30
0.0
  0
SPLINE
  5
289
100
AcDbEntity
  8
logo
 62
7
100
AcDbSpline
 70
8
 71
3
 72
8
 73
4
 74
0
 40
0
 40
0
 40
0
 40
0
 40
1
 40
1
 40
1
 40
1
 10
105.537034
 20
24.317919
 30
0.0
 10
105.646544
 20
24.237737
 30
0.0
 10
105.732590
 20
24.140935
 30
0.0
 10
105.795171
 20
24.027514
 30
0.0
  0
SPLINE
  5
28a
100
AcDbEntity
  8
logo
 62
7
100
AcDbSpline
 70
8
 71
3
 72
8
 73
4
 74
0
 40
0
 40
0
 40
0
 40
0
 40
1
 40
1
 40
1
 40
1
 10
105.795171
 20
24.027514
 30
0.0
 10
105.857746
 20
23.914087
 30
0.0
 10
105.889036
 20
23.772307
 30
0.0
 10
105.889039
 20
23.602175
 30
0.0
  0
SPLINE
  5
28b
100
AcDbEntity
  8
logo
 62
7
100
AcDbSpline
 70
8
 71
3
 72
8
 73
4
 74
0
 40
0
 40
0
 40
0
 40
0
 40
1
 40
1
 40
1
 40
1
 10
105.889039
 20
23.602175
 30
0.0
 10
105.889036
 20
23.238434
 30
0.0
 10
105.775123
 20
22.919183
 30
0.0
 10
105.547301
 20
22.644428
 30
0.0
  0
SPLINE
  5
28c
100
AcDbEntity
  8
logo
 62
7
100
AcDbSpline
 70
8
 71
3
 72
8
 73
4
 74
0
 40
0
 40
0
 40
0
 40
0
 40
1
 40
1
 40
1
 40
1
 10
105.547301
 20
22.644428
 30
0.0
 10
105.319473
 20
22.369665
 30
0.0
 10
105.020757
 20
22.178507
 30
0.0
 10
104.651154
 20
22.070952
 30
0.0
  0
LINE
  5
28d
100
AcDbEntity
  8
logo
 62
7
100
AcDbLine
 10
104.651154
 20
22.070952
 30
0.0
 11
105.909574
 21
20.187723
 31
0.0
  0
SPLINE
  5
28e
100
AcDbEntity
  8
logo
 62
7
100
AcDbSpline
 70
8
 71
3
 72
8
 73
4
 74
0
 40
0
 40
0
 40
0
 40
0
 40
1
 40
1
 40
1
 40
1
 10
110.814180
 20
23.009633
 30
0.0
 10
110.814176
 20
22.630247
 30
0.0
 10
110.756974
 20
22.264553
 30
0.0
 10
110.642578
 20
21.912549
 30
0.0
  0
SPLINE
  5
28f
100
AcDbEntity
  8
logo
 62
7
100
AcDbSpline
 70
8
 71
3
 72
8
 73
4
 74
0
 40
0
 40
0
 40
0
 40
0
 40
1
 40
1
 40
1
 40
1
 10
110.642578
 20
21.912549
 30
0.0
 10
110.528172
 20
21.560542
 30
0.0
 10
110.362436
 20
21.250583
 30
0.0
 10
110.145369
 20
20.982668
 30
0.0
  0
SPLINE
  5
290
100
AcDbEntity
  8
logo
 62
7
100
AcDbSpline
 70
8
 71
3
 72
8
 73
4
 74
0
 40
0
 40
0
 40
0
 40
0
 40
1
 40
1
 40
1
 40
1
 10
110.145369
 20
20.982668
 30
0.0
 10
109.922428
 20
20.706930
 30
0.0
 10
109.654515
 20
20.490350
 30
0.0
 10
109.341624
 20
20.332924
 30
0.0
  0
SPLINE
  5
291
100
AcDbEntity
  8
logo
 62
7
100
AcDbSpline
 70
8
 71
3
 72
8
 73
4
 74
0
 40
0
 40
0
 40
0
 40
0
 40
1
 40
1
 40
1
 40
1
 10
109.341624
 20
20.332924
 30
0.0
 10
109.028728
 20
20.175500
 30
0.0
 10
108.675745
 20
20.096788
 30
0.0
 10
108.282675
 20
20.096788
 30
0.0
  0
SPLINE
  5
292
100
AcDbEntity
  8
logo
 62
7
100
AcDbSpline
 70
8
 71
3
 72
8
 73
4
 74
0
 40
0
 40
0
 40
0
 40
0
 40
1
 40
1
 40
1
 40
1
 10
108.282675
 20
20.096788
 30
0.0
 10
107.762487
 20
20.096788
 30
0.0
 10
107.355726
 20
20.239056
 30
0.0
 10
107.062389
 20
20.523594
 30
0.0
  0
SPLINE
  5
293
100
AcDbEntity
  8
logo
 62
7
100
AcDbSpline
 70
8
 71
3
 72
8
 73
4
 74
0
 40
0
 40
0
 40
0
 40
0
 40
1
 40
1
 40
1
 40
1
 10
107.062389
 20
20.523594
 30
0.0
 10
106.769050
 20
20.808131
 30
0.0
 10
106.622382
 20
21.212449
 30
0.0
 10
106.622382
 20
21.736547
 30
0.0
  0
SPLINE
  5
294
100
AcDbEntity
  8
logo
 62
7
100
AcDbSpline
 70
8
 71
3
 72
8
 73
4
 74
0
 40
0
 40
0
 40
0
 40
0
 40
1
 40
1
 40
1
 40
1
 10
106.622382
 20
21.736547
 30
0.0
 10
106.622382
 20
22.135483
 30
0.0
 10
106.681050
 20
22.508023
 30
0.0
 10
106.798385
 20
22.854164
 30
0.0
  0
SPLINE
  5
295
100
AcDbEntity
  8
logo
 62
7
100
AcDbSpline
 70
8
 71
3
 72
8
 73
4
 74
0
 40
0
 40
0
 40
0
 40
0
 40
1
 40
1
 40
1
 40
1
 10
106.798385
 20
22.854164
 30
0.0
 10
106.915719
 20
23.200300
 30
0.0
 10
107.084877
 20
23.509281
 30
0.0
 10
107.305860
 20
23.781111
 30
0.0
  0
SPLINE
  5
296
100
AcDbEntity
  8
logo
 62
7
100
AcDbSpline
 70
8
 71
3
 72
8
 73
4
 74
0
 40
0
 40
0
 40
0
 40
0
 40
1
 40
1
 40
1
 40
1
 10
107.305860
 20
23.781111
 30
0.0
 10
107.520973
 20
24.043155
 30
0.0
 10
107.787421
 20
24.252891
 30
0.0
 10
108.105204
 20
24.410320
 30
0.0
  0
SPLINE
  5
297
100
AcDbEntity
  8
logo
 62
7
100
AcDbSpline
 70
8
 71
3
 72
8
 73
4
 74
0
 40
0
 40
0
 40
0
 40
0
 40
1
 40
1
 40
1
 40
1
 10
108.105204
 20
24.410320
 30
0.0
 10
108.422986
 20
24.567741
 30
0.0
 10
108.771568
 20
24.646452
 30
0.0
 10
109.150955
 20
24.646457
 30
0.0
  0
SPLINE
  5
298
100
AcDbEntity
  8
logo
 62
7
100
AcDbSpline
 70
8
 71
3
 72
8
 73
4
 74
0
 40
0
 40
0
 40
0
 40
0
 40
1
 40
1
 40
1
 40
1
 10
109.150955
 20
24.646457
 30
0.0
 10
109.669182
 20
24.646452
 30
0.0
 10
110.075942
 20
24.505162
 30
0.0
 10
110.371239
 20
24.222584
 30
0.0
  0
SPLINE
  5
299
100
AcDbEntity
  8
logo
 62
7
100
AcDbSpline
 70
8
 71
3
 72
8
 73
4
 74
0
 40
0
 40
0
 40
0
 40
0
 40
1
 40
1
 40
1
 40
1
 10
110.371239
 20
24.222584
 30
0.0
 10
110.666528
 20
23.939999
 30
0.0
 10
110.814176
 20
23.535682
 30
0.0
 10
110.814180
 20
23.009633
 30
0.0
  0
LINE
  5
29a
100
AcDbEntity
  8
logo
 62
7
100
AcDbLine
 10
110.814180
 20
23.009633
 30
0.0
 11
110.814180
 21
23.009633
 31
0.0
  0
SPLINE
  5
29b
100
AcDbEntity
  8
logo
 62
7
100
AcDbSpline
 70
8
 71
3
 72
8
 73
4
 74
0
 40
0
 40
0
 40
0
 40
0
 40
1
 40
1
 40
1
 40
1
 10
109.702430
 20
21.273072
 30
0.0
 10
109.866696
 20
21.496008
 30
0.0
 10
109.990875
 20
21.744856
 30
0.0
 10
110.074968
 20
22.019618
 30
0.0
  0
SPLINE
  5
29c
100
AcDbEntity
  8
logo
 62
7
100
AcDbSpline
 70
8
 71
3
 72
8
 73
4
 74
0
 40
0
 40
0
 40
0
 40
0
 40
1
 40
1
 40
1
 40
1
 10
110.074968
 20
22.019618
 30
0.0
 10
110.159055
 20
22.294375
 30
0.0
 10
110.201100
 20
22.597001
 30
0.0
 10
110.201104
 20
22.927497
 30
0.0
  0
SPLINE
  5
29d
100
AcDbEntity
  8
logo
 62
7
100
AcDbSpline
 70
8
 71
3
 72
8
 73
4
 74
0
 40
0
 40
0
 40
0
 40
0
 40
1
 40
1
 40
1
 40
1
 10
110.201104
 20
22.927497
 30
0.0
 10
110.201100
 20
23.326434
 30
0.0
 10
110.100876
 20
23.632972
 30
0.0
 10
109.900433
 20
23.847113
 30
0.0
  0
SPLINE
  5
29e
100
AcDbEntity
  8
logo
 62
7
100
AcDbSpline
 70
8
 71
3
 72
8
 73
4
 74
0
 40
0
 40
0
 40
0
 40
0
 40
1
 40
1
 40
1
 40
1
 10
109.900433
 20
23.847113
 30
0.0
 10
109.699982
 20
24.061245
 30
0.0
 10
109.419845
 20
24.168313
 30
0.0
 10
109.060019
 20
24.168316
 30
0.0
  0
SPLINE
  5
29f
100
AcDbEntity
  8
logo
 62
7
100
AcDbSpline
 70
8
 71
3
 72
8
 73
4
 74
0
 40
0
 40
0
 40
0
 40
0
 40
1
 40
1
 40
1
 40
1
 10
109.060019
 20
24.168316
 30
0.0
 10
108.780368
 20
24.168313
 30
0.0
 10
108.528099
 20
24.104268
 30
0.0
 10
108.303208
 20
23.976181
 30
0.0
  0
SPLINE
  5
2a0
100
AcDbEntity
  8
logo
 62
7
100
AcDbSpline
 70
8
 71
3
 72
8
 73
4
 74
0
 40
0
 40
0
 40
0
 40
0
 40
1
 40
1
 40
1
 40
1
 10
108.303208
 20
23.976181
 30
0.0
 10
108.078314
 20
23.848085
 30
0.0
 10
107.884711
 20
23.674528
 30
0.0
 10
107.722398
 20
23.455506
 30
0.0
  0
SPLINE
  5
2a1
100
AcDbEntity
  8
logo
 62
7
100
AcDbSpline
 70
8
 71
3
 72
8
 73
4
 74
0
 40
0
 40
0
 40
0
 40
0
 40
1
 40
1
 40
1
 40
1
 10
107.722398
 20
23.455506
 30
0.0
 10
107.565951
 20
23.240389
 30
0.0
 10
107.445683
 20
22.990562
 30
0.0
 10
107.361594
 20
22.706028
 30
0.0
  0
SPLINE
  5
2a2
100
AcDbEntity
  8
logo
 62
7
100
AcDbSpline
 70
8
 71
3
 72
8
 73
4
 74
0
 40
0
 40
0
 40
0
 40
0
 40
1
 40
1
 40
1
 40
1
 10
107.361594
 20
22.706028
 30
0.0
 10
107.277502
 20
22.421488
 30
0.0
 10
107.235457
 20
22.128639
 30
0.0
 10
107.235459
 20
21.827481
 30
0.0
  0
SPLINE
  5
2a3
100
AcDbEntity
  8
logo
 62
7
100
AcDbSpline
 70
8
 71
3
 72
8
 73
4
 74
0
 40
0
 40
0
 40
0
 40
0
 40
1
 40
1
 40
1
 40
1
 10
107.235459
 20
21.827481
 30
0.0
 10
107.235457
 20
21.424630
 30
0.0
 10
107.335681
 20
21.115157
 30
0.0
 10
107.536129
 20
20.899067
 30
0.0
  0
SPLINE
  5
2a4
100
AcDbEntity
  8
logo
 62
7
100
AcDbSpline
 70
8
 71
3
 72
8
 73
4
 74
0
 40
0
 40
0
 40
0
 40
0
 40
1
 40
1
 40
1
 40
1
 10
107.536129
 20
20.899067
 30
0.0
 10
107.736576
 20
20.682975
 30
0.0
 10
108.017690
 20
20.574928
 30
0.0
 10
108.379475
 20
20.574929
 30
0.0
  0
SPLINE
  5
2a5
100
AcDbEntity
  8
logo
 62
7
100
AcDbSpline
 70
8
 71
3
 72
8
 73
4
 74
0
 40
0
 40
0
 40
0
 40
0
 40
1
 40
1
 40
1
 40
1
 10
108.379475
 20
20.574929
 30
0.0
 10
108.655212
 20
20.574928
 30
0.0
 10
108.906014
 20
20.638485
 30
0.0
 10
109.131887
 20
20.765598
 30
0.0
  0
SPLINE
  5
2a6
100
AcDbEntity
  8
logo
 62
7
100
AcDbSpline
 70
8
 71
3
 72
8
 73
4
 74
0
 40
0
 40
0
 40
0
 40
0
 40
1
 40
1
 40
1
 40
1
 10
109.131887
 20
20.765598
 30
0.0
 10
109.357754
 20
20.892711
 30
0.0
 10
109.547935
 20
21.061869
 30
0.0
 10
109.702430
 20
21.273072
 30
0.0
  0
LINE
  5
2a7
100
AcDbEntity
  8
logo
 62
7
100
AcDbLine
 10
109.702430
 20
21.273072
 30
0.0
 11
109.702430
 21
21.273072
 31
0.0
  0
LINE
  5
2a8
100
AcDbEntity
  8
logo
 62
7
100
AcDbLine
 10
114.501435
 20
20.187723
 30
0.0
 11
113.809159
 21
20.187723
 31
0.0
  0
LINE
  5
2a9
100
AcDbEntity
  8
logo
 62
7
100
AcDbLine
 10
113.809159
 20
20.187723
 30
0.0
 11
112.615274
 21
24.094983
 31
0.0
  0
LINE
  5
2aa
100
AcDbEntity
  8
logo
 62
7
100
AcDbLine
 10
112.615274
 20
24.094983
 30
0.0
 11
111.711792
 21
20.187723
 31
0.0
  0
LINE
  5
2ab
100
AcDbEntity
  8
logo
 62
7
100
AcDbLine
 10
111.711792
 20
20.187723
 30
0.0
 11
111.163252
 21
20.187723
 31
0.0
  0
LINE
  5
2ac
100
AcDbEntity
  8
logo
 62
7
100
AcDbLine
 10
111.163252
 20
20.187723
 30
0.0
 11
112.172334
 21
24.555523
 31
0.0
  0
LINE
  5
2ad
100
AcDbEntity
  8
logo
 62
7
100
AcDbLine
 10
112.172334
 20
24.555523
 30
0.0
 11
113.046481
 21
24.555523
 31
0.0
  0
LINE
  5
2ae
100
AcDbEntity
  8
logo
 62
7
100
AcDbLine
 10
113.046481
 20
24.555523
 30
0.0
 11
114.137697
 21
20.988536
 31
0.0
  0
LINE
  5
2af
100
AcDbEntity
  8
logo
 62
7
100
AcDbLine
 10
114.137697
 20
20.988536
 30
0.0
 11
114.961976
 21
24.555523
 31
0.0
  0
LINE
  5
2b0
100
AcDbEntity
  8
logo
 62
7
100
AcDbLine
 10
114.961976
 20
24.555523
 30
0.0
 11
115.510518
 21
24.555523
 31
0.0
  0
LINE
  5
2b1
100
AcDbEntity
  8
logo
 62
7
100
AcDbLine
 10
115.510518
 20
24.555523
 30
0.0
 11
114.501435
 21
20.187723
 31
0.0
  0
SPLINE
  5
2b2
100
AcDbEntity
  8
logo
 62
7
100
AcDbSpline
 70
8
 71
3
 72
8
 73
4
 74
0
 40
0
 40
0
 40
0
 40
0
 40
1
 40
1
 40
1
 40
1
 10
99.072023
 20
27.666593
 30
0.0
 10
98.994195
 20
27.333348
 30
0.0
 10
98.895419
 20
27.049494
 30
0.0
 10
98.775695
 20
26.815027
 30
0.0
  0
SPLINE
  5
2b3
100
AcDbEntity
  8
logo
 62
7
100
AcDbSpline
 70
8
 71
3
 72
8
 73
4
 74
0
 40
0
 40
0
 40
0
 40
0
 40
1
 40
1
 40
1
 40
1
 10
98.775695
 20
26.815027
 30
0.0
 10
98.655962
 20
26.580559
 30
0.0
 10
98.497324
 20
26.382509
 30
0.0
 10
98.299776
 20
26.220875
 30
0.0
  0
SPLINE
  5
2b4
100
AcDbEntity
  8
logo
 62
7
100
AcDbSpline
 70
8
 71
3
 72
8
 73
4
 74
0
 40
0
 40
0
 40
0
 40
0
 40
1
 40
1
 40
1
 40
1
 10
98.299776
 20
26.220875
 30
0.0
 10
98.116188
 20
26.073211
 30
0.0
 10
97.917142
 20
25.963460
 30
0.0
 10
97.702630
 20
25.891624
 30
0.0
  0
SPLINE
  5
2b5
100
AcDbEntity
  8
logo
 62
7
100
AcDbSpline
 70
8
 71
3
 72
8
 73
4
 74
0
 40
0
 40
0
 40
0
 40
0
 40
1
 40
1
 40
1
 40
1
 10
97.702630
 20
25.891624
 30
0.0
 10
97.488116
 20
25.819786
 30
0.0
 10
97.236188
 20
25.783868
 30
0.0
 10
96.946848
 20
25.783868
 30
0.0
  0
SPLINE
  5
2b6
100
AcDbEntity
  8
logo
 62
7
100
AcDbSpline
 70
8
 71
3
 72
8
 73
4
 74
0
 40
0
 40
0
 40
0
 40
0
 40
1
 40
1
 40
1
 40
1
 10
96.946848
 20
25.783868
 30
0.0
 10
96.477910
 20
25.783868
 30
0.0
 10
96.128704
 20
25.889627
 30
0.0
 10
95.899226
 20
26.101147
 30
0.0
  0
SPLINE
  5
2b7
100
AcDbEntity
  8
logo
 62
7
100
AcDbSpline
 70
8
 71
3
 72
8
 73
4
 74
0
 40
0
 40
0
 40
0
 40
0
 40
1
 40
1
 40
1
 40
1
 10
95.899226
 20
26.101147
 30
0.0
 10
95.669746
 20
26.312666
 30
0.0
 10
95.555008
 20
26.605004
 30
0.0
 10
95.555008
 20
26.978157
 30
0.0
  0
SPLINE
  5
2b8
100
AcDbEntity
  8
logo
 62
7
100
AcDbSpline
 70
8
 71
3
 72
8
 73
4
 74
0
 40
0
 40
0
 40
0
 40
0
 40
1
 40
1
 40
1
 40
1
 10
95.555008
 20
26.978157
 30
0.0
 10
95.555008
 20
27.103870
 30
0.0
 10
95.563482
 20
27.220605
 30
0.0
 10
95.580450
 20
27.328361
 30
0.0
  0
SPLINE
  5
2b9
100
AcDbEntity
  8
logo
 62
7
100
AcDbSpline
 70
8
 71
3
 72
8
 73
4
 74
0
 40
0
 40
0
 40
0
 40
0
 40
1
 40
1
 40
1
 40
1
 10
95.580450
 20
27.328361
 30
0.0
 10
95.597411
 20
27.436115
 30
0.0
 10
95.618862
 20
27.548859
 30
0.0
 10
95.644804
 20
27.666593
 30
0.0
  0
LINE
  5
2ba
100
AcDbEntity
  8
logo
 62
7
100
AcDbLine
 10
95.644804
 20
27.666593
 30
0.0
 11
96.261404
 21
30.333538
 31
0.0
  0
LINE
  5
2bb
100
AcDbEntity
  8
logo
 62
7
100
AcDbLine
 10
96.261404
 20
30.333538
 30
0.0
 11
96.860045
 21
30.333538
 31
0.0
  0
LINE
  5
2bc
100
AcDbEntity
  8
logo
 62
7
100
AcDbLine
 10
96.860045
 20
30.333538
 30
0.0
 11
96.237458
 21
27.636661
 31
0.0
  0
SPLINE
  5
2bd
100
AcDbEntity
  8
logo
 62
7
100
AcDbSpline
 70
8
 71
3
 72
8
 73
4
 74
0
 40
0
 40
0
 40
0
 40
0
 40
1
 40
1
 40
1
 40
1
 10
96.237458
 20
27.636661
 30
0.0
 10
96.213511
 20
27.542873
 30
0.0
 10
96.194055
 20
27.437612
 30
0.0
 10
96.179090
 20
27.320879
 30
0.0
  0
SPLINE
  5
2be
100
AcDbEntity
  8
logo
 62
7
100
AcDbSpline
 70
8
 71
3
 72
8
 73
4
 74
0
 40
0
 40
0
 40
0
 40
0
 40
1
 40
1
 40
1
 40
1
 10
96.179090
 20
27.320879
 30
0.0
 10
96.164115
 20
27.204142
 30
0.0
 10
96.156641
 20
27.112849
 30
0.0
 10
96.156641
 20
27.046999
 30
0.0
  0
SPLINE
  5
2bf
100
AcDbEntity
  8
logo
 62
7
100
AcDbSpline
 70
8
 71
3
 72
8
 73
4
 74
0
 40
0
 40
0
 40
0
 40
0
 40
1
 40
1
 40
1
 40
1
 10
96.156641
 20
27.046999
 30
0.0
 10
96.156641
 20
26.795569
 30
0.0
 10
96.231470
 20
26.603506
 30
0.0
 10
96.381132
 20
26.470808
 30
0.0
  0
SPLINE
  5
2c0
100
AcDbEntity
  8
logo
 62
7
100
AcDbSpline
 70
8
 71
3
 72
8
 73
4
 74
0
 40
0
 40
0
 40
0
 40
0
 40
1
 40
1
 40
1
 40
1
 10
96.381132
 20
26.470808
 30
0.0
 10
96.530791
 20
26.338109
 30
0.0
 10
96.754282
 20
26.271759
 30
0.0
 10
97.051609
 20
26.271761
 30
0.0
  0
SPLINE
  5
2c1
100
AcDbEntity
  8
logo
 62
7
100
AcDbSpline
 70
8
 71
3
 72
8
 73
4
 74
0
 40
0
 40
0
 40
0
 40
0
 40
1
 40
1
 40
1
 40
1
 10
97.051609
 20
26.271761
 30
0.0
 10
97.265122
 20
26.271759
 30
0.0
 10
97.452696
 20
26.304685
 30
0.0
 10
97.614332
 20
26.370535
 30
0.0
  0
SPLINE
  5
2c2
100
AcDbEntity
  8
logo
 62
7
100
AcDbSpline
 70
8
 71
3
 72
8
 73
4
 74
0
 40
0
 40
0
 40
0
 40
0
 40
1
 40
1
 40
1
 40
1
 10
97.614332
 20
26.370535
 30
0.0
 10
97.775962
 20
26.436386
 30
0.0
 10
97.916642
 20
26.535161
 30
0.0
 10
98.036374
 20
26.666863
 30
0.0
  0
SPLINE
  5
2c3
100
AcDbEntity
  8
logo
 62
7
100
AcDbSpline
 70
8
 71
3
 72
8
 73
4
 74
0
 40
0
 40
0
 40
0
 40
0
 40
1
 40
1
 40
1
 40
1
 10
98.036374
 20
26.666863
 30
0.0
 10
98.144126
 20
26.790581
 30
0.0
 10
98.230429
 20
26.927770
 30
0.0
 10
98.295285
 20
27.078429
 30
0.0
  0
SPLINE
  5
2c4
100
AcDbEntity
  8
logo
 62
7
100
AcDbSpline
 70
8
 71
3
 72
8
 73
4
 74
0
 40
0
 40
0
 40
0
 40
0
 40
1
 40
1
 40
1
 40
1
 10
98.295285
 20
27.078429
 30
0.0
 10
98.360134
 20
27.229084
 30
0.0
 10
98.416507
 20
27.410174
 30
0.0
 10
98.464401
 20
27.621695
 30
0.0
  0
LINE
  5
2c5
100
AcDbEntity
  8
logo
 62
7
100
AcDbLine
 10
98.464401
 20
27.621695
 30
0.0
 11
99.089981
 21
30.333538
 31
0.0
  0
LINE
  5
2c6
100
AcDbEntity
  8
logo
 62
7
100
AcDbLine
 10
99.089981
 20
30.333538
 30
0.0
 11
99.688623
 21
30.333538
 31
0.0
  0
LINE
  5
2c7
100
AcDbEntity
  8
logo
 62
7
100
AcDbLine
 10
99.688623
 20
30.333538
 30
0.0
 11
99.072023
 21
27.666593
 31
0.0
  0
SPLINE
  5
2c8
100
AcDbEntity
  8
logo
 62
7
100
AcDbSpline
 70
8
 71
3
 72
8
 73
4
 74
0
 40
0
 40
0
 40
0
 40
0
 40
1
 40
1
 40
1
 40
1
 10
102.852438
 20
29.226052
 30
0.0
 10
102.852435
 20
29.331808
 30
0.0
 10
102.836468
 20
29.421105
 30
0.0
 10
102.804547
 20
29.493944
 30
0.0
  0
SPLINE
  5
2c9
100
AcDbEntity
  8
logo
 62
7
100
AcDbSpline
 70
8
 71
3
 72
8
 73
4
 74
0
 40
0
 40
0
 40
0
 40
0
 40
1
 40
1
 40
1
 40
1
 10
102.804547
 20
29.493944
 30
0.0
 10
102.772617
 20
29.566776
 30
0.0
 10
102.723728
 20
29.629134
 30
0.0
 10
102.657880
 20
29.681019
 30
0.0
  0
SPLINE
  5
2ca
100
AcDbEntity
  8
logo
 62
7
100
AcDbSpline
 70
8
 71
3
 72
8
 73
4
 74
0
 40
0
 40
0
 40
0
 40
0
 40
1
 40
1
 40
1
 40
1
 10
102.657880
 20
29.681019
 30
0.0
 10
102.582049
 20
29.742875
 30
0.0
 10
102.489260
 20
29.785778
 30
0.0
 10
102.379512
 20
29.809728
 30
0.0
  0
SPLINE
  5
2cb
100
AcDbEntity
  8
logo
 62
7
100
AcDbSpline
 70
8
 71
3
 72
8
 73
4
 74
0
 40
0
 40
0
 40
0
 40
0
 40
1
 40
1
 40
1
 40
1
 10
102.379512
 20
29.809728
 30
0.0
 10
102.269759
 20
29.833668
 30
0.0
 10
102.135065
 20
29.845642
 30
0.0
 10
101.975430
 20
29.845645
 30
0.0
  0
LINE
  5
2cc
100
AcDbEntity
  8
logo
 62
7
100
AcDbLine
 10
101.975430
 20
29.845645
 30
0.0
 11
101.304952
 21
29.845645
 31
0.0
  0
LINE
  5
2cd
100
AcDbEntity
  8
logo
 62
7
100
AcDbLine
 10
101.304952
 20
29.845645
 30
0.0
 11
100.906855
 21
28.127547
 31
0.0
  0
LINE
  5
2ce
100
AcDbEntity
  8
logo
 62
7
100
AcDbLine
 10
100.906855
 20
28.127547
 30
0.0
 11
101.535429
 21
28.127547
 31
0.0
  0
SPLINE
  5
2cf
100
AcDbEntity
  8
logo
 62
7
100
AcDbSpline
 70
8
 71
3
 72
8
 73
4
 74
0
 40
0
 40
0
 40
0
 40
0
 40
1
 40
1
 40
1
 40
1
 10
101.535429
 20
28.127547
 30
0.0
 10
101.730983
 20
28.127544
 30
0.0
 10
101.900597
 20
28.145504
 30
0.0
 10
102.044274
 20
28.181424
 30
0.0
  0
SPLINE
  5
2d0
100
AcDbEntity
  8
logo
 62
7
100
AcDbSpline
 70
8
 71
3
 72
8
 73
4
 74
0
 40
0
 40
0
 40
0
 40
0
 40
1
 40
1
 40
1
 40
1
 10
102.044274
 20
28.181424
 30
0.0
 10
102.187944
 20
28.217340
 30
0.0
 10
102.318648
 20
28.280198
 30
0.0
 10
102.436382
 20
28.369995
 30
0.0
  0
SPLINE
  5
2d1
100
AcDbEntity
  8
logo
 62
7
100
AcDbSpline
 70
8
 71
3
 72
8
 73
4
 74
0
 40
0
 40
0
 40
0
 40
0
 40
1
 40
1
 40
1
 40
1
 10
102.436382
 20
28.369995
 30
0.0
 10
102.568081
 20
28.469767
 30
0.0
 10
102.670348
 20
28.594983
 30
0.0
 10
102.743186
 20
28.745643
 30
0.0
  0
SPLINE
  5
2d2
100
AcDbEntity
  8
logo
 62
7
100
AcDbSpline
 70
8
 71
3
 72
8
 73
4
 74
0
 40
0
 40
0
 40
0
 40
0
 40
1
 40
1
 40
1
 40
1
 10
102.743186
 20
28.745643
 30
0.0
 10
102.816018
 20
28.896298
 30
0.0
 10
102.852435
 20
29.056435
 30
0.0
 10
102.852438
 20
29.226052
 30
0.0
  0
LINE
  5
2d3
100
AcDbEntity
  8
logo
 62
7
100
AcDbLine
 10
102.852438
 20
29.226052
 30
0.0
 11
102.852438
 21
29.226052
 31
0.0
  0
LINE
  5
2d4
100
AcDbEntity
  8
logo
 62
7
100
AcDbLine
 10
103.516930
 20
25.876657
 30
0.0
 11
102.819513
 21
25.876657
 31
0.0
  0
LINE
  5
2d5
100
AcDbEntity
  8
logo
 62
7
100
AcDbLine
 10
102.819513
 20
25.876657
 30
0.0
 11
101.646177
 21
27.657614
 31
0.0
  0
LINE
  5
2d6
100
AcDbEntity
  8
logo
 62
7
100
AcDbLine
 10
101.646177
 20
27.657614
 30
0.0
 11
100.799101
 21
27.657614
 31
0.0
  0
LINE
  5
2d7
100
AcDbEntity
  8
logo
 62
7
100
AcDbLine
 10
100.799101
 20
27.657614
 30
0.0
 11
100.389032
 21
25.876657
 31
0.0
  0
LINE
  5
2d8
100
AcDbEntity
  8
logo
 62
7
100
AcDbLine
 10
100.389032
 20
25.876657
 30
0.0
 11
99.790391
 21
25.876657
 31
0.0
  0
LINE
  5
2d9
100
AcDbEntity
  8
logo
 62
7
100
AcDbLine
 10
99.790391
 20
25.876657
 30
0.0
 11
100.817059
 21
30.333538
 31
0.0
  0
LINE
  5
2da
100
AcDbEntity
  8
logo
 62
7
100
AcDbLine
 10
100.817059
 20
30.333538
 30
0.0
 11
102.032300
 21
30.333538
 31
0.0
  0
SPLINE
  5
2db
100
AcDbEntity
  8
logo
 62
7
100
AcDbSpline
 70
8
 71
3
 72
8
 73
4
 74
0
 40
0
 40
0
 40
0
 40
0
 40
1
 40
1
 40
1
 40
1
 10
102.032300
 20
30.333538
 30
0.0
 10
102.303681
 20
30.333533
 30
0.0
 10
102.524180
 20
30.316072
 30
0.0
 10
102.693799
 20
30.281157
 30
0.0
  0
SPLINE
  5
2dc
100
AcDbEntity
  8
logo
 62
7
100
AcDbSpline
 70
8
 71
3
 72
8
 73
4
 74
0
 40
0
 40
0
 40
0
 40
0
 40
1
 40
1
 40
1
 40
1
 10
102.693799
 20
30.281157
 30
0.0
 10
102.863410
 20
30.246231
 30
0.0
 10
103.011075
 20
30.182876
 30
0.0
 10
103.136793
 20
30.091088
 30
0.0
  0
SPLINE
  5
2dd
100
AcDbEntity
  8
logo
 62
7
100
AcDbSpline
 70
8
 71
3
 72
8
 73
4
 74
0
 40
0
 40
0
 40
0
 40
0
 40
1
 40
1
 40
1
 40
1
 10
103.136793
 20
30.091088
 30
0.0
 10
103.248535
 20
30.009271
 30
0.0
 10
103.336336
 20
29.910494
 30
0.0
 10
103.400195
 20
29.794761
 30
0.0
  0
SPLINE
  5
2de
100
AcDbEntity
  8
logo
 62
7
100
AcDbSpline
 70
8
 71
3
 72
8
 73
4
 74
0
 40
0
 40
0
 40
0
 40
0
 40
1
 40
1
 40
1
 40
1
 10
103.400195
 20
29.794761
 30
0.0
 10
103.464046
 20
29.679020
 30
0.0
 10
103.495973
 20
29.534349
 30
0.0
 10
103.495977
 20
29.360747
 30
0.0
  0
SPLINE
  5
2df
100
AcDbEntity
  8
logo
 62
7
100
AcDbSpline
 70
8
 71
3
 72
8
 73
4
 74
0
 40
0
 40
0
 40
0
 40
0
 40
1
 40
1
 40
1
 40
1
 10
103.495977
 20
29.360747
 30
0.0
 10
103.495973
 20
28.989585
 30
0.0
 10
103.379738
 20
28.663827
 30
0.0
 10
103.147269
 20
28.383465
 30
0.0
  0
SPLINE
  5
2e0
100
AcDbEntity
  8
logo
 62
7
100
AcDbSpline
 70
8
 71
3
 72
8
 73
4
 74
0
 40
0
 40
0
 40
0
 40
0
 40
1
 40
1
 40
1
 40
1
 10
103.147269
 20
28.383465
 30
0.0
 10
102.914793
 20
28.103099
 30
0.0
 10
102.609987
 20
27.908043
 30
0.0
 10
102.232845
 20
27.798294
 30
0.0
  0
LINE
  5
2e1
100
AcDbEntity
  8
logo
 62
7
100
AcDbLine
 10
102.232845
 20
27.798294
 30
0.0
 11
103.516930
 21
25.876657
 31
0.0
  0
LINE
  5
2e2
100
AcDbEntity
  8
logo
 62
7
100
AcDbLine
 10
108.545512
 20
30.333538
 30
0.0
 11
105.893533
 21
25.876657
 31
0.0
  0
LINE
  5
2e3
100
AcDbEntity
  8
logo
 62
7
100
AcDbLine
 10
105.893533
 20
25.876657
 30
0.0
 11
105.103328
 21
25.876657
 31
0.0
  0
LINE
  5
2e4
100
AcDbEntity
  8
logo
 62
7
100
AcDbLine
 10
105.103328
 20
25.876657
 30
0.0
 11
104.510673
 21
30.333538
 31
0.0
  0
LINE
  5
2e5
100
AcDbEntity
  8
logo
 62
7
100
AcDbLine
 10
104.510673
 20
30.333538
 30
0.0
 11
105.127273
 21
30.333538
 31
0.0
  0
LINE
  5
2e6
100
AcDbEntity
  8
logo
 62
7
100
AcDbLine
 10
105.127273
 20
30.333538
 30
0.0
 11
105.615165
 21
26.418428
 31
0.0
  0
LINE
  5
2e7
100
AcDbEntity
  8
logo
 62
7
100
AcDbLine
 10
105.615165
 20
26.418428
 30
0.0
 11
107.913945
 21
30.333538
 31
0.0
  0
LINE
  5
2e8
100
AcDbEntity
  8
logo
 62
7
100
AcDbLine
 10
107.913945
 20
30.333538
 30
0.0
 11
108.545512
 21
30.333538
 31
0.0
  0
LINE
  5
2e9
100
AcDbEntity
  8
logo
 62
7
100
AcDbLine
 10
112.209194
 20
30.333538
 30
0.0
 11
112.092459
 21
29.827686
 31
0.0
  0
LINE
  5
2ea
100
AcDbEntity
  8
logo
 62
7
100
AcDbLine
 10
112.092459
 20
29.827686
 30
0.0
 11
109.748780
 21
29.827686
 31
0.0
  0
LINE
  5
2eb
100
AcDbEntity
  8
logo
 62
7
100
AcDbLine
 10
109.748780
 20
29.827686
 30
0.0
 11
109.461432
 21
28.570541
 31
0.0
  0
LINE
  5
2ec
100
AcDbEntity
  8
logo
 62
7
100
AcDbLine
 10
109.461432
 20
28.570541
 30
0.0
 11
111.805110
 21
28.570541
 31
0.0
  0
LINE
  5
2ed
100
AcDbEntity
  8
logo
 62
7
100
AcDbLine
 10
111.805110
 20
28.570541
 30
0.0
 11
111.688375
 21
28.067683
 31
0.0
  0
LINE
  5
2ee
100
AcDbEntity
  8
logo
 62
7
100
AcDbLine
 10
111.688375
 20
28.067683
 30
0.0
 11
109.344698
 21
28.067683
 31
0.0
  0
LINE
  5
2ef
100
AcDbEntity
  8
logo
 62
7
100
AcDbLine
 10
109.344698
 20
28.067683
 30
0.0
 11
108.955581
 21
26.382509
 31
0.0
  0
LINE
  5
2f0
100
AcDbEntity
  8
logo
 62
7
100
AcDbLine
 10
108.955581
 20
26.382509
 30
0.0
 11
111.299259
 21
26.382509
 31
0.0
  0
LINE
  5
2f1
100
AcDbEntity
  8
logo
 62
7
100
AcDbLine
 10
111.299259
 20
26.382509
 30
0.0
 11
111.182524
 21
25.876657
 31
0.0
  0
LINE
  5
2f2
100
AcDbEntity
  8
logo
 62
7
100
AcDbLine
 10
111.182524
 20
25.876657
 30
0.0
 11
108.246191
 21
25.876657
 31
0.0
  0
LINE
  5
2f3
100
AcDbEntity
  8
logo
 62
7
100
AcDbLine
 10
108.246191
 20
25.876657
 30
0.0
 11
109.272860
 21
30.333538
 31
0.0
  0
LINE
  5
2f4
100
AcDbEntity
  8
logo
 62
7
100
AcDbLine
 10
109.272860
 20
30.333538
 30
0.0
 11
112.209194
 21
30.333538
 31
0.0
  0
LINE
  5
2f5
100
AcDbEntity
  8
logo
 62
7
100
AcDbLine
 10
116.291923
 20
30.333538
 30
0.0
 11
114.157768
 21
27.831220
 31
0.0
  0
LINE
  5
2f6
100
AcDbEntity
  8
logo
 62
7
100
AcDbLine
 10
114.157768
 20
27.831220
 30
0.0
 11
113.705796
 21
25.876657
 31
0.0
  0
LINE
  5
2f7
100
AcDbEntity
  8
logo
 62
7
100
AcDbLine
 10
113.705796
 20
25.876657
 30
0.0
 11
113.107154
 21
25.876657
 31
0.0
  0
LINE
  5
2f8
100
AcDbEntity
  8
logo
 62
7
100
AcDbLine
 10
113.107154
 20
25.876657
 30
0.0
 11
113.544162
 21
27.768362
 31
0.0
  0
LINE
  5
2f9
100
AcDbEntity
  8
logo
 62
7
100
AcDbLine
 10
113.544162
 20
27.768362
 30
0.0
 11
112.550419
 21
30.333538
 31
0.0
  0
LINE
  5
2fa
100
AcDbEntity
  8
logo
 62
7
100
AcDbLine
 10
112.550419
 20
30.333538
 30
0.0
 11
113.184977
 21
30.333538
 31
0.0
  0
LINE
  5
2fb
100
AcDbEntity
  8
logo
 62
7
100
AcDbLine
 10
113.184977
 20
30.333538
 30
0.0
 11
113.957224
 21
28.331085
 31
0.0
  0
LINE
  5
2fc
100
AcDbEntity
  8
logo
 62
7
100
AcDbLine
 10
113.957224
 20
28.331085
 30
0.0
 11
115.642398
 21
30.333538
 31
0.0
  0
LINE
  5
2fd
100
AcDbEntity
  8
logo
 62
7
100
AcDbLine
 10
115.642398
 20
30.333538
 30
0.0
 11
116.291923
 21
30.333538
 31
0.0
  0
SPLINE
  5
2fe
100
AcDbEntity
  8
logo
 62
7
100
AcDbSpline
 70
8
 71
3
 72
8
 73
4
 74
0
 40
0
 40
0
 40
0
 40
0
 40
1
 40
1
 40
1
 40
1
 10
-7.822566
 20
100.850001
 30
0.0
 10
-7.822566
 20
100.116880
 30
0.0
 10
-8.416879
 20
99.522567
 30
0.0
 10
-9.150000
 20
99.522567
 30
0.0
  0
SPLINE
  5
2ff
100
AcDbEntity
  8
logo
 62
7
100
AcDbSpline
 70
8
 71
3
 72
8
 73
4
 74
0
 40
0
 40
0
 40
0
 40
0
 40
1
 40
1
 40
1
 40
1
 10
-9.150000
 20
99.522567
 30
0.0
 10
-9.883121
 20
99.522567
 30
0.0
 10
-10.477434
 20
100.116880
 30
0.0
 10
-10.477434
 20
100.850001
 30
0.0
  0
SPLINE
  5
300
100
AcDbEntity
  8
logo
 62
7
100
AcDbSpline
 70
8
 71
3
 72
8
 73
4
 74
0
 40
0
 40
0
 40
0
 40
0
 40
1
 40
1
 40
1
 40
1
 10
-10.477434
 20
100.850001
 30
0.0
 10
-10.477434
 20
101.583123
 30
0.0
 10
-9.883121
 20
102.177435
 30
0.0
 10
-9.150000
 20
102.177435
 30
0.0
  0
SPLINE
  5
301
100
AcDbEntity
  8
logo
 62
7
100
AcDbSpline
 70
8
 71
3
 72
8
 73
4
 74
0
 40
0
 40
0
 40
0
 40
0
 40
1
 40
1
 40
1
 40
1
 10
-9.150000
 20
102.177435
 30
0.0
 10
-8.416879
 20
102.177435
 30
0.0
 10
-7.822566
 20
101.583123
 30
0.0
 10
-7.822566
 20
100.850001
 30
0.0
  0
LINE
  5
302
100
AcDbEntity
  8
logo
 62
7
100
AcDbLine
 10
-7.822566
 20
100.850001
 30
0.0
 11
-7.822566
 21
100.850001
 31
0.0
  0
LINE
  5
303
100
AcDbEntity
  8
text
 62
7
100
AcDbLine
 10
11.573302
 20
14.409701
 30
0.0
 11
34.071223
 21
54.099173
 31
0.0
  0
LINE
  5
304
100
AcDbEntity
  8
text
 62
7
100
AcDbLine
 10
34.071223
 20
54.099173
 30
0.0
 11
40.325156
 21
54.099173
 31
0.0
  0
LINE
  5
305
100
AcDbEntity
  8
text
 62
7
100
AcDbLine
 10
40.325156
 20
54.099173
 30
0.0
 11
46.876898
 21
14.409701
 31
0.0
  0
LINE
  5
306
100
AcDbEntity
  8
text
 62
7
100
AcDbLine
 10
46.876898
 20
14.409701
 30
0.0
 11
41.732970
 21
14.409701
 31
0.0
  0
LINE
  5
307
100
AcDbEntity
  8
text
 62
7
100
AcDbLine
 10
41.732970
 20
14.409701
 30
0.0
 11
39.810764
 21
25.834638
 31
0.0
  0
LINE
  5
308
100
AcDbEntity
  8
text
 62
7
100
AcDbLine
 10
39.810764
 20
25.834638
 30
0.0
 11
23.756291
 21
25.834638
 31
0.0
  0
LINE
  5
309
100
AcDbEntity
  8
text
 62
7
100
AcDbLine
 10
23.756291
 20
25.834638
 30
0.0
 11
17.394063
 21
14.409701
 31
0.0
  0
LINE
  5
30a
100
AcDbEntity
  8
text
 62
7
100
AcDbLine
 10
17.394063
 20
14.409701
 30
0.0
 11
11.573302
 21
14.409701
 31
0.0
  0
LINE
  5
30b
100
AcDbEntity
  8
text
 62
7
100
AcDbLine
 10
26.030449
 20
29.922707
 30
0.0
 11
39.161005
 21
29.922707
 31
0.0
  0
LINE
  5
30c
100
AcDbEntity
  8
text
 62
7
100
AcDbLine
 10
39.161005
 20
29.922707
 30
0.0
 11
37.617825
 21
39.885685
 31
0.0
  0
SPLINE
  5
30d
100
AcDbEntity
  8
text
 62
7
100
AcDbSpline
 70
8
 71
3
 72
8
 73
4
 74
0
 40
0
 40
0
 40
0
 40
0
 40
1
 40
1
 40
1
 40
1
 10
37.617825
 20
39.885685
 30
0.0
 10
37.022189
 20
43.838359
 30
0.0
 10
36.652188
 20
47.132276
 30
0.0
 10
36.507821
 20
49.767444
 30
0.0
  0
SPLINE
  5
30e
100
AcDbEntity
  8
text
 62
7
100
AcDbSpline
 70
8
 71
3
 72
8
 73
4
 74
0
 40
0
 40
0
 40
0
 40
0
 40
1
 40
1
 40
1
 40
1
 10
36.507821
 20
49.767444
 30
0.0
 10
35.605353
 20
47.493252
 30
0.0
 10
34.287787
 20
44.794949
 30
0.0
 10
32.555117
 20
41.672524
 30
0.0
  0
LINE
  5
30f
100
AcDbEntity
  8
text
 62
7
100
AcDbLine
 10
32.555117
 20
41.672524
 30
0.0
 11
26.030449
 21
29.922707
 31
0.0
  0
LINE
  5
310
100
AcDbEntity
  8
text
 62
7
100
AcDbLine
 10
46.744106
 20
31.401180
 30
0.0
 11
50.975502
 21
31.797872
 31
0.0
  0
LINE
  5
311
100
AcDbEntity
  8
text
 62
7
100
AcDbLine
 10
50.975502
 20
31.797872
 30
0.0
 11
50.931425
 21
30.673907
 31
0.0
  0
SPLINE
  5
312
100
AcDbEntity
  8
text
 62
7
100
AcDbSpline
 70
8
 71
3
 72
8
 73
4
 74
0
 40
0
 40
0
 40
0
 40
0
 40
1
 40
1
 40
1
 40
1
 10
50.931425
 20
30.673907
 30
0.0
 10
50.931418
 20
29.425049
 30
0.0
 10
51.217918
 20
28.282721
 30
0.0
 10
51.790927
 20
27.246918
 30
0.0
  0
SPLINE
  5
313
100
AcDbEntity
  8
text
 62
7
100
AcDbSpline
 70
8
 71
3
 72
8
 73
4
 74
0
 40
0
 40
0
 40
0
 40
0
 40
1
 40
1
 40
1
 40
1
 10
51.790927
 20
27.246918
 30
0.0
 10
52.363920
 20
26.211101
 30
0.0
 10
53.311577
 20
25.410369
 30
0.0
 10
54.633897
 20
24.844718
 30
0.0
  0
SPLINE
  5
314
100
AcDbEntity
  8
text
 62
7
100
AcDbSpline
 70
8
 71
3
 72
8
 73
4
 74
0
 40
0
 40
0
 40
0
 40
0
 40
1
 40
1
 40
1
 40
1
 10
54.633897
 20
24.844718
 30
0.0
 10
55.956196
 20
24.279060
 30
0.0
 10
57.528275
 20
23.996232
 30
0.0
 10
59.350141
 20
23.996235
 30
0.0
  0
SPLINE
  5
315
100
AcDbEntity
  8
text
 62
7
100
AcDbSpline
 70
8
 71
3
 72
8
 73
4
 74
0
 40
0
 40
0
 40
0
 40
0
 40
1
 40
1
 40
1
 40
1
 10
59.350141
 20
23.996235
 30
0.0
 10
61.935977
 20
23.996232
 30
0.0
 10
63.908423
 20
24.561887
 30
0.0
 10
65.267485
 20
25.693202
 30
0.0
  0
SPLINE
  5
316
100
AcDbEntity
  8
text
 62
7
100
AcDbSpline
 70
8
 71
3
 72
8
 73
4
 74
0
 40
0
 40
0
 40
0
 40
0
 40
1
 40
1
 40
1
 40
1
 10
65.267485
 20
25.693202
 30
0.0
 10
66.626504
 20
26.824506
 30
0.0
 10
67.306026
 20
28.117432
 30
0.0
 10
67.306048
 20
29.571982
 30
0.0
  0
SPLINE
  5
317
100
AcDbEntity
  8
text
 62
7
100
AcDbSpline
 70
8
 71
3
 72
8
 73
4
 74
0
 40
0
 40
0
 40
0
 40
0
 40
1
 40
1
 40
1
 40
1
 10
67.306048
 20
29.571982
 30
0.0
 10
67.306026
 20
30.585743
 30
0.0
 10
66.946062
 20
31.511361
 30
0.0
 10
66.226162
 20
32.348835
 30
0.0
  0
SPLINE
  5
318
100
AcDbEntity
  8
text
 62
7
100
AcDbSpline
 70
8
 71
3
 72
8
 73
4
 74
0
 40
0
 40
0
 40
0
 40
0
 40
1
 40
1
 40
1
 40
1
 10
66.226162
 20
32.348835
 30
0.0
 10
65.491522
 20
33.171595
 30
0.0
 10
63.486018
 20
34.288212
 30
0.0
 10
60.209644
 20
35.698692
 30
0.0
  0
SPLINE
  5
319
100
AcDbEntity
  8
text
 62
7
100
AcDbSpline
 70
8
 71
3
 72
8
 73
4
 74
0
 40
0
 40
0
 40
0
 40
0
 40
1
 40
1
 40
1
 40
1
 10
60.209644
 20
35.698692
 30
0.0
 10
57.667853
 20
36.800602
 30
0.0
 10
55.934158
 20
37.645410
 30
0.0
 10
55.008552
 20
38.233121
 30
0.0
  0
SPLINE
  5
31a
100
AcDbEntity
  8
text
 62
7
100
AcDbSpline
 70
8
 71
3
 72
8
 73
4
 74
0
 40
0
 40
0
 40
0
 40
0
 40
1
 40
1
 40
1
 40
1
 10
55.008552
 20
38.233121
 30
0.0
 10
53.553999
 20
39.188107
 30
0.0
 10
52.481459
 20
40.227588
 30
0.0
 10
51.790927
 20
41.351573
 30
0.0
  0
SPLINE
  5
31b
100
AcDbEntity
  8
text
 62
7
100
AcDbSpline
 70
8
 71
3
 72
8
 73
4
 74
0
 40
0
 40
0
 40
0
 40
0
 40
1
 40
1
 40
1
 40
1
 10
51.790927
 20
41.351573
 30
0.0
 10
51.100379
 20
42.475517
 30
0.0
 10
50.755110
 20
43.757423
 30
0.0
 10
50.755116
 20
45.197295
 30
0.0
  0
SPLINE
  5
31c
100
AcDbEntity
  8
text
 62
7
100
AcDbSpline
 70
8
 71
3
 72
8
 73
4
 74
0
 40
0
 40
0
 40
0
 40
0
 40
1
 40
1
 40
1
 40
1
 10
50.755116
 20
45.197295
 30
0.0
 10
50.755110
 20
46.857506
 30
0.0
 10
51.210572
 20
48.356123
 30
0.0
 10
52.121505
 20
49.693155
 30
0.0
  0
SPLINE
  5
31d
100
AcDbEntity
  8
text
 62
7
100
AcDbSpline
 70
8
 71
3
 72
8
 73
4
 74
0
 40
0
 40
0
 40
0
 40
0
 40
1
 40
1
 40
1
 40
1
 10
52.121505
 20
49.693155
 30
0.0
 10
53.032421
 20
51.030128
 30
0.0
 10
54.365750
 20
52.051246
 30
0.0
 10
56.121497
 20
52.756509
 30
0.0
  0
SPLINE
  5
31e
100
AcDbEntity
  8
text
 62
7
100
AcDbSpline
 70
8
 71
3
 72
8
 73
4
 74
0
 40
0
 40
0
 40
0
 40
0
 40
1
 40
1
 40
1
 40
1
 10
56.121497
 20
52.756509
 30
0.0
 10
57.877219
 20
53.461709
 30
0.0
 10
59.857011
 20
53.814326
 30
0.0
 10
62.060880
 20
53.814358
 30
0.0
  0
SPLINE
  5
31f
100
AcDbEntity
  8
text
 62
7
100
AcDbSpline
 70
8
 71
3
 72
8
 73
4
 74
0
 40
0
 40
0
 40
0
 40
0
 40
1
 40
1
 40
1
 40
1
 10
62.060880
 20
53.814358
 30
0.0
 10
64.690789
 20
53.814326
 30
0.0
 10
66.909331
 20
53.373555
 30
0.0
 10
68.716515
 20
52.492048
 30
0.0
  0
SPLINE
  5
320
100
AcDbEntity
  8
text
 62
7
100
AcDbSpline
 70
8
 71
3
 72
8
 73
4
 74
0
 40
0
 40
0
 40
0
 40
0
 40
1
 40
1
 40
1
 40
1
 10
68.716515
 20
52.492048
 30
0.0
 10
70.523646
 20
51.610475
 30
0.0
 10
71.834937
 20
50.435088
 30
0.0
 10
72.650391
 20
48.965882
 30
0.0
  0
SPLINE
  5
321
100
AcDbEntity
  8
text
 62
7
100
AcDbSpline
 70
8
 71
3
 72
8
 73
4
 74
0
 40
0
 40
0
 40
0
 40
0
 40
1
 40
1
 40
1
 40
1
 10
72.650391
 20
48.965882
 30
0.0
 10
73.465787
 20
47.496621
 30
0.0
 10
73.873498
 20
46.093504
 30
0.0
 10
73.873529
 20
44.756525
 30
0.0
  0
SPLINE
  5
322
100
AcDbEntity
  8
text
 62
7
100
AcDbSpline
 70
8
 71
3
 72
8
 73
4
 74
0
 40
0
 40
0
 40
0
 40
0
 40
1
 40
1
 40
1
 40
1
 10
73.873529
 20
44.756525
 30
0.0
 10
73.873498
 20
44.624269
 30
0.0
 10
73.866146
 20
44.403885
 30
0.0
 10
73.851490
 20
44.095370
 30
0.0
  0
LINE
  5
323
100
AcDbEntity
  8
text
 62
7
100
AcDbLine
 10
73.851490
 20
44.095370
 30
0.0
 11
69.686210
 21
43.764791
 31
0.0
  0
SPLINE
  5
324
100
AcDbEntity
  8
text
 62
7
100
AcDbSpline
 70
8
 71
3
 72
8
 73
4
 74
0
 40
0
 40
0
 40
0
 40
0
 40
1
 40
1
 40
1
 40
1
 10
69.686210
 20
43.764791
 30
0.0
 10
69.686182
 20
44.675693
 30
0.0
 10
69.605376
 20
45.388271
 30
0.0
 10
69.443786
 20
45.902529
 30
0.0
  0
SPLINE
  5
325
100
AcDbEntity
  8
text
 62
7
100
AcDbSpline
 70
8
 71
3
 72
8
 73
4
 74
0
 40
0
 40
0
 40
0
 40
0
 40
1
 40
1
 40
1
 40
1
 10
69.443786
 20
45.902529
 30
0.0
 10
69.149912
 20
46.798736
 30
0.0
 10
68.694450
 20
47.555390
 30
0.0
 10
68.077398
 20
48.172496
 30
0.0
  0
SPLINE
  5
326
100
AcDbEntity
  8
text
 62
7
100
AcDbSpline
 70
8
 71
3
 72
8
 73
4
 74
0
 40
0
 40
0
 40
0
 40
0
 40
1
 40
1
 40
1
 40
1
 10
68.077398
 20
48.172496
 30
0.0
 10
67.460294
 20
48.789547
 30
0.0
 10
66.611812
 20
49.285414
 30
0.0
 10
65.531948
 20
49.660096
 30
0.0
  0
SPLINE
  5
327
100
AcDbEntity
  8
text
 62
7
100
AcDbSpline
 70
8
 71
3
 72
8
 73
4
 74
0
 40
0
 40
0
 40
0
 40
0
 40
1
 40
1
 40
1
 40
1
 10
65.531948
 20
49.660096
 30
0.0
 10
64.452039
 20
50.034723
 30
0.0
 10
63.243595
 20
50.222050
 30
0.0
 10
61.906610
 20
50.222079
 30
0.0
  0
SPLINE
  5
328
100
AcDbEntity
  8
text
 62
7
100
AcDbSpline
 70
8
 71
3
 72
8
 73
4
 74
0
 40
0
 40
0
 40
0
 40
0
 40
1
 40
1
 40
1
 40
1
 10
61.906610
 20
50.222079
 30
0.0
 10
59.555818
 20
50.222050
 30
0.0
 10
57.726622
 20
49.693126
 30
0.0
 10
56.419017
 20
48.635306
 30
0.0
  0
SPLINE
  5
329
100
AcDbEntity
  8
text
 62
7
100
AcDbSpline
 70
8
 71
3
 72
8
 73
4
 74
0
 40
0
 40
0
 40
0
 40
0
 40
1
 40
1
 40
1
 40
1
 10
56.419017
 20
48.635306
 30
0.0
 10
55.419926
 20
47.827199
 30
0.0
 10
54.920387
 20
46.754659
 30
0.0
 10
54.920398
 20
45.417680
 30
0.0
  0
SPLINE
  5
32a
100
AcDbEntity
  8
text
 62
7
100
AcDbSpline
 70
8
 71
3
 72
8
 73
4
 74
0
 40
0
 40
0
 40
0
 40
0
 40
1
 40
1
 40
1
 40
1
 10
54.920398
 20
45.417680
 30
0.0
 10
54.920387
 20
44.624269
 30
0.0
 10
55.126078
 20
43.915365
 30
0.0
 10
55.537476
 20
43.290963
 30
0.0
  0
SPLINE
  5
32b
100
AcDbEntity
  8
text
 62
7
100
AcDbSpline
 70
8
 71
3
 72
8
 73
4
 74
0
 40
0
 40
0
 40
0
 40
0
 40
1
 40
1
 40
1
 40
1
 10
55.537476
 20
43.290963
 30
0.0
 10
55.948850
 20
42.666516
 30
0.0
 10
56.690813
 20
42.053112
 30
0.0
 10
57.763368
 20
41.450747
 30
0.0
  0
SPLINE
  5
32c
100
AcDbEntity
  8
text
 62
7
100
AcDbSpline
 70
8
 71
3
 72
8
 73
4
 74
0
 40
0
 40
0
 40
0
 40
0
 40
1
 40
1
 40
1
 40
1
 10
57.763368
 20
41.450747
 30
0.0
 10
58.527355
 20
41.024649
 30
0.0
 10
60.341857
 20
40.179839
 30
0.0
 10
63.206883
 20
38.916315
 30
0.0
  0
SPLINE
  5
32d
100
AcDbEntity
  8
text
 62
7
100
AcDbSpline
 70
8
 71
3
 72
8
 73
4
 74
0
 40
0
 40
0
 40
0
 40
0
 40
1
 40
1
 40
1
 40
1
 10
63.206883
 20
38.916315
 30
0.0
 10
65.528253
 20
37.887835
 30
0.0
 10
67.129717
 20
37.079756
 30
0.0
 10
68.011282
 20
36.492078
 30
0.0
  0
SPLINE
  5
32e
100
AcDbEntity
  8
text
 62
7
100
AcDbSpline
 70
8
 71
3
 72
8
 73
4
 74
0
 40
0
 40
0
 40
0
 40
0
 40
1
 40
1
 40
1
 40
1
 10
68.011282
 20
36.492078
 30
0.0
 10
69.186643
 20
35.713369
 30
0.0
 10
70.090223
 20
34.769387
 30
0.0
 10
70.722021
 20
33.660128
 30
0.0
  0
SPLINE
  5
32f
100
AcDbEntity
  8
text
 62
7
100
AcDbSpline
 70
8
 71
3
 72
8
 73
4
 74
0
 40
0
 40
0
 40
0
 40
0
 40
1
 40
1
 40
1
 40
1
 10
70.722021
 20
33.660128
 30
0.0
 10
71.353764
 20
32.550844
 30
0.0
 10
71.669648
 20
31.290976
 30
0.0
 10
71.669677
 20
29.880520
 30
0.0
  0
SPLINE
  5
330
100
AcDbEntity
  8
text
 62
7
100
AcDbSpline
 70
8
 71
3
 72
8
 73
4
 74
0
 40
0
 40
0
 40
0
 40
0
 40
1
 40
1
 40
1
 40
1
 10
71.669677
 20
29.880520
 30
0.0
 10
71.669648
 20
28.132125
 30
0.0
 10
71.137050
 20
26.519640
 30
0.0
 10
70.071884
 20
25.043065
 30
0.0
  0
SPLINE
  5
331
100
AcDbEntity
  8
text
 62
7
100
AcDbSpline
 70
8
 71
3
 72
8
 73
4
 74
0
 40
0
 40
0
 40
0
 40
0
 40
1
 40
1
 40
1
 40
1
 10
70.071884
 20
25.043065
 30
0.0
 10
69.006662
 20
23.566481
 30
0.0
 10
67.533756
 20
22.424151
 30
0.0
 10
65.653159
 20
21.616074
 30
0.0
  0
SPLINE
  5
332
100
AcDbEntity
  8
text
 62
7
100
AcDbSpline
 70
8
 71
3
 72
8
 73
4
 74
0
 40
0
 40
0
 40
0
 40
0
 40
1
 40
1
 40
1
 40
1
 10
65.653159
 20
21.616074
 30
0.0
 10
63.772519
 20
20.807995
 30
0.0
 10
61.620091
 20
20.403956
 30
0.0
 10
59.195871
 20
20.403956
 30
0.0
  0
SPLINE
  5
333
100
AcDbEntity
  8
text
 62
7
100
AcDbSpline
 70
8
 71
3
 72
8
 73
4
 74
0
 40
0
 40
0
 40
0
 40
0
 40
1
 40
1
 40
1
 40
1
 10
59.195871
 20
20.403956
 30
0.0
 10
55.537465
 20
20.403956
 30
0.0
 10
52.551247
 20
21.201015
 30
0.0
 10
50.237211
 20
22.795134
 30
0.0
  0
SPLINE
  5
334
100
AcDbEntity
  8
text
 62
7
100
AcDbSpline
 70
8
 71
3
 72
8
 73
4
 74
0
 40
0
 40
0
 40
0
 40
0
 40
1
 40
1
 40
1
 40
1
 10
50.237211
 20
22.795134
 30
0.0
 10
47.923161
 20
24.389252
 30
0.0
 10
46.758795
 20
27.257930
 30
0.0
 10
46.744106
 20
31.401180
 30
0.0
  0
LINE
  5
335
100
AcDbEntity
  8
text
 62
7
100
AcDbLine
 10
46.744106
 20
31.401180
 30
0.0
 11
46.744106
 21
31.401180
 31
0.0
  0
LINE
  5
336
100
AcDbEntity
  8
text
 62
7
100
AcDbLine
 10
74.322052
 20
35.204194
 30
0.0
 11
77.848216
 21
35.534771
 31
0.0
  0
LINE
  5
337
100
AcDbEntity
  8
text
 62
7
100
AcDbLine
 10
77.848216
 20
35.534771
 30
0.0
 11
77.811485
 21
34.598134
 31
0.0
  0
SPLINE
  5
338
100
AcDbEntity
  8
text
 62
7
100
AcDbSpline
 70
8
 71
3
 72
8
 73
4
 74
0
 40
0
 40
0
 40
0
 40
0
 40
1
 40
1
 40
1
 40
1
 10
77.811485
 20
34.598134
 30
0.0
 10
77.811479
 20
33.557418
 30
0.0
 10
78.050229
 20
32.605478
 30
0.0
 10
78.527738
 20
31.742308
 30
0.0
  0
SPLINE
  5
339
100
AcDbEntity
  8
text
 62
7
100
AcDbSpline
 70
8
 71
3
 72
8
 73
4
 74
0
 40
0
 40
0
 40
0
 40
0
 40
1
 40
1
 40
1
 40
1
 10
78.527738
 20
31.742308
 30
0.0
 10
79.005232
 20
30.879129
 30
0.0
 10
79.794945
 20
30.211852
 30
0.0
 10
80.896879
 20
29.740476
 30
0.0
  0
SPLINE
  5
33a
100
AcDbEntity
  8
text
 62
7
100
AcDbSpline
 70
8
 71
3
 72
8
 73
4
 74
0
 40
0
 40
0
 40
0
 40
0
 40
1
 40
1
 40
1
 40
1
 10
80.896879
 20
29.740476
 30
0.0
 10
81.998795
 20
29.269094
 30
0.0
 10
83.308862
 20
29.033404
 30
0.0
 10
84.827083
 20
29.033406
 30
0.0
  0
SPLINE
  5
33b
100
AcDbEntity
  8
text
 62
7
100
AcDbSpline
 70
8
 71
3
 72
8
 73
4
 74
0
 40
0
 40
0
 40
0
 40
0
 40
1
 40
1
 40
1
 40
1
 10
84.827083
 20
29.033406
 30
0.0
 10
86.981945
 20
29.033404
 30
0.0
 10
88.625650
 20
29.504783
 30
0.0
 10
89.758203
 20
30.447544
 30
0.0
  0
SPLINE
  5
33c
100
AcDbEntity
  8
text
 62
7
100
AcDbSpline
 70
8
 71
3
 72
8
 73
4
 74
0
 40
0
 40
0
 40
0
 40
0
 40
1
 40
1
 40
1
 40
1
 10
89.758203
 20
30.447544
 30
0.0
 10
90.890718
 20
31.390299
 30
0.0
 10
91.456986
 20
32.467736
 30
0.0
 10
91.457006
 20
33.679862
 30
0.0
  0
SPLINE
  5
33d
100
AcDbEntity
  8
text
 62
7
100
AcDbSpline
 70
8
 71
3
 72
8
 73
4
 74
0
 40
0
 40
0
 40
0
 40
0
 40
1
 40
1
 40
1
 40
1
 10
91.457006
 20
33.679862
 30
0.0
 10
91.456986
 20
34.524664
 30
0.0
 10
91.157017
 20
35.296012
 30
0.0
 10
90.557098
 20
35.993907
 30
0.0
  0
SPLINE
  5
33e
100
AcDbEntity
  8
text
 62
7
100
AcDbSpline
 70
8
 71
3
 72
8
 73
4
 74
0
 40
0
 40
0
 40
0
 40
0
 40
1
 40
1
 40
1
 40
1
 10
90.557098
 20
35.993907
 30
0.0
 10
89.944900
 20
36.679540
 30
0.0
 10
88.273646
 20
37.610055
 30
0.0
 10
85.543334
 20
38.785453
 30
0.0
  0
SPLINE
  5
33f
100
AcDbEntity
  8
text
 62
7
100
AcDbSpline
 70
8
 71
3
 72
8
 73
4
 74
0
 40
0
 40
0
 40
0
 40
0
 40
1
 40
1
 40
1
 40
1
 10
85.543334
 20
38.785453
 30
0.0
 10
83.425176
 20
39.703712
 30
0.0
 10
81.980430
 20
40.407720
 30
0.0
 10
81.209091
 20
40.897480
 30
0.0
  0
SPLINE
  5
340
100
AcDbEntity
  8
text
 62
7
100
AcDbSpline
 70
8
 71
3
 72
8
 73
4
 74
0
 40
0
 40
0
 40
0
 40
0
 40
1
 40
1
 40
1
 40
1
 10
81.209091
 20
40.897480
 30
0.0
 10
79.996964
 20
41.693299
 30
0.0
 10
79.103180
 20
42.559535
 30
0.0
 10
78.527738
 20
43.496187
 30
0.0
  0
SPLINE
  5
341
100
AcDbEntity
  8
text
 62
7
100
AcDbSpline
 70
8
 71
3
 72
8
 73
4
 74
0
 40
0
 40
0
 40
0
 40
0
 40
1
 40
1
 40
1
 40
1
 10
78.527738
 20
43.496187
 30
0.0
 10
77.952281
 20
44.432808
 30
0.0
 10
77.664557
 20
45.501063
 30
0.0
 10
77.664561
 20
46.700957
 30
0.0
  0
SPLINE
  5
342
100
AcDbEntity
  8
text
 62
7
100
AcDbSpline
 70
8
 71
3
 72
8
 73
4
 74
0
 40
0
 40
0
 40
0
 40
0
 40
1
 40
1
 40
1
 40
1
 10
77.664561
 20
46.700957
 30
0.0
 10
77.664557
 20
48.084465
 30
0.0
 10
78.044108
 20
49.333314
 30
0.0
 10
78.803219
 20
50.447506
 30
0.0
  0
SPLINE
  5
343
100
AcDbEntity
  8
text
 62
7
100
AcDbSpline
 70
8
 71
3
 72
8
 73
4
 74
0
 40
0
 40
0
 40
0
 40
0
 40
1
 40
1
 40
1
 40
1
 10
78.803219
 20
50.447506
 30
0.0
 10
79.562316
 20
51.561652
 30
0.0
 10
80.673423
 20
52.412582
 30
0.0
 10
82.136546
 20
53.000302
 30
0.0
  0
SPLINE
  5
344
100
AcDbEntity
  8
text
 62
7
100
AcDbSpline
 70
8
 71
3
 72
8
 73
4
 74
0
 40
0
 40
0
 40
0
 40
0
 40
1
 40
1
 40
1
 40
1
 10
82.136546
 20
53.000302
 30
0.0
 10
83.599647
 20
53.587968
 30
0.0
 10
85.249474
 20
53.881816
 30
0.0
 10
87.086032
 20
53.881843
 30
0.0
  0
SPLINE
  5
345
100
AcDbEntity
  8
text
 62
7
100
AcDbSpline
 70
8
 71
3
 72
8
 73
4
 74
0
 40
0
 40
0
 40
0
 40
0
 40
1
 40
1
 40
1
 40
1
 10
87.086032
 20
53.881843
 30
0.0
 10
89.277623
 20
53.881816
 30
0.0
 10
91.126408
 20
53.514508
 30
0.0
 10
92.632394
 20
52.779917
 30
0.0
  0
SPLINE
  5
346
100
AcDbEntity
  8
text
 62
7
100
AcDbSpline
 70
8
 71
3
 72
8
 73
4
 74
0
 40
0
 40
0
 40
0
 40
0
 40
1
 40
1
 40
1
 40
1
 10
92.632394
 20
52.779917
 30
0.0
 10
94.138337
 20
52.045274
 30
0.0
 10
95.231079
 20
51.065785
 30
0.0
 10
95.910624
 20
49.841446
 30
0.0
  0
SPLINE
  5
347
100
AcDbEntity
  8
text
 62
7
100
AcDbSpline
 70
8
 71
3
 72
8
 73
4
 74
0
 40
0
 40
0
 40
0
 40
0
 40
1
 40
1
 40
1
 40
1
 10
95.910624
 20
49.841446
 30
0.0
 10
96.590121
 20
48.617063
 30
0.0
 10
96.929880
 20
47.447798
 30
0.0
 10
96.929906
 20
46.333649
 30
0.0
  0
SPLINE
  5
348
100
AcDbEntity
  8
text
 62
7
100
AcDbSpline
 70
8
 71
3
 72
8
 73
4
 74
0
 40
0
 40
0
 40
0
 40
0
 40
1
 40
1
 40
1
 40
1
 10
96.929906
 20
46.333649
 30
0.0
 10
96.929880
 20
46.223437
 30
0.0
 10
96.923759
 20
46.039782
 30
0.0
 10
96.911541
 20
45.782685
 30
0.0
  0
LINE
  5
349
100
AcDbEntity
  8
text
 62
7
100
AcDbLine
 10
96.911541
 20
45.782685
 30
0.0
 11
93.440473
 21
45.507204
 31
0.0
  0
SPLINE
  5
34a
100
AcDbEntity
  8
text
 62
7
100
AcDbSpline
 70
8
 71
3
 72
8
 73
4
 74
0
 40
0
 40
0
 40
0
 40
0
 40
1
 40
1
 40
1
 40
1
 10
93.440473
 20
45.507204
 30
0.0
 10
93.440451
 20
46.266289
 30
0.0
 10
93.373112
 20
46.860104
 30
0.0
 10
93.238454
 20
47.288652
 30
0.0
  0
SPLINE
  5
34b
100
AcDbEntity
  8
text
 62
7
100
AcDbSpline
 70
8
 71
3
 72
8
 73
4
 74
0
 40
0
 40
0
 40
0
 40
0
 40
1
 40
1
 40
1
 40
1
 10
93.238454
 20
47.288652
 30
0.0
 10
92.993559
 20
48.035491
 30
0.0
 10
92.614007
 20
48.666037
 30
0.0
 10
92.099796
 20
49.180291
 30
0.0
  0
SPLINE
  5
34c
100
AcDbEntity
  8
text
 62
7
100
AcDbSpline
 70
8
 71
3
 72
8
 73
4
 74
0
 40
0
 40
0
 40
0
 40
0
 40
1
 40
1
 40
1
 40
1
 10
92.099796
 20
49.180291
 30
0.0
 10
91.585544
 20
49.694500
 30
0.0
 10
90.878475
 20
50.107723
 30
0.0
 10
89.978587
 20
50.419959
 30
0.0
  0
SPLINE
  5
34d
100
AcDbEntity
  8
text
 62
7
100
AcDbSpline
 70
8
 71
3
 72
8
 73
4
 74
0
 40
0
 40
0
 40
0
 40
0
 40
1
 40
1
 40
1
 40
1
 10
89.978587
 20
50.419959
 30
0.0
 10
89.078664
 20
50.732147
 30
0.0
 10
88.071626
 20
50.888253
 30
0.0
 10
86.957473
 20
50.888277
 30
0.0
  0
SPLINE
  5
34e
100
AcDbEntity
  8
text
 62
7
100
AcDbSpline
 70
8
 71
3
 72
8
 73
4
 74
0
 40
0
 40
0
 40
0
 40
0
 40
1
 40
1
 40
1
 40
1
 10
86.957473
 20
50.888277
 30
0.0
 10
84.998480
 20
50.888253
 30
0.0
 10
83.474150
 20
50.447482
 30
0.0
 10
82.384480
 20
49.565965
 30
0.0
  0
SPLINE
  5
34f
100
AcDbEntity
  8
text
 62
7
100
AcDbSpline
 70
8
 71
3
 72
8
 73
4
 74
0
 40
0
 40
0
 40
0
 40
0
 40
1
 40
1
 40
1
 40
1
 10
82.384480
 20
49.565965
 30
0.0
 10
81.551903
 20
48.892544
 30
0.0
 10
81.135620
 20
47.998760
 30
0.0
 10
81.135630
 20
46.884611
 30
0.0
  0
SPLINE
  5
350
100
AcDbEntity
  8
text
 62
7
100
AcDbSpline
 70
8
 71
3
 72
8
 73
4
 74
0
 40
0
 40
0
 40
0
 40
0
 40
1
 40
1
 40
1
 40
1
 10
81.135630
 20
46.884611
 30
0.0
 10
81.135620
 20
46.223437
 30
0.0
 10
81.307031
 20
45.632681
 30
0.0
 10
81.649863
 20
45.112347
 30
0.0
  0
SPLINE
  5
351
100
AcDbEntity
  8
text
 62
7
100
AcDbSpline
 70
8
 71
3
 72
8
 73
4
 74
0
 40
0
 40
0
 40
0
 40
0
 40
1
 40
1
 40
1
 40
1
 10
81.649863
 20
45.112347
 30
0.0
 10
81.992673
 20
44.591975
 30
0.0
 10
82.610976
 20
44.080804
 30
0.0
 10
83.504771
 20
43.578833
 30
0.0
  0
SPLINE
  5
352
100
AcDbEntity
  8
text
 62
7
100
AcDbSpline
 70
8
 71
3
 72
8
 73
4
 74
0
 40
0
 40
0
 40
0
 40
0
 40
1
 40
1
 40
1
 40
1
 10
83.504771
 20
43.578833
 30
0.0
 10
84.141427
 20
43.223751
 30
0.0
 10
85.653514
 20
42.519743
 30
0.0
 10
88.041035
 20
41.466807
 30
0.0
  0
SPLINE
  5
353
100
AcDbEntity
  8
text
 62
7
100
AcDbSpline
 70
8
 71
3
 72
8
 73
4
 74
0
 40
0
 40
0
 40
0
 40
0
 40
1
 40
1
 40
1
 40
1
 10
88.041035
 20
41.466807
 30
0.0
 10
89.975509
 20
40.609739
 30
0.0
 10
91.310063
 20
39.936341
 30
0.0
 10
92.044699
 20
39.446610
 30
0.0
  0
SPLINE
  5
354
100
AcDbEntity
  8
text
 62
7
100
AcDbSpline
 70
8
 71
3
 72
8
 73
4
 74
0
 40
0
 40
0
 40
0
 40
0
 40
1
 40
1
 40
1
 40
1
 10
92.044699
 20
39.446610
 30
0.0
 10
93.024169
 20
38.797685
 30
0.0
 10
93.777151
 20
38.011033
 30
0.0
 10
94.303648
 20
37.086651
 30
0.0
  0
SPLINE
  5
355
100
AcDbEntity
  8
text
 62
7
100
AcDbSpline
 70
8
 71
3
 72
8
 73
4
 74
0
 40
0
 40
0
 40
0
 40
0
 40
1
 40
1
 40
1
 40
1
 10
94.303648
 20
37.086651
 30
0.0
 10
94.830102
 20
36.162248
 30
0.0
 10
95.093338
 20
35.112358
 30
0.0
 10
95.093362
 20
33.936979
 30
0.0
  0
SPLINE
  5
356
100
AcDbEntity
  8
text
 62
7
100
AcDbSpline
 70
8
 71
3
 72
8
 73
4
 74
0
 40
0
 40
0
 40
0
 40
0
 40
1
 40
1
 40
1
 40
1
 10
95.093362
 20
33.936979
 30
0.0
 10
95.093338
 20
32.479981
 30
0.0
 10
94.649508
 20
31.136243
 30
0.0
 10
93.761868
 20
29.905764
 30
0.0
  0
SPLINE
  5
357
100
AcDbEntity
  8
text
 62
7
100
AcDbSpline
 70
8
 71
3
 72
8
 73
4
 74
0
 40
0
 40
0
 40
0
 40
0
 40
1
 40
1
 40
1
 40
1
 10
93.761868
 20
29.905764
 30
0.0
 10
92.874184
 20
28.675279
 30
0.0
 10
91.646763
 20
27.723337
 30
0.0
 10
90.079598
 20
27.049938
 30
0.0
  0
SPLINE
  5
358
100
AcDbEntity
  8
text
 62
7
100
AcDbSpline
 70
8
 71
3
 72
8
 73
4
 74
0
 40
0
 40
0
 40
0
 40
0
 40
1
 40
1
 40
1
 40
1
 10
90.079598
 20
27.049938
 30
0.0
 10
88.512396
 20
26.376540
 30
0.0
 10
86.718708
 20
26.039840
 30
0.0
 10
84.698524
 20
26.039840
 30
0.0
  0
SPLINE
  5
359
100
AcDbEntity
  8
text
 62
7
100
AcDbSpline
 70
8
 71
3
 72
8
 73
4
 74
0
 40
0
 40
0
 40
0
 40
0
 40
1
 40
1
 40
1
 40
1
 10
84.698524
 20
26.039840
 30
0.0
 10
81.649851
 20
26.039840
 30
0.0
 10
79.161338
 20
26.704056
 30
0.0
 10
77.232974
 20
28.032490
 30
0.0
  0
SPLINE
  5
35a
100
AcDbEntity
  8
text
 62
7
100
AcDbSpline
 70
8
 71
3
 72
8
 73
4
 74
0
 40
0
 40
0
 40
0
 40
0
 40
1
 40
1
 40
1
 40
1
 10
77.232974
 20
28.032490
 30
0.0
 10
75.304599
 20
29.360920
 30
0.0
 10
74.334294
 20
31.751486
 30
0.0
 10
74.322052
 20
35.204194
 30
0.0
  0
LINE
  5
35b
100
AcDbEntity
  8
text
 62
7
100
AcDbLine
 10
74.322052
 20
35.204194
 30
0.0
 11
74.322052
 21
35.204194
 31
0.0
  0
LINE
  5
35c
100
AcDbEntity
  8
text
 62
7
100
AcDbLine
 10
108.761695
 20
31.470960
 30
0.0
 11
113.511128
 21
54.150660
 31
0.0
  0
LINE
  5
35d
100
AcDbEntity
  8
text
 62
7
100
AcDbLine
 10
113.511128
 20
54.150660
 30
0.0
 11
120.534719
 21
54.150660
 31
0.0
  0
SPLINE
  5
35e
100
AcDbEntity
  8
text
 62
7
100
AcDbSpline
 70
8
 71
3
 72
8
 73
4
 74
0
 40
0
 40
0
 40
0
 40
0
 40
1
 40
1
 40
1
 40
1
 10
120.534719
 20
54.150660
 30
0.0
 10
121.813596
 20
54.150636
 30
0.0
 10
122.762450
 20
54.099068
 30
0.0
 10
123.381284
 20
53.995955
 30
0.0
  0
SPLINE
  5
35f
100
AcDbEntity
  8
text
 62
7
100
AcDbSpline
 70
8
 71
3
 72
8
 73
4
 74
0
 40
0
 40
0
 40
0
 40
0
 40
1
 40
1
 40
1
 40
1
 10
123.381284
 20
53.995955
 30
0.0
 10
124.392004
 20
53.820600
 30
0.0
 10
125.245457
 20
53.513770
 30
0.0
 10
125.941645
 20
53.075462
 30
0.0
  0
SPLINE
  5
360
100
AcDbEntity
  8
text
 62
7
100
AcDbSpline
 70
8
 71
3
 72
8
 73
4
 74
0
 40
0
 40
0
 40
0
 40
0
 40
1
 40
1
 40
1
 40
1
 10
125.941645
 20
53.075462
 30
0.0
 10
126.637798
 20
52.637111
 30
0.0
 10
127.176684
 20
52.038921
 30
0.0
 10
127.558308
 20
51.280888
 30
0.0
  0
SPLINE
  5
361
100
AcDbEntity
  8
text
 62
7
100
AcDbSpline
 70
8
 71
3
 72
8
 73
4
 74
0
 40
0
 40
0
 40
0
 40
0
 40
1
 40
1
 40
1
 40
1
 10
127.558308
 20
51.280888
 30
0.0
 10
127.939893
 20
50.522817
 30
0.0
 10
128.130695
 20
49.684835
 30
0.0
 10
128.130716
 20
48.766938
 30
0.0
  0
SPLINE
  5
362
100
AcDbEntity
  8
text
 62
7
100
AcDbSpline
 70
8
 71
3
 72
8
 73
4
 74
0
 40
0
 40
0
 40
0
 40
0
 40
1
 40
1
 40
1
 40
1
 10
128.130716
 20
48.766938
 30
0.0
 10
128.130695
 20
47.518971
 30
0.0
 10
127.787767
 20
46.420569
 30
0.0
 10
127.101930
 20
45.471729
 30
0.0
  0
SPLINE
  5
363
100
AcDbEntity
  8
text
 62
7
100
AcDbSpline
 70
8
 71
3
 72
8
 73
4
 74
0
 40
0
 40
0
 40
0
 40
0
 40
1
 40
1
 40
1
 40
1
 10
127.101930
 20
45.471729
 30
0.0
 10
126.416054
 20
44.522861
 30
0.0
 10
125.366642
 20
43.800907
 30
0.0
 10
123.953691
 20
43.305864
 30
0.0
  0
SPLINE
  5
364
100
AcDbEntity
  8
text
 62
7
100
AcDbSpline
 70
8
 71
3
 72
8
 73
4
 74
0
 40
0
 40
0
 40
0
 40
0
 40
1
 40
1
 40
1
 40
1
 10
123.953691
 20
43.305864
 30
0.0
 10
125.180996
 20
42.903621
 30
0.0
 10
126.098910
 20
42.297695
 30
0.0
 10
126.707433
 20
41.488085
 30
0.0
  0
SPLINE
  5
365
100
AcDbEntity
  8
text
 62
7
100
AcDbSpline
 70
8
 71
3
 72
8
 73
4
 74
0
 40
0
 40
0
 40
0
 40
0
 40
1
 40
1
 40
1
 40
1
 10
126.707433
 20
41.488085
 30
0.0
 10
127.315918
 20
40.678455
 30
0.0
 10
127.620171
 20
39.732179
 30
0.0
 10
127.620190
 20
38.649256
 30
0.0
  0
SPLINE
  5
366
100
AcDbEntity
  8
text
 62
7
100
AcDbSpline
 70
8
 71
3
 72
8
 73
4
 74
0
 40
0
 40
0
 40
0
 40
0
 40
1
 40
1
 40
1
 40
1
 10
127.620190
 20
38.649256
 30
0.0
 10
127.620171
 20
37.401298
 30
0.0
 10
127.261771
 20
36.204917
 30
0.0
 10
126.544994
 20
35.060108
 30
0.0
  0
SPLINE
  5
367
100
AcDbEntity
  8
text
 62
7
100
AcDbSpline
 70
8
 71
3
 72
8
 73
4
 74
0
 40
0
 40
0
 40
0
 40
0
 40
1
 40
1
 40
1
 40
1
 10
126.544994
 20
35.060108
 30
0.0
 10
125.828176
 20
33.915290
 30
0.0
 10
124.879322
 20
33.030897
 30
0.0
 10
123.698429
 20
32.406924
 30
0.0
  0
SPLINE
  5
368
100
AcDbEntity
  8
text
 62
7
100
AcDbSpline
 70
8
 71
3
 72
8
 73
4
 74
0
 40
0
 40
0
 40
0
 40
0
 40
1
 40
1
 40
1
 40
1
 10
123.698429
 20
32.406924
 30
0.0
 10
122.517501
 20
31.782947
 30
0.0
 10
121.199935
 20
31.470960
 30
0.0
 10
119.745725
 20
31.470960
 30
0.0
  0
LINE
  5
369
100
AcDbEntity
  8
text
 62
7
100
AcDbLine
 10
119.745725
 20
31.470960
 30
0.0
 11
108.761695
 21
31.470960
 31
0.0
  0
LINE
  5
36a
100
AcDbEntity
  8
text
 62
7
100
AcDbLine
 10
114.516708
 20
44.466149
 30
0.0
 11
119.111436
 21
44.466149
 31
0.0
  0
SPLINE
  5
36b
100
AcDbEntity
  8
text
 62
7
100
AcDbSpline
 70
8
 71
3
 72
8
 73
4
 74
0
 40
0
 40
0
 40
0
 40
0
 40
1
 40
1
 40
1
 40
1
 10
119.111436
 20
44.466149
 30
0.0
 10
121.308227
 20
44.466136
 30
0.0
 10
122.888791
 20
44.816800
 30
0.0
 10
123.853133
 20
45.518140
 30
0.0
  0
SPLINE
  5
36c
100
AcDbEntity
  8
text
 62
7
100
AcDbSpline
 70
8
 71
3
 72
8
 73
4
 74
0
 40
0
 40
0
 40
0
 40
0
 40
1
 40
1
 40
1
 40
1
 10
123.853133
 20
45.518140
 30
0.0
 10
124.817441
 20
46.219453
 30
0.0
 10
125.299604
 20
47.240503
 30
0.0
 10
125.299621
 20
48.581293
 30
0.0
  0
SPLINE
  5
36d
100
AcDbEntity
  8
text
 62
7
100
AcDbSpline
 70
8
 71
3
 72
8
 73
4
 74
0
 40
0
 40
0
 40
0
 40
0
 40
1
 40
1
 40
1
 40
1
 10
125.299621
 20
48.581293
 30
0.0
 10
125.299604
 20
49.220720
 30
0.0
 10
125.150056
 20
49.772499
 30
0.0
 10
124.850977
 20
50.236632
 30
0.0
  0
SPLINE
  5
36e
100
AcDbEntity
  8
text
 62
7
100
AcDbSpline
 70
8
 71
3
 72
8
 73
4
 74
0
 40
0
 40
0
 40
0
 40
0
 40
1
 40
1
 40
1
 40
1
 10
124.850977
 20
50.236632
 30
0.0
 10
124.551865
 20
50.700727
 30
0.0
 10
124.152212
 20
51.038498
 30
0.0
 10
123.652016
 20
51.249948
 30
0.0
  0
SPLINE
  5
36f
100
AcDbEntity
  8
text
 62
7
100
AcDbSpline
 70
8
 71
3
 72
8
 73
4
 74
0
 40
0
 40
0
 40
0
 40
0
 40
1
 40
1
 40
1
 40
1
 10
123.652016
 20
51.249948
 30
0.0
 10
123.151790
 20
51.461357
 30
0.0
 10
122.210671
 20
51.567072
 30
0.0
 10
120.828656
 20
51.567093
 30
0.0
  0
LINE
  5
370
100
AcDbEntity
  8
text
 62
7
100
AcDbLine
 10
120.828656
 20
51.567093
 30
0.0
 11
116.001872
 21
51.567093
 31
0.0
  0
LINE
  5
371
100
AcDbEntity
  8
text
 62
7
100
AcDbLine
 10
116.001872
 20
51.567093
 30
0.0
 11
114.516708
 21
44.466149
 31
0.0
  0
LINE
  5
372
100
AcDbEntity
  8
text
 62
7
100
AcDbLine
 10
112.335372
 20
34.039057
 30
0.0
 11
117.502507
 21
34.039057
 31
0.0
  0
SPLINE
  5
373
100
AcDbEntity
  8
text
 62
7
100
AcDbSpline
 70
8
 71
3
 72
8
 73
4
 74
0
 40
0
 40
0
 40
0
 40
0
 40
1
 40
1
 40
1
 40
1
 10
117.502507
 20
34.039057
 30
0.0
 10
118.874211
 20
34.039055
 30
0.0
 10
119.797280
 20
34.085466
 30
0.0
 10
120.271720
 20
34.178291
 30
0.0
  0
SPLINE
  5
374
100
AcDbEntity
  8
text
 62
7
100
AcDbSpline
 70
8
 71
3
 72
8
 73
4
 74
0
 40
0
 40
0
 40
0
 40
0
 40
1
 40
1
 40
1
 40
1
 10
120.271720
 20
34.178291
 30
0.0
 10
121.230875
 20
34.343306
 30
0.0
 10
122.009555
 20
34.624354
 30
0.0
 10
122.607761
 20
35.021431
 30
0.0
  0
SPLINE
  5
375
100
AcDbEntity
  8
text
 62
7
100
AcDbSpline
 70
8
 71
3
 72
8
 73
4
 74
0
 40
0
 40
0
 40
0
 40
0
 40
1
 40
1
 40
1
 40
1
 10
122.607761
 20
35.021431
 30
0.0
 10
123.205935
 20
35.418503
 30
0.0
 10
123.675205
 20
35.941920
 30
0.0
 10
124.015573
 20
36.591683
 30
0.0
  0
SPLINE
  5
376
100
AcDbEntity
  8
text
 62
7
100
AcDbSpline
 70
8
 71
3
 72
8
 73
4
 74
0
 40
0
 40
0
 40
0
 40
0
 40
1
 40
1
 40
1
 40
1
 10
124.015573
 20
36.591683
 30
0.0
 10
124.355907
 20
37.241437
 30
0.0
 10
124.526081
 20
37.922137
 30
0.0
 10
124.526098
 20
38.633785
 30
0.0
  0
SPLINE
  5
377
100
AcDbEntity
  8
text
 62
7
100
AcDbSpline
 70
8
 71
3
 72
8
 73
4
 74
0
 40
0
 40
0
 40
0
 40
0
 40
1
 40
1
 40
1
 40
1
 10
124.526098
 20
38.633785
 30
0.0
 10
124.526081
 20
39.696082
 30
0.0
 10
124.193466
 20
40.503124
 30
0.0
 10
123.528253
 20
41.054911
 30
0.0
  0
SPLINE
  5
378
100
AcDbEntity
  8
text
 62
7
100
AcDbSpline
 70
8
 71
3
 72
8
 73
4
 74
0
 40
0
 40
0
 40
0
 40
0
 40
1
 40
1
 40
1
 40
1
 10
123.528253
 20
41.054911
 30
0.0
 10
122.863008
 20
41.606681
 30
0.0
 10
121.597010
 20
41.882572
 30
0.0
 10
119.730254
 20
41.882581
 30
0.0
  0
LINE
  5
379
100
AcDbEntity
  8
text
 62
7
100
AcDbLine
 10
119.730254
 20
41.882581
 30
0.0
 11
113.975241
 21
41.882581
 31
0.0
  0
LINE
  5
37a
100
AcDbEntity
  8
text
 62
7
100
AcDbLine
 10
113.975241
 20
41.882581
 30
0.0
 11
112.335372
 21
34.039057
 31
0.0
  0
LINE
  5
37b
100
AcDbEntity
  8
text
 62
7
100
AcDbLine
 10
154.162888
 20
31.470960
 30
0.0
 11
158.355384
 21
51.567093
 31
0.0
  0
LINE
  5
37c
100
AcDbEntity
  8
text
 62
7
100
AcDbLine
 10
158.355384
 20
51.567093
 30
0.0
 11
150.914090
 21
51.567093
 31
0.0
  0
LINE
  5
37d
100
AcDbEntity
  8
text
 62
7
100
AcDbLine
 10
150.914090
 20
51.567093
 30
0.0
 11
151.455556
 21
54.150660
 31
0.0
  0
LINE
  5
37e
100
AcDbEntity
  8
text
 62
7
100
AcDbLine
 10
151.455556
 20
54.150660
 30
0.0
 11
169.308471
 21
54.150660
 31
0.0
  0
LINE
  5
37f
100
AcDbEntity
  8
text
 62
7
100
AcDbLine
 10
169.308471
 20
54.150660
 30
0.0
 11
168.767005
 21
51.567093
 31
0.0
  0
LINE
  5
380
100
AcDbEntity
  8
text
 62
7
100
AcDbLine
 10
168.767005
 20
51.567093
 30
0.0
 11
161.387594
 21
51.567093
 31
0.0
  0
LINE
  5
381
100
AcDbEntity
  8
text
 62
7
100
AcDbLine
 10
161.387594
 20
51.567093
 30
0.0
 11
157.195098
 21
31.470960
 31
0.0
  0
LINE
  5
382
100
AcDbEntity
  8
text
 62
7
100
AcDbLine
 10
157.195098
 20
31.470960
 30
0.0
 11
154.162888
 21
31.470960
 31
0.0
  0
LINE
  5
383
100
AcDbEntity
  8
text
 62
7
100
AcDbLine
 10
97.822473
 20
40.564967
 30
0.0
 11
98.495106
 21
43.657888
 31
0.0
  0
LINE
  5
384
100
AcDbEntity
  8
text
 62
7
100
AcDbLine
 10
98.495106
 20
43.657888
 30
0.0
 11
108.265971
 21
43.657888
 31
0.0
  0
LINE
  5
385
100
AcDbEntity
  8
text
 62
7
100
AcDbLine
 10
108.265971
 20
43.657888
 30
0.0
 11
107.611040
 21
40.564967
 31
0.0
  0
LINE
  5
386
100
AcDbEntity
  8
text
 62
7
100
AcDbLine
 10
107.611040
 20
40.564967
 30
0.0
 11
97.822473
 21
40.564967
 31
0.0
  0
ENDSEC
  0
SECTION
  2
OBJECTS
  0
DICTIONARY
  5
C
330
0
100
AcDbDictionary
  3
ACAD_GROUP
350
D
  3
ACAD_MLINESTYLE
350
17
  0
DICTIONARY
  5
D
330
C
100
AcDbDictionary
  0
DICTIONARY
  5
1A
330
C
100
AcDbDictionary
  0
DICTIONARY
  5
17
330
C
100
AcDbDictionary
  3
STANDARD
350
18
  0
DICTIONARY
  5
19
330
C
100
AcDbDictionary
  0
ENDSEC
  0
EOF
