  0
SECTION
  2
HEADER
  9
$ACADVER
  1
AC1014
  9
$HANDSEED
  5
FFFF
  9
$MEASUREMENT
 70
     1
  0
ENDSEC
  0
SECTION
  2
TABLES
  0
TABLE
  2
VPORT
  5
8
330
0
100
AcDbSymbolTable
 70
     4
  0
VPORT
  5
2E
330
8
100
AcDbSymbolTableRecord
100
AcDbViewportTableRecord
  2
*ACTIVE
 70
     0
 10
0.0
 20
0.0
 11
1.0
 21
1.0
 12
210.0
 22
148.5
 13
0.0
 23
0.0
 14
10.0
 24
10.0
 15
10.0
 25
10.0
 16
0.0
 26
0.0
 36
1.0
 17
0.0
 27
0.0
 37
0.0
 40
341.0
 41
1.24
 42
50.0
 43
0.0
 44
0.0
 50
0.0
 51
0.0
 71
     0
 72
   100
 73
     1
 74
     3
 75
     0
 76
     0
 77
     0
 78
     0
  0
ENDTAB
  0
TABLE
  2
LTYPE
  5
5
330
0
100
AcDbSymbolTable
 70
     1
  0
LTYPE
  5
14
330
5
100
AcDbSymbolTableRecord
100
AcDbLinetypeTableRecord
  2
BYBLOCK
 70
     0
  3

 72
    65
 73
     0
 40
0.0
  0
LTYPE
  5
15
330
5
100
AcDbSymbolTableRecord
100
AcDbLinetypeTableRecord
  2
BYLAYER
 70
     0
  3

 72
    65
 73
     0
 40
0.0
  0
LTYPE
  5
16
330
5
100
AcDbSymbolTableRecord
100
AcDbLinetypeTableRecord
  2
CONTINUOUS
 70
     0
  3
Solid line
 72
    65
 73
     0
 40
0.0
  0
ENDTAB
  0
TABLE
  2
LAYER
  5
2
100
AcDbSymbolTable
 70
3
  0
LAYER
  5
50
100
AcDbSymbolTableRecord
100
AcDbLayerTableRecord
  2
0
 70
0
  6
CONTINUOUS
  0
LAYER
  5
51
100
AcDbSymbolTableRecord
100
AcDbLayerTableRecord
  2
logo
 70
0
  6
CONTINUOUS
  0
LAYER
  5
52
100
AcDbSymbolTableRecord
100
AcDbLayerTableRecord
  2
text
 70
0
  6
CONTINUOUS
  0
ENDTAB
  0
TABLE
  2
STYLE
  5
3
330
0
100
AcDbSymbolTable
 70
     1
  0
STYLE
  5
11
330
3
100
AcDbSymbolTableRecord
100
AcDbTextStyleTableRecord
  2
STANDARD
 70
     0
 40
0.0
 41
1.0
 50
0.0
 71
     0
 42
2.5
  3
txt
  4

  0
ENDTAB
  0
TABLE
  2
VIEW
  5
6
330
0
100
AcDbSymbolTable
 70
     0
  0
ENDTAB
  0
TABLE
  2
UCS
  5
7
330
0
100
AcDbSymbolTable
 70
     0
  0
ENDTAB
  0
TABLE
  2
APPID
  5
9
330
0
100
AcDbSymbolTable
 70
     2
  0
APPID
  5
12
330
9
100
AcDbSymbolTableRecord
100
AcDbRegAppTableRecord
  2
ACAD
 70
     0
  0
ENDTAB
  0
TABLE
  2
DIMSTYLE
  5
A
330
0
100
AcDbSymbolTable
 70
     1
  0
DIMSTYLE
105
27
330
A
100
AcDbSymbolTableRecord
100
AcDbDimStyleTableRecord
  2
ISO-25
 70
     0
  3

  4

  5

  6

  7

 40
1.0
 41
2.5
 42
0.625
 43
3.75
 44
1.25
 45
0.0
 46
0.0
 47
0.0
 48
0.0
140
2.5
141
2.5
142
0.0
143
0.03937007874016
144
1.0
145
0.0
146
1.0
147
0.625
 71
     0
 72
     0
 73
     0
 74
     0
 75
     0
 76
     0
 77
     1
 78
     8
170
     0
171
     3
172
     1
173
     0
174
     0
175
     0
176
     0
177
     0
178
     0
270
     2
271
     2
272
     2
273
     2
274
     3
340
11
275
     0
280
     0
281
     0
282
     0
283
     0
284
     8
285
     0
286
     0
287
     3
288
     0
  0
ENDTAB
  0
TABLE
  2
BLOCK_RECORD
  5
1
330
0
100
AcDbSymbolTable
 70
     1
  0
BLOCK_RECORD
  5
1F
330
1
100
AcDbSymbolTableRecord
100
AcDbBlockTableRecord
  2
*MODEL_SPACE
  0
BLOCK_RECORD
  5
1B
330
1
100
AcDbSymbolTableRecord
100
AcDbBlockTableRecord
  2
*PAPER_SPACE
  0
ENDTAB
  0
ENDSEC
  0
SECTION
  2
BLOCKS
  0
BLOCK
  5
20
330
1F
100
AcDbEntity
  8
0
100
AcDbBlockBegin
  2
*MODEL_SPACE
 70
     0
 10
0.0
 20
0.0
 30
0.0
  3
*MODEL_SPACE
  1

  0
ENDBLK
  5
21
330
1F
100
AcDbEntity
  8
0
100
AcDbBlockEnd
  0
BLOCK
  5
1C
330
1B
100
AcDbEntity
 67
     1
  8
0
100
AcDbBlockBegin
  2
*PAPER_SPACE
  1

  0
ENDBLK
  5
1D
330
1B
100
AcDbEntity
 67
     1
  8
0
100
AcDbBlockEnd
  0
ENDSEC
  0
SECTION
  2
ENTITIES
  0
SPLINE
  5
100
100
AcDbEntity
  8
logo
 62
7
100
AcDbSpline
 70
8
 71
3
 72
8
 73
4
 74
0
 40
0
 40
0
 40
0
 40
0
 40
1
 40
1
 40
1
 40
1
 10
177.897793
 20
70.755332
 30
0.0
 10
177.267404
 20
69.671610
 30
0.0
 10
176.767973
 20
68.447051
 30
0.0
 10
176.617458
 20
67.198059
 30
0.0
  0
SPLINE
  5
101
100
AcDbEntity
  8
logo
 62
7
100
AcDbSpline
 70
8
 71
3
 72
8
 73
4
 74
0
 40
0
 40
0
 40
0
 40
0
 40
1
 40
1
 40
1
 40
1
 10
176.617458
 20
67.198059
 30
0.0
 10
176.426168
 20
65.597614
 30
0.0
 10
175.591049
 20
64.100651
 30
0.0
 10
175.113513
 20
62.549540
 30
0.0
  0
SPLINE
  5
102
100
AcDbEntity
  8
logo
 62
7
100
AcDbSpline
 70
8
 71
3
 72
8
 73
4
 74
0
 40
0
 40
0
 40
0
 40
0
 40
1
 40
1
 40
1
 40
1
 10
175.113513
 20
62.549540
 30
0.0
 10
173.579386
 20
58.366395
 30
0.0
 10
172.135933
 20
54.139409
 30
0.0
 10
170.374776
 20
50.058608
 30
0.0
  0
SPLINE
  5
103
100
AcDbEntity
  8
logo
 62
7
100
AcDbSpline
 70
8
 71
3
 72
8
 73
4
 74
0
 40
0
 40
0
 40
0
 40
0
 40
1
 40
1
 40
1
 40
1
 10
170.374776
 20
50.058608
 30
0.0
 10
170.074621
 20
49.301180
 30
0.0
 10
169.816371
 20
48.532251
 30
0.0
 10
169.549022
 20
47.766057
 30
0.0
  0
SPLINE
  5
104
100
AcDbEntity
  8
logo
 62
7
100
AcDbSpline
 70
8
 71
3
 72
8
 73
4
 74
0
 40
0
 40
0
 40
0
 40
0
 40
1
 40
1
 40
1
 40
1
 10
169.549022
 20
47.766057
 30
0.0
 10
169.572898
 20
50.270893
 30
0.0
 10
169.224506
 20
52.865940
 30
0.0
 10
169.545466
 20
55.316840
 30
0.0
  0
SPLINE
  5
105
100
AcDbEntity
  8
logo
 62
7
100
AcDbSpline
 70
8
 71
3
 72
8
 73
4
 74
0
 40
0
 40
0
 40
0
 40
0
 40
1
 40
1
 40
1
 40
1
 10
169.545466
 20
55.316840
 30
0.0
 10
169.813755
 20
56.308001
 30
0.0
 10
169.887327
 20
57.452170
 30
0.0
 10
169.598662
 20
58.434331
 30
0.0
  0
SPLINE
  5
106
100
AcDbEntity
  8
logo
 62
7
100
AcDbSpline
 70
8
 71
3
 72
8
 73
4
 74
0
 40
0
 40
0
 40
0
 40
0
 40
1
 40
1
 40
1
 40
1
 10
169.598662
 20
58.434331
 30
0.0
 10
169.012991
 20
58.934937
 30
0.0
 10
168.393034
 20
57.975980
 30
0.0
 10
168.031053
 20
57.568948
 30
0.0
  0
SPLINE
  5
107
100
AcDbEntity
  8
logo
 62
7
100
AcDbSpline
 70
8
 71
3
 72
8
 73
4
 74
0
 40
0
 40
0
 40
0
 40
0
 40
1
 40
1
 40
1
 40
1
 10
168.031053
 20
57.568948
 30
0.0
 10
167.638693
 20
56.658445
 30
0.0
 10
167.725982
 20
55.519419
 30
0.0
 10
168.013301
 20
54.593329
 30
0.0
  0
SPLINE
  5
108
100
AcDbEntity
  8
logo
 62
7
100
AcDbSpline
 70
8
 71
3
 72
8
 73
4
 74
0
 40
0
 40
0
 40
0
 40
0
 40
1
 40
1
 40
1
 40
1
 10
168.013301
 20
54.593329
 30
0.0
 10
168.482857
 20
53.537903
 30
0.0
 10
168.173685
 20
52.256385
 30
0.0
 10
168.306423
 20
51.119425
 30
0.0
  0
SPLINE
  5
109
100
AcDbEntity
  8
logo
 62
7
100
AcDbSpline
 70
8
 71
3
 72
8
 73
4
 74
0
 40
0
 40
0
 40
0
 40
0
 40
1
 40
1
 40
1
 40
1
 10
168.306423
 20
51.119425
 30
0.0
 10
168.376182
 20
47.324016
 30
0.0
 10
168.494702
 20
43.511131
 30
0.0
 10
168.179615
 20
39.735633
 30
0.0
  0
SPLINE
  5
10a
100
AcDbEntity
  8
logo
 62
7
100
AcDbSpline
 70
8
 71
3
 72
8
 73
4
 74
0
 40
0
 40
0
 40
0
 40
0
 40
1
 40
1
 40
1
 40
1
 10
168.179615
 20
39.735633
 30
0.0
 10
168.140877
 20
38.787767
 30
0.0
 10
168.251576
 20
37.827901
 30
0.0
 10
168.336036
 20
36.877904
 30
0.0
  0
SPLINE
  5
10b
100
AcDbEntity
  8
logo
 62
7
100
AcDbSpline
 70
8
 71
3
 72
8
 73
4
 74
0
 40
0
 40
0
 40
0
 40
0
 40
1
 40
1
 40
1
 40
1
 10
168.336036
 20
36.877904
 30
0.0
 10
167.102130
 20
38.481327
 30
0.0
 10
165.505932
 20
39.834978
 30
0.0
 10
164.413455
 20
41.523988
 30
0.0
  0
SPLINE
  5
10c
100
AcDbEntity
  8
logo
 62
7
100
AcDbSpline
 70
8
 71
3
 72
8
 73
4
 74
0
 40
0
 40
0
 40
0
 40
0
 40
1
 40
1
 40
1
 40
1
 10
164.413455
 20
41.523988
 30
0.0
 10
164.555246
 20
42.598639
 30
0.0
 10
163.378326
 20
43.192469
 30
0.0
 10
162.799736
 20
43.910871
 30
0.0
  0
SPLINE
  5
10d
100
AcDbEntity
  8
logo
 62
7
100
AcDbSpline
 70
8
 71
3
 72
8
 73
4
 74
0
 40
0
 40
0
 40
0
 40
0
 40
1
 40
1
 40
1
 40
1
 10
162.799736
 20
43.910871
 30
0.0
 10
162.337197
 20
43.019435
 30
0.0
 10
161.002540
 20
41.750601
 30
0.0
 10
162.104595
 20
40.811111
 30
0.0
  0
SPLINE
  5
10e
100
AcDbEntity
  8
logo
 62
7
100
AcDbSpline
 70
8
 71
3
 72
8
 73
4
 74
0
 40
0
 40
0
 40
0
 40
0
 40
1
 40
1
 40
1
 40
1
 10
162.104595
 20
40.811111
 30
0.0
 10
162.428352
 20
40.420883
 30
0.0
 10
163.006735
 20
39.657113
 30
0.0
 10
163.533887
 20
40.197546
 30
0.0
  0
SPLINE
  5
10f
100
AcDbEntity
  8
logo
 62
7
100
AcDbSpline
 70
8
 71
3
 72
8
 73
4
 74
0
 40
0
 40
0
 40
0
 40
0
 40
1
 40
1
 40
1
 40
1
 10
163.533887
 20
40.197546
 30
0.0
 10
165.432071
 20
37.877849
 30
0.0
 10
167.629273
 20
35.768836
 30
0.0
 10
169.325544
 20
33.306439
 30
0.0
  0
SPLINE
  5
110
100
AcDbEntity
  8
logo
 62
7
100
AcDbSpline
 70
8
 71
3
 72
8
 73
4
 74
0
 40
0
 40
0
 40
0
 40
0
 40
1
 40
1
 40
1
 40
1
 10
169.325544
 20
33.306439
 30
0.0
 10
169.840052
 20
31.912904
 30
0.0
 10
170.859049
 20
30.770997
 30
0.0
 10
172.017439
 20
29.855569
 30
0.0
  0
SPLINE
  5
111
100
AcDbEntity
  8
logo
 62
7
100
AcDbSpline
 70
8
 71
3
 72
8
 73
4
 74
0
 40
0
 40
0
 40
0
 40
0
 40
1
 40
1
 40
1
 40
1
 10
172.017439
 20
29.855569
 30
0.0
 10
169.430432
 20
29.504378
 30
0.0
 10
166.833527
 20
28.895243
 30
0.0
 10
164.253858
 20
28.674543
 30
0.0
  0
SPLINE
  5
112
100
AcDbEntity
  8
logo
 62
7
100
AcDbSpline
 70
8
 71
3
 72
8
 73
4
 74
0
 40
0
 40
0
 40
0
 40
0
 40
1
 40
1
 40
1
 40
1
 10
164.253858
 20
28.674543
 30
0.0
 10
164.068582
 20
29.568072
 30
0.0
 10
162.910280
 20
29.012196
 30
0.0
 10
162.323348
 20
28.975487
 30
0.0
  0
SPLINE
  5
113
100
AcDbEntity
  8
logo
 62
7
100
AcDbSpline
 70
8
 71
3
 72
8
 73
4
 74
0
 40
0
 40
0
 40
0
 40
0
 40
1
 40
1
 40
1
 40
1
 10
162.323348
 20
28.975487
 30
0.0
 10
161.753155
 20
28.918106
 30
0.0
 10
161.080854
 20
28.748838
 30
0.0
 10
161.022877
 20
28.068072
 30
0.0
  0
SPLINE
  5
114
100
AcDbEntity
  8
logo
 62
7
100
AcDbSpline
 70
8
 71
3
 72
8
 73
4
 74
0
 40
0
 40
0
 40
0
 40
0
 40
1
 40
1
 40
1
 40
1
 10
161.022877
 20
28.068072
 30
0.0
 10
160.955530
 20
27.492435
 30
0.0
 10
160.289294
 20
26.549435
 30
0.0
 10
160.976767
 20
26.156435
 30
0.0
  0
SPLINE
  5
115
100
AcDbEntity
  8
logo
 62
7
100
AcDbSpline
 70
8
 71
3
 72
8
 73
4
 74
0
 40
0
 40
0
 40
0
 40
0
 40
1
 40
1
 40
1
 40
1
 10
160.976767
 20
26.156435
 30
0.0
 10
161.857078
 20
26.025650
 30
0.0
 10
162.918112
 20
26.048945
 30
0.0
 10
163.661567
 20
26.592665
 30
0.0
  0
SPLINE
  5
116
100
AcDbEntity
  8
logo
 62
7
100
AcDbSpline
 70
8
 71
3
 72
8
 73
4
 74
0
 40
0
 40
0
 40
0
 40
0
 40
1
 40
1
 40
1
 40
1
 10
163.661567
 20
26.592665
 30
0.0
 10
163.858527
 20
27.361049
 30
0.0
 10
164.866080
 20
27.131814
 30
0.0
 10
165.456162
 20
27.344559
 30
0.0
  0
SPLINE
  5
117
100
AcDbEntity
  8
logo
 62
7
100
AcDbSpline
 70
8
 71
3
 72
8
 73
4
 74
0
 40
0
 40
0
 40
0
 40
0
 40
1
 40
1
 40
1
 40
1
 10
165.456162
 20
27.344559
 30
0.0
 10
168.504009
 20
27.723801
 30
0.0
 10
171.554225
 20
28.383004
 30
0.0
 10
174.624207
 20
28.631983
 30
0.0
  0
SPLINE
  5
118
100
AcDbEntity
  8
logo
 62
7
100
AcDbSpline
 70
8
 71
3
 72
8
 73
4
 74
0
 40
0
 40
0
 40
0
 40
0
 40
1
 40
1
 40
1
 40
1
 10
174.624207
 20
28.631983
 30
0.0
 10
177.275374
 20
28.359721
 30
0.0
 10
180.035479
 20
28.714079
 30
0.0
 10
182.388843
 20
30.049199
 30
0.0
  0
SPLINE
  5
119
100
AcDbEntity
  8
logo
 62
7
100
AcDbSpline
 70
8
 71
3
 72
8
 73
4
 74
0
 40
0
 40
0
 40
0
 40
0
 40
1
 40
1
 40
1
 40
1
 10
182.388843
 20
30.049199
 30
0.0
 10
185.228210
 20
31.431224
 30
0.0
 10
187.735907
 20
33.631909
 30
0.0
 10
189.899552
 20
35.771351
 30
0.0
  0
SPLINE
  5
11a
100
AcDbEntity
  8
logo
 62
7
100
AcDbSpline
 70
8
 71
3
 72
8
 73
4
 74
0
 40
0
 40
0
 40
0
 40
0
 40
1
 40
1
 40
1
 40
1
 10
189.899552
 20
35.771351
 30
0.0
 10
187.493501
 20
31.064005
 30
0.0
 10
185.322156
 20
26.213960
 30
0.0
 10
182.841750
 20
21.542265
 30
0.0
  0
SPLINE
  5
11b
100
AcDbEntity
  8
logo
 62
7
100
AcDbSpline
 70
8
 71
3
 72
8
 73
4
 74
0
 40
0
 40
0
 40
0
 40
0
 40
1
 40
1
 40
1
 40
1
 10
182.841750
 20
21.542265
 30
0.0
 10
181.917543
 20
21.304617
 30
0.0
 10
181.661949
 20
20.077568
 30
0.0
 10
181.185481
 20
19.346901
 30
0.0
  0
SPLINE
  5
11c
100
AcDbEntity
  8
logo
 62
7
100
AcDbSpline
 70
8
 71
3
 72
8
 73
4
 74
0
 40
0
 40
0
 40
0
 40
0
 40
1
 40
1
 40
1
 40
1
 10
181.185481
 20
19.346901
 30
0.0
 10
180.736943
 20
18.158799
 30
0.0
 10
179.744054
 20
17.052764
 30
0.0
 10
179.791648
 20
15.739974
 30
0.0
  0
SPLINE
  5
11d
100
AcDbEntity
  8
logo
 62
7
100
AcDbSpline
 70
8
 71
3
 72
8
 73
4
 74
0
 40
0
 40
0
 40
0
 40
0
 40
1
 40
1
 40
1
 40
1
 10
179.791648
 20
15.739974
 30
0.0
 10
180.042569
 20
15.154329
 30
0.0
 10
180.723602
 20
14.572248
 30
0.0
 10
181.376992
 20
14.629878
 30
0.0
  0
SPLINE
  5
11e
100
AcDbEntity
  8
logo
 62
7
100
AcDbSpline
 70
8
 71
3
 72
8
 73
4
 74
0
 40
0
 40
0
 40
0
 40
0
 40
1
 40
1
 40
1
 40
1
 10
181.376992
 20
14.629878
 30
0.0
 10
182.357096
 20
15.310251
 30
0.0
 10
182.554793
 20
16.690780
 30
0.0
 10
183.174211
 20
17.657722
 30
0.0
  0
SPLINE
  5
11f
100
AcDbEntity
  8
logo
 62
7
100
AcDbSpline
 70
8
 71
3
 72
8
 73
4
 74
0
 40
0
 40
0
 40
0
 40
0
 40
1
 40
1
 40
1
 40
1
 10
183.174211
 20
17.657722
 30
0.0
 10
183.462811
 20
18.563395
 30
0.0
 10
184.336097
 20
19.438970
 30
0.0
 10
184.168198
 20
20.428625
 30
0.0
  0
SPLINE
  5
120
100
AcDbEntity
  8
logo
 62
7
100
AcDbSpline
 70
8
 71
3
 72
8
 73
4
 74
0
 40
0
 40
0
 40
0
 40
0
 40
1
 40
1
 40
1
 40
1
 10
184.168198
 20
20.428625
 30
0.0
 10
183.851474
 20
21.012554
 30
0.0
 10
184.598646
 20
21.670656
 30
0.0
 10
184.726862
 20
22.249838
 30
0.0
  0
SPLINE
  5
121
100
AcDbEntity
  8
logo
 62
7
100
AcDbSpline
 70
8
 71
3
 72
8
 73
4
 74
0
 40
0
 40
0
 40
0
 40
0
 40
1
 40
1
 40
1
 40
1
 10
184.726862
 20
22.249838
 30
0.0
 10
187.752315
 20
28.287949
 30
0.0
 10
190.616304
 20
34.460090
 30
0.0
 10
193.715727
 20
40.452904
 30
0.0
  0
SPLINE
  5
122
100
AcDbEntity
  8
logo
 62
7
100
AcDbSpline
 70
8
 71
3
 72
8
 73
4
 74
0
 40
0
 40
0
 40
0
 40
0
 40
1
 40
1
 40
1
 40
1
 10
193.715727
 20
40.452904
 30
0.0
 10
195.360524
 20
43.109416
 30
0.0
 10
196.982774
 20
45.833165
 30
0.0
 10
198.088721
 20
48.762669
 30
0.0
  0
SPLINE
  5
123
100
AcDbEntity
  8
logo
 62
7
100
AcDbSpline
 70
8
 71
3
 72
8
 73
4
 74
0
 40
0
 40
0
 40
0
 40
0
 40
1
 40
1
 40
1
 40
1
 10
198.088721
 20
48.762669
 30
0.0
 10
197.926048
 20
44.096694
 30
0.0
 10
197.709132
 20
39.398389
 30
0.0
 10
197.521266
 20
34.739281
 30
0.0
  0
SPLINE
  5
124
100
AcDbEntity
  8
logo
 62
7
100
AcDbSpline
 70
8
 71
3
 72
8
 73
4
 74
0
 40
0
 40
0
 40
0
 40
0
 40
1
 40
1
 40
1
 40
1
 10
197.521266
 20
34.739281
 30
0.0
 10
197.428366
 20
34.235370
 30
0.0
 10
196.765850
 20
34.062137
 30
0.0
 10
196.819032
 20
33.455404
 30
0.0
  0
SPLINE
  5
125
100
AcDbEntity
  8
logo
 62
7
100
AcDbSpline
 70
8
 71
3
 72
8
 73
4
 74
0
 40
0
 40
0
 40
0
 40
0
 40
1
 40
1
 40
1
 40
1
 10
196.819032
 20
33.455404
 30
0.0
 10
196.681581
 20
31.742547
 30
0.0
 10
196.495134
 20
29.982510
 30
0.0
 10
196.719726
 20
28.284410
 30
0.0
  0
SPLINE
  5
126
100
AcDbEntity
  8
logo
 62
7
100
AcDbSpline
 70
8
 71
3
 72
8
 73
4
 74
0
 40
0
 40
0
 40
0
 40
0
 40
1
 40
1
 40
1
 40
1
 10
196.719726
 20
28.284410
 30
0.0
 10
197.281820
 20
27.782066
 30
0.0
 10
198.177088
 20
28.327861
 30
0.0
 10
198.808690
 20
28.493669
 30
0.0
  0
SPLINE
  5
127
100
AcDbEntity
  8
logo
 62
7
100
AcDbSpline
 70
8
 71
3
 72
8
 73
4
 74
0
 40
0
 40
0
 40
0
 40
0
 40
1
 40
1
 40
1
 40
1
 10
198.808690
 20
28.493669
 30
0.0
 10
199.925556
 20
28.808728
 30
0.0
 10
199.467154
 20
30.262737
 30
0.0
 10
199.643692
 20
31.098470
 30
0.0
  0
SPLINE
  5
128
100
AcDbEntity
  8
logo
 62
7
100
AcDbSpline
 70
8
 71
3
 72
8
 73
4
 74
0
 40
0
 40
0
 40
0
 40
0
 40
1
 40
1
 40
1
 40
1
 10
199.643692
 20
31.098470
 30
0.0
 10
199.562898
 20
32.277369
 30
0.0
 10
199.978033
 20
33.581631
 30
0.0
 10
199.542846
 20
34.696722
 30
0.0
  0
SPLINE
  5
129
100
AcDbEntity
  8
logo
 62
7
100
AcDbSpline
 70
8
 71
3
 72
8
 73
4
 74
0
 40
0
 40
0
 40
0
 40
0
 40
1
 40
1
 40
1
 40
1
 10
199.542846
 20
34.696722
 30
0.0
 10
199.355493
 20
34.973805
 30
0.0
 10
198.836317
 20
34.859674
 30
0.0
 10
199.014390
 20
35.338664
 30
0.0
  0
SPLINE
  5
12a
100
AcDbEntity
  8
logo
 62
7
100
AcDbSpline
 70
8
 71
3
 72
8
 73
4
 74
0
 40
0
 40
0
 40
0
 40
0
 40
1
 40
1
 40
1
 40
1
 10
199.014390
 20
35.338664
 30
0.0
 10
199.287243
 20
41.422901
 30
0.0
 10
199.406739
 20
47.567071
 30
0.0
 10
199.716633
 20
53.660559
 30
0.0
  0
SPLINE
  5
12b
100
AcDbEntity
  8
logo
 62
7
100
AcDbSpline
 70
8
 71
3
 72
8
 73
4
 74
0
 40
0
 40
0
 40
0
 40
0
 40
1
 40
1
 40
1
 40
1
 10
199.716633
 20
53.660559
 30
0.0
 10
200.211840
 20
56.335628
 30
0.0
 10
200.555245
 20
59.054388
 30
0.0
 10
200.308916
 20
61.764616
 30
0.0
  0
SPLINE
  5
12c
100
AcDbEntity
  8
logo
 62
7
100
AcDbSpline
 70
8
 71
3
 72
8
 73
4
 74
0
 40
0
 40
0
 40
0
 40
0
 40
1
 40
1
 40
1
 40
1
 10
200.308916
 20
61.764616
 30
0.0
 10
202.488890
 20
59.259126
 30
0.0
 10
204.613832
 20
56.672497
 30
0.0
 10
206.774423
 20
54.171280
 30
0.0
  0
SPLINE
  5
12d
100
AcDbEntity
  8
logo
 62
7
100
AcDbSpline
 70
8
 71
3
 72
8
 73
4
 74
0
 40
0
 40
0
 40
0
 40
0
 40
1
 40
1
 40
1
 40
1
 10
206.774423
 20
54.171280
 30
0.0
 10
205.962860
 20
53.445317
 30
0.0
 10
206.955548
 20
52.490167
 30
0.0
 10
207.423461
 20
51.904982
 30
0.0
  0
SPLINE
  5
12e
100
AcDbEntity
  8
logo
 62
7
100
AcDbSpline
 70
8
 71
3
 72
8
 73
4
 74
0
 40
0
 40
0
 40
0
 40
0
 40
1
 40
1
 40
1
 40
1
 10
207.423461
 20
51.904982
 30
0.0
 10
208.043498
 20
51.189390
 30
0.0
 10
208.667875
 20
50.477499
 30
0.0
 10
209.288984
 20
49.762816
 30
0.0
  0
SPLINE
  5
12f
100
AcDbEntity
  8
logo
 62
7
100
AcDbSpline
 70
8
 71
3
 72
8
 73
4
 74
0
 40
0
 40
0
 40
0
 40
0
 40
1
 40
1
 40
1
 40
1
 10
209.288984
 20
49.762816
 30
0.0
 10
210.041081
 20
50.704821
 30
0.0
 10
210.977122
 20
51.521490
 30
0.0
 10
211.608484
 20
52.550466
 30
0.0
  0
SPLINE
  5
130
100
AcDbEntity
  8
logo
 62
7
100
AcDbSpline
 70
8
 71
3
 72
8
 73
4
 74
0
 40
0
 40
0
 40
0
 40
0
 40
1
 40
1
 40
1
 40
1
 10
211.608484
 20
52.550466
 30
0.0
 10
210.770470
 20
53.806875
 30
0.0
 10
209.598404
 20
54.850755
 30
0.0
 10
208.636404
 20
56.026171
 30
0.0
  0
SPLINE
  5
131
100
AcDbEntity
  8
logo
 62
7
100
AcDbSpline
 70
8
 71
3
 72
8
 73
4
 74
0
 40
0
 40
0
 40
0
 40
0
 40
1
 40
1
 40
1
 40
1
 10
208.636404
 20
56.026171
 30
0.0
 10
208.324769
 20
55.666442
 30
0.0
 10
207.979611
 20
55.163031
 30
0.0
 10
207.664626
 20
55.806272
 30
0.0
  0
SPLINE
  5
132
100
AcDbEntity
  8
logo
 62
7
100
AcDbSpline
 70
8
 71
3
 72
8
 73
4
 74
0
 40
0
 40
0
 40
0
 40
0
 40
1
 40
1
 40
1
 40
1
 10
207.664626
 20
55.806272
 30
0.0
 10
205.042454
 20
58.841389
 30
0.0
 10
202.293674
 20
61.798110
 30
0.0
 10
199.819477
 20
64.942404
 30
0.0
  0
SPLINE
  5
133
100
AcDbEntity
  8
logo
 62
7
100
AcDbSpline
 70
8
 71
3
 72
8
 73
4
 74
0
 40
0
 40
0
 40
0
 40
0
 40
1
 40
1
 40
1
 40
1
 10
199.819477
 20
64.942404
 30
0.0
 10
199.090557
 20
66.166447
 30
0.0
 10
198.514380
 20
67.500122
 30
0.0
 10
197.390041
 20
68.442930
 30
0.0
  0
SPLINE
  5
134
100
AcDbEntity
  8
logo
 62
7
100
AcDbSpline
 70
8
 71
3
 72
8
 73
4
 74
0
 40
0
 40
0
 40
0
 40
0
 40
1
 40
1
 40
1
 40
1
 10
197.390041
 20
68.442930
 30
0.0
 10
196.870566
 20
68.920383
 30
0.0
 10
196.209214
 20
69.500008
 30
0.0
 10
197.421963
 20
69.361504
 30
0.0
  0
SPLINE
  5
135
100
AcDbEntity
  8
logo
 62
7
100
AcDbSpline
 70
8
 71
3
 72
8
 73
4
 74
0
 40
0
 40
0
 40
0
 40
0
 40
1
 40
1
 40
1
 40
1
 10
197.421963
 20
69.361504
 30
0.0
 10
200.430271
 20
69.630239
 30
0.0
 10
203.515200
 20
69.953406
 30
0.0
 10
206.476513
 20
70.173695
 30
0.0
  0
SPLINE
  5
136
100
AcDbEntity
  8
logo
 62
7
100
AcDbSpline
 70
8
 71
3
 72
8
 73
4
 74
0
 40
0
 40
0
 40
0
 40
0
 40
1
 40
1
 40
1
 40
1
 10
206.476513
 20
70.173695
 30
0.0
 10
206.447717
 20
69.274806
 30
0.0
 10
207.657742
 20
69.643128
 30
0.0
 10
208.183178
 20
69.650153
 30
0.0
  0
SPLINE
  5
137
100
AcDbEntity
  8
logo
 62
7
100
AcDbSpline
 70
8
 71
3
 72
8
 73
4
 74
0
 40
0
 40
0
 40
0
 40
0
 40
1
 40
1
 40
1
 40
1
 10
208.183178
 20
69.650153
 30
0.0
 10
209.090582
 20
69.872885
 30
0.0
 10
210.373369
 20
69.494541
 30
0.0
 10
211.048115
 20
70.283643
 30
0.0
  0
SPLINE
  5
138
100
AcDbEntity
  8
logo
 62
7
100
AcDbSpline
 70
8
 71
3
 72
8
 73
4
 74
0
 40
0
 40
0
 40
0
 40
0
 40
1
 40
1
 40
1
 40
1
 10
211.048115
 20
70.283643
 30
0.0
 10
211.332363
 20
71.027129
 30
0.0
 10
211.883611
 20
71.896354
 30
0.0
 10
211.633316
 20
72.698901
 30
0.0
  0
SPLINE
  5
139
100
AcDbEntity
  8
logo
 62
7
100
AcDbSpline
 70
8
 71
3
 72
8
 73
4
 74
0
 40
0
 40
0
 40
0
 40
0
 40
1
 40
1
 40
1
 40
1
 10
211.633316
 20
72.698901
 30
0.0
 10
210.866084
 20
73.094263
 30
0.0
 10
209.863199
 20
72.689108
 30
0.0
 10
209.015903
 20
72.677649
 30
0.0
  0
SPLINE
  5
13a
100
AcDbEntity
  8
logo
 62
7
100
AcDbSpline
 70
8
 71
3
 72
8
 73
4
 74
0
 40
0
 40
0
 40
0
 40
0
 40
1
 40
1
 40
1
 40
1
 10
209.015903
 20
72.677649
 30
0.0
 10
208.216983
 20
72.652616
 30
0.0
 10
207.458166
 20
72.366079
 30
0.0
 10
206.870187
 20
71.830001
 30
0.0
  0
SPLINE
  5
13b
100
AcDbEntity
  8
logo
 62
7
100
AcDbSpline
 70
8
 71
3
 72
8
 73
4
 74
0
 40
0
 40
0
 40
0
 40
0
 40
1
 40
1
 40
1
 40
1
 10
206.870187
 20
71.830001
 30
0.0
 10
204.746741
 20
71.348583
 30
0.0
 10
202.499270
 20
71.360315
 30
0.0
 10
200.323103
 20
71.063934
 30
0.0
  0
SPLINE
  5
13c
100
AcDbEntity
  8
logo
 62
7
100
AcDbSpline
 70
8
 71
3
 72
8
 73
4
 74
0
 40
0
 40
0
 40
0
 40
0
 40
1
 40
1
 40
1
 40
1
 10
200.323103
 20
71.063934
 30
0.0
 10
197.492637
 20
70.779965
 30
0.0
 10
194.719473
 20
70.347899
 30
0.0
 10
191.889211
 20
70.624147
 30
0.0
  0
SPLINE
  5
13d
100
AcDbEntity
  8
logo
 62
7
100
AcDbSpline
 70
8
 71
3
 72
8
 73
4
 74
0
 40
0
 40
0
 40
0
 40
0
 40
1
 40
1
 40
1
 40
1
 10
191.889211
 20
70.624147
 30
0.0
 10
191.185665
 20
70.606564
 30
0.0
 10
190.488197
 20
70.528547
 30
0.0
 10
189.800250
 20
70.393608
 30
0.0
  0
SPLINE
  5
13e
100
AcDbEntity
  8
logo
 62
7
100
AcDbSpline
 70
8
 71
3
 72
8
 73
4
 74
0
 40
0
 40
0
 40
0
 40
0
 40
1
 40
1
 40
1
 40
1
 10
189.800250
 20
70.393608
 30
0.0
 10
192.869168
 20
72.648719
 30
0.0
 10
195.939148
 20
74.935407
 30
0.0
 10
199.042768
 20
77.125122
 30
0.0
  0
SPLINE
  5
13f
100
AcDbEntity
  8
logo
 62
7
100
AcDbSpline
 70
8
 71
3
 72
8
 73
4
 74
0
 40
0
 40
0
 40
0
 40
0
 40
1
 40
1
 40
1
 40
1
 10
199.042768
 20
77.125122
 30
0.0
 10
199.907364
 20
76.992790
 30
0.0
 10
200.572384
 20
77.911260
 30
0.0
 10
201.291331
 20
78.267131
 30
0.0
  0
SPLINE
  5
140
100
AcDbEntity
  8
logo
 62
7
100
AcDbSpline
 70
8
 71
3
 72
8
 73
4
 74
0
 40
0
 40
0
 40
0
 40
0
 40
1
 40
1
 40
1
 40
1
 10
201.291331
 20
78.267131
 30
0.0
 10
201.825962
 20
78.875280
 30
0.0
 10
203.105918
 20
79.113995
 30
0.0
 10
203.173056
 20
79.952607
 30
0.0
  0
SPLINE
  5
141
100
AcDbEntity
  8
logo
 62
7
100
AcDbSpline
 70
8
 71
3
 72
8
 73
4
 74
0
 40
0
 40
0
 40
0
 40
0
 40
1
 40
1
 40
1
 40
1
 10
203.173056
 20
79.952607
 30
0.0
 10
203.105123
 20
80.466446
 30
0.0
 10
203.314881
 20
81.736971
 30
0.0
 10
202.472363
 20
81.625793
 30
0.0
  0
SPLINE
  5
142
100
AcDbEntity
  8
logo
 62
7
100
AcDbSpline
 70
8
 71
3
 72
8
 73
4
 74
0
 40
0
 40
0
 40
0
 40
0
 40
1
 40
1
 40
1
 40
1
 10
202.472363
 20
81.625793
 30
0.0
 10
201.139479
 20
80.834436
 30
0.0
 10
199.844406
 20
79.847728
 30
0.0
 10
198.805145
 20
78.682096
 30
0.0
  0
SPLINE
  5
143
100
AcDbEntity
  8
logo
 62
7
100
AcDbSpline
 70
8
 71
3
 72
8
 73
4
 74
0
 40
0
 40
0
 40
0
 40
0
 40
1
 40
1
 40
1
 40
1
 10
198.805145
 20
78.682096
 30
0.0
 10
198.216452
 20
77.693768
 30
0.0
 10
196.953604
 20
77.283141
 30
0.0
 10
196.134682
 20
76.496172
 30
0.0
  0
SPLINE
  5
144
100
AcDbEntity
  8
logo
 62
7
100
AcDbSpline
 70
8
 71
3
 72
8
 73
4
 74
0
 40
0
 40
0
 40
0
 40
0
 40
1
 40
1
 40
1
 40
1
 10
196.134682
 20
76.496172
 30
0.0
 10
192.015827
 20
73.547941
 30
0.0
 10
188.083602
 20
70.293687
 30
0.0
 10
183.735506
 20
67.712361
 30
0.0
  0
SPLINE
  5
145
100
AcDbEntity
  8
logo
 62
7
100
AcDbSpline
 70
8
 71
3
 72
8
 73
4
 74
0
 40
0
 40
0
 40
0
 40
0
 40
1
 40
1
 40
1
 40
1
 10
183.735506
 20
67.712361
 30
0.0
 10
180.140757
 20
65.244074
 30
0.0
 10
177.159429
 20
61.951509
 30
0.0
 10
174.695141
 20
58.374077
 30
0.0
  0
SPLINE
  5
146
100
AcDbEntity
  8
logo
 62
7
100
AcDbSpline
 70
8
 71
3
 72
8
 73
4
 74
0
 40
0
 40
0
 40
0
 40
0
 40
1
 40
1
 40
1
 40
1
 10
174.695141
 20
58.374077
 30
0.0
 10
175.806563
 20
61.332406
 30
0.0
 10
176.746594
 20
64.373918
 30
0.0
 10
178.011243
 20
67.265485
 30
0.0
  0
SPLINE
  5
147
100
AcDbEntity
  8
logo
 62
7
100
AcDbSpline
 70
8
 71
3
 72
8
 73
4
 74
0
 40
0
 40
0
 40
0
 40
0
 40
1
 40
1
 40
1
 40
1
 10
178.011243
 20
67.265485
 30
0.0
 10
178.778795
 20
68.264724
 30
0.0
 10
179.100813
 20
69.598077
 30
0.0
 10
179.440538
 20
70.801478
 30
0.0
  0
SPLINE
  5
148
100
AcDbEntity
  8
logo
 62
7
100
AcDbSpline
 70
8
 71
3
 72
8
 73
4
 74
0
 40
0
 40
0
 40
0
 40
0
 40
1
 40
1
 40
1
 40
1
 10
179.440538
 20
70.801478
 30
0.0
 10
179.487257
 20
71.733342
 30
0.0
 10
178.187694
 20
71.149408
 30
0.0
 10
177.897753
 20
70.755372
 30
0.0
  0
LINE
  5
149
100
AcDbEntity
  8
logo
 62
7
100
AcDbLine
 10
177.897753
 20
70.755372
 30
0.0
 11
177.897793
 21
70.755332
 31
0.0
  0
SPLINE
  5
14a
100
AcDbEntity
  8
logo
 62
7
100
AcDbSpline
 70
8
 71
3
 72
8
 73
4
 74
0
 40
0
 40
0
 40
0
 40
0
 40
1
 40
1
 40
1
 40
1
 10
181.749432
 20
64.300458
 30
0.0
 10
184.328184
 20
66.704464
 30
0.0
 10
187.678410
 20
68.650728
 30
0.0
 10
191.279227
 20
68.758585
 30
0.0
  0
SPLINE
  5
14b
100
AcDbEntity
  8
logo
 62
7
100
AcDbSpline
 70
8
 71
3
 72
8
 73
4
 74
0
 40
0
 40
0
 40
0
 40
0
 40
1
 40
1
 40
1
 40
1
 10
191.279227
 20
68.758585
 30
0.0
 10
193.658377
 20
68.797774
 30
0.0
 10
196.129066
 20
67.551492
 30
0.0
 10
197.138265
 20
65.339635
 30
0.0
  0
SPLINE
  5
14c
100
AcDbEntity
  8
logo
 62
7
100
AcDbSpline
 70
8
 71
3
 72
8
 73
4
 74
0
 40
0
 40
0
 40
0
 40
0
 40
1
 40
1
 40
1
 40
1
 10
197.138265
 20
65.339635
 30
0.0
 10
197.850266
 20
64.193634
 30
0.0
 10
198.150751
 20
62.817525
 30
0.0
 10
198.322842
 20
61.530549
 30
0.0
  0
SPLINE
  5
14d
100
AcDbEntity
  8
logo
 62
7
100
AcDbSpline
 70
8
 71
3
 72
8
 73
4
 74
0
 40
0
 40
0
 40
0
 40
0
 40
1
 40
1
 40
1
 40
1
 10
198.322842
 20
61.530549
 30
0.0
 10
198.614634
 20
59.875634
 30
0.0
 10
198.387919
 20
58.134264
 30
0.0
 10
198.304158
 20
56.444490
 30
0.0
  0
SPLINE
  5
14e
100
AcDbEntity
  8
logo
 62
7
100
AcDbSpline
 70
8
 71
3
 72
8
 73
4
 74
0
 40
0
 40
0
 40
0
 40
0
 40
1
 40
1
 40
1
 40
1
 10
198.304158
 20
56.444490
 30
0.0
 10
198.167902
 20
55.419952
 30
0.0
 10
198.154716
 20
54.390976
 30
0.0
 10
197.741199
 20
53.422951
 30
0.0
  0
SPLINE
  5
14f
100
AcDbEntity
  8
logo
 62
7
100
AcDbSpline
 70
8
 71
3
 72
8
 73
4
 74
0
 40
0
 40
0
 40
0
 40
0
 40
1
 40
1
 40
1
 40
1
 10
197.741199
 20
53.422951
 30
0.0
 10
196.527705
 20
48.348516
 30
0.0
 10
193.990826
 20
43.686456
 30
0.0
 10
190.800056
 20
39.588779
 30
0.0
  0
SPLINE
  5
150
100
AcDbEntity
  8
logo
 62
7
100
AcDbSpline
 70
8
 71
3
 72
8
 73
4
 74
0
 40
0
 40
0
 40
0
 40
0
 40
1
 40
1
 40
1
 40
1
 10
190.800056
 20
39.588779
 30
0.0
 10
188.269708
 20
36.702907
 30
0.0
 10
185.592695
 20
33.766991
 30
0.0
 10
182.085666
 20
32.097794
 30
0.0
  0
SPLINE
  5
151
100
AcDbEntity
  8
logo
 62
7
100
AcDbSpline
 70
8
 71
3
 72
8
 73
4
 74
0
 40
0
 40
0
 40
0
 40
0
 40
1
 40
1
 40
1
 40
1
 10
182.085666
 20
32.097794
 30
0.0
 10
179.294231
 20
30.627340
 30
0.0
 10
175.513373
 20
30.024372
 30
0.0
 10
172.801280
 20
31.994198
 30
0.0
  0
SPLINE
  5
152
100
AcDbEntity
  8
logo
 62
7
100
AcDbSpline
 70
8
 71
3
 72
8
 73
4
 74
0
 40
0
 40
0
 40
0
 40
0
 40
1
 40
1
 40
1
 40
1
 10
172.801280
 20
31.994198
 30
0.0
 10
170.113342
 20
34.256483
 30
0.0
 10
169.572635
 20
38.079511
 30
0.0
 10
169.729898
 20
41.406961
 30
0.0
  0
SPLINE
  5
153
100
AcDbEntity
  8
logo
 62
7
100
AcDbSpline
 70
8
 71
3
 72
8
 73
4
 74
0
 40
0
 40
0
 40
0
 40
0
 40
1
 40
1
 40
1
 40
1
 10
169.729898
 20
41.406961
 30
0.0
 10
170.165491
 20
47.584670
 30
0.0
 10
172.806061
 20
53.467522
 30
0.0
 10
176.319538
 20
58.494634
 30
0.0
  0
SPLINE
  5
154
100
AcDbEntity
  8
logo
 62
7
100
AcDbSpline
 70
8
 71
3
 72
8
 73
4
 74
0
 40
0
 40
0
 40
0
 40
0
 40
1
 40
1
 40
1
 40
1
 10
176.319538
 20
58.494634
 30
0.0
 10
174.518413
 20
55.427146
 30
0.0
 10
173.544244
 20
52.008075
 30
0.0
 10
172.255098
 20
48.720115
 30
0.0
  0
SPLINE
  5
155
100
AcDbEntity
  8
logo
 62
7
100
AcDbSpline
 70
8
 71
3
 72
8
 73
4
 74
0
 40
0
 40
0
 40
0
 40
0
 40
1
 40
1
 40
1
 40
1
 10
172.255098
 20
48.720115
 30
0.0
 10
170.783301
 20
45.422967
 30
0.0
 10
169.478954
 20
41.552199
 30
0.0
 10
170.779702
 20
38.002193
 30
0.0
  0
SPLINE
  5
156
100
AcDbEntity
  8
logo
 62
7
100
AcDbSpline
 70
8
 71
3
 72
8
 73
4
 74
0
 40
0
 40
0
 40
0
 40
0
 40
1
 40
1
 40
1
 40
1
 10
170.779702
 20
38.002193
 30
0.0
 10
171.339123
 20
36.527511
 30
0.0
 10
172.750023
 20
35.595190
 30
0.0
 10
174.248310
 20
35.257102
 30
0.0
  0
SPLINE
  5
157
100
AcDbEntity
  8
logo
 62
7
100
AcDbSpline
 70
8
 71
3
 72
8
 73
4
 74
0
 40
0
 40
0
 40
0
 40
0
 40
1
 40
1
 40
1
 40
1
 10
174.248310
 20
35.257102
 30
0.0
 10
175.744866
 20
34.618487
 30
0.0
 10
177.447146
 20
34.681837
 30
0.0
 10
178.897943
 20
35.416699
 30
0.0
  0
SPLINE
  5
158
100
AcDbEntity
  8
logo
 62
7
100
AcDbSpline
 70
8
 71
3
 72
8
 73
4
 74
0
 40
0
 40
0
 40
0
 40
0
 40
1
 40
1
 40
1
 40
1
 10
178.897943
 20
35.416699
 30
0.0
 10
182.691933
 20
37.266677
 30
0.0
 10
185.350968
 20
40.833952
 30
0.0
 10
187.044945
 20
44.607940
 30
0.0
  0
SPLINE
  5
159
100
AcDbEntity
  8
logo
 62
7
100
AcDbSpline
 70
8
 71
3
 72
8
 73
4
 74
0
 40
0
 40
0
 40
0
 40
0
 40
1
 40
1
 40
1
 40
1
 10
187.044945
 20
44.607940
 30
0.0
 10
188.889406
 20
48.566849
 30
0.0
 10
191.976527
 20
52.032752
 30
0.0
 10
192.644686
 20
56.455318
 30
0.0
  0
SPLINE
  5
15a
100
AcDbEntity
  8
logo
 62
7
100
AcDbSpline
 70
8
 71
3
 72
8
 73
4
 74
0
 40
0
 40
0
 40
0
 40
0
 40
1
 40
1
 40
1
 40
1
 10
192.644686
 20
56.455318
 30
0.0
 10
192.910813
 20
57.004893
 30
0.0
 10
192.325111
 20
57.469467
 30
0.0
 10
191.821867
 20
57.150460
 30
0.0
  0
SPLINE
  5
15b
100
AcDbEntity
  8
logo
 62
7
100
AcDbSpline
 70
8
 71
3
 72
8
 73
4
 74
0
 40
0
 40
0
 40
0
 40
0
 40
1
 40
1
 40
1
 40
1
 10
191.821867
 20
57.150460
 30
0.0
 10
190.754246
 20
56.626571
 30
0.0
 10
190.955515
 20
55.159817
 30
0.0
 10
190.523803
 20
54.220945
 30
0.0
  0
SPLINE
  5
15c
100
AcDbEntity
  8
logo
 62
7
100
AcDbSpline
 70
8
 71
3
 72
8
 73
4
 74
0
 40
0
 40
0
 40
0
 40
0
 40
1
 40
1
 40
1
 40
1
 10
190.523803
 20
54.220945
 30
0.0
 10
190.380753
 20
53.702977
 30
0.0
 10
190.072349
 20
52.889192
 30
0.0
 10
189.857036
 20
52.624959
 30
0.0
  0
SPLINE
  5
15d
100
AcDbEntity
  8
logo
 62
7
100
AcDbSpline
 70
8
 71
3
 72
8
 73
4
 74
0
 40
0
 40
0
 40
0
 40
0
 40
1
 40
1
 40
1
 40
1
 10
189.857036
 20
52.624959
 30
0.0
 10
190.078577
 20
54.442769
 30
0.0
 10
190.227337
 20
56.346931
 30
0.0
 10
189.288725
 20
57.974972
 30
0.0
  0
SPLINE
  5
15e
100
AcDbEntity
  8
logo
 62
7
100
AcDbSpline
 70
8
 71
3
 72
8
 73
4
 74
0
 40
0
 40
0
 40
0
 40
0
 40
1
 40
1
 40
1
 40
1
 10
189.288725
 20
57.974972
 30
0.0
 10
188.572383
 20
59.773871
 30
0.0
 10
186.518999
 20
60.475213
 30
0.0
 10
184.713527
 20
60.340573
 30
0.0
  0
SPLINE
  5
15f
100
AcDbEntity
  8
logo
 62
7
100
AcDbSpline
 70
8
 71
3
 72
8
 73
4
 74
0
 40
0
 40
0
 40
0
 40
0
 40
1
 40
1
 40
1
 40
1
 10
184.713527
 20
60.340573
 30
0.0
 10
182.130435
 20
60.514679
 30
0.0
 10
179.627282
 20
59.318787
 30
0.0
 10
177.916716
 20
57.401099
 30
0.0
  0
SPLINE
  5
160
100
AcDbEntity
  8
logo
 62
7
100
AcDbSpline
 70
8
 71
3
 72
8
 73
4
 74
0
 40
0
 40
0
 40
0
 40
0
 40
1
 40
1
 40
1
 40
1
 10
177.916716
 20
57.401099
 30
0.0
 10
177.170492
 20
56.685569
 30
0.0
 10
176.307140
 20
55.722929
 30
0.0
 10
175.737890
 20
55.061493
 30
0.0
  0
SPLINE
  5
161
100
AcDbEntity
  8
logo
 62
7
100
AcDbSpline
 70
8
 71
3
 72
8
 73
4
 74
0
 40
0
 40
0
 40
0
 40
0
 40
1
 40
1
 40
1
 40
1
 10
175.737890
 20
55.061493
 30
0.0
 10
177.098085
 20
58.310526
 30
0.0
 10
179.333717
 20
61.105827
 30
0.0
 10
181.412507
 20
63.920982
 30
0.0
  0
SPLINE
  5
162
100
AcDbEntity
  8
logo
 62
7
100
AcDbSpline
 70
8
 71
3
 72
8
 73
4
 74
0
 40
0
 40
0
 40
0
 40
0
 40
1
 40
1
 40
1
 40
1
 10
181.412507
 20
63.920982
 30
0.0
 10
181.519709
 20
64.052097
 30
0.0
 10
181.633032
 20
64.177514
 30
0.0
 10
181.749435
 20
64.300467
 30
0.0
  0
LINE
  5
163
100
AcDbEntity
  8
logo
 62
7
100
AcDbLine
 10
181.749435
 20
64.300467
 30
0.0
 11
181.749432
 21
64.300458
 31
0.0
  0
SPLINE
  5
164
100
AcDbEntity
  8
logo
 62
7
100
AcDbSpline
 70
8
 71
3
 72
8
 73
4
 74
0
 40
0
 40
0
 40
0
 40
0
 40
1
 40
1
 40
1
 40
1
 10
177.546672
 20
55.004739
 30
0.0
 10
178.922962
 20
56.399455
 30
0.0
 10
180.259917
 20
57.967259
 30
0.0
 10
182.267242
 20
58.356305
 30
0.0
  0
SPLINE
  5
165
100
AcDbEntity
  8
logo
 62
7
100
AcDbSpline
 70
8
 71
3
 72
8
 73
4
 74
0
 40
0
 40
0
 40
0
 40
0
 40
1
 40
1
 40
1
 40
1
 10
182.267242
 20
58.356305
 30
0.0
 10
183.613893
 20
58.555088
 30
0.0
 10
185.108317
 20
58.497478
 30
0.0
 10
186.406158
 20
58.012285
 30
0.0
  0
SPLINE
  5
166
100
AcDbEntity
  8
logo
 62
7
100
AcDbSpline
 70
8
 71
3
 72
8
 73
4
 74
0
 40
0
 40
0
 40
0
 40
0
 40
1
 40
1
 40
1
 40
1
 10
186.406158
 20
58.012285
 30
0.0
 10
187.811139
 20
57.238107
 30
0.0
 10
188.338604
 20
55.500439
 30
0.0
 10
188.282329
 20
53.979761
 30
0.0
  0
SPLINE
  5
167
100
AcDbEntity
  8
logo
 62
7
100
AcDbSpline
 70
8
 71
3
 72
8
 73
4
 74
0
 40
0
 40
0
 40
0
 40
0
 40
1
 40
1
 40
1
 40
1
 10
188.282329
 20
53.979761
 30
0.0
 10
188.251152
 20
50.333221
 30
0.0
 10
186.356030
 20
47.103741
 30
0.0
 10
184.897578
 20
43.863285
 30
0.0
  0
SPLINE
  5
168
100
AcDbEntity
  8
logo
 62
7
100
AcDbSpline
 70
8
 71
3
 72
8
 73
4
 74
0
 40
0
 40
0
 40
0
 40
0
 40
1
 40
1
 40
1
 40
1
 10
184.897578
 20
43.863285
 30
0.0
 10
183.821936
 20
41.607768
 30
0.0
 10
181.998482
 20
39.799407
 30
0.0
 10
180.142806
 20
38.151141
 30
0.0
  0
SPLINE
  5
169
100
AcDbEntity
  8
logo
 62
7
100
AcDbSpline
 70
8
 71
3
 72
8
 73
4
 74
0
 40
0
 40
0
 40
0
 40
0
 40
1
 40
1
 40
1
 40
1
 10
180.142806
 20
38.151141
 30
0.0
 10
178.668911
 20
37.201385
 30
0.0
 10
176.786915
 20
36.388043
 30
0.0
 10
175.081638
 20
37.264481
 30
0.0
  0
SPLINE
  5
16a
100
AcDbEntity
  8
logo
 62
7
100
AcDbSpline
 70
8
 71
3
 72
8
 73
4
 74
0
 40
0
 40
0
 40
0
 40
0
 40
1
 40
1
 40
1
 40
1
 10
175.081638
 20
37.264481
 30
0.0
 10
173.791124
 20
37.605657
 30
0.0
 10
172.401797
 20
38.283902
 30
0.0
 10
172.077764
 20
39.718753
 30
0.0
  0
SPLINE
  5
16b
100
AcDbEntity
  8
logo
 62
7
100
AcDbSpline
 70
8
 71
3
 72
8
 73
4
 74
0
 40
0
 40
0
 40
0
 40
0
 40
1
 40
1
 40
1
 40
1
 10
172.077764
 20
39.718753
 30
0.0
 10
171.845650
 20
40.460137
 30
0.0
 10
171.737850
 20
41.286803
 30
0.0
 10
171.740838
 20
42.034700
 30
0.0
  0
SPLINE
  5
16c
100
AcDbEntity
  8
logo
 62
7
100
AcDbSpline
 70
8
 71
3
 72
8
 73
4
 74
0
 40
0
 40
0
 40
0
 40
0
 40
1
 40
1
 40
1
 40
1
 10
171.740838
 20
42.034700
 30
0.0
 10
172.001987
 20
45.405407
 30
0.0
 10
173.595459
 20
48.535226
 30
0.0
 10
175.064028
 20
51.514852
 30
0.0
  0
SPLINE
  5
16d
100
AcDbEntity
  8
logo
 62
7
100
AcDbSpline
 70
8
 71
3
 72
8
 73
4
 74
0
 40
0
 40
0
 40
0
 40
0
 40
1
 40
1
 40
1
 40
1
 10
175.064028
 20
51.514852
 30
0.0
 10
175.705730
 20
52.806750
 30
0.0
 10
176.473313
 20
54.017237
 30
0.0
 10
177.546669
 20
55.004739
 30
0.0
  0
LINE
  5
16e
100
AcDbEntity
  8
logo
 62
7
100
AcDbLine
 10
177.546669
 20
55.004739
 30
0.0
 11
177.546672
 21
55.004739
 31
0.0
  0
SPLINE
  5
16f
100
AcDbEntity
  8
logo
 62
7
100
AcDbSpline
 70
8
 71
3
 72
8
 73
4
 74
0
 40
0
 40
0
 40
0
 40
0
 40
1
 40
1
 40
1
 40
1
 10
70.219695
 20
14.313125
 30
0.0
 10
70.117735
 20
13.876554
 30
0.0
 10
69.988334
 20
13.504686
 30
0.0
 10
69.831487
 20
13.197521
 30
0.0
  0
SPLINE
  5
170
100
AcDbEntity
  8
logo
 62
7
100
AcDbSpline
 70
8
 71
3
 72
8
 73
4
 74
0
 40
0
 40
0
 40
0
 40
0
 40
1
 40
1
 40
1
 40
1
 10
69.831487
 20
13.197521
 30
0.0
 10
69.674631
 20
12.890351
 30
0.0
 10
69.466804
 20
12.630894
 30
0.0
 10
69.208004
 20
12.419145
 30
0.0
  0
SPLINE
  5
171
100
AcDbEntity
  8
logo
 62
7
100
AcDbSpline
 70
8
 71
3
 72
8
 73
4
 74
0
 40
0
 40
0
 40
0
 40
0
 40
1
 40
1
 40
1
 40
1
 10
69.208004
 20
12.419145
 30
0.0
 10
68.967495
 20
12.225695
 30
0.0
 10
68.706728
 20
12.081914
 30
0.0
 10
68.425707
 20
11.987805
 30
0.0
  0
SPLINE
  5
172
100
AcDbEntity
  8
logo
 62
7
100
AcDbSpline
 70
8
 71
3
 72
8
 73
4
 74
0
 40
0
 40
0
 40
0
 40
0
 40
1
 40
1
 40
1
 40
1
 10
68.425707
 20
11.987805
 30
0.0
 10
68.144679
 20
11.893692
 30
0.0
 10
67.814637
 20
11.846637
 30
0.0
 10
67.435582
 20
11.846637
 30
0.0
  0
SPLINE
  5
173
100
AcDbEntity
  8
logo
 62
7
100
AcDbSpline
 70
8
 71
3
 72
8
 73
4
 74
0
 40
0
 40
0
 40
0
 40
0
 40
1
 40
1
 40
1
 40
1
 10
67.435582
 20
11.846637
 30
0.0
 10
66.821246
 20
11.846637
 30
0.0
 10
66.363763
 20
11.985189
 30
0.0
 10
66.063134
 20
12.262293
 30
0.0
  0
SPLINE
  5
174
100
AcDbEntity
  8
logo
 62
7
100
AcDbSpline
 70
8
 71
3
 72
8
 73
4
 74
0
 40
0
 40
0
 40
0
 40
0
 40
1
 40
1
 40
1
 40
1
 10
66.063134
 20
12.262293
 30
0.0
 10
65.762500
 20
12.539397
 30
0.0
 10
65.612184
 20
12.922375
 30
0.0
 10
65.612187
 20
13.411230
 30
0.0
  0
SPLINE
  5
175
100
AcDbEntity
  8
logo
 62
7
100
AcDbSpline
 70
8
 71
3
 72
8
 73
4
 74
0
 40
0
 40
0
 40
0
 40
0
 40
1
 40
1
 40
1
 40
1
 10
65.612187
 20
13.411230
 30
0.0
 10
65.612184
 20
13.575923
 30
0.0
 10
65.623293
 20
13.728852
 30
0.0
 10
65.645515
 20
13.870021
 30
0.0
  0
SPLINE
  5
176
100
AcDbEntity
  8
logo
 62
7
100
AcDbSpline
 70
8
 71
3
 72
8
 73
4
 74
0
 40
0
 40
0
 40
0
 40
0
 40
1
 40
1
 40
1
 40
1
 10
65.645515
 20
13.870021
 30
0.0
 10
65.667735
 20
14.011184
 30
0.0
 10
65.695838
 20
14.158886
 30
0.0
 10
65.729824
 20
14.313125
 30
0.0
  0
LINE
  5
177
100
AcDbEntity
  8
logo
 62
7
100
AcDbLine
 10
65.729824
 20
14.313125
 30
0.0
 11
66.537608
 21
17.806989
 31
0.0
  0
LINE
  5
178
100
AcDbEntity
  8
logo
 62
7
100
AcDbLine
 10
66.537608
 20
17.806989
 30
0.0
 11
67.321865
 21
17.806989
 31
0.0
  0
LINE
  5
179
100
AcDbEntity
  8
logo
 62
7
100
AcDbLine
 10
67.321865
 20
17.806989
 30
0.0
 11
66.506238
 21
14.273913
 31
0.0
  0
SPLINE
  5
17a
100
AcDbEntity
  8
logo
 62
7
100
AcDbSpline
 70
8
 71
3
 72
8
 73
4
 74
0
 40
0
 40
0
 40
0
 40
0
 40
1
 40
1
 40
1
 40
1
 10
66.506238
 20
14.273913
 30
0.0
 10
66.474867
 20
14.151043
 30
0.0
 10
66.449379
 20
14.013146
 30
0.0
 10
66.429774
 20
13.860217
 30
0.0
  0
SPLINE
  5
17b
100
AcDbEntity
  8
logo
 62
7
100
AcDbSpline
 70
8
 71
3
 72
8
 73
4
 74
0
 40
0
 40
0
 40
0
 40
0
 40
1
 40
1
 40
1
 40
1
 10
66.429774
 20
13.860217
 30
0.0
 10
66.410172
 20
13.707284
 30
0.0
 10
66.400362
 20
13.587687
 30
0.0
 10
66.400364
 20
13.501420
 30
0.0
  0
SPLINE
  5
17c
100
AcDbEntity
  8
logo
 62
7
100
AcDbSpline
 70
8
 71
3
 72
8
 73
4
 74
0
 40
0
 40
0
 40
0
 40
0
 40
1
 40
1
 40
1
 40
1
 10
66.400364
 20
13.501420
 30
0.0
 10
66.400362
 20
13.172031
 30
0.0
 10
66.498394
 20
12.920415
 30
0.0
 10
66.694460
 20
12.746574
 30
0.0
  0
SPLINE
  5
17d
100
AcDbEntity
  8
logo
 62
7
100
AcDbSpline
 70
8
 71
3
 72
8
 73
4
 74
0
 40
0
 40
0
 40
0
 40
0
 40
1
 40
1
 40
1
 40
1
 10
66.694460
 20
12.746574
 30
0.0
 10
66.890523
 20
12.572728
 30
0.0
 10
67.183311
 20
12.485807
 30
0.0
 10
67.572828
 20
12.485807
 30
0.0
  0
SPLINE
  5
17e
100
AcDbEntity
  8
logo
 62
7
100
AcDbSpline
 70
8
 71
3
 72
8
 73
4
 74
0
 40
0
 40
0
 40
0
 40
0
 40
1
 40
1
 40
1
 40
1
 10
67.572828
 20
12.485807
 30
0.0
 10
67.852543
 20
12.485807
 30
0.0
 10
68.098276
 20
12.528941
 30
0.0
 10
68.310028
 20
12.615210
 30
0.0
  0
SPLINE
  5
17f
100
AcDbEntity
  8
logo
 62
7
100
AcDbSpline
 70
8
 71
3
 72
8
 73
4
 74
0
 40
0
 40
0
 40
0
 40
0
 40
1
 40
1
 40
1
 40
1
 10
68.310028
 20
12.615210
 30
0.0
 10
68.521776
 20
12.701477
 30
0.0
 10
68.706075
 20
12.830880
 30
0.0
 10
68.862931
 20
13.003416
 30
0.0
  0
SPLINE
  5
180
100
AcDbEntity
  8
logo
 62
7
100
AcDbSpline
 70
8
 71
3
 72
8
 73
4
 74
0
 40
0
 40
0
 40
0
 40
0
 40
1
 40
1
 40
1
 40
1
 10
68.862931
 20
13.003416
 30
0.0
 10
69.004093
 20
13.165495
 30
0.0
 10
69.117155
 20
13.345221
 30
0.0
 10
69.202121
 20
13.542594
 30
0.0
  0
SPLINE
  5
181
100
AcDbEntity
  8
logo
 62
7
100
AcDbSpline
 70
8
 71
3
 72
8
 73
4
 74
0
 40
0
 40
0
 40
0
 40
0
 40
1
 40
1
 40
1
 40
1
 10
69.202121
 20
13.542594
 30
0.0
 10
69.287078
 20
13.739963
 30
0.0
 10
69.360928
 20
13.977200
 30
0.0
 10
69.423674
 20
14.254306
 30
0.0
  0
LINE
  5
182
100
AcDbEntity
  8
logo
 62
7
100
AcDbLine
 10
69.423674
 20
14.254306
 30
0.0
 11
70.243222
 21
17.806989
 31
0.0
  0
LINE
  5
183
100
AcDbEntity
  8
logo
 62
7
100
AcDbLine
 10
70.243222
 20
17.806989
 30
0.0
 11
71.027479
 21
17.806989
 31
0.0
  0
LINE
  5
184
100
AcDbEntity
  8
logo
 62
7
100
AcDbLine
 10
71.027479
 20
17.806989
 30
0.0
 11
70.219695
 21
14.313125
 31
0.0
  0
SPLINE
  5
185
100
AcDbEntity
  8
logo
 62
7
100
AcDbSpline
 70
8
 71
3
 72
8
 73
4
 74
0
 40
0
 40
0
 40
0
 40
0
 40
1
 40
1
 40
1
 40
1
 10
73.180263
 20
11.862324
 30
0.0
 10
72.801204
 20
11.862324
 30
0.0
 10
72.440446
 20
11.902188
 30
0.0
 10
72.097990
 20
11.981922
 30
0.0
  0
SPLINE
  5
186
100
AcDbEntity
  8
logo
 62
7
100
AcDbSpline
 70
8
 71
3
 72
8
 73
4
 74
0
 40
0
 40
0
 40
0
 40
0
 40
1
 40
1
 40
1
 40
1
 10
72.097990
 20
11.981922
 30
0.0
 10
71.755530
 20
12.061655
 30
0.0
 10
71.419607
 20
12.183868
 30
0.0
 10
71.090220
 20
12.348562
 30
0.0
  0
LINE
  5
187
100
AcDbEntity
  8
logo
 62
7
100
AcDbLine
 10
71.090220
 20
12.348562
 30
0.0
 11
71.278440
 21
13.238693
 31
0.0
  0
LINE
  5
188
100
AcDbEntity
  8
logo
 62
7
100
AcDbLine
 10
71.278440
 20
13.238693
 30
0.0
 11
71.333338
 21
13.238693
 31
0.0
  0
SPLINE
  5
189
100
AcDbEntity
  8
logo
 62
7
100
AcDbSpline
 70
8
 71
3
 72
8
 73
4
 74
0
 40
0
 40
0
 40
0
 40
0
 40
1
 40
1
 40
1
 40
1
 10
71.333338
 20
13.238693
 30
0.0
 10
71.584300
 20
13.000801
 30
0.0
 10
71.892122
 20
12.818461
 30
0.0
 10
72.256802
 20
12.691675
 30
0.0
  0
SPLINE
  5
18a
100
AcDbEntity
  8
logo
 62
7
100
AcDbSpline
 70
8
 71
3
 72
8
 73
4
 74
0
 40
0
 40
0
 40
0
 40
0
 40
1
 40
1
 40
1
 40
1
 10
72.256802
 20
12.691675
 30
0.0
 10
72.621480
 20
12.564885
 30
0.0
 10
72.973742
 20
12.501491
 30
0.0
 10
73.313587
 20
12.501493
 30
0.0
  0
SPLINE
  5
18b
100
AcDbEntity
  8
logo
 62
7
100
AcDbSpline
 70
8
 71
3
 72
8
 73
4
 74
0
 40
0
 40
0
 40
0
 40
0
 40
1
 40
1
 40
1
 40
1
 10
73.313587
 20
12.501493
 30
0.0
 10
73.870408
 20
12.501491
 30
0.0
 10
74.297173
 20
12.611942
 30
0.0
 10
74.593888
 20
12.832840
 30
0.0
  0
SPLINE
  5
18c
100
AcDbEntity
  8
logo
 62
7
100
AcDbSpline
 70
8
 71
3
 72
8
 73
4
 74
0
 40
0
 40
0
 40
0
 40
0
 40
1
 40
1
 40
1
 40
1
 10
74.593888
 20
12.832840
 30
0.0
 10
74.890592
 20
13.053738
 30
0.0
 10
75.038948
 20
13.335418
 30
0.0
 10
75.038952
 20
13.677878
 30
0.0
  0
SPLINE
  5
18d
100
AcDbEntity
  8
logo
 62
7
100
AcDbSpline
 70
8
 71
3
 72
8
 73
4
 74
0
 40
0
 40
0
 40
0
 40
0
 40
1
 40
1
 40
1
 40
1
 10
75.038952
 20
13.677878
 30
0.0
 10
75.038948
 20
13.858255
 30
0.0
 10
74.986012
 20
14.008571
 30
0.0
 10
74.880140
 20
14.128825
 30
0.0
  0
SPLINE
  5
18e
100
AcDbEntity
  8
logo
 62
7
100
AcDbSpline
 70
8
 71
3
 72
8
 73
4
 74
0
 40
0
 40
0
 40
0
 40
0
 40
1
 40
1
 40
1
 40
1
 10
74.880140
 20
14.128825
 30
0.0
 10
74.774262
 20
14.249076
 30
0.0
 10
74.619371
 20
14.337958
 30
0.0
 10
74.415469
 20
14.395473
 30
0.0
  0
SPLINE
  5
18f
100
AcDbEntity
  8
logo
 62
7
100
AcDbSpline
 70
8
 71
3
 72
8
 73
4
 74
0
 40
0
 40
0
 40
0
 40
0
 40
1
 40
1
 40
1
 40
1
 10
74.415469
 20
14.395473
 30
0.0
 10
74.245542
 20
14.442526
 30
0.0
 10
74.043596
 20
14.487621
 30
0.0
 10
73.809631
 20
14.530757
 30
0.0
  0
SPLINE
  5
190
100
AcDbEntity
  8
logo
 62
7
100
AcDbSpline
 70
8
 71
3
 72
8
 73
4
 74
0
 40
0
 40
0
 40
0
 40
0
 40
1
 40
1
 40
1
 40
1
 10
73.809631
 20
14.530757
 30
0.0
 10
73.575657
 20
14.573887
 30
0.0
 10
73.352799
 20
14.620290
 30
0.0
 10
73.141052
 20
14.669962
 30
0.0
  0
SPLINE
  5
191
100
AcDbEntity
  8
logo
 62
7
100
AcDbSpline
 70
8
 71
3
 72
8
 73
4
 74
0
 40
0
 40
0
 40
0
 40
0
 40
1
 40
1
 40
1
 40
1
 10
73.141052
 20
14.669962
 30
0.0
 10
72.730622
 20
14.761457
 30
0.0
 10
72.412998
 20
14.918308
 30
0.0
 10
72.188180
 20
15.140516
 30
0.0
  0
SPLINE
  5
192
100
AcDbEntity
  8
logo
 62
7
100
AcDbSpline
 70
8
 71
3
 72
8
 73
4
 74
0
 40
0
 40
0
 40
0
 40
0
 40
1
 40
1
 40
1
 40
1
 10
72.188180
 20
15.140516
 30
0.0
 10
71.963357
 20
15.362719
 30
0.0
 10
71.850947
 20
15.638516
 30
0.0
 10
71.850949
 20
15.967907
 30
0.0
  0
SPLINE
  5
193
100
AcDbEntity
  8
logo
 62
7
100
AcDbSpline
 70
8
 71
3
 72
8
 73
4
 74
0
 40
0
 40
0
 40
0
 40
0
 40
1
 40
1
 40
1
 40
1
 10
71.850949
 20
15.967907
 30
0.0
 10
71.850947
 20
16.524726
 30
0.0
 10
72.086877
 20
16.988089
 30
0.0
 10
72.558741
 20
17.358002
 30
0.0
  0
SPLINE
  5
194
100
AcDbEntity
  8
logo
 62
7
100
AcDbSpline
 70
8
 71
3
 72
8
 73
4
 74
0
 40
0
 40
0
 40
0
 40
0
 40
1
 40
1
 40
1
 40
1
 10
72.558741
 20
17.358002
 30
0.0
 10
73.030600
 20
17.727904
 30
0.0
 10
73.640359
 20
17.912858
 30
0.0
 10
74.388019
 20
17.912865
 30
0.0
  0
SPLINE
  5
195
100
AcDbEntity
  8
logo
 62
7
100
AcDbSpline
 70
8
 71
3
 72
8
 73
4
 74
0
 40
0
 40
0
 40
0
 40
0
 40
1
 40
1
 40
1
 40
1
 10
74.388019
 20
17.912865
 30
0.0
 10
74.795830
 20
17.912858
 30
0.0
 10
75.166391
 20
17.870379
 30
0.0
 10
75.499703
 20
17.785422
 30
0.0
  0
SPLINE
  5
196
100
AcDbEntity
  8
logo
 62
7
100
AcDbSpline
 70
8
 71
3
 72
8
 73
4
 74
0
 40
0
 40
0
 40
0
 40
0
 40
1
 40
1
 40
1
 40
1
 10
75.499703
 20
17.785422
 30
0.0
 10
75.833008
 20
17.700456
 30
0.0
 10
76.119915
 20
17.600463
 30
0.0
 10
76.360425
 20
17.485445
 30
0.0
  0
LINE
  5
197
100
AcDbEntity
  8
logo
 62
7
100
AcDbLine
 10
76.360425
 20
17.485445
 30
0.0
 11
76.183969
 21
16.650211
 31
0.0
  0
LINE
  5
198
100
AcDbEntity
  8
logo
 62
7
100
AcDbLine
 10
76.183969
 20
16.650211
 30
0.0
 11
76.129070
 21
16.650211
 31
0.0
  0
SPLINE
  5
199
100
AcDbEntity
  8
logo
 62
7
100
AcDbSpline
 70
8
 71
3
 72
8
 73
4
 74
0
 40
0
 40
0
 40
0
 40
0
 40
1
 40
1
 40
1
 40
1
 10
76.129070
 20
16.650211
 30
0.0
 10
75.943457
 20
16.820129
 30
0.0
 10
75.678772
 20
16.966522
 30
0.0
 10
75.335010
 20
17.089394
 30
0.0
  0
SPLINE
  5
19a
100
AcDbEntity
  8
logo
 62
7
100
AcDbSpline
 70
8
 71
3
 72
8
 73
4
 74
0
 40
0
 40
0
 40
0
 40
0
 40
1
 40
1
 40
1
 40
1
 10
75.335010
 20
17.089394
 30
0.0
 10
74.991240
 20
17.212257
 30
0.0
 10
74.629828
 20
17.273689
 30
0.0
 10
74.250775
 20
17.273696
 30
0.0
  0
SPLINE
  5
19b
100
AcDbEntity
  8
logo
 62
7
100
AcDbSpline
 70
8
 71
3
 72
8
 73
4
 74
0
 40
0
 40
0
 40
0
 40
0
 40
1
 40
1
 40
1
 40
1
 10
74.250775
 20
17.273696
 30
0.0
 10
73.774988
 20
17.273689
 30
0.0
 10
73.395279
 20
17.169123
 30
0.0
 10
73.111641
 20
16.959993
 30
0.0
  0
SPLINE
  5
19c
100
AcDbEntity
  8
logo
 62
7
100
AcDbSpline
 70
8
 71
3
 72
8
 73
4
 74
0
 40
0
 40
0
 40
0
 40
0
 40
1
 40
1
 40
1
 40
1
 10
73.111641
 20
16.959993
 30
0.0
 10
72.827999
 20
16.750852
 30
0.0
 10
72.686180
 20
16.485512
 30
0.0
 10
72.686182
 20
16.163972
 30
0.0
  0
SPLINE
  5
19d
100
AcDbEntity
  8
logo
 62
7
100
AcDbSpline
 70
8
 71
3
 72
8
 73
4
 74
0
 40
0
 40
0
 40
0
 40
0
 40
1
 40
1
 40
1
 40
1
 10
72.686182
 20
16.163972
 30
0.0
 10
72.686180
 20
15.991430
 30
0.0
 10
72.737157
 20
15.839809
 30
0.0
 10
72.839113
 20
15.709103
 30
0.0
  0
SPLINE
  5
19e
100
AcDbEntity
  8
logo
 62
7
100
AcDbSpline
 70
8
 71
3
 72
8
 73
4
 74
0
 40
0
 40
0
 40
0
 40
0
 40
1
 40
1
 40
1
 40
1
 10
72.839113
 20
15.709103
 30
0.0
 10
72.941064
 20
15.578390
 30
0.0
 10
73.122750
 20
15.480357
 30
0.0
 10
73.384172
 20
15.415007
 30
0.0
  0
SPLINE
  5
19f
100
AcDbEntity
  8
logo
 62
7
100
AcDbSpline
 70
8
 71
3
 72
8
 73
4
 74
0
 40
0
 40
0
 40
0
 40
0
 40
1
 40
1
 40
1
 40
1
 10
73.384172
 20
15.415007
 30
0.0
 10
73.551477
 20
15.375791
 30
0.0
 10
73.773683
 20
15.328081
 30
0.0
 10
74.050789
 20
15.271879
 30
0.0
  0
SPLINE
  5
1a0
100
AcDbEntity
  8
logo
 62
7
100
AcDbSpline
 70
8
 71
3
 72
8
 73
4
 74
0
 40
0
 40
0
 40
0
 40
0
 40
1
 40
1
 40
1
 40
1
 10
74.050789
 20
15.271879
 30
0.0
 10
74.327891
 20
15.215672
 30
0.0
 10
74.560553
 20
15.162734
 30
0.0
 10
74.748777
 20
15.113068
 30
0.0
  0
SPLINE
  5
1a1
100
AcDbEntity
  8
logo
 62
7
100
AcDbSpline
 70
8
 71
3
 72
8
 73
4
 74
0
 40
0
 40
0
 40
0
 40
0
 40
1
 40
1
 40
1
 40
1
 10
74.748777
 20
15.113068
 30
0.0
 10
75.119989
 20
15.011110
 30
0.0
 10
75.401668
 20
14.859489
 30
0.0
 10
75.593815
 20
14.658198
 30
0.0
  0
SPLINE
  5
1a2
100
AcDbEntity
  8
logo
 62
7
100
AcDbSpline
 70
8
 71
3
 72
8
 73
4
 74
0
 40
0
 40
0
 40
0
 40
0
 40
1
 40
1
 40
1
 40
1
 10
75.593815
 20
14.658198
 30
0.0
 10
75.785953
 20
14.456903
 30
0.0
 10
75.882023
 20
14.203328
 30
0.0
 10
75.882030
 20
13.897469
 30
0.0
  0
SPLINE
  5
1a3
100
AcDbEntity
  8
logo
 62
7
100
AcDbSpline
 70
8
 71
3
 72
8
 73
4
 74
0
 40
0
 40
0
 40
0
 40
0
 40
1
 40
1
 40
1
 40
1
 10
75.882030
 20
13.897469
 30
0.0
 10
75.882023
 20
13.641277
 30
0.0
 10
75.819284
 20
13.386393
 30
0.0
 10
75.693808
 20
13.132819
 30
0.0
  0
SPLINE
  5
1a4
100
AcDbEntity
  8
logo
 62
7
100
AcDbSpline
 70
8
 71
3
 72
8
 73
4
 74
0
 40
0
 40
0
 40
0
 40
0
 40
1
 40
1
 40
1
 40
1
 10
75.693808
 20
13.132819
 30
0.0
 10
75.568321
 20
12.879243
 30
0.0
 10
75.393170
 20
12.662265
 30
0.0
 10
75.168355
 20
12.481886
 30
0.0
  0
SPLINE
  5
1a5
100
AcDbEntity
  8
logo
 62
7
100
AcDbSpline
 70
8
 71
3
 72
8
 73
4
 74
0
 40
0
 40
0
 40
0
 40
0
 40
1
 40
1
 40
1
 40
1
 10
75.168355
 20
12.481886
 30
0.0
 10
74.927846
 20
12.288436
 30
0.0
 10
74.646167
 20
12.136813
 30
0.0
 10
74.323317
 20
12.027016
 30
0.0
  0
SPLINE
  5
1a6
100
AcDbEntity
  8
logo
 62
7
100
AcDbSpline
 70
8
 71
3
 72
8
 73
4
 74
0
 40
0
 40
0
 40
0
 40
0
 40
1
 40
1
 40
1
 40
1
 10
74.323317
 20
12.027016
 30
0.0
 10
74.000462
 20
11.917220
 30
0.0
 10
73.619445
 20
11.862324
 30
0.0
 10
73.180263
 20
11.862324
 30
0.0
  0
LINE
  5
1a7
100
AcDbEntity
  8
logo
 62
7
100
AcDbLine
 10
73.180263
 20
11.862324
 30
0.0
 11
73.180263
 21
11.862324
 31
0.0
  0
LINE
  5
1a8
100
AcDbEntity
  8
logo
 62
7
100
AcDbLine
 10
82.014917
 20
17.144292
 30
0.0
 11
79.932715
 21
17.144292
 31
0.0
  0
LINE
  5
1a9
100
AcDbEntity
  8
logo
 62
7
100
AcDbLine
 10
79.932715
 20
17.144292
 30
0.0
 11
78.736723
 21
11.968198
 31
0.0
  0
LINE
  5
1aa
100
AcDbEntity
  8
logo
 62
7
100
AcDbLine
 10
78.736723
 20
11.968198
 30
0.0
 11
77.952466
 21
11.968198
 31
0.0
  0
LINE
  5
1ab
100
AcDbEntity
  8
logo
 62
7
100
AcDbLine
 10
77.952466
 20
11.968198
 30
0.0
 11
79.148458
 21
17.144292
 31
0.0
  0
LINE
  5
1ac
100
AcDbEntity
  8
logo
 62
7
100
AcDbLine
 10
79.148458
 20
17.144292
 30
0.0
 11
77.066256
 21
17.144292
 31
0.0
  0
LINE
  5
1ad
100
AcDbEntity
  8
logo
 62
7
100
AcDbLine
 10
77.066256
 20
17.144292
 30
0.0
 11
77.215264
 21
17.806989
 31
0.0
  0
LINE
  5
1ae
100
AcDbEntity
  8
logo
 62
7
100
AcDbLine
 10
77.215264
 20
17.806989
 30
0.0
 11
82.163925
 21
17.806989
 31
0.0
  0
LINE
  5
1af
100
AcDbEntity
  8
logo
 62
7
100
AcDbLine
 10
82.163925
 20
17.806989
 30
0.0
 11
82.014917
 21
17.144292
 31
0.0
  0
SPLINE
  5
1b0
100
AcDbEntity
  8
logo
 62
7
100
AcDbSpline
 70
8
 71
3
 72
8
 73
4
 74
0
 40
0
 40
0
 40
0
 40
0
 40
1
 40
1
 40
1
 40
1
 10
85.618577
 20
16.356115
 30
0.0
 10
85.618573
 20
16.494663
 30
0.0
 10
85.597648
 20
16.611647
 30
0.0
 10
85.555836
 20
16.707069
 30
0.0
  0
SPLINE
  5
1b1
100
AcDbEntity
  8
logo
 62
7
100
AcDbSpline
 70
8
 71
3
 72
8
 73
4
 74
0
 40
0
 40
0
 40
0
 40
0
 40
1
 40
1
 40
1
 40
1
 10
85.555836
 20
16.707069
 30
0.0
 10
85.514005
 20
16.802482
 30
0.0
 10
85.449958
 20
16.884176
 30
0.0
 10
85.363693
 20
16.952150
 30
0.0
  0
SPLINE
  5
1b2
100
AcDbEntity
  8
logo
 62
7
100
AcDbSpline
 70
8
 71
3
 72
8
 73
4
 74
0
 40
0
 40
0
 40
0
 40
0
 40
1
 40
1
 40
1
 40
1
 10
85.363693
 20
16.952150
 30
0.0
 10
85.264351
 20
17.033184
 30
0.0
 10
85.142791
 20
17.089390
 30
0.0
 10
84.999013
 20
17.120765
 30
0.0
  0
SPLINE
  5
1b3
100
AcDbEntity
  8
logo
 62
7
100
AcDbSpline
 70
8
 71
3
 72
8
 73
4
 74
0
 40
0
 40
0
 40
0
 40
0
 40
1
 40
1
 40
1
 40
1
 10
84.999013
 20
17.120765
 30
0.0
 10
84.855231
 20
17.152131
 30
0.0
 10
84.678772
 20
17.167815
 30
0.0
 10
84.469640
 20
17.167820
 30
0.0
  0
LINE
  5
1b4
100
AcDbEntity
  8
logo
 62
7
100
AcDbLine
 10
84.469640
 20
17.167820
 30
0.0
 11
83.591273
 21
17.167820
 31
0.0
  0
LINE
  5
1b5
100
AcDbEntity
  8
logo
 62
7
100
AcDbLine
 10
83.591273
 20
17.167820
 30
0.0
 11
83.069742
 21
14.917003
 31
0.0
  0
LINE
  5
1b6
100
AcDbEntity
  8
logo
 62
7
100
AcDbLine
 10
83.069742
 20
14.917003
 30
0.0
 11
83.893212
 21
14.917003
 31
0.0
  0
SPLINE
  5
1b7
100
AcDbEntity
  8
logo
 62
7
100
AcDbSpline
 70
8
 71
3
 72
8
 73
4
 74
0
 40
0
 40
0
 40
0
 40
0
 40
1
 40
1
 40
1
 40
1
 10
83.893212
 20
14.917003
 30
0.0
 10
84.149400
 20
14.917000
 30
0.0
 10
84.371605
 20
14.940528
 30
0.0
 10
84.559830
 20
14.987587
 30
0.0
  0
SPLINE
  5
1b8
100
AcDbEntity
  8
logo
 62
7
100
AcDbSpline
 70
8
 71
3
 72
8
 73
4
 74
0
 40
0
 40
0
 40
0
 40
0
 40
1
 40
1
 40
1
 40
1
 10
84.559830
 20
14.987587
 30
0.0
 10
84.748047
 20
15.034638
 30
0.0
 10
84.919278
 20
15.116986
 30
0.0
 10
85.073518
 20
15.234628
 30
0.0
  0
SPLINE
  5
1b9
100
AcDbEntity
  8
logo
 62
7
100
AcDbSpline
 70
8
 71
3
 72
8
 73
4
 74
0
 40
0
 40
0
 40
0
 40
0
 40
1
 40
1
 40
1
 40
1
 10
85.073518
 20
15.234628
 30
0.0
 10
85.246052
 20
15.365332
 30
0.0
 10
85.380028
 20
15.529374
 30
0.0
 10
85.475450
 20
15.726749
 30
0.0
  0
SPLINE
  5
1ba
100
AcDbEntity
  8
logo
 62
7
100
AcDbSpline
 70
8
 71
3
 72
8
 73
4
 74
0
 40
0
 40
0
 40
0
 40
0
 40
1
 40
1
 40
1
 40
1
 10
85.475450
 20
15.726749
 30
0.0
 10
85.570863
 20
15.924116
 30
0.0
 10
85.618573
 20
16.133905
 30
0.0
 10
85.618577
 20
16.356115
 30
0.0
  0
LINE
  5
1bb
100
AcDbEntity
  8
logo
 62
7
100
AcDbLine
 10
85.618577
 20
16.356115
 30
0.0
 11
85.618577
 21
16.356115
 31
0.0
  0
LINE
  5
1bc
100
AcDbEntity
  8
logo
 62
7
100
AcDbLine
 10
86.489101
 20
11.968198
 30
0.0
 11
85.575443
 21
11.968198
 31
0.0
  0
LINE
  5
1bd
100
AcDbEntity
  8
logo
 62
7
100
AcDbLine
 10
85.575443
 20
11.968198
 30
0.0
 11
84.038300
 21
14.301361
 31
0.0
  0
LINE
  5
1be
100
AcDbEntity
  8
logo
 62
7
100
AcDbLine
 10
84.038300
 20
14.301361
 30
0.0
 11
82.928575
 21
14.301361
 31
0.0
  0
LINE
  5
1bf
100
AcDbEntity
  8
logo
 62
7
100
AcDbLine
 10
82.928575
 20
14.301361
 30
0.0
 11
82.391359
 21
11.968198
 31
0.0
  0
LINE
  5
1c0
100
AcDbEntity
  8
logo
 62
7
100
AcDbLine
 10
82.391359
 20
11.968198
 30
0.0
 11
81.607102
 21
11.968198
 31
0.0
  0
LINE
  5
1c1
100
AcDbEntity
  8
logo
 62
7
100
AcDbLine
 10
81.607102
 20
11.968198
 30
0.0
 11
82.952104
 21
17.806989
 31
0.0
  0
LINE
  5
1c2
100
AcDbEntity
  8
logo
 62
7
100
AcDbLine
 10
82.952104
 20
17.806989
 30
0.0
 11
84.544145
 21
17.806989
 31
0.0
  0
SPLINE
  5
1c3
100
AcDbEntity
  8
logo
 62
7
100
AcDbSpline
 70
8
 71
3
 72
8
 73
4
 74
0
 40
0
 40
0
 40
0
 40
0
 40
1
 40
1
 40
1
 40
1
 10
84.544145
 20
17.806989
 30
0.0
 10
84.899671
 20
17.806985
 30
0.0
 10
85.188538
 20
17.784110
 30
0.0
 10
85.410748
 20
17.738367
 30
0.0
  0
SPLINE
  5
1c4
100
AcDbEntity
  8
logo
 62
7
100
AcDbSpline
 70
8
 71
3
 72
8
 73
4
 74
0
 40
0
 40
0
 40
0
 40
0
 40
1
 40
1
 40
1
 40
1
 10
85.410748
 20
17.738367
 30
0.0
 10
85.632950
 20
17.692613
 30
0.0
 10
85.826400
 20
17.609612
 30
0.0
 10
85.991099
 20
17.489366
 30
0.0
  0
SPLINE
  5
1c5
100
AcDbEntity
  8
logo
 62
7
100
AcDbSpline
 70
8
 71
3
 72
8
 73
4
 74
0
 40
0
 40
0
 40
0
 40
0
 40
1
 40
1
 40
1
 40
1
 10
85.991099
 20
17.489366
 30
0.0
 10
86.137488
 20
17.382178
 30
0.0
 10
86.252512
 20
17.252777
 30
0.0
 10
86.336172
 20
17.101158
 30
0.0
  0
SPLINE
  5
1c6
100
AcDbEntity
  8
logo
 62
7
100
AcDbSpline
 70
8
 71
3
 72
8
 73
4
 74
0
 40
0
 40
0
 40
0
 40
0
 40
1
 40
1
 40
1
 40
1
 10
86.336172
 20
17.101158
 30
0.0
 10
86.419820
 20
16.949530
 30
0.0
 10
86.461649
 20
16.760003
 30
0.0
 10
86.461653
 20
16.532573
 30
0.0
  0
SPLINE
  5
1c7
100
AcDbEntity
  8
logo
 62
7
100
AcDbSpline
 70
8
 71
3
 72
8
 73
4
 74
0
 40
0
 40
0
 40
0
 40
0
 40
1
 40
1
 40
1
 40
1
 10
86.461653
 20
16.532573
 30
0.0
 10
86.461649
 20
16.046328
 30
0.0
 10
86.309370
 20
15.619564
 30
0.0
 10
86.004823
 20
15.252273
 30
0.0
  0
SPLINE
  5
1c8
100
AcDbEntity
  8
logo
 62
7
100
AcDbSpline
 70
8
 71
3
 72
8
 73
4
 74
0
 40
0
 40
0
 40
0
 40
0
 40
1
 40
1
 40
1
 40
1
 10
86.004823
 20
15.252273
 30
0.0
 10
85.700267
 20
14.884977
 30
0.0
 10
85.300948
 20
14.629440
 30
0.0
 10
84.806870
 20
14.485662
 30
0.0
  0
LINE
  5
1c9
100
AcDbEntity
  8
logo
 62
7
100
AcDbLine
 10
84.806870
 20
14.485662
 30
0.0
 11
86.489101
 21
11.968198
 31
0.0
  0
LINE
  5
1ca
100
AcDbEntity
  8
logo
 62
7
100
AcDbLine
 10
91.861261
 20
11.968198
 30
0.0
 11
91.073083
 21
11.968198
 31
0.0
  0
LINE
  5
1cb
100
AcDbEntity
  8
logo
 62
7
100
AcDbLine
 10
91.073083
 20
11.968198
 30
0.0
 11
90.877018
 21
13.611216
 31
0.0
  0
LINE
  5
1cc
100
AcDbEntity
  8
logo
 62
7
100
AcDbLine
 10
90.877018
 20
13.611216
 30
0.0
 11
88.359553
 21
13.611216
 31
0.0
  0
LINE
  5
1cd
100
AcDbEntity
  8
logo
 62
7
100
AcDbLine
 10
88.359553
 20
13.611216
 30
0.0
 11
87.402761
 21
11.968198
 31
0.0
  0
LINE
  5
1ce
100
AcDbEntity
  8
logo
 62
7
100
AcDbLine
 10
87.402761
 20
11.968198
 30
0.0
 11
86.583213
 21
11.968198
 31
0.0
  0
LINE
  5
1cf
100
AcDbEntity
  8
logo
 62
7
100
AcDbLine
 10
86.583213
 20
11.968198
 30
0.0
 11
90.057470
 21
17.806989
 31
0.0
  0
LINE
  5
1d0
100
AcDbEntity
  8
logo
 62
7
100
AcDbLine
 10
90.057470
 20
17.806989
 30
0.0
 11
91.084847
 21
17.806989
 31
0.0
  0
LINE
  5
1d1
100
AcDbEntity
  8
logo
 62
7
100
AcDbLine
 10
91.084847
 20
17.806989
 30
0.0
 11
91.861261
 21
11.968198
 31
0.0
  0
LINE
  5
1d2
100
AcDbEntity
  8
logo
 62
7
100
AcDbLine
 10
90.790751
 20
14.246463
 30
0.0
 11
90.426071
 21
17.128608
 31
0.0
  0
LINE
  5
1d3
100
AcDbEntity
  8
logo
 62
7
100
AcDbLine
 10
90.426071
 20
17.128608
 30
0.0
 11
88.732077
 21
14.246463
 31
0.0
  0
LINE
  5
1d4
100
AcDbEntity
  8
logo
 62
7
100
AcDbLine
 10
88.732077
 20
14.246463
 30
0.0
 11
90.790751
 21
14.246463
 31
0.0
  0
LINE
  5
1d5
100
AcDbEntity
  8
logo
 62
7
100
AcDbLine
 10
96.378581
 20
11.968198
 30
0.0
 11
92.680811
 21
11.968198
 31
0.0
  0
LINE
  5
1d6
100
AcDbEntity
  8
logo
 62
7
100
AcDbLine
 10
92.680811
 20
11.968198
 30
0.0
 11
94.029732
 21
17.806989
 31
0.0
  0
LINE
  5
1d7
100
AcDbEntity
  8
logo
 62
7
100
AcDbLine
 10
94.029732
 20
17.806989
 30
0.0
 11
94.813988
 21
17.806989
 31
0.0
  0
LINE
  5
1d8
100
AcDbEntity
  8
logo
 62
7
100
AcDbLine
 10
94.813988
 20
17.806989
 30
0.0
 11
93.617998
 21
12.630894
 31
0.0
  0
LINE
  5
1d9
100
AcDbEntity
  8
logo
 62
7
100
AcDbLine
 10
93.617998
 20
12.630894
 30
0.0
 11
96.531512
 21
12.630894
 31
0.0
  0
LINE
  5
1da
100
AcDbEntity
  8
logo
 62
7
100
AcDbLine
 10
96.531512
 20
12.630894
 30
0.0
 11
96.378581
 21
11.968198
 31
0.0
  0
LINE
  5
1db
100
AcDbEntity
  8
logo
 62
7
100
AcDbLine
 10
99.217592
 20
11.968198
 30
0.0
 11
96.904034
 21
11.968198
 31
0.0
  0
LINE
  5
1dc
100
AcDbEntity
  8
logo
 62
7
100
AcDbLine
 10
96.904034
 20
11.968198
 30
0.0
 11
97.033437
 21
12.536784
 31
0.0
  0
LINE
  5
1dd
100
AcDbEntity
  8
logo
 62
7
100
AcDbLine
 10
97.033437
 20
12.536784
 30
0.0
 11
97.798087
 21
12.536784
 31
0.0
  0
LINE
  5
1de
100
AcDbEntity
  8
logo
 62
7
100
AcDbLine
 10
97.798087
 20
12.536784
 30
0.0
 11
98.888203
 21
17.238404
 31
0.0
  0
LINE
  5
1df
100
AcDbEntity
  8
logo
 62
7
100
AcDbLine
 10
98.888203
 20
17.238404
 30
0.0
 11
98.123553
 21
17.238404
 31
0.0
  0
LINE
  5
1e0
100
AcDbEntity
  8
logo
 62
7
100
AcDbLine
 10
98.123553
 20
17.238404
 30
0.0
 11
98.252957
 21
17.806989
 31
0.0
  0
LINE
  5
1e1
100
AcDbEntity
  8
logo
 62
7
100
AcDbLine
 10
98.252957
 20
17.806989
 30
0.0
 11
100.566513
 21
17.806989
 31
0.0
  0
LINE
  5
1e2
100
AcDbEntity
  8
logo
 62
7
100
AcDbLine
 10
100.566513
 20
17.806989
 30
0.0
 11
100.437112
 21
17.238404
 31
0.0
  0
LINE
  5
1e3
100
AcDbEntity
  8
logo
 62
7
100
AcDbLine
 10
100.437112
 20
17.238404
 30
0.0
 11
99.672460
 21
17.238404
 31
0.0
  0
LINE
  5
1e4
100
AcDbEntity
  8
logo
 62
7
100
AcDbLine
 10
99.672460
 20
17.238404
 30
0.0
 11
98.582344
 21
12.536784
 31
0.0
  0
LINE
  5
1e5
100
AcDbEntity
  8
logo
 62
7
100
AcDbLine
 10
98.582344
 20
12.536784
 30
0.0
 11
99.346993
 21
12.536784
 31
0.0
  0
LINE
  5
1e6
100
AcDbEntity
  8
logo
 62
7
100
AcDbLine
 10
99.346993
 20
12.536784
 30
0.0
 11
99.217592
 21
11.968198
 31
0.0
  0
LINE
  5
1e7
100
AcDbEntity
  8
logo
 62
7
100
AcDbLine
 10
105.209312
 20
11.968198
 30
0.0
 11
104.421135
 21
11.968198
 31
0.0
  0
LINE
  5
1e8
100
AcDbEntity
  8
logo
 62
7
100
AcDbLine
 10
104.421135
 20
11.968198
 30
0.0
 11
104.225070
 21
13.611216
 31
0.0
  0
LINE
  5
1e9
100
AcDbEntity
  8
logo
 62
7
100
AcDbLine
 10
104.225070
 20
13.611216
 30
0.0
 11
101.707605
 21
13.611216
 31
0.0
  0
LINE
  5
1ea
100
AcDbEntity
  8
logo
 62
7
100
AcDbLine
 10
101.707605
 20
13.611216
 30
0.0
 11
100.750812
 21
11.968198
 31
0.0
  0
LINE
  5
1eb
100
AcDbEntity
  8
logo
 62
7
100
AcDbLine
 10
100.750812
 20
11.968198
 30
0.0
 11
99.931264
 21
11.968198
 31
0.0
  0
LINE
  5
1ec
100
AcDbEntity
  8
logo
 62
7
100
AcDbLine
 10
99.931264
 20
11.968198
 30
0.0
 11
103.405522
 21
17.806989
 31
0.0
  0
LINE
  5
1ed
100
AcDbEntity
  8
logo
 62
7
100
AcDbLine
 10
103.405522
 20
17.806989
 30
0.0
 11
104.432899
 21
17.806989
 31
0.0
  0
LINE
  5
1ee
100
AcDbEntity
  8
logo
 62
7
100
AcDbLine
 10
104.432899
 20
17.806989
 30
0.0
 11
105.209312
 21
11.968198
 31
0.0
  0
LINE
  5
1ef
100
AcDbEntity
  8
logo
 62
7
100
AcDbLine
 10
104.138801
 20
14.246463
 30
0.0
 11
103.774123
 21
17.128608
 31
0.0
  0
LINE
  5
1f0
100
AcDbEntity
  8
logo
 62
7
100
AcDbLine
 10
103.774123
 20
17.128608
 30
0.0
 11
102.080128
 21
14.246463
 31
0.0
  0
LINE
  5
1f1
100
AcDbEntity
  8
logo
 62
7
100
AcDbLine
 10
102.080128
 20
14.246463
 30
0.0
 11
104.138801
 21
14.246463
 31
0.0
  0
LINE
  5
1f2
100
AcDbEntity
  8
logo
 62
7
100
AcDbLine
 10
110.491283
 20
11.968198
 30
0.0
 11
109.565861
 21
11.968198
 31
0.0
  0
LINE
  5
1f3
100
AcDbEntity
  8
logo
 62
7
100
AcDbLine
 10
109.565861
 20
11.968198
 30
0.0
 11
107.969897
 21
17.191347
 31
0.0
  0
LINE
  5
1f4
100
AcDbEntity
  8
logo
 62
7
100
AcDbLine
 10
107.969897
 20
17.191347
 30
0.0
 11
106.762141
 21
11.968198
 31
0.0
  0
LINE
  5
1f5
100
AcDbEntity
  8
logo
 62
7
100
AcDbLine
 10
106.762141
 20
11.968198
 30
0.0
 11
106.028862
 21
11.968198
 31
0.0
  0
LINE
  5
1f6
100
AcDbEntity
  8
logo
 62
7
100
AcDbLine
 10
106.028862
 20
11.968198
 30
0.0
 11
107.377783
 21
17.806989
 31
0.0
  0
LINE
  5
1f7
100
AcDbEntity
  8
logo
 62
7
100
AcDbLine
 10
107.377783
 20
17.806989
 30
0.0
 11
108.546327
 21
17.806989
 31
0.0
  0
LINE
  5
1f8
100
AcDbEntity
  8
logo
 62
7
100
AcDbLine
 10
108.546327
 20
17.806989
 30
0.0
 11
110.005044
 21
13.038709
 31
0.0
  0
LINE
  5
1f9
100
AcDbEntity
  8
logo
 62
7
100
AcDbLine
 10
110.005044
 20
13.038709
 30
0.0
 11
111.106924
 21
17.806989
 31
0.0
  0
LINE
  5
1fa
100
AcDbEntity
  8
logo
 62
7
100
AcDbLine
 10
111.106924
 20
17.806989
 30
0.0
 11
111.840206
 21
17.806989
 31
0.0
  0
LINE
  5
1fb
100
AcDbEntity
  8
logo
 62
7
100
AcDbLine
 10
111.840206
 20
17.806989
 30
0.0
 11
110.491283
 21
11.968198
 31
0.0
  0
LINE
  5
1fc
100
AcDbEntity
  8
logo
 62
7
100
AcDbLine
 10
101.759070
 20
25.374409
 30
0.0
 11
98.970406
 21
22.104670
 31
0.0
  0
LINE
  5
1fd
100
AcDbEntity
  8
logo
 62
7
100
AcDbLine
 10
98.970406
 20
22.104670
 30
0.0
 11
98.379820
 21
19.550675
 31
0.0
  0
LINE
  5
1fe
100
AcDbEntity
  8
logo
 62
7
100
AcDbLine
 10
98.379820
 20
19.550675
 30
0.0
 11
97.597585
 21
19.550675
 31
0.0
  0
LINE
  5
1ff
100
AcDbEntity
  8
logo
 62
7
100
AcDbLine
 10
97.597585
 20
19.550675
 30
0.0
 11
98.168616
 21
22.022535
 31
0.0
  0
LINE
  5
200
100
AcDbEntity
  8
logo
 62
7
100
AcDbLine
 10
98.168616
 20
22.022535
 30
0.0
 11
96.870108
 21
25.374409
 31
0.0
  0
LINE
  5
201
100
AcDbEntity
  8
logo
 62
7
100
AcDbLine
 10
96.870108
 20
25.374409
 30
0.0
 11
97.699275
 21
25.374409
 31
0.0
  0
LINE
  5
202
100
AcDbEntity
  8
logo
 62
7
100
AcDbLine
 10
97.699275
 20
25.374409
 30
0.0
 11
98.708357
 21
22.757835
 31
0.0
  0
LINE
  5
203
100
AcDbEntity
  8
logo
 62
7
100
AcDbLine
 10
98.708357
 20
22.757835
 30
0.0
 11
100.910347
 21
25.374409
 31
0.0
  0
LINE
  5
204
100
AcDbEntity
  8
logo
 62
7
100
AcDbLine
 10
100.910347
 20
25.374409
 30
0.0
 11
101.759070
 21
25.374409
 31
0.0
  0
LINE
  5
205
100
AcDbEntity
  8
logo
 62
7
100
AcDbLine
 10
105.689798
 20
19.550675
 30
0.0
 11
104.766762
 21
19.550675
 31
0.0
  0
LINE
  5
206
100
AcDbEntity
  8
logo
 62
7
100
AcDbLine
 10
104.766762
 20
19.550675
 30
0.0
 11
103.174914
 21
24.760355
 31
0.0
  0
LINE
  5
207
100
AcDbEntity
  8
logo
 62
7
100
AcDbLine
 10
103.174914
 20
24.760355
 30
0.0
 11
101.970274
 21
19.550675
 31
0.0
  0
LINE
  5
208
100
AcDbEntity
  8
logo
 62
7
100
AcDbLine
 10
101.970274
 20
19.550675
 30
0.0
 11
101.238885
 21
19.550675
 31
0.0
  0
LINE
  5
209
100
AcDbEntity
  8
logo
 62
7
100
AcDbLine
 10
101.238885
 20
19.550675
 30
0.0
 11
102.584328
 21
25.374409
 31
0.0
  0
LINE
  5
20a
100
AcDbEntity
  8
logo
 62
7
100
AcDbLine
 10
102.584328
 20
25.374409
 30
0.0
 11
103.749857
 21
25.374409
 31
0.0
  0
LINE
  5
20b
100
AcDbEntity
  8
logo
 62
7
100
AcDbLine
 10
103.749857
 20
25.374409
 30
0.0
 11
105.204812
 21
20.618425
 31
0.0
  0
LINE
  5
20c
100
AcDbEntity
  8
logo
 62
7
100
AcDbLine
 10
105.204812
 20
20.618425
 30
0.0
 11
106.303852
 21
25.374409
 31
0.0
  0
LINE
  5
20d
100
AcDbEntity
  8
logo
 62
7
100
AcDbLine
 10
106.303852
 20
25.374409
 30
0.0
 11
107.035241
 21
25.374409
 31
0.0
  0
LINE
  5
20e
100
AcDbEntity
  8
logo
 62
7
100
AcDbLine
 10
107.035241
 20
25.374409
 30
0.0
 11
105.689798
 21
19.550675
 31
0.0
  0
SPLINE
  5
20f
100
AcDbEntity
  8
logo
 62
7
100
AcDbSpline
 70
8
 71
3
 72
8
 73
4
 74
0
 40
0
 40
0
 40
0
 40
0
 40
1
 40
1
 40
1
 40
1
 10
109.843461
 20
19.445073
 30
0.0
 10
109.105551
 20
19.445073
 30
0.0
 10
108.526699
 20
19.636068
 30
0.0
 10
108.106902
 20
20.018059
 30
0.0
  0
SPLINE
  5
210
100
AcDbEntity
  8
logo
 62
7
100
AcDbSpline
 70
8
 71
3
 72
8
 73
4
 74
0
 40
0
 40
0
 40
0
 40
0
 40
1
 40
1
 40
1
 40
1
 10
108.106902
 20
20.018059
 30
0.0
 10
107.687101
 20
20.400050
 30
0.0
 10
107.477202
 20
20.941748
 30
0.0
 10
107.477202
 20
21.643151
 30
0.0
  0
SPLINE
  5
211
100
AcDbEntity
  8
logo
 62
7
100
AcDbSpline
 70
8
 71
3
 72
8
 73
4
 74
0
 40
0
 40
0
 40
0
 40
0
 40
1
 40
1
 40
1
 40
1
 10
107.477202
 20
21.643151
 30
0.0
 10
107.477202
 20
22.180283
 30
0.0
 10
107.558033
 20
22.680911
 30
0.0
 10
107.719696
 20
23.145041
 30
0.0
  0
SPLINE
  5
212
100
AcDbEntity
  8
logo
 62
7
100
AcDbSpline
 70
8
 71
3
 72
8
 73
4
 74
0
 40
0
 40
0
 40
0
 40
0
 40
1
 40
1
 40
1
 40
1
 10
107.719696
 20
23.145041
 30
0.0
 10
107.881356
 20
23.609162
 30
0.0
 10
108.113418
 20
24.015924
 30
0.0
 10
108.415884
 20
24.365327
 30
0.0
  0
SPLINE
  5
213
100
AcDbEntity
  8
logo
 62
7
100
AcDbSpline
 70
8
 71
3
 72
8
 73
4
 74
0
 40
0
 40
0
 40
0
 40
0
 40
1
 40
1
 40
1
 40
1
 10
108.415884
 20
24.365327
 30
0.0
 10
108.715738
 20
24.709503
 30
0.0
 10
109.084692
 20
24.981330
 30
0.0
 10
109.522746
 20
25.180804
 30
0.0
  0
SPLINE
  5
214
100
AcDbEntity
  8
logo
 62
7
100
AcDbSpline
 70
8
 71
3
 72
8
 73
4
 74
0
 40
0
 40
0
 40
0
 40
0
 40
1
 40
1
 40
1
 40
1
 10
109.522746
 20
25.180804
 30
0.0
 10
109.960793
 20
25.380270
 30
0.0
 10
110.449689
 20
25.480004
 30
0.0
 10
110.989434
 20
25.480011
 30
0.0
  0
SPLINE
  5
215
100
AcDbEntity
  8
logo
 62
7
100
AcDbSpline
 70
8
 71
3
 72
8
 73
4
 74
0
 40
0
 40
0
 40
0
 40
0
 40
1
 40
1
 40
1
 40
1
 10
110.989434
 20
25.480011
 30
0.0
 10
111.325792
 20
25.480004
 30
0.0
 10
111.643898
 20
25.438937
 30
0.0
 10
111.943759
 20
25.356809
 30
0.0
  0
SPLINE
  5
216
100
AcDbEntity
  8
logo
 62
7
100
AcDbSpline
 70
8
 71
3
 72
8
 73
4
 74
0
 40
0
 40
0
 40
0
 40
0
 40
1
 40
1
 40
1
 40
1
 10
111.943759
 20
25.356809
 30
0.0
 10
112.243612
 20
25.274668
 30
0.0
 10
112.551290
 20
25.144948
 30
0.0
 10
112.866797
 20
24.967647
 30
0.0
  0
LINE
  5
217
100
AcDbEntity
  8
logo
 62
7
100
AcDbLine
 10
112.866797
 20
24.967647
 30
0.0
 11
112.690795
 21
24.091544
 31
0.0
  0
LINE
  5
218
100
AcDbEntity
  8
logo
 62
7
100
AcDbLine
 10
112.690795
 20
24.091544
 30
0.0
 11
112.632126
 21
24.091544
 31
0.0
  0
SPLINE
  5
219
100
AcDbEntity
  8
logo
 62
7
100
AcDbSpline
 70
8
 71
3
 72
8
 73
4
 74
0
 40
0
 40
0
 40
0
 40
0
 40
1
 40
1
 40
1
 40
1
 10
112.632126
 20
24.091544
 30
0.0
 10
112.546075
 20
24.177586
 30
0.0
 10
112.459378
 20
24.257765
 30
0.0
 10
112.372033
 20
24.332081
 30
0.0
  0
SPLINE
  5
21a
100
AcDbEntity
  8
logo
 62
7
100
AcDbSpline
 70
8
 71
3
 72
8
 73
4
 74
0
 40
0
 40
0
 40
0
 40
0
 40
1
 40
1
 40
1
 40
1
 10
112.372033
 20
24.332081
 30
0.0
 10
112.284679
 20
24.406390
 30
0.0
 10
112.153654
 20
24.487871
 30
0.0
 10
111.978961
 20
24.576528
 30
0.0
  0
SPLINE
  5
21b
100
AcDbEntity
  8
logo
 62
7
100
AcDbSpline
 70
8
 71
3
 72
8
 73
4
 74
0
 40
0
 40
0
 40
0
 40
0
 40
1
 40
1
 40
1
 40
1
 10
111.978961
 20
24.576528
 30
0.0
 10
111.835547
 20
24.652140
 30
0.0
 10
111.664759
 20
24.715371
 30
0.0
 10
111.466597
 20
24.766221
 30
0.0
  0
SPLINE
  5
21c
100
AcDbEntity
  8
logo
 62
7
100
AcDbSpline
 70
8
 71
3
 72
8
 73
4
 74
0
 40
0
 40
0
 40
0
 40
0
 40
1
 40
1
 40
1
 40
1
 10
111.466597
 20
24.766221
 30
0.0
 10
111.268428
 20
24.817061
 30
0.0
 10
111.049402
 20
24.842483
 30
0.0
 10
110.809520
 20
24.842489
 30
0.0
  0
SPLINE
  5
21d
100
AcDbEntity
  8
logo
 62
7
100
AcDbSpline
 70
8
 71
3
 72
8
 73
4
 74
0
 40
0
 40
0
 40
0
 40
0
 40
1
 40
1
 40
1
 40
1
 10
110.809520
 20
24.842489
 30
0.0
 10
110.444474
 20
24.842483
 30
0.0
 10
110.109418
 20
24.766216
 30
0.0
 10
109.804350
 20
24.613686
 30
0.0
  0
SPLINE
  5
21e
100
AcDbEntity
  8
logo
 62
7
100
AcDbSpline
 70
8
 71
3
 72
8
 73
4
 74
0
 40
0
 40
0
 40
0
 40
0
 40
1
 40
1
 40
1
 40
1
 10
109.804350
 20
24.613686
 30
0.0
 10
109.499276
 20
24.461144
 30
0.0
 10
109.234621
 20
24.247987
 30
0.0
 10
109.010382
 20
23.974208
 30
0.0
  0
SPLINE
  5
21f
100
AcDbEntity
  8
logo
 62
7
100
AcDbSpline
 70
8
 71
3
 72
8
 73
4
 74
0
 40
0
 40
0
 40
0
 40
0
 40
1
 40
1
 40
1
 40
1
 10
109.010382
 20
23.974208
 30
0.0
 10
108.791354
 20
23.708246
 30
0.0
 10
108.619264
 20
23.384921
 30
0.0
 10
108.494108
 20
23.004238
 30
0.0
  0
SPLINE
  5
220
100
AcDbEntity
  8
logo
 62
7
100
AcDbSpline
 70
8
 71
3
 72
8
 73
4
 74
0
 40
0
 40
0
 40
0
 40
0
 40
1
 40
1
 40
1
 40
1
 10
108.494108
 20
23.004238
 30
0.0
 10
108.368949
 20
22.623548
 30
0.0
 10
108.306370
 20
22.218091
 30
0.0
 10
108.306372
 20
21.787864
 30
0.0
  0
SPLINE
  5
221
100
AcDbEntity
  8
logo
 62
7
100
AcDbSpline
 70
8
 71
3
 72
8
 73
4
 74
0
 40
0
 40
0
 40
0
 40
0
 40
1
 40
1
 40
1
 40
1
 10
108.306372
 20
21.787864
 30
0.0
 10
108.306370
 20
21.250729
 30
0.0
 10
108.445868
 20
20.832886
 30
0.0
 10
108.724865
 20
20.534335
 30
0.0
  0
SPLINE
  5
222
100
AcDbEntity
  8
logo
 62
7
100
AcDbSpline
 70
8
 71
3
 72
8
 73
4
 74
0
 40
0
 40
0
 40
0
 40
0
 40
1
 40
1
 40
1
 40
1
 10
108.724865
 20
20.534335
 30
0.0
 10
109.003861
 20
20.235782
 30
0.0
 10
109.406711
 20
20.086504
 30
0.0
 10
109.933417
 20
20.086506
 30
0.0
  0
SPLINE
  5
223
100
AcDbEntity
  8
logo
 62
7
100
AcDbSpline
 70
8
 71
3
 72
8
 73
4
 74
0
 40
0
 40
0
 40
0
 40
0
 40
1
 40
1
 40
1
 40
1
 10
109.933417
 20
20.086506
 30
0.0
 10
110.181122
 20
20.086504
 30
0.0
 10
110.416444
 20
20.114534
 30
0.0
 10
110.639385
 20
20.170596
 30
0.0
  0
SPLINE
  5
224
100
AcDbEntity
  8
logo
 62
7
100
AcDbSpline
 70
8
 71
3
 72
8
 73
4
 74
0
 40
0
 40
0
 40
0
 40
0
 40
1
 40
1
 40
1
 40
1
 10
110.639385
 20
20.170596
 30
0.0
 10
110.862317
 20
20.226654
 30
0.0
 10
111.065046
 20
20.297708
 30
0.0
 10
111.247571
 20
20.383754
 30
0.0
  0
SPLINE
  5
225
100
AcDbEntity
  8
logo
 62
7
100
AcDbSpline
 70
8
 71
3
 72
8
 73
4
 74
0
 40
0
 40
0
 40
0
 40
0
 40
1
 40
1
 40
1
 40
1
 10
111.247571
 20
20.383754
 30
0.0
 10
111.417051
 20
20.464585
 30
0.0
 10
111.569586
 20
20.549326
 30
0.0
 10
111.705178
 20
20.637981
 30
0.0
  0
SPLINE
  5
226
100
AcDbEntity
  8
logo
 62
7
100
AcDbSpline
 70
8
 71
3
 72
8
 73
4
 74
0
 40
0
 40
0
 40
0
 40
0
 40
1
 40
1
 40
1
 40
1
 10
111.705178
 20
20.637981
 30
0.0
 10
111.840762
 20
20.726632
 30
0.0
 10
111.956792
 20
20.808766
 30
0.0
 10
112.053273
 20
20.884384
 30
0.0
  0
LINE
  5
227
100
AcDbEntity
  8
logo
 62
7
100
AcDbLine
 10
112.053273
 20
20.884384
 30
0.0
 11
112.108030
 21
20.884384
 31
0.0
  0
LINE
  5
228
100
AcDbEntity
  8
logo
 62
7
100
AcDbLine
 10
112.108030
 20
20.884384
 30
0.0
 11
111.924204
 21
19.984814
 31
0.0
  0
SPLINE
  5
229
100
AcDbEntity
  8
logo
 62
7
100
AcDbSpline
 70
8
 71
3
 72
8
 73
4
 74
0
 40
0
 40
0
 40
0
 40
0
 40
1
 40
1
 40
1
 40
1
 10
111.924204
 20
19.984814
 30
0.0
 10
111.650417
 20
19.846619
 30
0.0
 10
111.335569
 20
19.722115
 30
0.0
 10
110.979657
 20
19.611297
 30
0.0
  0
SPLINE
  5
22a
100
AcDbEntity
  8
logo
 62
7
100
AcDbSpline
 70
8
 71
3
 72
8
 73
4
 74
0
 40
0
 40
0
 40
0
 40
0
 40
1
 40
1
 40
1
 40
1
 10
110.979657
 20
19.611297
 30
0.0
 10
110.623735
 20
19.500482
 30
0.0
 10
110.245006
 20
19.445073
 30
0.0
 10
109.843461
 20
19.445073
 30
0.0
  0
LINE
  5
22b
100
AcDbEntity
  8
logo
 62
7
100
AcDbLine
 10
109.843461
 20
19.445073
 30
0.0
 11
109.843461
 21
19.445073
 31
0.0
  0
LINE
  5
22c
100
AcDbEntity
  8
logo
 62
7
100
AcDbLine
 10
118.631862
 20
25.374409
 30
0.0
 11
117.290331
 21
19.550675
 31
0.0
  0
LINE
  5
22d
100
AcDbEntity
  8
logo
 62
7
100
AcDbLine
 10
117.290331
 20
19.550675
 30
0.0
 11
116.515918
 21
19.550675
 31
0.0
  0
LINE
  5
22e
100
AcDbEntity
  8
logo
 62
7
100
AcDbLine
 10
116.515918
 20
19.550675
 30
0.0
 11
117.176905
 21
22.413652
 31
0.0
  0
LINE
  5
22f
100
AcDbEntity
  8
logo
 62
7
100
AcDbLine
 10
117.176905
 20
22.413652
 30
0.0
 11
114.270905
 21
22.413652
 31
0.0
  0
LINE
  5
230
100
AcDbEntity
  8
logo
 62
7
100
AcDbLine
 10
114.270905
 20
22.413652
 30
0.0
 11
113.609918
 21
19.550675
 31
0.0
  0
LINE
  5
231
100
AcDbEntity
  8
logo
 62
7
100
AcDbLine
 10
113.609918
 20
19.550675
 30
0.0
 11
112.835506
 21
19.550675
 31
0.0
  0
LINE
  5
232
100
AcDbEntity
  8
logo
 62
7
100
AcDbLine
 10
112.835506
 20
19.550675
 30
0.0
 11
114.177037
 21
25.374409
 31
0.0
  0
LINE
  5
233
100
AcDbEntity
  8
logo
 62
7
100
AcDbLine
 10
114.177037
 20
25.374409
 30
0.0
 11
114.951449
 21
25.374409
 31
0.0
  0
LINE
  5
234
100
AcDbEntity
  8
logo
 62
7
100
AcDbLine
 10
114.951449
 20
25.374409
 30
0.0
 11
114.423442
 21
23.070728
 31
0.0
  0
LINE
  5
235
100
AcDbEntity
  8
logo
 62
7
100
AcDbLine
 10
114.423442
 20
23.070728
 30
0.0
 11
117.329442
 21
23.070728
 31
0.0
  0
LINE
  5
236
100
AcDbEntity
  8
logo
 62
7
100
AcDbLine
 10
117.329442
 20
23.070728
 30
0.0
 11
117.857450
 21
25.374409
 31
0.0
  0
LINE
  5
237
100
AcDbEntity
  8
logo
 62
7
100
AcDbLine
 10
117.857450
 20
25.374409
 30
0.0
 11
118.631862
 21
25.374409
 31
0.0
  0
SPLINE
  5
238
100
AcDbEntity
  8
logo
 62
7
100
AcDbSpline
 70
8
 71
3
 72
8
 73
4
 74
0
 40
0
 40
0
 40
0
 40
0
 40
1
 40
1
 40
1
 40
1
 10
122.855926
 20
23.927275
 30
0.0
 10
122.855922
 20
24.065466
 30
0.0
 10
122.835061
 20
24.182149
 30
0.0
 10
122.793347
 20
24.277324
 30
0.0
  0
SPLINE
  5
239
100
AcDbEntity
  8
logo
 62
7
100
AcDbSpline
 70
8
 71
3
 72
8
 73
4
 74
0
 40
0
 40
0
 40
0
 40
0
 40
1
 40
1
 40
1
 40
1
 10
122.793347
 20
24.277324
 30
0.0
 10
122.751625
 20
24.372492
 30
0.0
 10
122.687741
 20
24.453975
 30
0.0
 10
122.601701
 20
24.521774
 30
0.0
  0
SPLINE
  5
23a
100
AcDbEntity
  8
logo
 62
7
100
AcDbSpline
 70
8
 71
3
 72
8
 73
4
 74
0
 40
0
 40
0
 40
0
 40
0
 40
1
 40
1
 40
1
 40
1
 10
122.601701
 20
24.521774
 30
0.0
 10
122.502614
 20
24.602598
 30
0.0
 10
122.381368
 20
24.658658
 30
0.0
 10
122.237960
 20
24.689954
 30
0.0
  0
SPLINE
  5
23b
100
AcDbEntity
  8
logo
 62
7
100
AcDbSpline
 70
8
 71
3
 72
8
 73
4
 74
0
 40
0
 40
0
 40
0
 40
0
 40
1
 40
1
 40
1
 40
1
 10
122.237960
 20
24.689954
 30
0.0
 10
122.094548
 20
24.721237
 30
0.0
 10
121.918546
 20
24.736883
 30
0.0
 10
121.709953
 20
24.736887
 30
0.0
  0
LINE
  5
23c
100
AcDbEntity
  8
logo
 62
7
100
AcDbLine
 10
121.709953
 20
24.736887
 30
0.0
 11
120.833850
 21
24.736887
 31
0.0
  0
LINE
  5
23d
100
AcDbEntity
  8
logo
 62
7
100
AcDbLine
 10
120.833850
 20
24.736887
 30
0.0
 11
120.313665
 21
22.491876
 31
0.0
  0
LINE
  5
23e
100
AcDbEntity
  8
logo
 62
7
100
AcDbLine
 10
120.313665
 20
22.491876
 30
0.0
 11
121.135010
 21
22.491876
 31
0.0
  0
SPLINE
  5
23f
100
AcDbEntity
  8
logo
 62
7
100
AcDbSpline
 70
8
 71
3
 72
8
 73
4
 74
0
 40
0
 40
0
 40
0
 40
0
 40
1
 40
1
 40
1
 40
1
 10
121.135010
 20
22.491876
 30
0.0
 10
121.390538
 20
22.491872
 30
0.0
 10
121.612171
 20
22.515339
 30
0.0
 10
121.799911
 20
22.562277
 30
0.0
  0
SPLINE
  5
240
100
AcDbEntity
  8
logo
 62
7
100
AcDbSpline
 70
8
 71
3
 72
8
 73
4
 74
0
 40
0
 40
0
 40
0
 40
0
 40
1
 40
1
 40
1
 40
1
 10
121.799911
 20
22.562277
 30
0.0
 10
121.987643
 20
22.609207
 30
0.0
 10
122.158430
 20
22.691342
 30
0.0
 10
122.312273
 20
22.808680
 30
0.0
  0
SPLINE
  5
241
100
AcDbEntity
  8
logo
 62
7
100
AcDbSpline
 70
8
 71
3
 72
8
 73
4
 74
0
 40
0
 40
0
 40
0
 40
0
 40
1
 40
1
 40
1
 40
1
 10
122.312273
 20
22.808680
 30
0.0
 10
122.484361
 20
22.939048
 30
0.0
 10
122.617993
 20
23.102666
 30
0.0
 10
122.713169
 20
23.299532
 30
0.0
  0
SPLINE
  5
242
100
AcDbEntity
  8
logo
 62
7
100
AcDbSpline
 70
8
 71
3
 72
8
 73
4
 74
0
 40
0
 40
0
 40
0
 40
0
 40
1
 40
1
 40
1
 40
1
 10
122.713169
 20
23.299532
 30
0.0
 10
122.808336
 20
23.496391
 30
0.0
 10
122.855922
 20
23.705639
 30
0.0
 10
122.855926
 20
23.927275
 30
0.0
  0
LINE
  5
243
100
AcDbEntity
  8
logo
 62
7
100
AcDbLine
 10
122.855926
 20
23.927275
 30
0.0
 11
122.855926
 21
23.927275
 31
0.0
  0
LINE
  5
244
100
AcDbEntity
  8
logo
 62
7
100
AcDbLine
 10
123.724207
 20
19.550675
 30
0.0
 11
122.812903
 21
19.550675
 31
0.0
  0
LINE
  5
245
100
AcDbEntity
  8
logo
 62
7
100
AcDbLine
 10
122.812903
 20
19.550675
 30
0.0
 11
121.279723
 21
21.877822
 31
0.0
  0
LINE
  5
246
100
AcDbEntity
  8
logo
 62
7
100
AcDbLine
 10
121.279723
 20
21.877822
 30
0.0
 11
120.172864
 21
21.877822
 31
0.0
  0
LINE
  5
247
100
AcDbEntity
  8
logo
 62
7
100
AcDbLine
 10
120.172864
 20
21.877822
 30
0.0
 11
119.637032
 21
19.550675
 31
0.0
  0
LINE
  5
248
100
AcDbEntity
  8
logo
 62
7
100
AcDbLine
 10
119.637032
 20
19.550675
 30
0.0
 11
118.854798
 21
19.550675
 31
0.0
  0
LINE
  5
249
100
AcDbEntity
  8
logo
 62
7
100
AcDbLine
 10
118.854798
 20
19.550675
 30
0.0
 11
120.196329
 21
25.374409
 31
0.0
  0
LINE
  5
24a
100
AcDbEntity
  8
logo
 62
7
100
AcDbLine
 10
120.196329
 20
25.374409
 30
0.0
 11
121.784265
 21
25.374409
 31
0.0
  0
SPLINE
  5
24b
100
AcDbEntity
  8
logo
 62
7
100
AcDbSpline
 70
8
 71
3
 72
8
 73
4
 74
0
 40
0
 40
0
 40
0
 40
0
 40
1
 40
1
 40
1
 40
1
 10
121.784265
 20
25.374409
 30
0.0
 10
122.138875
 20
25.374402
 30
0.0
 10
122.426998
 20
25.351587
 30
0.0
 10
122.648634
 20
25.305962
 30
0.0
  0
SPLINE
  5
24c
100
AcDbEntity
  8
logo
 62
7
100
AcDbSpline
 70
8
 71
3
 72
8
 73
4
 74
0
 40
0
 40
0
 40
0
 40
0
 40
1
 40
1
 40
1
 40
1
 10
122.648634
 20
25.305962
 30
0.0
 10
122.870262
 20
25.260326
 30
0.0
 10
123.063214
 20
25.177541
 30
0.0
 10
123.227487
 20
25.057603
 30
0.0
  0
SPLINE
  5
24d
100
AcDbEntity
  8
logo
 62
7
100
AcDbSpline
 70
8
 71
3
 72
8
 73
4
 74
0
 40
0
 40
0
 40
0
 40
0
 40
1
 40
1
 40
1
 40
1
 10
123.227487
 20
25.057603
 30
0.0
 10
123.373501
 20
24.950693
 30
0.0
 10
123.488228
 20
24.821624
 30
0.0
 10
123.571670
 20
24.670397
 30
0.0
  0
SPLINE
  5
24e
100
AcDbEntity
  8
logo
 62
7
100
AcDbSpline
 70
8
 71
3
 72
8
 73
4
 74
0
 40
0
 40
0
 40
0
 40
0
 40
1
 40
1
 40
1
 40
1
 10
123.571670
 20
24.670397
 30
0.0
 10
123.655103
 20
24.519161
 30
0.0
 10
123.696823
 20
24.330121
 30
0.0
 10
123.696827
 20
24.103278
 30
0.0
  0
SPLINE
  5
24f
100
AcDbEntity
  8
logo
 62
7
100
AcDbSpline
 70
8
 71
3
 72
8
 73
4
 74
0
 40
0
 40
0
 40
0
 40
0
 40
1
 40
1
 40
1
 40
1
 10
123.696827
 20
24.103278
 30
0.0
 10
123.696823
 20
23.618289
 30
0.0
 10
123.544939
 20
23.192622
 30
0.0
 10
123.241176
 20
22.826281
 30
0.0
  0
SPLINE
  5
250
100
AcDbEntity
  8
logo
 62
7
100
AcDbSpline
 70
8
 71
3
 72
8
 73
4
 74
0
 40
0
 40
0
 40
0
 40
0
 40
1
 40
1
 40
1
 40
1
 10
123.241176
 20
22.826281
 30
0.0
 10
122.937406
 20
22.459932
 30
0.0
 10
122.539118
 20
22.205054
 30
0.0
 10
122.046314
 20
22.061647
 30
0.0
  0
LINE
  5
251
100
AcDbEntity
  8
logo
 62
7
100
AcDbLine
 10
122.046314
 20
22.061647
 30
0.0
 11
123.724207
 21
19.550675
 31
0.0
  0
SPLINE
  5
252
100
AcDbEntity
  8
logo
 62
7
100
AcDbSpline
 70
8
 71
3
 72
8
 73
4
 74
0
 40
0
 40
0
 40
0
 40
0
 40
1
 40
1
 40
1
 40
1
 10
130.263685
 20
23.313222
 30
0.0
 10
130.263678
 20
22.807374
 30
0.0
 10
130.187412
 20
22.319781
 30
0.0
 10
130.034881
 20
21.850443
 30
0.0
  0
SPLINE
  5
253
100
AcDbEntity
  8
logo
 62
7
100
AcDbSpline
 70
8
 71
3
 72
8
 73
4
 74
0
 40
0
 40
0
 40
0
 40
0
 40
1
 40
1
 40
1
 40
1
 10
130.034881
 20
21.850443
 30
0.0
 10
129.882340
 20
21.381100
 30
0.0
 10
129.661358
 20
20.967822
 30
0.0
 10
129.371938
 20
20.610601
 30
0.0
  0
SPLINE
  5
254
100
AcDbEntity
  8
logo
 62
7
100
AcDbSpline
 70
8
 71
3
 72
8
 73
4
 74
0
 40
0
 40
0
 40
0
 40
0
 40
1
 40
1
 40
1
 40
1
 10
129.371938
 20
20.610601
 30
0.0
 10
129.074684
 20
20.242951
 30
0.0
 10
128.717464
 20
19.954177
 30
0.0
 10
128.300278
 20
19.744277
 30
0.0
  0
SPLINE
  5
255
100
AcDbEntity
  8
logo
 62
7
100
AcDbSpline
 70
8
 71
3
 72
8
 73
4
 74
0
 40
0
 40
0
 40
0
 40
0
 40
1
 40
1
 40
1
 40
1
 10
128.300278
 20
19.744277
 30
0.0
 10
127.883081
 20
19.534378
 30
0.0
 10
127.412437
 20
19.429429
 30
0.0
 10
126.888344
 20
19.429429
 30
0.0
  0
SPLINE
  5
256
100
AcDbEntity
  8
logo
 62
7
100
AcDbSpline
 70
8
 71
3
 72
8
 73
4
 74
0
 40
0
 40
0
 40
0
 40
0
 40
1
 40
1
 40
1
 40
1
 10
126.888344
 20
19.429429
 30
0.0
 10
126.194762
 20
19.429429
 30
0.0
 10
125.652412
 20
19.619119
 30
0.0
 10
125.261296
 20
19.998504
 30
0.0
  0
SPLINE
  5
257
100
AcDbEntity
  8
logo
 62
7
100
AcDbSpline
 70
8
 71
3
 72
8
 73
4
 74
0
 40
0
 40
0
 40
0
 40
0
 40
1
 40
1
 40
1
 40
1
 10
125.261296
 20
19.998504
 30
0.0
 10
124.870180
 20
20.377886
 30
0.0
 10
124.674622
 20
20.916977
 30
0.0
 10
124.674622
 20
21.615773
 30
0.0
  0
SPLINE
  5
258
100
AcDbEntity
  8
logo
 62
7
100
AcDbSpline
 70
8
 71
3
 72
8
 73
4
 74
0
 40
0
 40
0
 40
0
 40
0
 40
1
 40
1
 40
1
 40
1
 10
124.674622
 20
21.615773
 30
0.0
 10
124.674622
 20
22.147689
 30
0.0
 10
124.752844
 20
22.644409
 30
0.0
 10
124.909291
 20
23.105930
 30
0.0
  0
SPLINE
  5
259
100
AcDbEntity
  8
logo
 62
7
100
AcDbSpline
 70
8
 71
3
 72
8
 73
4
 74
0
 40
0
 40
0
 40
0
 40
0
 40
1
 40
1
 40
1
 40
1
 10
124.909291
 20
23.105930
 30
0.0
 10
125.065738
 20
23.567444
 30
0.0
 10
125.291282
 20
23.979419
 30
0.0
 10
125.585924
 20
24.341859
 30
0.0
  0
SPLINE
  5
25a
100
AcDbEntity
  8
logo
 62
7
100
AcDbSpline
 70
8
 71
3
 72
8
 73
4
 74
0
 40
0
 40
0
 40
0
 40
0
 40
1
 40
1
 40
1
 40
1
 10
125.585924
 20
24.341859
 30
0.0
 10
125.872741
 20
24.691251
 30
0.0
 10
126.228005
 20
24.970900
 30
0.0
 10
126.651719
 20
25.180804
 30
0.0
  0
SPLINE
  5
25b
100
AcDbEntity
  8
logo
 62
7
100
AcDbSpline
 70
8
 71
3
 72
8
 73
4
 74
0
 40
0
 40
0
 40
0
 40
0
 40
1
 40
1
 40
1
 40
1
 10
126.651719
 20
25.180804
 30
0.0
 10
127.075425
 20
25.390699
 30
0.0
 10
127.540203
 20
25.495648
 30
0.0
 10
128.046051
 20
25.495654
 30
0.0
  0
SPLINE
  5
25c
100
AcDbEntity
  8
logo
 62
7
100
AcDbSpline
 70
8
 71
3
 72
8
 73
4
 74
0
 40
0
 40
0
 40
0
 40
0
 40
1
 40
1
 40
1
 40
1
 10
128.046051
 20
25.495654
 30
0.0
 10
128.737019
 20
25.495648
 30
0.0
 10
129.279369
 20
25.307261
 30
0.0
 10
129.673098
 20
24.930489
 30
0.0
  0
SPLINE
  5
25d
100
AcDbEntity
  8
logo
 62
7
100
AcDbSpline
 70
8
 71
3
 72
8
 73
4
 74
0
 40
0
 40
0
 40
0
 40
0
 40
1
 40
1
 40
1
 40
1
 10
129.673098
 20
24.930489
 30
0.0
 10
130.066817
 20
24.553709
 30
0.0
 10
130.263678
 20
24.014621
 30
0.0
 10
130.263685
 20
23.313222
 30
0.0
  0
LINE
  5
25e
100
AcDbEntity
  8
logo
 62
7
100
AcDbLine
 10
130.263685
 20
23.313222
 30
0.0
 11
130.263685
 21
23.313222
 31
0.0
  0
SPLINE
  5
25f
100
AcDbEntity
  8
logo
 62
7
100
AcDbSpline
 70
8
 71
3
 72
8
 73
4
 74
0
 40
0
 40
0
 40
0
 40
0
 40
1
 40
1
 40
1
 40
1
 10
128.781350
 20
20.997808
 30
0.0
 10
129.000371
 20
21.295056
 30
0.0
 10
129.165946
 20
21.626852
 30
0.0
 10
129.278070
 20
21.993202
 30
0.0
  0
SPLINE
  5
260
100
AcDbEntity
  8
logo
 62
7
100
AcDbSpline
 70
8
 71
3
 72
8
 73
4
 74
0
 40
0
 40
0
 40
0
 40
0
 40
1
 40
1
 40
1
 40
1
 10
129.278070
 20
21.993202
 30
0.0
 10
129.390184
 20
22.359545
 30
0.0
 10
129.446245
 20
22.763046
 30
0.0
 10
129.446251
 20
23.203708
 30
0.0
  0
SPLINE
  5
261
100
AcDbEntity
  8
logo
 62
7
100
AcDbSpline
 70
8
 71
3
 72
8
 73
4
 74
0
 40
0
 40
0
 40
0
 40
0
 40
1
 40
1
 40
1
 40
1
 10
129.446251
 20
23.203708
 30
0.0
 10
129.446245
 20
23.735623
 30
0.0
 10
129.312613
 20
24.144341
 30
0.0
 10
129.045355
 20
24.429861
 30
0.0
  0
SPLINE
  5
262
100
AcDbEntity
  8
logo
 62
7
100
AcDbSpline
 70
8
 71
3
 72
8
 73
4
 74
0
 40
0
 40
0
 40
0
 40
0
 40
1
 40
1
 40
1
 40
1
 10
129.045355
 20
24.429861
 30
0.0
 10
128.778087
 20
24.715371
 30
0.0
 10
128.404570
 20
24.858129
 30
0.0
 10
127.924805
 20
24.858133
 30
0.0
  0
SPLINE
  5
263
100
AcDbEntity
  8
logo
 62
7
100
AcDbSpline
 70
8
 71
3
 72
8
 73
4
 74
0
 40
0
 40
0
 40
0
 40
0
 40
1
 40
1
 40
1
 40
1
 10
127.924805
 20
24.858133
 30
0.0
 10
127.551937
 20
24.858129
 30
0.0
 10
127.215576
 20
24.772735
 30
0.0
 10
126.915723
 20
24.601952
 30
0.0
  0
SPLINE
  5
264
100
AcDbEntity
  8
logo
 62
7
100
AcDbSpline
 70
8
 71
3
 72
8
 73
4
 74
0
 40
0
 40
0
 40
0
 40
0
 40
1
 40
1
 40
1
 40
1
 10
126.915723
 20
24.601952
 30
0.0
 10
126.615864
 20
24.431158
 30
0.0
 10
126.357728
 20
24.199748
 30
0.0
 10
126.141311
 20
23.907720
 30
0.0
  0
SPLINE
  5
265
100
AcDbEntity
  8
logo
 62
7
100
AcDbSpline
 70
8
 71
3
 72
8
 73
4
 74
0
 40
0
 40
0
 40
0
 40
0
 40
1
 40
1
 40
1
 40
1
 10
126.141311
 20
23.907720
 30
0.0
 10
125.932713
 20
23.620896
 30
0.0
 10
125.772355
 20
23.287794
 30
0.0
 10
125.660236
 20
22.908416
 30
0.0
  0
SPLINE
  5
266
100
AcDbEntity
  8
logo
 62
7
100
AcDbSpline
 70
8
 71
3
 72
8
 73
4
 74
0
 40
0
 40
0
 40
0
 40
0
 40
1
 40
1
 40
1
 40
1
 10
125.660236
 20
22.908416
 30
0.0
 10
125.548116
 20
22.529029
 30
0.0
 10
125.492056
 20
22.138564
 30
0.0
 10
125.492056
 20
21.737019
 30
0.0
  0
SPLINE
  5
267
100
AcDbEntity
  8
logo
 62
7
100
AcDbSpline
 70
8
 71
3
 72
8
 73
4
 74
0
 40
0
 40
0
 40
0
 40
0
 40
1
 40
1
 40
1
 40
1
 10
125.492056
 20
21.737019
 30
0.0
 10
125.492056
 20
21.199884
 30
0.0
 10
125.625685
 20
20.787254
 30
0.0
 10
125.892952
 20
20.499134
 30
0.0
  0
SPLINE
  5
268
100
AcDbEntity
  8
logo
 62
7
100
AcDbSpline
 70
8
 71
3
 72
8
 73
4
 74
0
 40
0
 40
0
 40
0
 40
0
 40
1
 40
1
 40
1
 40
1
 10
125.892952
 20
20.499134
 30
0.0
 10
126.160214
 20
20.211011
 30
0.0
 10
126.535033
 20
20.066948
 30
0.0
 10
127.017413
 20
20.066950
 30
0.0
  0
SPLINE
  5
269
100
AcDbEntity
  8
logo
 62
7
100
AcDbSpline
 70
8
 71
3
 72
8
 73
4
 74
0
 40
0
 40
0
 40
0
 40
0
 40
1
 40
1
 40
1
 40
1
 10
127.017413
 20
20.066950
 30
0.0
 10
127.385060
 20
20.066948
 30
0.0
 10
127.719465
 20
20.151691
 30
0.0
 10
128.020629
 20
20.321175
 30
0.0
  0
SPLINE
  5
26a
100
AcDbEntity
  8
logo
 62
7
100
AcDbSpline
 70
8
 71
3
 72
8
 73
4
 74
0
 40
0
 40
0
 40
0
 40
0
 40
1
 40
1
 40
1
 40
1
 10
128.020629
 20
20.321175
 30
0.0
 10
128.321785
 20
20.490659
 30
0.0
 10
128.575359
 20
20.716203
 30
0.0
 10
128.781350
 20
20.997808
 30
0.0
  0
LINE
  5
26b
100
AcDbEntity
  8
logo
 62
7
100
AcDbLine
 10
128.781350
 20
20.997808
 30
0.0
 11
128.781350
 21
20.997808
 31
0.0
  0
LINE
  5
26c
100
AcDbEntity
  8
logo
 62
7
100
AcDbLine
 10
136.079595
 20
24.713420
 30
0.0
 11
134.002764
 21
24.713420
 31
0.0
  0
LINE
  5
26d
100
AcDbEntity
  8
logo
 62
7
100
AcDbLine
 10
134.002764
 20
24.713420
 30
0.0
 11
132.809856
 21
19.550675
 31
0.0
  0
LINE
  5
26e
100
AcDbEntity
  8
logo
 62
7
100
AcDbLine
 10
132.809856
 20
19.550675
 30
0.0
 11
132.027624
 21
19.550675
 31
0.0
  0
LINE
  5
26f
100
AcDbEntity
  8
logo
 62
7
100
AcDbLine
 10
132.027624
 20
19.550675
 30
0.0
 11
133.220530
 21
24.713420
 31
0.0
  0
LINE
  5
270
100
AcDbEntity
  8
logo
 62
7
100
AcDbLine
 10
133.220530
 20
24.713420
 30
0.0
 11
131.143697
 21
24.713420
 31
0.0
  0
LINE
  5
271
100
AcDbEntity
  8
logo
 62
7
100
AcDbLine
 10
131.143697
 20
24.713420
 30
0.0
 11
131.292322
 21
25.374409
 31
0.0
  0
LINE
  5
272
100
AcDbEntity
  8
logo
 62
7
100
AcDbLine
 10
131.292322
 20
25.374409
 30
0.0
 11
136.228220
 21
25.374409
 31
0.0
  0
LINE
  5
273
100
AcDbEntity
  8
logo
 62
7
100
AcDbLine
 10
136.228220
 20
25.374409
 30
0.0
 11
136.079595
 21
24.713420
 31
0.0
  0
SPLINE
  5
274
100
AcDbEntity
  8
logo
 62
7
100
AcDbSpline
 70
8
 71
3
 72
8
 73
4
 74
0
 40
0
 40
0
 40
0
 40
0
 40
1
 40
1
 40
1
 40
1
 10
139.673963
 20
23.927275
 30
0.0
 10
139.673959
 20
24.065466
 30
0.0
 10
139.653098
 20
24.182149
 30
0.0
 10
139.611385
 20
24.277324
 30
0.0
  0
SPLINE
  5
275
100
AcDbEntity
  8
logo
 62
7
100
AcDbSpline
 70
8
 71
3
 72
8
 73
4
 74
0
 40
0
 40
0
 40
0
 40
0
 40
1
 40
1
 40
1
 40
1
 10
139.611385
 20
24.277324
 30
0.0
 10
139.569663
 20
24.372492
 30
0.0
 10
139.505778
 20
24.453975
 30
0.0
 10
139.419738
 20
24.521774
 30
0.0
  0
SPLINE
  5
276
100
AcDbEntity
  8
logo
 62
7
100
AcDbSpline
 70
8
 71
3
 72
8
 73
4
 74
0
 40
0
 40
0
 40
0
 40
0
 40
1
 40
1
 40
1
 40
1
 10
139.419738
 20
24.521774
 30
0.0
 10
139.320651
 20
24.602598
 30
0.0
 10
139.199405
 20
24.658658
 30
0.0
 10
139.055998
 20
24.689954
 30
0.0
  0
SPLINE
  5
277
100
AcDbEntity
  8
logo
 62
7
100
AcDbSpline
 70
8
 71
3
 72
8
 73
4
 74
0
 40
0
 40
0
 40
0
 40
0
 40
1
 40
1
 40
1
 40
1
 10
139.055998
 20
24.689954
 30
0.0
 10
138.912586
 20
24.721237
 30
0.0
 10
138.736583
 20
24.736883
 30
0.0
 10
138.527990
 20
24.736887
 30
0.0
  0
LINE
  5
278
100
AcDbEntity
  8
logo
 62
7
100
AcDbLine
 10
138.527990
 20
24.736887
 30
0.0
 11
137.651888
 21
24.736887
 31
0.0
  0
LINE
  5
279
100
AcDbEntity
  8
logo
 62
7
100
AcDbLine
 10
137.651888
 20
24.736887
 30
0.0
 11
137.131702
 21
22.491876
 31
0.0
  0
LINE
  5
27a
100
AcDbEntity
  8
logo
 62
7
100
AcDbLine
 10
137.131702
 20
22.491876
 30
0.0
 11
137.953048
 21
22.491876
 31
0.0
  0
SPLINE
  5
27b
100
AcDbEntity
  8
logo
 62
7
100
AcDbSpline
 70
8
 71
3
 72
8
 73
4
 74
0
 40
0
 40
0
 40
0
 40
0
 40
1
 40
1
 40
1
 40
1
 10
137.953048
 20
22.491876
 30
0.0
 10
138.208576
 20
22.491872
 30
0.0
 10
138.430208
 20
22.515339
 30
0.0
 10
138.617948
 20
22.562277
 30
0.0
  0
SPLINE
  5
27c
100
AcDbEntity
  8
logo
 62
7
100
AcDbSpline
 70
8
 71
3
 72
8
 73
4
 74
0
 40
0
 40
0
 40
0
 40
0
 40
1
 40
1
 40
1
 40
1
 10
138.617948
 20
22.562277
 30
0.0
 10
138.805680
 20
22.609207
 30
0.0
 10
138.976468
 20
22.691342
 30
0.0
 10
139.130310
 20
22.808680
 30
0.0
  0
SPLINE
  5
27d
100
AcDbEntity
  8
logo
 62
7
100
AcDbSpline
 70
8
 71
3
 72
8
 73
4
 74
0
 40
0
 40
0
 40
0
 40
0
 40
1
 40
1
 40
1
 40
1
 10
139.130310
 20
22.808680
 30
0.0
 10
139.302398
 20
22.939048
 30
0.0
 10
139.436030
 20
23.102666
 30
0.0
 10
139.531206
 20
23.299532
 30
0.0
  0
SPLINE
  5
27e
100
AcDbEntity
  8
logo
 62
7
100
AcDbSpline
 70
8
 71
3
 72
8
 73
4
 74
0
 40
0
 40
0
 40
0
 40
0
 40
1
 40
1
 40
1
 40
1
 10
139.531206
 20
23.299532
 30
0.0
 10
139.626373
 20
23.496391
 30
0.0
 10
139.673959
 20
23.705639
 30
0.0
 10
139.673963
 20
23.927275
 30
0.0
  0
LINE
  5
27f
100
AcDbEntity
  8
logo
 62
7
100
AcDbLine
 10
139.673963
 20
23.927275
 30
0.0
 11
139.673963
 21
23.927275
 31
0.0
  0
LINE
  5
280
100
AcDbEntity
  8
logo
 62
7
100
AcDbLine
 10
140.542244
 20
19.550675
 30
0.0
 11
139.630940
 21
19.550675
 31
0.0
  0
LINE
  5
281
100
AcDbEntity
  8
logo
 62
7
100
AcDbLine
 10
139.630940
 20
19.550675
 30
0.0
 11
138.097761
 21
21.877822
 31
0.0
  0
LINE
  5
282
100
AcDbEntity
  8
logo
 62
7
100
AcDbLine
 10
138.097761
 20
21.877822
 30
0.0
 11
136.990901
 21
21.877822
 31
0.0
  0
LINE
  5
283
100
AcDbEntity
  8
logo
 62
7
100
AcDbLine
 10
136.990901
 20
21.877822
 30
0.0
 11
136.455069
 21
19.550675
 31
0.0
  0
LINE
  5
284
100
AcDbEntity
  8
logo
 62
7
100
AcDbLine
 10
136.455069
 20
19.550675
 30
0.0
 11
135.672835
 21
19.550675
 31
0.0
  0
LINE
  5
285
100
AcDbEntity
  8
logo
 62
7
100
AcDbLine
 10
135.672835
 20
19.550675
 30
0.0
 11
137.014368
 21
25.374409
 31
0.0
  0
LINE
  5
286
100
AcDbEntity
  8
logo
 62
7
100
AcDbLine
 10
137.014368
 20
25.374409
 30
0.0
 11
138.602303
 21
25.374409
 31
0.0
  0
SPLINE
  5
287
100
AcDbEntity
  8
logo
 62
7
100
AcDbSpline
 70
8
 71
3
 72
8
 73
4
 74
0
 40
0
 40
0
 40
0
 40
0
 40
1
 40
1
 40
1
 40
1
 10
138.602303
 20
25.374409
 30
0.0
 10
138.956912
 20
25.374402
 30
0.0
 10
139.245035
 20
25.351587
 30
0.0
 10
139.466671
 20
25.305962
 30
0.0
  0
SPLINE
  5
288
100
AcDbEntity
  8
logo
 62
7
100
AcDbSpline
 70
8
 71
3
 72
8
 73
4
 74
0
 40
0
 40
0
 40
0
 40
0
 40
1
 40
1
 40
1
 40
1
 10
139.466671
 20
25.305962
 30
0.0
 10
139.688299
 20
25.260326
 30
0.0
 10
139.881251
 20
25.177541
 30
0.0
 10
140.045524
 20
25.057603
 30
0.0
  0
SPLINE
  5
289
100
AcDbEntity
  8
logo
 62
7
100
AcDbSpline
 70
8
 71
3
 72
8
 73
4
 74
0
 40
0
 40
0
 40
0
 40
0
 40
1
 40
1
 40
1
 40
1
 10
140.045524
 20
25.057603
 30
0.0
 10
140.191538
 20
24.950693
 30
0.0
 10
140.306265
 20
24.821624
 30
0.0
 10
140.389707
 20
24.670397
 30
0.0
  0
SPLINE
  5
28a
100
AcDbEntity
  8
logo
 62
7
100
AcDbSpline
 70
8
 71
3
 72
8
 73
4
 74
0
 40
0
 40
0
 40
0
 40
0
 40
1
 40
1
 40
1
 40
1
 10
140.389707
 20
24.670397
 30
0.0
 10
140.473140
 20
24.519161
 30
0.0
 10
140.514860
 20
24.330121
 30
0.0
 10
140.514865
 20
24.103278
 30
0.0
  0
SPLINE
  5
28b
100
AcDbEntity
  8
logo
 62
7
100
AcDbSpline
 70
8
 71
3
 72
8
 73
4
 74
0
 40
0
 40
0
 40
0
 40
0
 40
1
 40
1
 40
1
 40
1
 10
140.514865
 20
24.103278
 30
0.0
 10
140.514860
 20
23.618289
 30
0.0
 10
140.362976
 20
23.192622
 30
0.0
 10
140.059214
 20
22.826281
 30
0.0
  0
SPLINE
  5
28c
100
AcDbEntity
  8
logo
 62
7
100
AcDbSpline
 70
8
 71
3
 72
8
 73
4
 74
0
 40
0
 40
0
 40
0
 40
0
 40
1
 40
1
 40
1
 40
1
 10
140.059214
 20
22.826281
 30
0.0
 10
139.755443
 20
22.459932
 30
0.0
 10
139.357155
 20
22.205054
 30
0.0
 10
138.864351
 20
22.061647
 30
0.0
  0
LINE
  5
28d
100
AcDbEntity
  8
logo
 62
7
100
AcDbLine
 10
138.864351
 20
22.061647
 30
0.0
 11
140.542244
 21
19.550675
 31
0.0
  0
SPLINE
  5
28e
100
AcDbEntity
  8
logo
 62
7
100
AcDbSpline
 70
8
 71
3
 72
8
 73
4
 74
0
 40
0
 40
0
 40
0
 40
0
 40
1
 40
1
 40
1
 40
1
 10
147.081720
 20
23.313222
 30
0.0
 10
147.081713
 20
22.807374
 30
0.0
 10
147.005445
 20
22.319781
 30
0.0
 10
146.852916
 20
21.850443
 30
0.0
  0
SPLINE
  5
28f
100
AcDbEntity
  8
logo
 62
7
100
AcDbSpline
 70
8
 71
3
 72
8
 73
4
 74
0
 40
0
 40
0
 40
0
 40
0
 40
1
 40
1
 40
1
 40
1
 10
146.852916
 20
21.850443
 30
0.0
 10
146.700375
 20
21.381100
 30
0.0
 10
146.479393
 20
20.967822
 30
0.0
 10
146.189971
 20
20.610601
 30
0.0
  0
SPLINE
  5
290
100
AcDbEntity
  8
logo
 62
7
100
AcDbSpline
 70
8
 71
3
 72
8
 73
4
 74
0
 40
0
 40
0
 40
0
 40
0
 40
1
 40
1
 40
1
 40
1
 10
146.189971
 20
20.610601
 30
0.0
 10
145.892717
 20
20.242951
 30
0.0
 10
145.535499
 20
19.954177
 30
0.0
 10
145.118311
 20
19.744277
 30
0.0
  0
SPLINE
  5
291
100
AcDbEntity
  8
logo
 62
7
100
AcDbSpline
 70
8
 71
3
 72
8
 73
4
 74
0
 40
0
 40
0
 40
0
 40
0
 40
1
 40
1
 40
1
 40
1
 10
145.118311
 20
19.744277
 30
0.0
 10
144.701116
 20
19.534378
 30
0.0
 10
144.230472
 20
19.429429
 30
0.0
 10
143.706379
 20
19.429429
 30
0.0
  0
SPLINE
  5
292
100
AcDbEntity
  8
logo
 62
7
100
AcDbSpline
 70
8
 71
3
 72
8
 73
4
 74
0
 40
0
 40
0
 40
0
 40
0
 40
1
 40
1
 40
1
 40
1
 10
143.706379
 20
19.429429
 30
0.0
 10
143.012795
 20
19.429429
 30
0.0
 10
142.470447
 20
19.619119
 30
0.0
 10
142.079331
 20
19.998504
 30
0.0
  0
SPLINE
  5
293
100
AcDbEntity
  8
logo
 62
7
100
AcDbSpline
 70
8
 71
3
 72
8
 73
4
 74
0
 40
0
 40
0
 40
0
 40
0
 40
1
 40
1
 40
1
 40
1
 10
142.079331
 20
19.998504
 30
0.0
 10
141.688213
 20
20.377886
 30
0.0
 10
141.492655
 20
20.916977
 30
0.0
 10
141.492655
 20
21.615773
 30
0.0
  0
SPLINE
  5
294
100
AcDbEntity
  8
logo
 62
7
100
AcDbSpline
 70
8
 71
3
 72
8
 73
4
 74
0
 40
0
 40
0
 40
0
 40
0
 40
1
 40
1
 40
1
 40
1
 10
141.492655
 20
21.615773
 30
0.0
 10
141.492655
 20
22.147689
 30
0.0
 10
141.570879
 20
22.644409
 30
0.0
 10
141.727326
 20
23.105930
 30
0.0
  0
SPLINE
  5
295
100
AcDbEntity
  8
logo
 62
7
100
AcDbSpline
 70
8
 71
3
 72
8
 73
4
 74
0
 40
0
 40
0
 40
0
 40
0
 40
1
 40
1
 40
1
 40
1
 10
141.727326
 20
23.105930
 30
0.0
 10
141.883771
 20
23.567444
 30
0.0
 10
142.109315
 20
23.979419
 30
0.0
 10
142.403959
 20
24.341859
 30
0.0
  0
SPLINE
  5
296
100
AcDbEntity
  8
logo
 62
7
100
AcDbSpline
 70
8
 71
3
 72
8
 73
4
 74
0
 40
0
 40
0
 40
0
 40
0
 40
1
 40
1
 40
1
 40
1
 10
142.403959
 20
24.341859
 30
0.0
 10
142.690776
 20
24.691251
 30
0.0
 10
143.046041
 20
24.970900
 30
0.0
 10
143.469751
 20
25.180804
 30
0.0
  0
SPLINE
  5
297
100
AcDbEntity
  8
logo
 62
7
100
AcDbSpline
 70
8
 71
3
 72
8
 73
4
 74
0
 40
0
 40
0
 40
0
 40
0
 40
1
 40
1
 40
1
 40
1
 10
143.469751
 20
25.180804
 30
0.0
 10
143.893460
 20
25.390699
 30
0.0
 10
144.358236
 20
25.495648
 30
0.0
 10
144.864086
 20
25.495654
 30
0.0
  0
SPLINE
  5
298
100
AcDbEntity
  8
logo
 62
7
100
AcDbSpline
 70
8
 71
3
 72
8
 73
4
 74
0
 40
0
 40
0
 40
0
 40
0
 40
1
 40
1
 40
1
 40
1
 10
144.864086
 20
25.495654
 30
0.0
 10
145.555054
 20
25.495648
 30
0.0
 10
146.097402
 20
25.307261
 30
0.0
 10
146.491131
 20
24.930489
 30
0.0
  0
SPLINE
  5
299
100
AcDbEntity
  8
logo
 62
7
100
AcDbSpline
 70
8
 71
3
 72
8
 73
4
 74
0
 40
0
 40
0
 40
0
 40
0
 40
1
 40
1
 40
1
 40
1
 10
146.491131
 20
24.930489
 30
0.0
 10
146.884850
 20
24.553709
 30
0.0
 10
147.081713
 20
24.014621
 30
0.0
 10
147.081720
 20
23.313222
 30
0.0
  0
LINE
  5
29a
100
AcDbEntity
  8
logo
 62
7
100
AcDbLine
 10
147.081720
 20
23.313222
 30
0.0
 11
147.081720
 21
23.313222
 31
0.0
  0
SPLINE
  5
29b
100
AcDbEntity
  8
logo
 62
7
100
AcDbSpline
 70
8
 71
3
 72
8
 73
4
 74
0
 40
0
 40
0
 40
0
 40
0
 40
1
 40
1
 40
1
 40
1
 10
145.599385
 20
20.997808
 30
0.0
 10
145.818407
 20
21.295056
 30
0.0
 10
145.983978
 20
21.626852
 30
0.0
 10
146.096103
 20
21.993202
 30
0.0
  0
SPLINE
  5
29c
100
AcDbEntity
  8
logo
 62
7
100
AcDbSpline
 70
8
 71
3
 72
8
 73
4
 74
0
 40
0
 40
0
 40
0
 40
0
 40
1
 40
1
 40
1
 40
1
 10
146.096103
 20
21.993202
 30
0.0
 10
146.208219
 20
22.359545
 30
0.0
 10
146.264280
 20
22.763046
 30
0.0
 10
146.264284
 20
23.203708
 30
0.0
  0
SPLINE
  5
29d
100
AcDbEntity
  8
logo
 62
7
100
AcDbSpline
 70
8
 71
3
 72
8
 73
4
 74
0
 40
0
 40
0
 40
0
 40
0
 40
1
 40
1
 40
1
 40
1
 10
146.264284
 20
23.203708
 30
0.0
 10
146.264280
 20
23.735623
 30
0.0
 10
146.130648
 20
24.144341
 30
0.0
 10
145.863390
 20
24.429861
 30
0.0
  0
SPLINE
  5
29e
100
AcDbEntity
  8
logo
 62
7
100
AcDbSpline
 70
8
 71
3
 72
8
 73
4
 74
0
 40
0
 40
0
 40
0
 40
0
 40
1
 40
1
 40
1
 40
1
 10
145.863390
 20
24.429861
 30
0.0
 10
145.596122
 20
24.715371
 30
0.0
 10
145.222605
 20
24.858129
 30
0.0
 10
144.742838
 20
24.858133
 30
0.0
  0
SPLINE
  5
29f
100
AcDbEntity
  8
logo
 62
7
100
AcDbSpline
 70
8
 71
3
 72
8
 73
4
 74
0
 40
0
 40
0
 40
0
 40
0
 40
1
 40
1
 40
1
 40
1
 10
144.742838
 20
24.858133
 30
0.0
 10
144.369970
 20
24.858129
 30
0.0
 10
144.033611
 20
24.772735
 30
0.0
 10
143.733756
 20
24.601952
 30
0.0
  0
SPLINE
  5
2a0
100
AcDbEntity
  8
logo
 62
7
100
AcDbSpline
 70
8
 71
3
 72
8
 73
4
 74
0
 40
0
 40
0
 40
0
 40
0
 40
1
 40
1
 40
1
 40
1
 10
143.733756
 20
24.601952
 30
0.0
 10
143.433897
 20
24.431158
 30
0.0
 10
143.175761
 20
24.199748
 30
0.0
 10
142.959344
 20
23.907720
 30
0.0
  0
SPLINE
  5
2a1
100
AcDbEntity
  8
logo
 62
7
100
AcDbSpline
 70
8
 71
3
 72
8
 73
4
 74
0
 40
0
 40
0
 40
0
 40
0
 40
1
 40
1
 40
1
 40
1
 10
142.959344
 20
23.907720
 30
0.0
 10
142.750746
 20
23.620896
 30
0.0
 10
142.590390
 20
23.287794
 30
0.0
 10
142.478271
 20
22.908416
 30
0.0
  0
SPLINE
  5
2a2
100
AcDbEntity
  8
logo
 62
7
100
AcDbSpline
 70
8
 71
3
 72
8
 73
4
 74
0
 40
0
 40
0
 40
0
 40
0
 40
1
 40
1
 40
1
 40
1
 10
142.478271
 20
22.908416
 30
0.0
 10
142.366149
 20
22.529029
 30
0.0
 10
142.310089
 20
22.138564
 30
0.0
 10
142.310091
 20
21.737019
 30
0.0
  0
SPLINE
  5
2a3
100
AcDbEntity
  8
logo
 62
7
100
AcDbSpline
 70
8
 71
3
 72
8
 73
4
 74
0
 40
0
 40
0
 40
0
 40
0
 40
1
 40
1
 40
1
 40
1
 10
142.310091
 20
21.737019
 30
0.0
 10
142.310089
 20
21.199884
 30
0.0
 10
142.443721
 20
20.787254
 30
0.0
 10
142.710985
 20
20.499134
 30
0.0
  0
SPLINE
  5
2a4
100
AcDbEntity
  8
logo
 62
7
100
AcDbSpline
 70
8
 71
3
 72
8
 73
4
 74
0
 40
0
 40
0
 40
0
 40
0
 40
1
 40
1
 40
1
 40
1
 10
142.710985
 20
20.499134
 30
0.0
 10
142.978247
 20
20.211011
 30
0.0
 10
143.353066
 20
20.066948
 30
0.0
 10
143.835446
 20
20.066950
 30
0.0
  0
SPLINE
  5
2a5
100
AcDbEntity
  8
logo
 62
7
100
AcDbSpline
 70
8
 71
3
 72
8
 73
4
 74
0
 40
0
 40
0
 40
0
 40
0
 40
1
 40
1
 40
1
 40
1
 10
143.835446
 20
20.066950
 30
0.0
 10
144.203095
 20
20.066948
 30
0.0
 10
144.537498
 20
20.151691
 30
0.0
 10
144.838662
 20
20.321175
 30
0.0
  0
SPLINE
  5
2a6
100
AcDbEntity
  8
logo
 62
7
100
AcDbSpline
 70
8
 71
3
 72
8
 73
4
 74
0
 40
0
 40
0
 40
0
 40
0
 40
1
 40
1
 40
1
 40
1
 10
144.838662
 20
20.321175
 30
0.0
 10
145.139818
 20
20.490659
 30
0.0
 10
145.393392
 20
20.716203
 30
0.0
 10
145.599385
 20
20.997808
 30
0.0
  0
LINE
  5
2a7
100
AcDbEntity
  8
logo
 62
7
100
AcDbLine
 10
145.599385
 20
20.997808
 30
0.0
 11
145.599385
 21
20.997808
 31
0.0
  0
LINE
  5
2a8
100
AcDbEntity
  8
logo
 62
7
100
AcDbLine
 10
151.998060
 20
19.550675
 30
0.0
 11
151.075024
 21
19.550675
 31
0.0
  0
LINE
  5
2a9
100
AcDbEntity
  8
logo
 62
7
100
AcDbLine
 10
151.075024
 20
19.550675
 30
0.0
 11
149.483178
 21
24.760355
 31
0.0
  0
LINE
  5
2aa
100
AcDbEntity
  8
logo
 62
7
100
AcDbLine
 10
149.483178
 20
24.760355
 30
0.0
 11
148.278536
 21
19.550675
 31
0.0
  0
LINE
  5
2ab
100
AcDbEntity
  8
logo
 62
7
100
AcDbLine
 10
148.278536
 20
19.550675
 30
0.0
 11
147.547148
 21
19.550675
 31
0.0
  0
LINE
  5
2ac
100
AcDbEntity
  8
logo
 62
7
100
AcDbLine
 10
147.547148
 20
19.550675
 30
0.0
 11
148.892592
 21
25.374409
 31
0.0
  0
LINE
  5
2ad
100
AcDbEntity
  8
logo
 62
7
100
AcDbLine
 10
148.892592
 20
25.374409
 30
0.0
 11
150.058120
 21
25.374409
 31
0.0
  0
LINE
  5
2ae
100
AcDbEntity
  8
logo
 62
7
100
AcDbLine
 10
150.058120
 20
25.374409
 30
0.0
 11
151.513075
 21
20.618425
 31
0.0
  0
LINE
  5
2af
100
AcDbEntity
  8
logo
 62
7
100
AcDbLine
 10
151.513075
 20
20.618425
 30
0.0
 11
152.612113
 21
25.374409
 31
0.0
  0
LINE
  5
2b0
100
AcDbEntity
  8
logo
 62
7
100
AcDbLine
 10
152.612113
 20
25.374409
 30
0.0
 11
153.343503
 21
25.374409
 31
0.0
  0
LINE
  5
2b1
100
AcDbEntity
  8
logo
 62
7
100
AcDbLine
 10
153.343503
 20
25.374409
 30
0.0
 11
151.998060
 21
19.550675
 31
0.0
  0
SPLINE
  5
2b2
100
AcDbEntity
  8
logo
 62
7
100
AcDbSpline
 70
8
 71
3
 72
8
 73
4
 74
0
 40
0
 40
0
 40
0
 40
0
 40
1
 40
1
 40
1
 40
1
 10
131.425511
 20
29.522501
 30
0.0
 10
131.321741
 20
29.078176
 30
0.0
 10
131.190039
 20
28.699703
 30
0.0
 10
131.030408
 20
28.387081
 30
0.0
  0
SPLINE
  5
2b3
100
AcDbEntity
  8
logo
 62
7
100
AcDbSpline
 70
8
 71
3
 72
8
 73
4
 74
0
 40
0
 40
0
 40
0
 40
0
 40
1
 40
1
 40
1
 40
1
 10
131.030408
 20
28.387081
 30
0.0
 10
130.870764
 20
28.074457
 30
0.0
 10
130.659246
 20
27.810390
 30
0.0
 10
130.395849
 20
27.594878
 30
0.0
  0
SPLINE
  5
2b4
100
AcDbEntity
  8
logo
 62
7
100
AcDbSpline
 70
8
 71
3
 72
8
 73
4
 74
0
 40
0
 40
0
 40
0
 40
0
 40
1
 40
1
 40
1
 40
1
 10
130.395849
 20
27.594878
 30
0.0
 10
130.151066
 20
27.397993
 30
0.0
 10
129.885670
 20
27.251658
 30
0.0
 10
129.599655
 20
27.155877
 30
0.0
  0
SPLINE
  5
2b5
100
AcDbEntity
  8
logo
 62
7
100
AcDbSpline
 70
8
 71
3
 72
8
 73
4
 74
0
 40
0
 40
0
 40
0
 40
0
 40
1
 40
1
 40
1
 40
1
 10
129.599655
 20
27.155877
 30
0.0
 10
129.313635
 20
27.060093
 30
0.0
 10
128.977732
 20
27.012201
 30
0.0
 10
128.591945
 20
27.012201
 30
0.0
  0
SPLINE
  5
2b6
100
AcDbEntity
  8
logo
 62
7
100
AcDbSpline
 70
8
 71
3
 72
8
 73
4
 74
0
 40
0
 40
0
 40
0
 40
0
 40
1
 40
1
 40
1
 40
1
 10
128.591945
 20
27.012201
 30
0.0
 10
127.966694
 20
27.012201
 30
0.0
 10
127.501086
 20
27.153214
 30
0.0
 10
127.195115
 20
27.435240
 30
0.0
  0
SPLINE
  5
2b7
100
AcDbEntity
  8
logo
 62
7
100
AcDbSpline
 70
8
 71
3
 72
8
 73
4
 74
0
 40
0
 40
0
 40
0
 40
0
 40
1
 40
1
 40
1
 40
1
 10
127.195115
 20
27.435240
 30
0.0
 10
126.889142
 20
27.717266
 30
0.0
 10
126.736158
 20
28.107049
 30
0.0
 10
126.736158
 20
28.604587
 30
0.0
  0
SPLINE
  5
2b8
100
AcDbEntity
  8
logo
 62
7
100
AcDbSpline
 70
8
 71
3
 72
8
 73
4
 74
0
 40
0
 40
0
 40
0
 40
0
 40
1
 40
1
 40
1
 40
1
 10
126.736158
 20
28.604587
 30
0.0
 10
126.736158
 20
28.772205
 30
0.0
 10
126.747457
 20
28.927851
 30
0.0
 10
126.770082
 20
29.071526
 30
0.0
  0
SPLINE
  5
2b9
100
AcDbEntity
  8
logo
 62
7
100
AcDbSpline
 70
8
 71
3
 72
8
 73
4
 74
0
 40
0
 40
0
 40
0
 40
0
 40
1
 40
1
 40
1
 40
1
 10
126.770082
 20
29.071526
 30
0.0
 10
126.792695
 20
29.215197
 30
0.0
 10
126.821297
 20
29.365524
 30
0.0
 10
126.855886
 20
29.522501
 30
0.0
  0
LINE
  5
2ba
100
AcDbEntity
  8
logo
 62
7
100
AcDbLine
 10
126.855886
 20
29.522501
 30
0.0
 11
127.678019
 21
33.078429
 31
0.0
  0
LINE
  5
2bb
100
AcDbEntity
  8
logo
 62
7
100
AcDbLine
 10
127.678019
 20
33.078429
 30
0.0
 11
128.476208
 21
33.078429
 31
0.0
  0
LINE
  5
2bc
100
AcDbEntity
  8
logo
 62
7
100
AcDbLine
 10
128.476208
 20
33.078429
 30
0.0
 11
127.646092
 21
29.482592
 31
0.0
  0
SPLINE
  5
2bd
100
AcDbEntity
  8
logo
 62
7
100
AcDbSpline
 70
8
 71
3
 72
8
 73
4
 74
0
 40
0
 40
0
 40
0
 40
0
 40
1
 40
1
 40
1
 40
1
 10
127.646092
 20
29.482592
 30
0.0
 10
127.614163
 20
29.357541
 30
0.0
 10
127.588221
 20
29.217194
 30
0.0
 10
127.568268
 20
29.061550
 30
0.0
  0
SPLINE
  5
2be
100
AcDbEntity
  8
logo
 62
7
100
AcDbSpline
 70
8
 71
3
 72
8
 73
4
 74
0
 40
0
 40
0
 40
0
 40
0
 40
1
 40
1
 40
1
 40
1
 10
127.568268
 20
29.061550
 30
0.0
 10
127.548301
 20
28.905901
 30
0.0
 10
127.538335
 20
28.784176
 30
0.0
 10
127.538335
 20
28.696377
 30
0.0
  0
SPLINE
  5
2bf
100
AcDbEntity
  8
logo
 62
7
100
AcDbSpline
 70
8
 71
3
 72
8
 73
4
 74
0
 40
0
 40
0
 40
0
 40
0
 40
1
 40
1
 40
1
 40
1
 10
127.538335
 20
28.696377
 30
0.0
 10
127.538335
 20
28.361137
 30
0.0
 10
127.638108
 20
28.105053
 30
0.0
 10
127.837657
 20
27.928121
 30
0.0
  0
SPLINE
  5
2c0
100
AcDbEntity
  8
logo
 62
7
100
AcDbSpline
 70
8
 71
3
 72
8
 73
4
 74
0
 40
0
 40
0
 40
0
 40
0
 40
1
 40
1
 40
1
 40
1
 10
127.837657
 20
27.928121
 30
0.0
 10
128.037202
 20
27.751190
 30
0.0
 10
128.335190
 20
27.662723
 30
0.0
 10
128.731627
 20
27.662726
 30
0.0
  0
SPLINE
  5
2c1
100
AcDbEntity
  8
logo
 62
7
100
AcDbSpline
 70
8
 71
3
 72
8
 73
4
 74
0
 40
0
 40
0
 40
0
 40
0
 40
1
 40
1
 40
1
 40
1
 10
128.731627
 20
27.662726
 30
0.0
 10
129.016310
 20
27.662723
 30
0.0
 10
129.266409
 20
27.706624
 30
0.0
 10
129.481923
 20
27.794425
 30
0.0
  0
SPLINE
  5
2c2
100
AcDbEntity
  8
logo
 62
7
100
AcDbSpline
 70
8
 71
3
 72
8
 73
4
 74
0
 40
0
 40
0
 40
0
 40
0
 40
1
 40
1
 40
1
 40
1
 10
129.481923
 20
27.794425
 30
0.0
 10
129.697431
 20
27.882226
 30
0.0
 10
129.885004
 20
28.013926
 30
0.0
 10
130.044646
 20
28.189528
 30
0.0
  0
SPLINE
  5
2c3
100
AcDbEntity
  8
logo
 62
7
100
AcDbSpline
 70
8
 71
3
 72
8
 73
4
 74
0
 40
0
 40
0
 40
0
 40
0
 40
1
 40
1
 40
1
 40
1
 10
130.044646
 20
28.189528
 30
0.0
 10
130.188315
 20
28.354486
 30
0.0
 10
130.303386
 20
28.537405
 30
0.0
 10
130.389861
 20
28.738283
 30
0.0
  0
SPLINE
  5
2c4
100
AcDbEntity
  8
logo
 62
7
100
AcDbSpline
 70
8
 71
3
 72
8
 73
4
 74
0
 40
0
 40
0
 40
0
 40
0
 40
1
 40
1
 40
1
 40
1
 10
130.389861
 20
28.738283
 30
0.0
 10
130.476327
 20
28.939157
 30
0.0
 10
130.551491
 20
29.180610
 30
0.0
 10
130.615349
 20
29.462638
 30
0.0
  0
LINE
  5
2c5
100
AcDbEntity
  8
logo
 62
7
100
AcDbLine
 10
130.615349
 20
29.462638
 30
0.0
 11
131.449456
 21
33.078429
 31
0.0
  0
LINE
  5
2c6
100
AcDbEntity
  8
logo
 62
7
100
AcDbLine
 10
131.449456
 20
33.078429
 30
0.0
 11
132.247644
 21
33.078429
 31
0.0
  0
LINE
  5
2c7
100
AcDbEntity
  8
logo
 62
7
100
AcDbLine
 10
132.247644
 20
33.078429
 30
0.0
 11
131.425511
 21
29.522501
 31
0.0
  0
SPLINE
  5
2c8
100
AcDbEntity
  8
logo
 62
7
100
AcDbSpline
 70
8
 71
3
 72
8
 73
4
 74
0
 40
0
 40
0
 40
0
 40
0
 40
1
 40
1
 40
1
 40
1
 10
136.466065
 20
31.601780
 30
0.0
 10
136.466061
 20
31.742789
 30
0.0
 10
136.444772
 20
31.861852
 30
0.0
 10
136.402211
 20
31.958970
 30
0.0
  0
SPLINE
  5
2c9
100
AcDbEntity
  8
logo
 62
7
100
AcDbSpline
 70
8
 71
3
 72
8
 73
4
 74
0
 40
0
 40
0
 40
0
 40
0
 40
1
 40
1
 40
1
 40
1
 10
136.402211
 20
31.958970
 30
0.0
 10
136.359637
 20
32.056079
 30
0.0
 10
136.294452
 20
32.139223
 30
0.0
 10
136.206655
 20
32.208404
 30
0.0
  0
SPLINE
  5
2ca
100
AcDbEntity
  8
logo
 62
7
100
AcDbSpline
 70
8
 71
3
 72
8
 73
4
 74
0
 40
0
 40
0
 40
0
 40
0
 40
1
 40
1
 40
1
 40
1
 10
136.206655
 20
32.208404
 30
0.0
 10
136.105547
 20
32.290878
 30
0.0
 10
135.981827
 20
32.348081
 30
0.0
 10
135.835497
 20
32.380015
 30
0.0
  0
SPLINE
  5
2cb
100
AcDbEntity
  8
logo
 62
7
100
AcDbSpline
 70
8
 71
3
 72
8
 73
4
 74
0
 40
0
 40
0
 40
0
 40
0
 40
1
 40
1
 40
1
 40
1
 10
135.835497
 20
32.380015
 30
0.0
 10
135.689159
 20
32.411936
 30
0.0
 10
135.509568
 20
32.427900
 30
0.0
 10
135.296720
 20
32.427904
 30
0.0
  0
LINE
  5
2cc
100
AcDbEntity
  8
logo
 62
7
100
AcDbLine
 10
135.296720
 20
32.427904
 30
0.0
 11
134.402751
 21
32.427904
 31
0.0
  0
LINE
  5
2cd
100
AcDbEntity
  8
logo
 62
7
100
AcDbLine
 10
134.402751
 20
32.427904
 30
0.0
 11
133.871955
 21
30.137107
 31
0.0
  0
LINE
  5
2ce
100
AcDbEntity
  8
logo
 62
7
100
AcDbLine
 10
133.871955
 20
30.137107
 30
0.0
 11
134.710053
 21
30.137107
 31
0.0
  0
SPLINE
  5
2cf
100
AcDbEntity
  8
logo
 62
7
100
AcDbSpline
 70
8
 71
3
 72
8
 73
4
 74
0
 40
0
 40
0
 40
0
 40
0
 40
1
 40
1
 40
1
 40
1
 10
134.710053
 20
30.137107
 30
0.0
 10
134.970792
 20
30.137103
 30
0.0
 10
135.196944
 20
30.161050
 30
0.0
 10
135.388513
 20
30.208944
 30
0.0
  0
SPLINE
  5
2d0
100
AcDbEntity
  8
logo
 62
7
100
AcDbSpline
 70
8
 71
3
 72
8
 73
4
 74
0
 40
0
 40
0
 40
0
 40
0
 40
1
 40
1
 40
1
 40
1
 10
135.388513
 20
30.208944
 30
0.0
 10
135.580073
 20
30.256831
 30
0.0
 10
135.754344
 20
30.340641
 30
0.0
 10
135.911324
 20
30.460372
 30
0.0
  0
SPLINE
  5
2d1
100
AcDbEntity
  8
logo
 62
7
100
AcDbSpline
 70
8
 71
3
 72
8
 73
4
 74
0
 40
0
 40
0
 40
0
 40
0
 40
1
 40
1
 40
1
 40
1
 10
135.911324
 20
30.460372
 30
0.0
 10
136.086922
 20
30.593400
 30
0.0
 10
136.223279
 20
30.760355
 30
0.0
 10
136.320395
 20
30.961235
 30
0.0
  0
SPLINE
  5
2d2
100
AcDbEntity
  8
logo
 62
7
100
AcDbSpline
 70
8
 71
3
 72
8
 73
4
 74
0
 40
0
 40
0
 40
0
 40
0
 40
1
 40
1
 40
1
 40
1
 10
136.320395
 20
30.961235
 30
0.0
 10
136.417505
 20
31.162109
 30
0.0
 10
136.466061
 20
31.375624
 30
0.0
 10
136.466065
 20
31.601780
 30
0.0
  0
LINE
  5
2d3
100
AcDbEntity
  8
logo
 62
7
100
AcDbLine
 10
136.466065
 20
31.601780
 30
0.0
 11
136.466065
 21
31.601780
 31
0.0
  0
LINE
  5
2d4
100
AcDbEntity
  8
logo
 62
7
100
AcDbLine
 10
137.352054
 20
27.135921
 30
0.0
 11
136.422164
 21
27.135921
 31
0.0
  0
LINE
  5
2d5
100
AcDbEntity
  8
logo
 62
7
100
AcDbLine
 10
136.422164
 20
27.135921
 30
0.0
 11
134.857717
 21
29.510530
 31
0.0
  0
LINE
  5
2d6
100
AcDbEntity
  8
logo
 62
7
100
AcDbLine
 10
134.857717
 20
29.510530
 30
0.0
 11
133.728282
 21
29.510530
 31
0.0
  0
LINE
  5
2d7
100
AcDbEntity
  8
logo
 62
7
100
AcDbLine
 10
133.728282
 20
29.510530
 30
0.0
 11
133.181523
 21
27.135921
 31
0.0
  0
LINE
  5
2d8
100
AcDbEntity
  8
logo
 62
7
100
AcDbLine
 10
133.181523
 20
27.135921
 30
0.0
 11
132.383335
 21
27.135921
 31
0.0
  0
LINE
  5
2d9
100
AcDbEntity
  8
logo
 62
7
100
AcDbLine
 10
132.383335
 20
27.135921
 30
0.0
 11
133.752227
 21
33.078429
 31
0.0
  0
LINE
  5
2da
100
AcDbEntity
  8
logo
 62
7
100
AcDbLine
 10
133.752227
 20
33.078429
 30
0.0
 11
135.372548
 21
33.078429
 31
0.0
  0
SPLINE
  5
2db
100
AcDbEntity
  8
logo
 62
7
100
AcDbSpline
 70
8
 71
3
 72
8
 73
4
 74
0
 40
0
 40
0
 40
0
 40
0
 40
1
 40
1
 40
1
 40
1
 10
135.372548
 20
33.078429
 30
0.0
 10
135.734389
 20
33.078422
 30
0.0
 10
136.028388
 20
33.055141
 30
0.0
 10
136.254546
 20
33.008587
 30
0.0
  0
SPLINE
  5
2dc
100
AcDbEntity
  8
logo
 62
7
100
AcDbSpline
 70
8
 71
3
 72
8
 73
4
 74
0
 40
0
 40
0
 40
0
 40
0
 40
1
 40
1
 40
1
 40
1
 10
136.254546
 20
33.008587
 30
0.0
 10
136.480694
 20
32.962020
 30
0.0
 10
136.677581
 20
32.877546
 30
0.0
 10
136.845205
 20
32.755162
 30
0.0
  0
SPLINE
  5
2dd
100
AcDbEntity
  8
logo
 62
7
100
AcDbSpline
 70
8
 71
3
 72
8
 73
4
 74
0
 40
0
 40
0
 40
0
 40
0
 40
1
 40
1
 40
1
 40
1
 10
136.845205
 20
32.755162
 30
0.0
 10
136.994194
 20
32.646072
 30
0.0
 10
137.111263
 20
32.514370
 30
0.0
 10
137.196408
 20
32.360059
 30
0.0
  0
SPLINE
  5
2de
100
AcDbEntity
  8
logo
 62
7
100
AcDbSpline
 70
8
 71
3
 72
8
 73
4
 74
0
 40
0
 40
0
 40
0
 40
0
 40
1
 40
1
 40
1
 40
1
 10
137.196408
 20
32.360059
 30
0.0
 10
137.281543
 20
32.205737
 30
0.0
 10
137.324112
 20
32.012844
 30
0.0
 10
137.324116
 20
31.781374
 30
0.0
  0
SPLINE
  5
2df
100
AcDbEntity
  8
logo
 62
7
100
AcDbSpline
 70
8
 71
3
 72
8
 73
4
 74
0
 40
0
 40
0
 40
0
 40
0
 40
1
 40
1
 40
1
 40
1
 10
137.324116
 20
31.781374
 30
0.0
 10
137.324112
 20
31.286492
 30
0.0
 10
137.169131
 20
30.852147
 30
0.0
 10
136.859173
 20
30.478331
 30
0.0
  0
SPLINE
  5
2e0
100
AcDbEntity
  8
logo
 62
7
100
AcDbSpline
 70
8
 71
3
 72
8
 73
4
 74
0
 40
0
 40
0
 40
0
 40
0
 40
1
 40
1
 40
1
 40
1
 10
136.859173
 20
30.478331
 30
0.0
 10
136.549205
 20
30.104510
 30
0.0
 10
136.142796
 20
29.844435
 30
0.0
 10
135.639941
 20
29.698104
 30
0.0
  0
LINE
  5
2e1
100
AcDbEntity
  8
logo
 62
7
100
AcDbLine
 10
135.639941
 20
29.698104
 30
0.0
 11
137.352054
 21
27.135921
 31
0.0
  0
LINE
  5
2e2
100
AcDbEntity
  8
logo
 62
7
100
AcDbLine
 10
144.056830
 20
33.078429
 30
0.0
 11
140.520859
 21
27.135921
 31
0.0
  0
LINE
  5
2e3
100
AcDbEntity
  8
logo
 62
7
100
AcDbLine
 10
140.520859
 20
27.135921
 30
0.0
 11
139.467251
 21
27.135921
 31
0.0
  0
LINE
  5
2e4
100
AcDbEntity
  8
logo
 62
7
100
AcDbLine
 10
139.467251
 20
27.135921
 30
0.0
 11
138.677045
 21
33.078429
 31
0.0
  0
LINE
  5
2e5
100
AcDbEntity
  8
logo
 62
7
100
AcDbLine
 10
138.677045
 20
33.078429
 30
0.0
 11
139.499179
 21
33.078429
 31
0.0
  0
LINE
  5
2e6
100
AcDbEntity
  8
logo
 62
7
100
AcDbLine
 10
139.499179
 20
33.078429
 30
0.0
 11
140.149701
 21
27.858281
 31
0.0
  0
LINE
  5
2e7
100
AcDbEntity
  8
logo
 62
7
100
AcDbLine
 10
140.149701
 20
27.858281
 30
0.0
 11
143.214741
 21
33.078429
 31
0.0
  0
LINE
  5
2e8
100
AcDbEntity
  8
logo
 62
7
100
AcDbLine
 10
143.214741
 20
33.078429
 30
0.0
 11
144.056830
 21
33.078429
 31
0.0
  0
LINE
  5
2e9
100
AcDbEntity
  8
logo
 62
7
100
AcDbLine
 10
148.941740
 20
33.078429
 30
0.0
 11
148.786093
 21
32.403960
 31
0.0
  0
LINE
  5
2ea
100
AcDbEntity
  8
logo
 62
7
100
AcDbLine
 10
148.786093
 20
32.403960
 30
0.0
 11
145.661187
 21
32.403960
 31
0.0
  0
LINE
  5
2eb
100
AcDbEntity
  8
logo
 62
7
100
AcDbLine
 10
145.661187
 20
32.403960
 30
0.0
 11
145.278058
 21
30.727766
 31
0.0
  0
LINE
  5
2ec
100
AcDbEntity
  8
logo
 62
7
100
AcDbLine
 10
145.278058
 20
30.727766
 30
0.0
 11
148.402961
 21
30.727766
 31
0.0
  0
LINE
  5
2ed
100
AcDbEntity
  8
logo
 62
7
100
AcDbLine
 10
148.402961
 20
30.727766
 30
0.0
 11
148.247315
 21
30.057288
 31
0.0
  0
LINE
  5
2ee
100
AcDbEntity
  8
logo
 62
7
100
AcDbLine
 10
148.247315
 20
30.057288
 30
0.0
 11
145.122411
 21
30.057288
 31
0.0
  0
LINE
  5
2ef
100
AcDbEntity
  8
logo
 62
7
100
AcDbLine
 10
145.122411
 20
30.057288
 30
0.0
 11
144.603589
 21
27.810390
 31
0.0
  0
LINE
  5
2f0
100
AcDbEntity
  8
logo
 62
7
100
AcDbLine
 10
144.603589
 20
27.810390
 30
0.0
 11
147.728492
 21
27.810390
 31
0.0
  0
LINE
  5
2f1
100
AcDbEntity
  8
logo
 62
7
100
AcDbLine
 10
147.728492
 20
27.810390
 30
0.0
 11
147.572846
 21
27.135921
 31
0.0
  0
LINE
  5
2f2
100
AcDbEntity
  8
logo
 62
7
100
AcDbLine
 10
147.572846
 20
27.135921
 30
0.0
 11
143.657736
 21
27.135921
 31
0.0
  0
LINE
  5
2f3
100
AcDbEntity
  8
logo
 62
7
100
AcDbLine
 10
143.657736
 20
27.135921
 30
0.0
 11
145.026628
 21
33.078429
 31
0.0
  0
LINE
  5
2f4
100
AcDbEntity
  8
logo
 62
7
100
AcDbLine
 10
145.026628
 20
33.078429
 30
0.0
 11
148.941740
 21
33.078429
 31
0.0
  0
LINE
  5
2f5
100
AcDbEntity
  8
logo
 62
7
100
AcDbLine
 10
154.385379
 20
33.078429
 30
0.0
 11
151.539839
 21
29.742004
 31
0.0
  0
LINE
  5
2f6
100
AcDbEntity
  8
logo
 62
7
100
AcDbLine
 10
151.539839
 20
29.742004
 30
0.0
 11
150.937208
 21
27.135921
 31
0.0
  0
LINE
  5
2f7
100
AcDbEntity
  8
logo
 62
7
100
AcDbLine
 10
150.937208
 20
27.135921
 30
0.0
 11
150.139020
 21
27.135921
 31
0.0
  0
LINE
  5
2f8
100
AcDbEntity
  8
logo
 62
7
100
AcDbLine
 10
150.139020
 20
27.135921
 30
0.0
 11
150.721697
 21
29.658194
 31
0.0
  0
LINE
  5
2f9
100
AcDbEntity
  8
logo
 62
7
100
AcDbLine
 10
150.721697
 20
29.658194
 30
0.0
 11
149.396706
 21
33.078429
 31
0.0
  0
LINE
  5
2fa
100
AcDbEntity
  8
logo
 62
7
100
AcDbLine
 10
149.396706
 20
33.078429
 30
0.0
 11
150.242784
 21
33.078429
 31
0.0
  0
LINE
  5
2fb
100
AcDbEntity
  8
logo
 62
7
100
AcDbLine
 10
150.242784
 20
33.078429
 30
0.0
 11
151.272446
 21
30.408491
 31
0.0
  0
LINE
  5
2fc
100
AcDbEntity
  8
logo
 62
7
100
AcDbLine
 10
151.272446
 20
30.408491
 30
0.0
 11
153.519345
 21
33.078429
 31
0.0
  0
LINE
  5
2fd
100
AcDbEntity
  8
logo
 62
7
100
AcDbLine
 10
153.519345
 20
33.078429
 30
0.0
 11
154.385379
 21
33.078429
 31
0.0
  0
LINE
  5
2fe
100
AcDbEntity
  8
text
 62
7
100
AcDbLine
 10
14.760548
 20
11.846646
 30
0.0
 11
44.757777
 21
64.765942
 31
0.0
  0
LINE
  5
2ff
100
AcDbEntity
  8
text
 62
7
100
AcDbLine
 10
44.757777
 20
64.765942
 30
0.0
 11
53.096354
 21
64.765942
 31
0.0
  0
LINE
  5
300
100
AcDbEntity
  8
text
 62
7
100
AcDbLine
 10
53.096354
 20
64.765942
 30
0.0
 11
61.832010
 21
11.846646
 31
0.0
  0
LINE
  5
301
100
AcDbEntity
  8
text
 62
7
100
AcDbLine
 10
61.832010
 20
11.846646
 30
0.0
 11
54.973438
 21
11.846646
 31
0.0
  0
LINE
  5
302
100
AcDbEntity
  8
text
 62
7
100
AcDbLine
 10
54.973438
 20
11.846646
 30
0.0
 11
52.410498
 21
27.079895
 31
0.0
  0
LINE
  5
303
100
AcDbEntity
  8
text
 62
7
100
AcDbLine
 10
52.410498
 20
27.079895
 30
0.0
 11
31.004534
 21
27.079895
 31
0.0
  0
LINE
  5
304
100
AcDbEntity
  8
text
 62
7
100
AcDbLine
 10
31.004534
 20
27.079895
 30
0.0
 11
22.521563
 21
11.846646
 31
0.0
  0
LINE
  5
305
100
AcDbEntity
  8
text
 62
7
100
AcDbLine
 10
22.521563
 20
11.846646
 30
0.0
 11
14.760548
 21
11.846646
 31
0.0
  0
LINE
  5
306
100
AcDbEntity
  8
text
 62
7
100
AcDbLine
 10
34.036745
 20
32.530654
 30
0.0
 11
51.544152
 21
32.530654
 31
0.0
  0
LINE
  5
307
100
AcDbEntity
  8
text
 62
7
100
AcDbLine
 10
51.544152
 20
32.530654
 30
0.0
 11
49.486579
 21
45.814624
 31
0.0
  0
SPLINE
  5
308
100
AcDbEntity
  8
text
 62
7
100
AcDbSpline
 70
8
 71
3
 72
8
 73
4
 74
0
 40
0
 40
0
 40
0
 40
0
 40
1
 40
1
 40
1
 40
1
 10
49.486579
 20
45.814624
 30
0.0
 10
48.692397
 20
51.084857
 30
0.0
 10
48.199062
 20
55.476746
 30
0.0
 10
48.006573
 20
58.990303
 30
0.0
  0
SPLINE
  5
309
100
AcDbEntity
  8
text
 62
7
100
AcDbSpline
 70
8
 71
3
 72
8
 73
4
 74
0
 40
0
 40
0
 40
0
 40
0
 40
1
 40
1
 40
1
 40
1
 10
48.006573
 20
58.990303
 30
0.0
 10
46.803284
 20
55.958047
 30
0.0
 10
45.046529
 20
52.360310
 30
0.0
 10
42.736302
 20
48.197077
 30
0.0
  0
LINE
  5
30a
100
AcDbEntity
  8
text
 62
7
100
AcDbLine
 10
42.736302
 20
48.197077
 30
0.0
 11
34.036745
 21
32.530654
 31
0.0
  0
LINE
  5
30b
100
AcDbEntity
  8
text
 62
7
100
AcDbLine
 10
61.654952
 20
34.501951
 30
0.0
 11
67.296814
 21
35.030874
 31
0.0
  0
LINE
  5
30c
100
AcDbEntity
  8
text
 62
7
100
AcDbLine
 10
67.296814
 20
35.030874
 30
0.0
 11
67.238044
 21
33.532254
 31
0.0
  0
SPLINE
  5
30d
100
AcDbEntity
  8
text
 62
7
100
AcDbSpline
 70
8
 71
3
 72
8
 73
4
 74
0
 40
0
 40
0
 40
0
 40
0
 40
1
 40
1
 40
1
 40
1
 10
67.238044
 20
33.532254
 30
0.0
 10
67.238036
 20
31.867110
 30
0.0
 10
67.620035
 20
30.344005
 30
0.0
 10
68.384047
 20
28.962935
 30
0.0
  0
SPLINE
  5
30e
100
AcDbEntity
  8
text
 62
7
100
AcDbSpline
 70
8
 71
3
 72
8
 73
4
 74
0
 40
0
 40
0
 40
0
 40
0
 40
1
 40
1
 40
1
 40
1
 10
68.384047
 20
28.962935
 30
0.0
 10
69.148038
 20
27.581845
 30
0.0
 10
70.411580
 20
26.514204
 30
0.0
 10
72.174674
 20
25.760001
 30
0.0
  0
SPLINE
  5
30f
100
AcDbEntity
  8
text
 62
7
100
AcDbSpline
 70
8
 71
3
 72
8
 73
4
 74
0
 40
0
 40
0
 40
0
 40
0
 40
1
 40
1
 40
1
 40
1
 10
72.174674
 20
25.760001
 30
0.0
 10
73.937740
 20
25.005791
 30
0.0
 10
76.033846
 20
24.628687
 30
0.0
 10
78.463000
 20
24.628692
 30
0.0
  0
SPLINE
  5
310
100
AcDbEntity
  8
text
 62
7
100
AcDbSpline
 70
8
 71
3
 72
8
 73
4
 74
0
 40
0
 40
0
 40
0
 40
0
 40
1
 40
1
 40
1
 40
1
 10
78.463000
 20
24.628692
 30
0.0
 10
81.910781
 20
24.628687
 30
0.0
 10
84.540708
 20
25.382894
 30
0.0
 10
86.352792
 20
26.891313
 30
0.0
  0
SPLINE
  5
311
100
AcDbEntity
  8
text
 62
7
100
AcDbSpline
 70
8
 71
3
 72
8
 73
4
 74
0
 40
0
 40
0
 40
0
 40
0
 40
1
 40
1
 40
1
 40
1
 10
86.352792
 20
26.891313
 30
0.0
 10
88.164817
 20
28.399720
 30
0.0
 10
89.070846
 20
30.123621
 30
0.0
 10
89.070876
 20
32.063021
 30
0.0
  0
SPLINE
  5
312
100
AcDbEntity
  8
text
 62
7
100
AcDbSpline
 70
8
 71
3
 72
8
 73
4
 74
0
 40
0
 40
0
 40
0
 40
0
 40
1
 40
1
 40
1
 40
1
 10
89.070876
 20
32.063021
 30
0.0
 10
89.070846
 20
33.414702
 30
0.0
 10
88.590895
 20
34.648860
 30
0.0
 10
87.631027
 20
35.765491
 30
0.0
  0
SPLINE
  5
313
100
AcDbEntity
  8
text
 62
7
100
AcDbSpline
 70
8
 71
3
 72
8
 73
4
 74
0
 40
0
 40
0
 40
0
 40
0
 40
1
 40
1
 40
1
 40
1
 10
87.631027
 20
35.765491
 30
0.0
 10
86.651508
 20
36.862504
 30
0.0
 10
83.977502
 20
38.351328
 30
0.0
 10
79.609003
 20
40.231967
 30
0.0
  0
SPLINE
  5
314
100
AcDbEntity
  8
text
 62
7
100
AcDbSpline
 70
8
 71
3
 72
8
 73
4
 74
0
 40
0
 40
0
 40
0
 40
0
 40
1
 40
1
 40
1
 40
1
 10
79.609003
 20
40.231967
 30
0.0
 10
76.219949
 20
41.701181
 30
0.0
 10
73.908355
 20
42.827592
 30
0.0
 10
72.674215
 20
43.611207
 30
0.0
  0
SPLINE
  5
315
100
AcDbEntity
  8
text
 62
7
100
AcDbSpline
 70
8
 71
3
 72
8
 73
4
 74
0
 40
0
 40
0
 40
0
 40
0
 40
1
 40
1
 40
1
 40
1
 10
72.674215
 20
43.611207
 30
0.0
 10
70.734810
 20
44.884520
 30
0.0
 10
69.304757
 20
46.270495
 30
0.0
 10
68.384047
 20
47.769141
 30
0.0
  0
SPLINE
  5
316
100
AcDbEntity
  8
text
 62
7
100
AcDbSpline
 70
8
 71
3
 72
8
 73
4
 74
0
 40
0
 40
0
 40
0
 40
0
 40
1
 40
1
 40
1
 40
1
 10
68.384047
 20
47.769141
 30
0.0
 10
67.463317
 20
49.267734
 30
0.0
 10
67.002958
 20
50.976941
 30
0.0
 10
67.002966
 20
52.896771
 30
0.0
  0
SPLINE
  5
317
100
AcDbEntity
  8
text
 62
7
100
AcDbSpline
 70
8
 71
3
 72
8
 73
4
 74
0
 40
0
 40
0
 40
0
 40
0
 40
1
 40
1
 40
1
 40
1
 10
67.002966
 20
52.896771
 30
0.0
 10
67.002958
 20
55.110386
 30
0.0
 10
67.610240
 20
57.108542
 30
0.0
 10
68.824819
 20
58.891251
 30
0.0
  0
SPLINE
  5
318
100
AcDbEntity
  8
text
 62
7
100
AcDbSpline
 70
8
 71
3
 72
8
 73
4
 74
0
 40
0
 40
0
 40
0
 40
0
 40
1
 40
1
 40
1
 40
1
 10
68.824819
 20
58.891251
 30
0.0
 10
70.039373
 20
60.673881
 30
0.0
 10
71.817146
 20
62.035373
 30
0.0
 10
74.158141
 20
62.975723
 30
0.0
  0
SPLINE
  5
319
100
AcDbEntity
  8
text
 62
7
100
AcDbSpline
 70
8
 71
3
 72
8
 73
4
 74
0
 40
0
 40
0
 40
0
 40
0
 40
1
 40
1
 40
1
 40
1
 10
74.158141
 20
62.975723
 30
0.0
 10
76.499103
 20
63.915990
 30
0.0
 10
79.138826
 20
64.386146
 30
0.0
 10
82.077318
 20
64.386189
 30
0.0
  0
SPLINE
  5
31a
100
AcDbEntity
  8
text
 62
7
100
AcDbSpline
 70
8
 71
3
 72
8
 73
4
 74
0
 40
0
 40
0
 40
0
 40
0
 40
1
 40
1
 40
1
 40
1
 10
82.077318
 20
64.386189
 30
0.0
 10
85.583864
 20
64.386146
 30
0.0
 10
88.541920
 20
63.798451
 30
0.0
 10
90.951498
 20
62.623108
 30
0.0
  0
SPLINE
  5
31b
100
AcDbEntity
  8
text
 62
7
100
AcDbSpline
 70
8
 71
3
 72
8
 73
4
 74
0
 40
0
 40
0
 40
0
 40
0
 40
1
 40
1
 40
1
 40
1
 10
90.951498
 20
62.623108
 30
0.0
 10
93.361007
 20
61.447678
 30
0.0
 10
95.109394
 20
59.880495
 30
0.0
 10
96.196666
 20
57.921555
 30
0.0
  0
SPLINE
  5
31c
100
AcDbEntity
  8
text
 62
7
100
AcDbSpline
 70
8
 71
3
 72
8
 73
4
 74
0
 40
0
 40
0
 40
0
 40
0
 40
1
 40
1
 40
1
 40
1
 10
96.196666
 20
57.921555
 30
0.0
 10
97.283861
 20
55.962539
 30
0.0
 10
97.827476
 20
54.091716
 30
0.0
 10
97.827517
 20
52.309078
 30
0.0
  0
SPLINE
  5
31d
100
AcDbEntity
  8
text
 62
7
100
AcDbSpline
 70
8
 71
3
 72
8
 73
4
 74
0
 40
0
 40
0
 40
0
 40
0
 40
1
 40
1
 40
1
 40
1
 10
97.827517
 20
52.309078
 30
0.0
 10
97.827476
 20
52.132737
 30
0.0
 10
97.817672
 20
51.838892
 30
0.0
 10
97.798132
 20
51.427537
 30
0.0
  0
LINE
  5
31e
100
AcDbEntity
  8
text
 62
7
100
AcDbLine
 10
97.798132
 20
51.427537
 30
0.0
 11
92.244425
 21
50.986766
 31
0.0
  0
SPLINE
  5
31f
100
AcDbEntity
  8
text
 62
7
100
AcDbSpline
 70
8
 71
3
 72
8
 73
4
 74
0
 40
0
 40
0
 40
0
 40
0
 40
1
 40
1
 40
1
 40
1
 10
92.244425
 20
50.986766
 30
0.0
 10
92.244388
 20
52.201302
 30
0.0
 10
92.136646
 20
53.151406
 30
0.0
 10
91.921192
 20
53.837083
 30
0.0
  0
SPLINE
  5
320
100
AcDbEntity
  8
text
 62
7
100
AcDbSpline
 70
8
 71
3
 72
8
 73
4
 74
0
 40
0
 40
0
 40
0
 40
0
 40
1
 40
1
 40
1
 40
1
 10
91.921192
 20
53.837083
 30
0.0
 10
91.529361
 20
55.032026
 30
0.0
 10
90.922079
 20
56.040898
 30
0.0
 10
90.099342
 20
56.863706
 30
0.0
  0
SPLINE
  5
321
100
AcDbEntity
  8
text
 62
7
100
AcDbSpline
 70
8
 71
3
 72
8
 73
4
 74
0
 40
0
 40
0
 40
0
 40
0
 40
1
 40
1
 40
1
 40
1
 10
90.099342
 20
56.863706
 30
0.0
 10
89.276537
 20
57.686440
 30
0.0
 10
88.145227
 20
58.347596
 30
0.0
 10
86.705409
 20
58.847173
 30
0.0
  0
SPLINE
  5
322
100
AcDbEntity
  8
text
 62
7
100
AcDbSpline
 70
8
 71
3
 72
8
 73
4
 74
0
 40
0
 40
0
 40
0
 40
0
 40
1
 40
1
 40
1
 40
1
 10
86.705409
 20
58.847173
 30
0.0
 10
85.265530
 20
59.346675
 30
0.0
 10
83.654272
 20
59.596445
 30
0.0
 10
81.871625
 20
59.596483
 30
0.0
  0
SPLINE
  5
323
100
AcDbEntity
  8
text
 62
7
100
AcDbSpline
 70
8
 71
3
 72
8
 73
4
 74
0
 40
0
 40
0
 40
0
 40
0
 40
1
 40
1
 40
1
 40
1
 10
81.871625
 20
59.596483
 30
0.0
 10
78.737236
 20
59.596445
 30
0.0
 10
76.298308
 20
58.891213
 30
0.0
 10
74.554834
 20
57.480785
 30
0.0
  0
SPLINE
  5
324
100
AcDbEntity
  8
text
 62
7
100
AcDbSpline
 70
8
 71
3
 72
8
 73
4
 74
0
 40
0
 40
0
 40
0
 40
0
 40
1
 40
1
 40
1
 40
1
 10
74.554834
 20
57.480785
 30
0.0
 10
73.222713
 20
56.403310
 30
0.0
 10
72.556661
 20
54.973257
 30
0.0
 10
72.556676
 20
53.190618
 30
0.0
  0
SPLINE
  5
325
100
AcDbEntity
  8
text
 62
7
100
AcDbSpline
 70
8
 71
3
 72
8
 73
4
 74
0
 40
0
 40
0
 40
0
 40
0
 40
1
 40
1
 40
1
 40
1
 10
72.556676
 20
53.190618
 30
0.0
 10
72.556661
 20
52.132737
 30
0.0
 10
72.830916
 20
51.187531
 30
0.0
 10
73.379447
 20
50.354995
 30
0.0
  0
SPLINE
  5
326
100
AcDbEntity
  8
text
 62
7
100
AcDbSpline
 70
8
 71
3
 72
8
 73
4
 74
0
 40
0
 40
0
 40
0
 40
0
 40
1
 40
1
 40
1
 40
1
 10
73.379447
 20
50.354995
 30
0.0
 10
73.927945
 20
49.522399
 30
0.0
 10
74.917229
 20
48.704527
 30
0.0
 10
76.347302
 20
47.901374
 30
0.0
  0
SPLINE
  5
327
100
AcDbEntity
  8
text
 62
7
100
AcDbSpline
 70
8
 71
3
 72
8
 73
4
 74
0
 40
0
 40
0
 40
0
 40
0
 40
1
 40
1
 40
1
 40
1
 10
76.347302
 20
47.901374
 30
0.0
 10
77.365952
 20
47.333243
 30
0.0
 10
79.785288
 20
46.206830
 30
0.0
 10
83.605323
 20
44.522132
 30
0.0
  0
SPLINE
  5
328
100
AcDbEntity
  8
text
 62
7
100
AcDbSpline
 70
8
 71
3
 72
8
 73
4
 74
0
 40
0
 40
0
 40
0
 40
0
 40
1
 40
1
 40
1
 40
1
 10
83.605323
 20
44.522132
 30
0.0
 10
86.700482
 20
43.150824
 30
0.0
 10
88.835768
 20
42.073385
 30
0.0
 10
90.011188
 20
41.289815
 30
0.0
  0
SPLINE
  5
329
100
AcDbEntity
  8
text
 62
7
100
AcDbSpline
 70
8
 71
3
 72
8
 73
4
 74
0
 40
0
 40
0
 40
0
 40
0
 40
1
 40
1
 40
1
 40
1
 10
90.011188
 20
41.289815
 30
0.0
 10
91.578336
 20
40.251537
 30
0.0
 10
92.783109
 20
38.992894
 30
0.0
 10
93.625506
 20
37.513882
 30
0.0
  0
SPLINE
  5
32a
100
AcDbEntity
  8
text
 62
7
100
AcDbSpline
 70
8
 71
3
 72
8
 73
4
 74
0
 40
0
 40
0
 40
0
 40
0
 40
1
 40
1
 40
1
 40
1
 10
93.625506
 20
37.513882
 30
0.0
 10
94.467830
 20
36.034837
 30
0.0
 10
94.889009
 20
34.355012
 30
0.0
 10
94.889048
 20
32.474405
 30
0.0
  0
SPLINE
  5
32b
100
AcDbEntity
  8
text
 62
7
100
AcDbSpline
 70
8
 71
3
 72
8
 73
4
 74
0
 40
0
 40
0
 40
0
 40
0
 40
1
 40
1
 40
1
 40
1
 10
94.889048
 20
32.474405
 30
0.0
 10
94.889009
 20
30.143211
 30
0.0
 10
94.178879
 20
27.993232
 30
0.0
 10
92.758657
 20
26.024464
 30
0.0
  0
SPLINE
  5
32c
100
AcDbEntity
  8
text
 62
7
100
AcDbSpline
 70
8
 71
3
 72
8
 73
4
 74
0
 40
0
 40
0
 40
0
 40
0
 40
1
 40
1
 40
1
 40
1
 10
92.758657
 20
26.024464
 30
0.0
 10
91.338362
 20
24.055686
 30
0.0
 10
89.374486
 20
22.532579
 30
0.0
 10
86.867024
 20
21.455143
 30
0.0
  0
SPLINE
  5
32d
100
AcDbEntity
  8
text
 62
7
100
AcDbSpline
 70
8
 71
3
 72
8
 73
4
 74
0
 40
0
 40
0
 40
0
 40
0
 40
1
 40
1
 40
1
 40
1
 10
86.867024
 20
21.455143
 30
0.0
 10
84.359504
 20
20.377704
 30
0.0
 10
81.489599
 20
19.838986
 30
0.0
 10
78.257307
 20
19.838986
 30
0.0
  0
SPLINE
  5
32e
100
AcDbEntity
  8
text
 62
7
100
AcDbSpline
 70
8
 71
3
 72
8
 73
4
 74
0
 40
0
 40
0
 40
0
 40
0
 40
1
 40
1
 40
1
 40
1
 10
78.257307
 20
19.838986
 30
0.0
 10
73.379432
 20
19.838986
 30
0.0
 10
69.397807
 20
20.901731
 30
0.0
 10
66.312426
 20
23.027224
 30
0.0
  0
SPLINE
  5
32f
100
AcDbEntity
  8
text
 62
7
100
AcDbSpline
 70
8
 71
3
 72
8
 73
4
 74
0
 40
0
 40
0
 40
0
 40
0
 40
1
 40
1
 40
1
 40
1
 10
66.312426
 20
23.027224
 30
0.0
 10
63.227027
 20
25.152714
 30
0.0
 10
61.674538
 20
28.977618
 30
0.0
 10
61.654952
 20
34.501951
 30
0.0
  0
LINE
  5
330
100
AcDbEntity
  8
text
 62
7
100
AcDbLine
 10
61.654952
 20
34.501951
 30
0.0
 11
61.654952
 21
34.501951
 31
0.0
  0
LINE
  5
331
100
AcDbEntity
  8
text
 62
7
100
AcDbLine
 10
98.425550
 20
39.572636
 30
0.0
 11
103.127101
 21
40.013405
 31
0.0
  0
LINE
  5
332
100
AcDbEntity
  8
text
 62
7
100
AcDbLine
 10
103.127101
 20
40.013405
 30
0.0
 11
103.078127
 21
38.764557
 31
0.0
  0
SPLINE
  5
333
100
AcDbEntity
  8
text
 62
7
100
AcDbSpline
 70
8
 71
3
 72
8
 73
4
 74
0
 40
0
 40
0
 40
0
 40
0
 40
1
 40
1
 40
1
 40
1
 10
103.078127
 20
38.764557
 30
0.0
 10
103.078118
 20
37.376936
 30
0.0
 10
103.396452
 20
36.107682
 30
0.0
 10
104.033130
 20
34.956789
 30
0.0
  0
SPLINE
  5
334
100
AcDbEntity
  8
text
 62
7
100
AcDbSpline
 70
8
 71
3
 72
8
 73
4
 74
0
 40
0
 40
0
 40
0
 40
0
 40
1
 40
1
 40
1
 40
1
 10
104.033130
 20
34.956789
 30
0.0
 10
104.669789
 20
33.805883
 30
0.0
 10
105.722740
 20
32.916180
 30
0.0
 10
107.191986
 20
32.287679
 30
0.0
  0
SPLINE
  5
335
100
AcDbEntity
  8
text
 62
7
100
AcDbSpline
 70
8
 71
3
 72
8
 73
4
 74
0
 40
0
 40
0
 40
0
 40
0
 40
1
 40
1
 40
1
 40
1
 10
107.191986
 20
32.287679
 30
0.0
 10
108.661206
 20
31.659169
 30
0.0
 10
110.407963
 20
31.344917
 30
0.0
 10
112.432258
 20
31.344919
 30
0.0
  0
SPLINE
  5
336
100
AcDbEntity
  8
text
 62
7
100
AcDbSpline
 70
8
 71
3
 72
8
 73
4
 74
0
 40
0
 40
0
 40
0
 40
0
 40
1
 40
1
 40
1
 40
1
 10
112.432258
 20
31.344919
 30
0.0
 10
115.305406
 20
31.344917
 30
0.0
 10
117.497013
 20
31.973422
 30
0.0
 10
119.007084
 20
33.230437
 30
0.0
  0
SPLINE
  5
337
100
AcDbEntity
  8
text
 62
7
100
AcDbSpline
 70
8
 71
3
 72
8
 73
4
 74
0
 40
0
 40
0
 40
0
 40
0
 40
1
 40
1
 40
1
 40
1
 10
119.007084
 20
33.230437
 30
0.0
 10
120.517105
 20
34.487444
 30
0.0
 10
121.272128
 20
35.924026
 30
0.0
 10
121.272154
 20
37.540194
 30
0.0
  0
SPLINE
  5
338
100
AcDbEntity
  8
text
 62
7
100
AcDbSpline
 70
8
 71
3
 72
8
 73
4
 74
0
 40
0
 40
0
 40
0
 40
0
 40
1
 40
1
 40
1
 40
1
 10
121.272154
 20
37.540194
 30
0.0
 10
121.272128
 20
38.666597
 30
0.0
 10
120.872170
 20
39.695061
 30
0.0
 10
120.072278
 20
40.625587
 30
0.0
  0
SPLINE
  5
339
100
AcDbEntity
  8
text
 62
7
100
AcDbSpline
 70
8
 71
3
 72
8
 73
4
 74
0
 40
0
 40
0
 40
0
 40
0
 40
1
 40
1
 40
1
 40
1
 10
120.072278
 20
40.625587
 30
0.0
 10
119.256013
 20
41.539765
 30
0.0
 10
117.027674
 20
42.780451
 30
0.0
 10
113.387259
 20
44.347649
 30
0.0
  0
SPLINE
  5
33a
100
AcDbEntity
  8
text
 62
7
100
AcDbSpline
 70
8
 71
3
 72
8
 73
4
 74
0
 40
0
 40
0
 40
0
 40
0
 40
1
 40
1
 40
1
 40
1
 10
113.387259
 20
44.347649
 30
0.0
 10
110.563048
 20
45.571994
 30
0.0
 10
108.636720
 20
46.510671
 30
0.0
 10
107.608269
 20
47.163684
 30
0.0
  0
SPLINE
  5
33b
100
AcDbEntity
  8
text
 62
7
100
AcDbSpline
 70
8
 71
3
 72
8
 73
4
 74
0
 40
0
 40
0
 40
0
 40
0
 40
1
 40
1
 40
1
 40
1
 10
107.608269
 20
47.163684
 30
0.0
 10
105.992099
 20
48.224777
 30
0.0
 10
104.800387
 20
49.379758
 30
0.0
 10
104.033130
 20
50.628628
 30
0.0
  0
SPLINE
  5
33c
100
AcDbEntity
  8
text
 62
7
100
AcDbSpline
 70
8
 71
3
 72
8
 73
4
 74
0
 40
0
 40
0
 40
0
 40
0
 40
1
 40
1
 40
1
 40
1
 10
104.033130
 20
50.628628
 30
0.0
 10
103.265855
 20
51.877455
 30
0.0
 10
102.882222
 20
53.301795
 30
0.0
 10
102.882229
 20
54.901653
 30
0.0
  0
SPLINE
  5
33d
100
AcDbEntity
  8
text
 62
7
100
AcDbSpline
 70
8
 71
3
 72
8
 73
4
 74
0
 40
0
 40
0
 40
0
 40
0
 40
1
 40
1
 40
1
 40
1
 10
102.882229
 20
54.901653
 30
0.0
 10
102.882222
 20
56.746331
 30
0.0
 10
103.388290
 20
58.411463
 30
0.0
 10
104.400439
 20
59.897053
 30
0.0
  0
SPLINE
  5
33e
100
AcDbEntity
  8
text
 62
7
100
AcDbSpline
 70
8
 71
3
 72
8
 73
4
 74
0
 40
0
 40
0
 40
0
 40
0
 40
1
 40
1
 40
1
 40
1
 10
104.400439
 20
59.897053
 30
0.0
 10
105.412568
 20
61.382580
 30
0.0
 10
106.894044
 20
62.517153
 30
0.0
 10
108.844874
 20
63.300781
 30
0.0
  0
SPLINE
  5
33f
100
AcDbEntity
  8
text
 62
7
100
AcDbSpline
 70
8
 71
3
 72
8
 73
4
 74
0
 40
0
 40
0
 40
0
 40
0
 40
1
 40
1
 40
1
 40
1
 10
108.844874
 20
63.300781
 30
0.0
 10
110.795676
 20
64.084336
 30
0.0
 10
112.995445
 20
64.476132
 30
0.0
 10
115.444189
 20
64.476169
 30
0.0
  0
SPLINE
  5
340
100
AcDbEntity
  8
text
 62
7
100
AcDbSpline
 70
8
 71
3
 72
8
 73
4
 74
0
 40
0
 40
0
 40
0
 40
0
 40
1
 40
1
 40
1
 40
1
 10
115.444189
 20
64.476169
 30
0.0
 10
118.366310
 20
64.476132
 30
0.0
 10
120.831357
 20
63.986389
 30
0.0
 10
122.839339
 20
63.006933
 30
0.0
  0
SPLINE
  5
341
100
AcDbEntity
  8
text
 62
7
100
AcDbSpline
 70
8
 71
3
 72
8
 73
4
 74
0
 40
0
 40
0
 40
0
 40
0
 40
1
 40
1
 40
1
 40
1
 10
122.839339
 20
63.006933
 30
0.0
 10
124.847262
 20
62.027410
 30
0.0
 10
126.304253
 20
60.721424
 30
0.0
 10
127.210311
 20
59.088973
 30
0.0
  0
SPLINE
  5
342
100
AcDbEntity
  8
text
 62
7
100
AcDbSpline
 70
8
 71
3
 72
8
 73
4
 74
0
 40
0
 40
0
 40
0
 40
0
 40
1
 40
1
 40
1
 40
1
 10
127.210311
 20
59.088973
 30
0.0
 10
128.116308
 20
57.456462
 30
0.0
 10
128.569320
 20
55.897441
 30
0.0
 10
128.569354
 20
54.411910
 30
0.0
  0
SPLINE
  5
343
100
AcDbEntity
  8
text
 62
7
100
AcDbSpline
 70
8
 71
3
 72
8
 73
4
 74
0
 40
0
 40
0
 40
0
 40
0
 40
1
 40
1
 40
1
 40
1
 10
128.569354
 20
54.411910
 30
0.0
 10
128.569320
 20
54.264960
 30
0.0
 10
128.561158
 20
54.020087
 30
0.0
 10
128.544868
 20
53.677291
 30
0.0
  0
LINE
  5
344
100
AcDbEntity
  8
text
 62
7
100
AcDbLine
 10
128.544868
 20
53.677291
 30
0.0
 11
123.916777
 21
53.309983
 31
0.0
  0
SPLINE
  5
345
100
AcDbEntity
  8
text
 62
7
100
AcDbSpline
 70
8
 71
3
 72
8
 73
4
 74
0
 40
0
 40
0
 40
0
 40
0
 40
1
 40
1
 40
1
 40
1
 10
123.916777
 20
53.309983
 30
0.0
 10
123.916747
 20
54.322097
 30
0.0
 10
123.826963
 20
55.113850
 30
0.0
 10
123.647418
 20
55.685247
 30
0.0
  0
SPLINE
  5
346
100
AcDbEntity
  8
text
 62
7
100
AcDbSpline
 70
8
 71
3
 72
8
 73
4
 74
0
 40
0
 40
0
 40
0
 40
0
 40
1
 40
1
 40
1
 40
1
 10
123.647418
 20
55.685247
 30
0.0
 10
123.320893
 20
56.681033
 30
0.0
 10
122.814823
 20
57.521761
 30
0.0
 10
122.129208
 20
58.207433
 30
0.0
  0
SPLINE
  5
347
100
AcDbEntity
  8
text
 62
7
100
AcDbSpline
 70
8
 71
3
 72
8
 73
4
 74
0
 40
0
 40
0
 40
0
 40
0
 40
1
 40
1
 40
1
 40
1
 10
122.129208
 20
58.207433
 30
0.0
 10
121.443538
 20
58.893045
 30
0.0
 10
120.500780
 20
59.444008
 30
0.0
 10
119.300930
 20
59.860323
 30
0.0
  0
SPLINE
  5
348
100
AcDbEntity
  8
text
 62
7
100
AcDbSpline
 70
8
 71
3
 72
8
 73
4
 74
0
 40
0
 40
0
 40
0
 40
0
 40
1
 40
1
 40
1
 40
1
 10
119.300930
 20
59.860323
 30
0.0
 10
118.101032
 20
60.276574
 30
0.0
 10
116.758315
 20
60.484715
 30
0.0
 10
115.272777
 20
60.484748
 30
0.0
  0
SPLINE
  5
349
100
AcDbEntity
  8
text
 62
7
100
AcDbSpline
 70
8
 71
3
 72
8
 73
4
 74
0
 40
0
 40
0
 40
0
 40
0
 40
1
 40
1
 40
1
 40
1
 10
115.272777
 20
60.484748
 30
0.0
 10
112.660787
 20
60.484715
 30
0.0
 10
110.628347
 20
59.897020
 30
0.0
 10
109.175453
 20
58.721665
 30
0.0
  0
SPLINE
  5
34a
100
AcDbEntity
  8
text
 62
7
100
AcDbSpline
 70
8
 71
3
 72
8
 73
4
 74
0
 40
0
 40
0
 40
0
 40
0
 40
1
 40
1
 40
1
 40
1
 10
109.175453
 20
58.721665
 30
0.0
 10
108.065351
 20
57.823770
 30
0.0
 10
107.510307
 20
56.632058
 30
0.0
 10
107.510319
 20
55.146526
 30
0.0
  0
SPLINE
  5
34b
100
AcDbEntity
  8
text
 62
7
100
AcDbSpline
 70
8
 71
3
 72
8
 73
4
 74
0
 40
0
 40
0
 40
0
 40
0
 40
1
 40
1
 40
1
 40
1
 10
107.510319
 20
55.146526
 30
0.0
 10
107.510307
 20
54.264960
 30
0.0
 10
107.738855
 20
53.477286
 30
0.0
 10
108.195964
 20
52.783507
 30
0.0
  0
SPLINE
  5
34c
100
AcDbEntity
  8
text
 62
7
100
AcDbSpline
 70
8
 71
3
 72
8
 73
4
 74
0
 40
0
 40
0
 40
0
 40
0
 40
1
 40
1
 40
1
 40
1
 10
108.195964
 20
52.783507
 30
0.0
 10
108.653044
 20
52.089678
 30
0.0
 10
109.477448
 20
51.408117
 30
0.0
 10
110.669175
 20
50.738822
 30
0.0
  0
SPLINE
  5
34d
100
AcDbEntity
  8
text
 62
7
100
AcDbSpline
 70
8
 71
3
 72
8
 73
4
 74
0
 40
0
 40
0
 40
0
 40
0
 40
1
 40
1
 40
1
 40
1
 10
110.669175
 20
50.738822
 30
0.0
 10
111.518050
 20
50.265379
 30
0.0
 10
113.534165
 20
49.326702
 30
0.0
 10
116.717526
 20
47.922787
 30
0.0
  0
SPLINE
  5
34e
100
AcDbEntity
  8
text
 62
7
100
AcDbSpline
 70
8
 71
3
 72
8
 73
4
 74
0
 40
0
 40
0
 40
0
 40
0
 40
1
 40
1
 40
1
 40
1
 10
116.717526
 20
47.922787
 30
0.0
 10
119.296825
 20
46.780030
 30
0.0
 10
121.076230
 20
45.882166
 30
0.0
 10
122.055745
 20
45.229191
 30
0.0
  0
SPLINE
  5
34f
100
AcDbEntity
  8
text
 62
7
100
AcDbSpline
 70
8
 71
3
 72
8
 73
4
 74
0
 40
0
 40
0
 40
0
 40
0
 40
1
 40
1
 40
1
 40
1
 10
122.055745
 20
45.229191
 30
0.0
 10
123.361705
 20
44.363958
 30
0.0
 10
124.365681
 20
43.315088
 30
0.0
 10
125.067677
 20
42.082579
 30
0.0
  0
SPLINE
  5
350
100
AcDbEntity
  8
text
 62
7
100
AcDbSpline
 70
8
 71
3
 72
8
 73
4
 74
0
 40
0
 40
0
 40
0
 40
0
 40
1
 40
1
 40
1
 40
1
 10
125.067677
 20
42.082579
 30
0.0
 10
125.769615
 20
40.850041
 30
0.0
 10
126.120597
 20
39.450188
 30
0.0
 10
126.120629
 20
37.883016
 30
0.0
  0
SPLINE
  5
351
100
AcDbEntity
  8
text
 62
7
100
AcDbSpline
 70
8
 71
3
 72
8
 73
4
 74
0
 40
0
 40
0
 40
0
 40
0
 40
1
 40
1
 40
1
 40
1
 10
126.120629
 20
37.883016
 30
0.0
 10
126.120597
 20
35.940353
 30
0.0
 10
125.528823
 20
34.148703
 30
0.0
 10
124.345303
 20
32.508064
 30
0.0
  0
SPLINE
  5
352
100
AcDbEntity
  8
text
 62
7
100
AcDbSpline
 70
8
 71
3
 72
8
 73
4
 74
0
 40
0
 40
0
 40
0
 40
0
 40
1
 40
1
 40
1
 40
1
 10
124.345303
 20
32.508064
 30
0.0
 10
123.161726
 20
30.867416
 30
0.0
 10
121.525163
 20
29.598160
 30
0.0
 10
119.435610
 20
28.700295
 30
0.0
  0
SPLINE
  5
353
100
AcDbEntity
  8
text
 62
7
100
AcDbSpline
 70
8
 71
3
 72
8
 73
4
 74
0
 40
0
 40
0
 40
0
 40
0
 40
1
 40
1
 40
1
 40
1
 10
119.435610
 20
28.700295
 30
0.0
 10
117.346008
 20
27.802431
 30
0.0
 10
114.954424
 20
27.353498
 30
0.0
 10
112.260846
 20
27.353498
 30
0.0
  0
SPLINE
  5
354
100
AcDbEntity
  8
text
 62
7
100
AcDbSpline
 70
8
 71
3
 72
8
 73
4
 74
0
 40
0
 40
0
 40
0
 40
0
 40
1
 40
1
 40
1
 40
1
 10
112.260846
 20
27.353498
 30
0.0
 10
108.195949
 20
27.353498
 30
0.0
 10
104.877931
 20
28.239119
 30
0.0
 10
102.306779
 20
30.010364
 30
0.0
  0
SPLINE
  5
355
100
AcDbEntity
  8
text
 62
7
100
AcDbSpline
 70
8
 71
3
 72
8
 73
4
 74
0
 40
0
 40
0
 40
0
 40
0
 40
1
 40
1
 40
1
 40
1
 10
102.306779
 20
30.010364
 30
0.0
 10
99.735612
 20
31.781605
 30
0.0
 10
98.441872
 20
34.969025
 30
0.0
 10
98.425550
 20
39.572636
 30
0.0
  0
LINE
  5
356
100
AcDbEntity
  8
text
 62
7
100
AcDbLine
 10
98.425550
 20
39.572636
 30
0.0
 11
98.425550
 21
39.572636
 31
0.0
  0
LINE
  5
357
100
AcDbEntity
  8
text
 62
7
100
AcDbLine
 10
144.345073
 20
34.594991
 30
0.0
 11
150.677650
 21
64.834592
 31
0.0
  0
LINE
  5
358
100
AcDbEntity
  8
text
 62
7
100
AcDbLine
 10
150.677650
 20
64.834592
 30
0.0
 11
160.042438
 21
64.834592
 31
0.0
  0
SPLINE
  5
359
100
AcDbEntity
  8
text
 62
7
100
AcDbSpline
 70
8
 71
3
 72
8
 73
4
 74
0
 40
0
 40
0
 40
0
 40
0
 40
1
 40
1
 40
1
 40
1
 10
160.042438
 20
64.834592
 30
0.0
 10
161.747608
 20
64.834560
 30
0.0
 10
163.012746
 20
64.765802
 30
0.0
 10
163.837858
 20
64.628318
 30
0.0
  0
SPLINE
  5
35a
100
AcDbEntity
  8
text
 62
7
100
AcDbSpline
 70
8
 71
3
 72
8
 73
4
 74
0
 40
0
 40
0
 40
0
 40
0
 40
1
 40
1
 40
1
 40
1
 10
163.837858
 20
64.628318
 30
0.0
 10
165.185485
 20
64.394512
 30
0.0
 10
166.323422
 20
63.985404
 30
0.0
 10
167.251673
 20
63.400994
 30
0.0
  0
SPLINE
  5
35b
100
AcDbEntity
  8
text
 62
7
100
AcDbSpline
 70
8
 71
3
 72
8
 73
4
 74
0
 40
0
 40
0
 40
0
 40
0
 40
1
 40
1
 40
1
 40
1
 10
167.251673
 20
63.400994
 30
0.0
 10
168.179876
 20
62.816526
 30
0.0
 10
168.898392
 20
62.018939
 30
0.0
 10
169.407224
 20
61.008229
 30
0.0
  0
SPLINE
  5
35c
100
AcDbEntity
  8
text
 62
7
100
AcDbSpline
 70
8
 71
3
 72
8
 73
4
 74
0
 40
0
 40
0
 40
0
 40
0
 40
1
 40
1
 40
1
 40
1
 10
169.407224
 20
61.008229
 30
0.0
 10
169.916004
 20
59.997467
 30
0.0
 10
170.170406
 20
58.880157
 30
0.0
 10
170.170434
 20
57.656296
 30
0.0
  0
SPLINE
  5
35d
100
AcDbEntity
  8
text
 62
7
100
AcDbSpline
 70
8
 71
3
 72
8
 73
4
 74
0
 40
0
 40
0
 40
0
 40
0
 40
1
 40
1
 40
1
 40
1
 10
170.170434
 20
57.656296
 30
0.0
 10
170.170406
 20
55.992339
 30
0.0
 10
169.713169
 20
54.527803
 30
0.0
 10
168.798720
 20
53.262684
 30
0.0
  0
SPLINE
  5
35e
100
AcDbEntity
  8
text
 62
7
100
AcDbSpline
 70
8
 71
3
 72
8
 73
4
 74
0
 40
0
 40
0
 40
0
 40
0
 40
1
 40
1
 40
1
 40
1
 10
168.798720
 20
53.262684
 30
0.0
 10
167.884219
 20
51.997526
 30
0.0
 10
166.485003
 20
51.034921
 30
0.0
 10
164.601068
 20
50.374863
 30
0.0
  0
SPLINE
  5
35f
100
AcDbEntity
  8
text
 62
7
100
AcDbSpline
 70
8
 71
3
 72
8
 73
4
 74
0
 40
0
 40
0
 40
0
 40
0
 40
1
 40
1
 40
1
 40
1
 10
164.601068
 20
50.374863
 30
0.0
 10
166.237474
 20
49.838540
 30
0.0
 10
167.461359
 20
49.030638
 30
0.0
 10
168.272724
 20
47.951157
 30
0.0
  0
SPLINE
  5
360
100
AcDbEntity
  8
text
 62
7
100
AcDbSpline
 70
8
 71
3
 72
8
 73
4
 74
0
 40
0
 40
0
 40
0
 40
0
 40
1
 40
1
 40
1
 40
1
 10
168.272724
 20
47.951157
 30
0.0
 10
169.084037
 20
46.871651
 30
0.0
 10
169.489707
 20
45.609950
 30
0.0
 10
169.489733
 20
44.166052
 30
0.0
  0
SPLINE
  5
361
100
AcDbEntity
  8
text
 62
7
100
AcDbSpline
 70
8
 71
3
 72
8
 73
4
 74
0
 40
0
 40
0
 40
0
 40
0
 40
1
 40
1
 40
1
 40
1
 10
169.489733
 20
44.166052
 30
0.0
 10
169.489707
 20
42.502108
 30
0.0
 10
169.011841
 20
40.906934
 30
0.0
 10
168.056138
 20
39.380521
 30
0.0
  0
SPLINE
  5
362
100
AcDbEntity
  8
text
 62
7
100
AcDbSpline
 70
8
 71
3
 72
8
 73
4
 74
0
 40
0
 40
0
 40
0
 40
0
 40
1
 40
1
 40
1
 40
1
 10
168.056138
 20
39.380521
 30
0.0
 10
167.100381
 20
37.854098
 30
0.0
 10
165.835243
 20
36.674907
 30
0.0
 10
164.260718
 20
35.842943
 30
0.0
  0
SPLINE
  5
363
100
AcDbEntity
  8
text
 62
7
100
AcDbSpline
 70
8
 71
3
 72
8
 73
4
 74
0
 40
0
 40
0
 40
0
 40
0
 40
1
 40
1
 40
1
 40
1
 10
164.260718
 20
35.842943
 30
0.0
 10
162.686148
 20
35.010974
 30
0.0
 10
160.929393
 20
34.594991
 30
0.0
 10
158.990447
 20
34.594991
 30
0.0
  0
LINE
  5
364
100
AcDbEntity
  8
text
 62
7
100
AcDbLine
 10
158.990447
 20
34.594991
 30
0.0
 11
144.345073
 21
34.594991
 31
0.0
  0
LINE
  5
365
100
AcDbEntity
  8
text
 62
7
100
AcDbLine
 10
152.018424
 20
51.921910
 30
0.0
 11
158.144728
 21
51.921910
 31
0.0
  0
SPLINE
  5
366
100
AcDbEntity
  8
text
 62
7
100
AcDbSpline
 70
8
 71
3
 72
8
 73
4
 74
0
 40
0
 40
0
 40
0
 40
0
 40
1
 40
1
 40
1
 40
1
 10
158.144728
 20
51.921910
 30
0.0
 10
161.073783
 20
51.921893
 30
0.0
 10
163.181201
 20
52.389444
 30
0.0
 10
164.466991
 20
53.324565
 30
0.0
  0
SPLINE
  5
367
100
AcDbEntity
  8
text
 62
7
100
AcDbSpline
 70
8
 71
3
 72
8
 73
4
 74
0
 40
0
 40
0
 40
0
 40
0
 40
1
 40
1
 40
1
 40
1
 10
164.466991
 20
53.324565
 30
0.0
 10
165.752734
 20
54.259649
 30
0.0
 10
166.395618
 20
55.621048
 30
0.0
 10
166.395642
 20
57.408769
 30
0.0
  0
SPLINE
  5
368
100
AcDbEntity
  8
text
 62
7
100
AcDbSpline
 70
8
 71
3
 72
8
 73
4
 74
0
 40
0
 40
0
 40
0
 40
0
 40
1
 40
1
 40
1
 40
1
 10
166.395642
 20
57.408769
 30
0.0
 10
166.395618
 20
58.261338
 30
0.0
 10
166.196221
 20
58.997044
 30
0.0
 10
165.797450
 20
59.615887
 30
0.0
  0
SPLINE
  5
369
100
AcDbEntity
  8
text
 62
7
100
AcDbSpline
 70
8
 71
3
 72
8
 73
4
 74
0
 40
0
 40
0
 40
0
 40
0
 40
1
 40
1
 40
1
 40
1
 10
165.797450
 20
59.615887
 30
0.0
 10
165.398634
 20
60.234681
 30
0.0
 10
164.865762
 20
60.685041
 30
0.0
 10
164.198834
 20
60.966975
 30
0.0
  0
SPLINE
  5
36a
100
AcDbEntity
  8
text
 62
7
100
AcDbSpline
 70
8
 71
3
 72
8
 73
4
 74
0
 40
0
 40
0
 40
0
 40
0
 40
1
 40
1
 40
1
 40
1
 10
164.198834
 20
60.966975
 30
0.0
 10
163.531866
 20
61.248854
 30
0.0
 10
162.277041
 20
61.389807
 30
0.0
 10
160.434355
 20
61.389835
 30
0.0
  0
LINE
  5
36b
100
AcDbEntity
  8
text
 62
7
100
AcDbLine
 10
160.434355
 20
61.389835
 30
0.0
 11
153.998643
 21
61.389835
 31
0.0
  0
LINE
  5
36c
100
AcDbEntity
  8
text
 62
7
100
AcDbLine
 10
153.998643
 20
61.389835
 30
0.0
 11
152.018424
 21
51.921910
 31
0.0
  0
LINE
  5
36d
100
AcDbEntity
  8
text
 62
7
100
AcDbLine
 10
149.109976
 20
38.019120
 30
0.0
 11
155.999490
 21
38.019120
 31
0.0
  0
SPLINE
  5
36e
100
AcDbEntity
  8
text
 62
7
100
AcDbSpline
 70
8
 71
3
 72
8
 73
4
 74
0
 40
0
 40
0
 40
0
 40
0
 40
1
 40
1
 40
1
 40
1
 10
155.999490
 20
38.019120
 30
0.0
 10
157.828428
 20
38.019118
 30
0.0
 10
159.059187
 20
38.080999
 30
0.0
 10
159.691773
 20
38.204765
 30
0.0
  0
SPLINE
  5
36f
100
AcDbEntity
  8
text
 62
7
100
AcDbSpline
 70
8
 71
3
 72
8
 73
4
 74
0
 40
0
 40
0
 40
0
 40
0
 40
1
 40
1
 40
1
 40
1
 10
159.691773
 20
38.204765
 30
0.0
 10
160.970646
 20
38.424786
 30
0.0
 10
162.008886
 20
38.799516
 30
0.0
 10
162.806495
 20
39.328953
 30
0.0
  0
SPLINE
  5
370
100
AcDbEntity
  8
text
 62
7
100
AcDbSpline
 70
8
 71
3
 72
8
 73
4
 74
0
 40
0
 40
0
 40
0
 40
0
 40
1
 40
1
 40
1
 40
1
 10
162.806495
 20
39.328953
 30
0.0
 10
163.604060
 20
39.858382
 30
0.0
 10
164.229754
 20
40.556271
 30
0.0
 10
164.683577
 20
41.422621
 30
0.0
  0
SPLINE
  5
371
100
AcDbEntity
  8
text
 62
7
100
AcDbSpline
 70
8
 71
3
 72
8
 73
4
 74
0
 40
0
 40
0
 40
0
 40
0
 40
1
 40
1
 40
1
 40
1
 10
164.683577
 20
41.422621
 30
0.0
 10
165.137355
 20
42.288961
 30
0.0
 10
165.364254
 20
43.196561
 30
0.0
 10
165.364278
 20
44.145424
 30
0.0
  0
SPLINE
  5
372
100
AcDbEntity
  8
text
 62
7
100
AcDbSpline
 70
8
 71
3
 72
8
 73
4
 74
0
 40
0
 40
0
 40
0
 40
0
 40
1
 40
1
 40
1
 40
1
 10
165.364278
 20
44.145424
 30
0.0
 10
165.364254
 20
45.561820
 30
0.0
 10
164.920767
 20
46.637877
 30
0.0
 10
164.033817
 20
47.373593
 30
0.0
  0
SPLINE
  5
373
100
AcDbEntity
  8
text
 62
7
100
AcDbSpline
 70
8
 71
3
 72
8
 73
4
 74
0
 40
0
 40
0
 40
0
 40
0
 40
1
 40
1
 40
1
 40
1
 10
164.033817
 20
47.373593
 30
0.0
 10
163.146824
 20
48.109286
 30
0.0
 10
161.458826
 20
48.477140
 30
0.0
 10
158.969819
 20
48.477153
 30
0.0
  0
LINE
  5
374
100
AcDbEntity
  8
text
 62
7
100
AcDbLine
 10
158.969819
 20
48.477153
 30
0.0
 11
151.296468
 21
48.477153
 31
0.0
  0
LINE
  5
375
100
AcDbEntity
  8
text
 62
7
100
AcDbLine
 10
151.296468
 20
48.477153
 30
0.0
 11
149.109976
 21
38.019120
 31
0.0
  0
LINE
  5
376
100
AcDbEntity
  8
text
 62
7
100
AcDbLine
 10
204.879997
 20
34.594991
 30
0.0
 11
210.469990
 21
61.389835
 31
0.0
  0
LINE
  5
377
100
AcDbEntity
  8
text
 62
7
100
AcDbLine
 10
210.469990
 20
61.389835
 30
0.0
 11
200.548266
 21
61.389835
 31
0.0
  0
LINE
  5
378
100
AcDbEntity
  8
text
 62
7
100
AcDbLine
 10
200.548266
 20
61.389835
 30
0.0
 11
201.270220
 21
64.834592
 31
0.0
  0
LINE
  5
379
100
AcDbEntity
  8
text
 62
7
100
AcDbLine
 10
201.270220
 20
64.834592
 30
0.0
 11
225.074107
 21
64.834592
 31
0.0
  0
LINE
  5
37a
100
AcDbEntity
  8
text
 62
7
100
AcDbLine
 10
225.074107
 20
64.834592
 30
0.0
 11
224.352152
 21
61.389835
 31
0.0
  0
LINE
  5
37b
100
AcDbEntity
  8
text
 62
7
100
AcDbLine
 10
224.352152
 20
61.389835
 30
0.0
 11
214.512937
 21
61.389835
 31
0.0
  0
LINE
  5
37c
100
AcDbEntity
  8
text
 62
7
100
AcDbLine
 10
214.512937
 20
61.389835
 30
0.0
 11
208.922943
 21
34.594991
 31
0.0
  0
LINE
  5
37d
100
AcDbEntity
  8
text
 62
7
100
AcDbLine
 10
208.922943
 20
34.594991
 30
0.0
 11
204.879997
 21
34.594991
 31
0.0
  0
LINE
  5
37e
100
AcDbEntity
  8
text
 62
7
100
AcDbLine
 10
129.759446
 20
46.720334
 30
0.0
 11
130.656290
 21
50.844229
 31
0.0
  0
LINE
  5
37f
100
AcDbEntity
  8
text
 62
7
100
AcDbLine
 10
130.656290
 20
50.844229
 30
0.0
 11
143.684110
 21
50.844229
 31
0.0
  0
LINE
  5
380
100
AcDbEntity
  8
text
 62
7
100
AcDbLine
 10
143.684110
 20
50.844229
 30
0.0
 11
142.810869
 21
46.720334
 31
0.0
  0
LINE
  5
381
100
AcDbEntity
  8
text
 62
7
100
AcDbLine
 10
142.810869
 20
46.720334
 30
0.0
 11
129.759446
 21
46.720334
 31
0.0
  0
ENDSEC
  0
SECTION
  2
OBJECTS
  0
DICTIONARY
  5
C
330
0
100
AcDbDictionary
  3
ACAD_GROUP
350
D
  3
ACAD_MLINESTYLE
350
17
  0
DICTIONARY
  5
D
330
C
100
AcDbDictionary
  0
DICTIONARY
  5
1A
330
C
100
AcDbDictionary
  0
DICTIONARY
  5
17
330
C
100
AcDbDictionary
  3
STANDARD
350
18
  0
DICTIONARY
  5
19
330
C
100
AcDbDictionary
  0
ENDSEC
  0
EOF
