<?xml version="1.0" encoding="UTF-8" standalone="no"?>
<!-- Created with Inkscape (http://www.inkscape.org/) -->

<svg
   xmlns:dc="http://purl.org/dc/elements/1.1/"
   xmlns:cc="http://creativecommons.org/ns#"
   xmlns:rdf="http://www.w3.org/1999/02/22-rdf-syntax-ns#"
   xmlns:svg="http://www.w3.org/2000/svg"
   xmlns="http://www.w3.org/2000/svg"
   xmlns:sodipodi="http://sodipodi.sourceforge.net/DTD/sodipodi-0.dtd"
   xmlns:inkscape="http://www.inkscape.org/namespaces/inkscape"
   width="210mm"
   height="297mm"
   id="svg3195"
   version="1.1"
   inkscape:version="0.48.4 r9939"
   sodipodi:docname="New document 11">
  <defs
     id="defs3" />
  <sodipodi:namedview
     inkscape:document-units="mm"
     id="base"
     pagecolor="#ffffff"
     bordercolor="#666666"
     borderopacity="1.0"
     inkscape:pageopacity="0.0"
     inkscape:pageshadow="2"
     inkscape:zoom="1.7748908"
     inkscape:cx="327.1874"
     inkscape:cy="488.57143"
     inkscape:current-layer="layer1"
     showgrid="false"
     inkscape:window-width="1600"
     inkscape:window-height="1148"
     inkscape:window-x="-8"
     inkscape:window-y="-8"
     inkscape:window-maximized="1" />
  <metadata
     id="metadata4">
    <rdf:RDF>
      <cc:Work
         rdf:about="">
        <dc:format>image/svg+xml</dc:format>
        <dc:type
           rdf:resource="http://purl.org/dc/dcmitype/StillImage" />
        <dc:title></dc:title>
      </cc:Work>
    </rdf:RDF>
  </metadata>
  <g
     inkscape:label="Layer 1"
     inkscape:groupmode="layer"
     id="layer1">
    <path
       style="fill:#000000"
       d="m 386.875,407.96875 c -7.55165,1.99721 -15.14685,5.19184 -21.3125,10.03125 -7.89366,6.20816 -18.16783,9.12395 -27.1052,13.8537 -25.18798,11.67046 -50.16956,23.93359 -75.90684,34.15298 -4.65926,2.01458 -9.18461,4.26438 -13.73796,6.46207 11.1404,-10.93009 21.03828,-23.89762 33.25,-33.28125 5.5486,-3.18467 10.91348,-7.90125 13.96875,-13.5 -0.37475,-4.78568 -7.33079,-3.29224 -10.71875,-3.09375 -5.73992,2.28275 -10.37344,7.68539 -13.1875,13.03125 -2.58114,6.71844 -9.58902,11.0022 -14.01318,16.59602 -16.41364,17.02833 -32.68949,34.34847 -50.71096,49.59364 -4.34654,4.00522 -8.08765,8.72172 -11.90086,13.27909 1.62798,-12.50011 0.55939,-25.4959 3.1875,-37.75 5.35917,-4.10979 2.7903,-11.911 3.40625,-17.625 -5.96504,1.88955 -17.43498,1.59955 -16.71875,10.59375 -0.29292,3.14551 -1.10959,9.05851 3.59375,9 -1.857,18.58223 -1.46847,37.55364 -4.84375,55.875 -3.8726,8.40609 -4.41412,17.92613 -3.34375,27.0625 -12.94449,-9.85008 -27.06897,-18.60737 -39.40625,-29 3.12029,-4.75277 -4.43168,-7.40684 -7.17917,-9.83087 -2.76486,-2.25923 -6.47243,-4.47544 -9.72708,-1.73163 -2.8327,2.23933 -9.92233,3.45862 -8.625,8.21875 3.30209,4.4545 8.07921,9.02631 13.75,9.90625 4.25288,-2.51743 7.68184,2.93133 11.21875,4.59375 15.09834,11.75675 31.44053,22.29057 46.0625,34.71875 10.48049,12.87941 24.20152,23.47815 40.45144,27.96407 18.59772,6.42049 39.34091,7.77307 58.29856,7.87968 -31.33872,10.13856 -62.27205,21.93982 -93.78125,31.59375 -5.11865,-3.02478 -11.65059,1.25513 -16.96875,2.375 -7.21033,3.25823 -16.45735,3.75671 -22.03125,9.75 -1.47473,3.68553 -1.03875,9.25032 2.09375,11.875 7.31537,1.32052 14.26834,-3.89057 21.25722,-5.42162 5.26148,-2.71857 12.96623,-2.72866 16.58653,-7.82838 1.17718,-3.96791 7.36827,-3.57548 10.48477,-5.56224 39.93034,-13.27254 79.73981,-27.84689 119.79648,-40.59401 18.94976,-4.45721 38.09647,-9.30995 55.875,-17.34375 -21.27304,19.83968 -42.92749,39.58281 -64.28125,59.28125 -2.62932,1.81079 -6.31129,-0.3448 -8.75,2.5625 -8.1517,6.94059 -16.72709,13.8732 -23.21875,22.34375 0.2632,4.68947 6.61196,6.22914 10.125,8.28125 6.30851,3.53236 10.69473,-4.89288 15.15436,-7.79703 4.8378,-5.5497 12.41276,-9.46682 15.40814,-16.29672 0.3953,-2.0461 -2.39477,-3.83056 0.5,-5.15625 28.00671,-25.6026 55.60184,-52.14482 83.8125,-77.625 13.96694,-9.60355 27.45757,-20.06838 38.3125,-33.09375 -1.43406,20.64224 -3.46809,41.39946 -4.96875,61.9375 -6.7737,-0.37714 -6.6083,8.20425 -7.125,12.84375 -0.42096,5.88422 -0.8065,11.77125 -1.21875,17.65625 7.4635,-0.83669 15.18523,-0.31078 22.5,-2.0625 1.84328,-9.22717 1.27853,-18.9897 2.21875,-28.40625 -2.95776,0.21186 -6.69618,0.90906 -5.25,-3.3125 1.81926,-24.92369 2.73534,-50.05977 5.6875,-74.8125 2.18131,-8.60397 5.51854,-17.018 4.71875,-26.125 -0.18514,-4.39204 -0.54518,-9.85929 4.1875,-3.90625 14.43732,12.06945 29.45196,24.23662 43.46875,36.3125 -4.087,3.83329 2.86659,7.54149 5.21237,9.82538 4.97888,3.01643 8.96351,10.33466 15.41263,9.83087 4.52774,-2.02324 10.78573,-3.42412 13.21875,-8.0625 -1.63824,-5.12191 -7.84158,-7.75522 -11.625,-11.4375 -3.62995,-3.40942 -8.23536,-5.49009 -13.1875,-5.71875 -11.47597,-7.23412 -21.32572,-17.18724 -32.21875,-25.46875 -13.72092,-11.21886 -27.84182,-21.53275 -39.09375,-35.21875 -3.17708,-3.022 -6.59347,-5.75114 -10.21875,-8.1875 23.45545,3.58534 47.05473,7.03619 70.375,11.0625 3.22602,4.39204 10.20224,3.27545 14.9375,4.875 5.03461,-0.32388 11.72529,4.26321 15.71562,0.86461 1.9645,-2.56305 8.48596,-7.23635 4.28438,-10.45836 -9.35848,-2.38572 -19.4111,-3.74428 -29.125,-3.1875 -6.94769,1.76059 -14.32035,-1.99393 -21.39523,-2.13467 -31.13466,-5.15732 -62.79537,-8.14416 -93.32352,-15.92783 -26.71123,-4.96273 -54.3514,-3.59153 -80.96875,1.3125 17.92963,-8.1367 35.47067,-17.39498 53.78125,-24.5625 7.78375,-1.02072 15.07661,-5.47625 21.875,-9.28125 4.31124,-3.89958 -3.98668,-7.05233 -7,-6.59375 z M 375.40625,453.375 c 21.95197,0.76987 45.2861,6.95512 61.625,22.34375 10.65421,10.30891 16.04843,26.68435 10.75,40.875 -1.91201,8.18562 -6.65079,15.57197 -11.5625,22 -6.00538,8.5764 -14.67592,15.24936 -22.4894,22.32476 -5.11401,3.9134 -9.70534,8.38857 -15.79185,10.83149 -27.702,17.00971 -59.41757,26.37237 -91.52749,30.36788 -23.86163,1.56628 -48.58988,2.70687 -71.39419,-5.38983 -18.77613,-5.8197 -38.08947,-19.82021 -41.35957,-40.4468 -1.87528,-21.80865 12.58533,-41.03345 27.9375,-55 29.13551,-25.29738 66.68618,-39.58155 104.3125,-46.25 -21.4491,5.57907 -40.80391,16.35029 -60.96875,25.15625 -21.01004,8.04174 -43.80943,19.34834 -53.71875,40.71875 -4.03225,8.96142 -1.92383,19.28471 3.1875,27.375 3.77975,9.40668 11.55841,16.62713 21.1875,19.78125 24.86498,8.56455 52.29555,4.56363 76.38518,-4.60047 25.56722,-9.3154 54.43718,-10.98415 76.86482,-27.52453 3.59364,-1.24875 3.05998,-5.87584 -0.5625,-6.6875 -7.01153,-2.39548 -12.58671,4.95316 -18.625,7.1875 -2.91215,1.65173 -7.85603,3.87823 -9.96875,4.09375 8.98456,-7.03251 18.02886,-14.76607 21.06623,-26.07368 4.76927,-11.08114 -1.18723,-23.21731 -9.7346,-30.57833 -10.613,-12.14706 -26.90943,-17.90632 -42.89402,-16.99382 -6.4399,-0.13521 -14.48447,0.30218 -19.90636,0.70833 20.30634,-8.32142 42.4706,-10.7871 64.03125,-14.03125 1.04995,-0.10533 2.10175,-0.15866 3.15625,-0.1875 z m -59.46875,22.4375 c 12.20791,-0.0812 25.00508,-1.09823 35.5625,6.03125 6.80854,5.05701 13.13857,11.89464 16.71875,19.75 2.77907,9.60047 -2.55259,19.5797 -9.5,26.03125 -16.20249,15.92781 -38.77937,21.80642 -59.48085,29.65721 -14.6757,5.19805 -30.67596,5.13156 -46.1129,4.21779 -10.67761,-2.30914 -22.55217,-7.01718 -26.20368,-18.39116 -4.18241,-7.18855 -7.31512,-16.29744 -2.42132,-24.04634 2.24364,-4.28882 5.41063,-8.40571 8.71875,-11.6875 16.00047,-13.69941 36.80932,-20.46793 56.40625,-27.125 8.51865,-2.86448 17.23321,-4.81575 26.3125,-4.4375 z"
       id="path3212"
       inkscape:connector-curvature="0" />
  </g>
</svg>
