<?xml version="1.0" encoding="UTF-8" standalone="no"?>
<!-- Created with Inkscape (http://www.inkscape.org/) -->

<svg
   xmlns:dc="http://purl.org/dc/elements/1.1/"
   xmlns:cc="http://creativecommons.org/ns#"
   xmlns:rdf="http://www.w3.org/1999/02/22-rdf-syntax-ns#"
   xmlns:svg="http://www.w3.org/2000/svg"
   xmlns="http://www.w3.org/2000/svg"
   xmlns:sodipodi="http://sodipodi.sourceforge.net/DTD/sodipodi-0.dtd"
   xmlns:inkscape="http://www.inkscape.org/namespaces/inkscape"
   width="1052.3622"
   height="744.09448"
   id="svg2"
   version="1.1"
   inkscape:version="0.48.4 r9939"
   sodipodi:docname="assbot_logo-outline.svg"
   inkscape:export-filename="C:\Documents and Settings\martins\My Documents\assbot_logo.png"
   inkscape:export-xdpi="90"
   inkscape:export-ydpi="90">
  <defs
     id="defs4" />
  <sodipodi:namedview
     id="base"
     pagecolor="#ffffff"
     bordercolor="#666666"
     borderopacity="1.0"
     inkscape:pageopacity="0.0"
     inkscape:pageshadow="2"
     inkscape:zoom="1.0899154"
     inkscape:cx="418.83331"
     inkscape:cy="408.74734"
     inkscape:document-units="px"
     inkscape:current-layer="layer2"
     showgrid="true"
     inkscape:window-width="1920"
     inkscape:window-height="1017"
     inkscape:window-x="-9"
     inkscape:window-y="-9"
     inkscape:window-maximized="1"
     inkscape:snap-bbox="true"
     inkscape:snap-grids="true">
    <inkscape:grid
       type="xygrid"
       id="grid2985"
       empspacing="5"
       visible="true"
       enabled="true"
       snapvisiblegridlinesonly="true"
       units="mm"
       spacingx="2mm"
       spacingy="2mm"
       dotted="false" />
  </sodipodi:namedview>
  <metadata
     id="metadata7">
    <rdf:RDF>
      <cc:Work
         rdf:about="">
        <dc:format>image/svg+xml</dc:format>
        <dc:type
           rdf:resource="http://purl.org/dc/dcmitype/StillImage" />
        <dc:title />
      </cc:Work>
    </rdf:RDF>
  </metadata>
  <g
     inkscape:groupmode="layer"
     id="layer2"
     inkscape:label="logo"
     style="display:inline">
    <path
       style="fill:none;stroke:#000000;stroke-opacity:1"
       d="m 798.30321,182.33018 c -3.37584,4.78804 -6.19944,10.28503 -7.40876,16.03785 -1.54227,7.37225 -6.03945,14.00056 -8.89412,21.02658 -8.84509,18.84796 -17.28593,37.93692 -27.14617,56.216 -1.7057,3.40362 -3.22104,6.87784 -4.7776,10.33564 1.13122,-11.65041 0.56636,-23.87237 3.05865,-35.15072 1.65256,-4.50463 2.46103,-9.80084 1.51727,-14.49041 -2.52244,-2.56887 -5.79892,1.64265 -7.64974,3.38997 -2.19727,4.07865 -2.25483,9.41642 -1.29441,13.84443 1.75597,5.10429 -0.20516,10.94392 -0.0503,16.29059 -1.22099,17.69621 -2.22214,35.49365 -5.22651,52.94047 -0.56635,4.39658 -0.44196,8.9099 -0.4357,13.36658 -5.09088,-7.96655 -11.96997,-14.91793 -16.36763,-23.22528 1.09772,-4.94481 -4.13906,-8.18844 -6.53985,-11.76827 -2.51619,3.9613 -9.24584,9.32423 -4.49833,14.14642 1.34817,1.9484 3.72952,5.73934 6.40354,3.43828 7.89141,11.57136 17.26057,22.28377 24.15395,34.43719 1.82754,6.69651 6.10596,12.42716 11.12549,17.16029 -12.18567,0.58121 -24.52248,2.35914 -36.62085,2.3359 -0.49856,-4.23488 -6.11691,-2.11899 -8.86405,-2.18713 -2.67765,0.0349 -5.87618,0.54904 -6.42332,3.69443 -0.54793,2.65218 -4.03335,6.77057 -0.99318,8.87997 4.04463,0.96735 8.99328,1.29102 12.67554,-0.93725 1.22979,-3.49664 5.82665,-2.01921 8.66015,-2.76921 14.34233,-0.52412 28.8097,-2.3505 43.20202,-2.25922 12.23045,2.34711 25.22319,1.82165 36.72195,-3.43496 13.78026,-5.27702 26.34997,-14.50001 37.29316,-23.57806 -13.11743,20.93304 -25.20039,42.62593 -38.6494,63.36272 -4.39904,0.72987 -6.08856,6.33776 -8.60413,9.545 -2.57183,5.348 -7.64422,10.09228 -7.95733,16.22276 0.92954,2.82841 3.86272,5.81538 6.92776,5.8132 4.83953,-2.768 6.32204,-9.11391 9.59928,-13.36281 1.7123,-4.09842 6.13407,-7.81861 5.75553,-12.49388 -1.23654,-2.8472 2.50961,-5.60642 3.34233,-8.25031 16.54275,-26.87555 32.38846,-54.44078 49.25709,-81.07536 8.7385,-11.69633 17.39945,-23.71483 23.74078,-36.90139 -2.65754,21.65409 -5.58075,43.43659 -8.35277,65.04845 -0.63767,2.30792 -3.79227,2.8445 -3.79181,5.69053 -1.33743,7.91745 -2.92214,16.03459 -2.56823,24.03079 2.41198,2.56737 6.80178,0.39127 9.80945,-0.12335 5.32739,-1.01176 3.78566,-7.96694 4.94782,-11.78541 0.10403,-5.52074 2.56768,-11.42307 0.99599,-16.79112 -0.75928,-1.36613 -3.22256,-1.0463 -2.19855,-3.20349 3.74804,-28.21131 6.80661,-56.76406 10.73082,-85.00335 3.39469,-12.25091 6.10051,-24.767 6.05761,-37.48357 9.1275,12.551 17.96577,25.4573 27.00478,37.98053 -4.07353,3.04888 0.15848,7.89943 2.09831,10.81407 2.59486,3.58362 5.21145,7.15179 7.81168,10.73164 3.88469,-4.07878 8.57461,-7.4992 11.9327,-12.03201 -3.38931,-6.18993 -8.42019,-11.52659 -12.41965,-17.38999 -1.59718,1.54764 -3.40893,3.75047 -4.61323,0.62785 -10.97025,-15.19652 -22.5618,-30.07969 -32.79875,-45.72418 -2.89464,-5.99485 -5.03363,-12.43783 -9.88352,-17.28456 -2.22372,-2.43412 -5.06628,-5.40165 0.52271,-4.263 14.11328,-0.0258 28.60538,-0.27378 42.48016,-0.0932 -0.50013,4.17265 5.28262,2.95088 7.73139,3.13218 4.31473,-0.66728 10.13208,1.61637 13.59443,-1.78213 1.62598,-3.34521 4.54607,-7.16699 3.70779,-11.00483 -3.41049,-2.15289 -8.24398,-0.67526 -12.19286,-0.96692 -3.72921,-0.20883 -7.37823,0.81596 -10.33363,3.07197 -10.08081,1.37622 -20.53813,0.40629 -30.78899,0.89969 -13.29162,0.16914 -26.37679,1.05102 -39.4393,-1.38759 -3.28222,-0.20459 -6.56073,-0.12556 -9.81812,0.2224 15.20439,-9.24779 30.42659,-18.64214 45.76589,-27.57138 3.97085,0.96813 7.44061,-3.03655 10.93228,-4.40035 2.73641,-2.61323 8.79189,-3.20319 9.44596,-7.07961 -0.10696,-2.41962 1.38692,-8.24855 -2.58034,-8.07414 -6.52693,3.14097 -12.95741,7.2067 -18.26994,12.20953 -3.14291,4.36096 -9.18878,5.75815 -13.32139,9.088 -20.37418,12.0467 -40.00424,25.59397 -61.29612,35.83935 -17.73898,10.02598 -32.95816,24.13885 -45.88651,39.78836 6.37856,-13.31852 11.99314,-27.09407 19.05779,-40.03941 3.97993,-4.33892 6.02196,-10.4146 8.09351,-15.87813 0.597,-4.31885 -5.69035,-2.12987 -7.20052,-0.4137 z m 15.30075,31.61639 c 12.98328,-10.14054 29.37139,-17.83607 46.17731,-16.87166 11.09103,0.78651 22.08464,7.59424 25.8817,18.30156 2.84767,5.62467 3.686,12.1529 3.96296,18.21393 0.68431,7.82254 -1.08025,15.83637 -2.15837,23.66824 -1.05154,4.71379 -1.53198,9.49836 -3.85117,13.83616 -7.71551,23.12752 -21.4235,43.79646 -37.94552,61.57189 -12.95421,12.40335 -26.61155,24.97992 -43.61674,31.32185 -13.59313,5.70818 -31.43879,6.97521 -43.26147,-3.29897 -11.59115,-11.62575 -12.55117,-29.64235 -10.46396,-45.06774 4.54367,-28.58015 19.23152,-54.88971 37.63431,-76.86026 -9.6336,13.54578 -15.56089,29.06499 -22.90099,43.84558 -8.1941,14.74898 -15.84232,32.23639 -11.23307,49.29159 2.00355,7.09255 8.19167,12.00716 15.02856,14.19117 6.70646,3.58228 14.65646,3.98066 21.70927,1.1507 18.41465,-7.06657 32.24543,-22.58949 41.66799,-39.46771 10.19836,-17.67773 25.98061,-32.55442 30.89208,-52.86957 1.46265,-2.44991 -1.07462,-4.85106 -3.54715,-3.57101 -5.18321,2.00391 -4.84363,8.9137 -7.23566,13.10838 -0.87684,2.3529 -2.6439,6.01551 -3.75382,7.15784 1.77162,-8.37177 3.2396,-17.17515 -0.46663,-25.13604 -2.602,-8.66569 -11.87497,-12.76674 -20.33437,-12.87529 -11.95351,-1.86248 -24.09285,2.68502 -32.83663,10.91529 -3.76512,3.02692 -8.17612,7.15645 -11.09539,10.00363 7.655,-14.57044 19.20041,-26.67223 30.02378,-38.9303 0.55243,-0.56669 1.13103,-1.10436 1.72297,-1.62931 z m -23.34988,41.56042 c 6.97472,-5.93198 13.83682,-12.68569 23.33947,-13.67921 6.34968,-0.3769 13.28284,0.4999 19.12675,3.28708 6.22497,4.17603 7.97265,12.47977 7.09137,19.53569 -1.63024,16.96212 -11.76738,31.2237 -19.87627,45.71422 -5.92575,10.06148 -15.1505,17.73686 -24.46005,24.65387 -7.24786,3.8209 -16.3399,6.84057 -23.92109,2.06622 -5.86847,-2.11378 -12.05963,-5.83687 -12.98365,-12.64814 -0.77855,-3.54571 -0.94372,-7.43778 -0.62521,-10.91807 2.58843,-15.58444 11.28079,-29.50495 19.33055,-42.77716 3.5133,-5.7525 7.57942,-11.07478 12.97812,-15.2345 z"
       id="path3212"
       inkscape:connector-curvature="0" />
  </g>
  <g
     inkscape:label="text"
     inkscape:groupmode="layer"
     id="layer1"
     transform="translate(0,-308.2677)">
    <g
       style="font-size:37.52653122px;font-style:oblique;font-variant:normal;font-weight:normal;font-stretch:normal;text-align:start;line-height:125%;letter-spacing:0px;word-spacing:0px;writing-mode:lr-tb;text-anchor:start;fill:none;stroke:#000000;stroke-opacity:1;font-family:Verdana;-inkscape-font-specification:Verdana Oblique"
       id="text3899"
       transform="translate(-16,0)">
      <path
         d="m 301.57735,757.37214 c -0.47644,2.04002 -1.08111,3.7777 -1.81403,5.21303 -0.73296,1.43535 -1.7041,2.64775 -2.91343,3.63722 -1.12386,0.90396 -2.34238,1.57582 -3.65554,2.01558 -1.3132,0.43977 -2.85543,0.65965 -4.62669,0.65965 -2.87069,0 -5.00843,-0.64743 -6.41322,-1.94229 -1.40481,-1.29486 -2.10721,-3.08445 -2.1072,-5.36879 -10e-6,-0.76958 0.0519,-1.48419 0.15574,-2.14385 0.10383,-0.65963 0.23515,-1.34982 0.39396,-2.07055 l 3.77464,-16.32624 3.6647,0 -3.81129,16.50947 c -0.14659,0.57415 -0.26569,1.21852 -0.3573,1.93313 -0.0916,0.71463 -0.13744,1.27349 -0.13743,1.6766 -10e-6,1.53918 0.45808,2.71494 1.37426,3.52727 0.91617,0.81235 2.28432,1.21852 4.10447,1.21852 1.30706,0 2.45533,-0.20156 3.44481,-0.60468 0.98946,-0.40311 1.85066,-1.00779 2.58362,-1.81402 0.65963,-0.75737 1.18795,-1.5972 1.58498,-2.51949 0.39699,-0.92227 0.74208,-2.03084 1.03528,-3.32571 l 3.82961,-16.60109 3.6647,0 z"
         style="line-height:125%;fill:none;stroke:#000000;stroke-opacity:1;font-family:Verdana;-inkscape-font-specification:Verdana Oblique"
         id="path3021"
         inkscape:connector-curvature="0" />
      <path
         d="m 315.41159,768.82432 c -1.77128,0 -3.45704,-0.18628 -5.05728,-0.55886 -1.60026,-0.37258 -3.16997,-0.94366 -4.70914,-1.71325 l 0.87952,-4.15943 0.25653,0 c 1.1727,1.11163 2.6111,1.96367 4.31519,2.55612 1.70408,0.59247 3.35014,0.8887 4.93818,0.88869 2.60193,10e-6 4.59613,-0.51611 5.98263,-1.54833 1.38645,-1.03222 2.07969,-2.34846 2.07971,-3.94872 -2e-5,-0.84287 -0.24738,-1.54527 -0.7421,-2.1072 -0.49475,-0.56191 -1.21853,-0.97724 -2.17133,-1.246 -0.79404,-0.21987 -1.7377,-0.43059 -2.83098,-0.63216 -1.09332,-0.20154 -2.1347,-0.41837 -3.12416,-0.65048 -1.91787,-0.42754 -3.40207,-1.16048 -4.45261,-2.19882 -1.05056,-1.03832 -1.57583,-2.32707 -1.57582,-3.86626 -10e-6,-2.60192 1.10245,-4.76714 3.30739,-6.49568 2.20492,-1.72849 5.05422,-2.59275 8.54791,-2.59278 1.90563,3e-5 3.6372,0.19853 5.19471,0.59552 1.55748,0.39703 2.89815,0.86428 4.02201,1.40174 l -0.82455,3.90291 -0.25653,0 c -0.86734,-0.794 -2.10417,-1.47807 -3.71051,-2.05223 -1.60638,-0.57412 -3.2952,-0.86118 -5.06645,-0.86121 -2.22327,3e-5 -3.99759,0.48865 -5.32298,1.46588 -1.32541,0.97728 -1.98811,2.21717 -1.9881,3.71967 -10e-6,0.80626 0.2382,1.51476 0.71462,2.12553 0.4764,0.6108 1.32539,1.06889 2.54697,1.37426 0.78179,0.18325 1.82012,0.40619 3.11499,0.66881 1.29485,0.26265 2.38204,0.51002 3.26158,0.7421 1.73461,0.47643 3.05085,1.18493 3.94872,2.12553 0.89783,0.94062 1.34675,2.12553 1.34678,3.55476 -3e-5,1.19714 -0.2932,2.38817 -0.87953,3.57308 -0.58638,1.18492 -1.40483,2.19882 -2.45535,3.0417 -1.12386,0.90396 -2.4401,1.61247 -3.94872,2.12553 -1.50865,0.51306 -3.28908,0.76958 -5.3413,0.76958 z"
         style="line-height:125%;fill:none;stroke:#000000;stroke-opacity:1;font-family:Verdana;-inkscape-font-specification:Verdana Oblique"
         id="path3023"
         inkscape:connector-curvature="0" />
      <path
         d="m 356.69444,744.14257 -9.72978,0 -5.58867,24.18702 -3.6647,0 5.58867,-24.18702 -9.72978,0 0.69629,-3.09667 23.12426,0 z"
         style="line-height:125%;fill:none;stroke:#000000;stroke-opacity:1;font-family:Verdana;-inkscape-font-specification:Verdana Oblique"
         id="path3025"
         inkscape:connector-curvature="0" />
      <path
         d="m 373.53374,747.82559 c -2e-5,-0.64741 -0.0978,-1.19406 -0.29318,-1.63995 -0.19547,-0.44585 -0.49475,-0.82759 -0.89785,-1.14522 -0.46421,-0.37866 -1.03224,-0.6413 -1.70409,-0.78791 -0.67187,-0.14657 -1.49643,-0.21986 -2.47367,-0.21988 l -4.10446,0 -2.43703,10.51769 3.84794,0 c 1.19712,10e-6 2.23545,-0.10993 3.11499,-0.32983 0.87951,-0.21986 1.67964,-0.60466 2.40038,-1.15438 0.80622,-0.61076 1.43227,-1.3773 1.87816,-2.2996 0.44585,-0.92226 0.66879,-1.90257 0.66881,-2.94092 z m 4.06781,20.504 -4.26937,0 -7.18281,-10.90248 -5.18556,0 -2.51032,10.90248 -3.6647,0 6.28497,-27.28369 7.43934,0 c 1.66131,2e-5 3.01114,0.10691 4.04949,0.32066 1.03831,0.2138 1.94227,0.60165 2.71188,1.16354 0.68405,0.50087 1.22154,1.10554 1.61247,1.81403 0.39087,0.70853 0.58633,1.59416 0.58635,2.6569 -2e-5,2.27214 -0.71159,4.26634 -2.13469,5.98263 -1.42314,1.71631 -3.28909,2.91039 -5.59783,3.58224 z"
         style="line-height:125%;fill:none;stroke:#000000;stroke-opacity:1;font-family:Verdana;-inkscape-font-specification:Verdana Oblique"
         id="path3027"
         inkscape:connector-curvature="0" />
      <path
         d="m 402.70475,768.32959 -3.68302,0 -0.91618,-7.67755 -11.76369,0 -4.47093,7.67755 -3.82961,0 16.23462,-27.28369 4.80076,0 z m -5.00231,-10.64595 -1.70409,-13.46778 -7.91575,13.46778 z"
         style="line-height:125%;fill:none;stroke:#000000;stroke-opacity:1;font-family:Verdana;-inkscape-font-specification:Verdana Oblique"
         id="path3029"
         inkscape:connector-curvature="0" />
      <path
         d="m 423.81343,768.32959 -17.27906,0 6.30328,-27.28369 3.6647,0 -5.58866,24.18702 13.61436,0 z"
         style="line-height:125%;fill:none;stroke:#000000;stroke-opacity:1;font-family:Verdana;-inkscape-font-specification:Verdana Oblique"
         id="path3031"
         inkscape:connector-curvature="0" />
      <path
         d="m 437.07965,768.32959 -10.81087,0 0.60468,-2.65691 3.57308,0 5.09393,-21.96988 -3.57308,0 0.60468,-2.6569 10.81086,0 -0.60467,2.6569 -3.57309,0 -5.09393,21.96988 3.57308,0 z"
         style="line-height:125%;fill:none;stroke:#000000;stroke-opacity:1;font-family:Verdana;-inkscape-font-specification:Verdana Oblique"
         id="path3033"
         inkscape:connector-curvature="0" />
      <path
         d="m 465.07795,768.32959 -3.68302,0 -0.91618,-7.67755 -11.76369,0 -4.47093,7.67755 -3.82961,0 16.23462,-27.28369 4.80076,0 z m -5.00232,-10.64595 -1.70408,-13.46778 -7.91575,13.46778 z"
         style="line-height:125%;fill:none;stroke:#000000;stroke-opacity:1;font-family:Verdana;-inkscape-font-specification:Verdana Oblique"
         id="path3035"
         inkscape:connector-curvature="0" />
      <path
         d="m 489.75971,768.32959 -4.32434,0 -7.45767,-24.4069 -5.64364,24.4069 -3.42649,0 6.30328,-27.28369 5.46041,0 6.81634,22.28137 5.1489,-22.28137 3.4265,0 z"
         style="line-height:125%;fill:none;stroke:#000000;stroke-opacity:1;font-family:Verdana;-inkscape-font-specification:Verdana Oblique"
         id="path3037"
         inkscape:connector-curvature="0" />
    </g>
    <g
       style="font-size:37.42974854px;font-style:oblique;font-variant:normal;font-weight:normal;font-stretch:normal;text-align:start;line-height:125%;letter-spacing:0px;word-spacing:0px;writing-mode:lr-tb;text-anchor:start;fill:none;stroke:#000000;stroke-opacity:1;font-family:Verdana;-inkscape-font-specification:Verdana Oblique"
       id="text3905"
       transform="translate(-8,0)">
      <path
         d="m 440.95555,705.68462 -13.03096,15.27894 -2.75971,11.93439 -3.65525,0 2.66833,-11.55059 -6.06771,-15.66274 3.87456,0 4.71527,12.22681 10.28953,-12.22681 z"
         id="path3040"
         inkscape:connector-curvature="0"
         style="fill:none;stroke:#000000;stroke-opacity:1" />
      <path
         d="m 459.32318,732.89795 -4.31319,0 -7.43844,-24.34396 -5.62908,24.34396 -3.41766,0 6.28703,-27.21333 5.44632,0 6.79876,22.22391 5.13563,-22.22391 3.41766,0 z"
         id="path3042"
         inkscape:connector-curvature="0"
         style="fill:none;stroke:#000000;stroke-opacity:1" />
      <path
         d="m 478.73255,733.39141 c -3.44813,0 -6.15301,-0.89249 -8.11465,-2.67747 -1.96166,-1.78498 -2.94248,-4.31624 -2.94248,-7.59378 0,-2.50993 0.37771,-4.84928 1.13313,-7.01808 0.75541,-2.16876 1.8398,-4.06949 3.25317,-5.70219 1.40117,-1.60828 3.12523,-2.87848 5.17218,-3.81059 2.04692,-0.93207 4.33145,-1.39811 6.85359,-1.39814 1.57174,3e-5 3.0582,0.19193 4.4594,0.5757 1.40116,0.38383 2.83889,0.98999 4.3132,1.81849 l -0.82243,4.09388 -0.27415,0 c -0.4021,-0.40206 -0.80722,-0.77672 -1.21537,-1.12399 -0.40819,-0.34723 -1.02045,-0.72798 -1.83676,-1.14226 -0.67015,-0.35332 -1.46821,-0.64879 -2.39419,-0.8864 -0.92601,-0.23757 -1.94948,-0.35636 -3.07041,-0.35639 -1.7058,3e-5 -3.27146,0.35641 -4.69699,1.06916 -1.42556,0.7128 -2.66225,1.70885 -3.71008,2.98817 -1.02348,1.2428 -1.82763,2.75364 -2.41246,4.53251 -0.58485,1.7789 -0.87727,3.67353 -0.87726,5.68391 -10e-6,2.50994 0.65184,4.46245 1.95555,5.85753 1.3037,1.39509 3.18615,2.09264 5.64736,2.09263 1.15748,10e-6 2.2571,-0.13097 3.29887,-0.39294 1.04172,-0.26195 1.98904,-0.59397 2.84195,-0.99605 0.79195,-0.37771 1.50472,-0.77369 2.13832,-1.18796 0.63356,-0.41425 1.17575,-0.79805 1.62659,-1.1514 l 0.25587,0 -0.85899,4.20354 c -1.27936,0.64576 -2.75059,1.22755 -4.41371,1.74538 -1.66316,0.51782 -3.4329,0.77674 -5.30925,0.77674 z"
         id="path3044"
         inkscape:connector-curvature="0"
         style="fill:none;stroke:#000000;stroke-opacity:1" />
      <path
         d="m 519.79927,705.68462 -6.26875,27.21333 -3.6187,0 3.08868,-13.37821 -13.57925,0 -3.08868,13.37821 -3.6187,0 6.26875,-27.21333 3.6187,0 -2.46729,10.76471 13.57925,0 2.46729,-10.76471 z"
         id="path3046"
         inkscape:connector-curvature="0"
         style="fill:none;stroke:#000000;stroke-opacity:1" />
      <path
         d="m 539.53761,712.44683 c -2e-5,-0.64574 -0.0975,-1.19098 -0.29242,-1.63572 -0.19496,-0.4447 -0.49348,-0.82546 -0.89553,-1.14227 -0.46302,-0.37768 -1.02958,-0.63964 -1.6997,-0.78588 -0.67014,-0.14618 -1.49257,-0.21929 -2.46729,-0.21931 l -4.09388,0 -2.43074,10.49056 3.83801,0 c 1.19404,2e-5 2.22969,-0.10964 3.10697,-0.32897 0.87724,-0.2193 1.6753,-0.6031 2.39418,-1.1514 0.80414,-0.60919 1.42858,-1.37375 1.87332,-2.29367 0.4447,-0.91989 0.66706,-1.89767 0.66708,-2.93334 z m 4.05733,20.45112 -4.25837,0 -7.16429,-10.87437 -5.17217,0 -2.50385,10.87437 -3.65525,0 6.26875,-27.21333 7.42016,0 c 1.65703,3e-5 3.00338,0.10664 4.03905,0.31984 1.03563,0.21325 1.93726,0.60009 2.70488,1.16054 0.6823,0.49957 1.2184,1.10269 1.60831,1.80935 0.38987,0.7067 0.58482,1.59005 0.58484,2.65005 -2e-5,2.26627 -0.70975,4.25534 -2.12918,5.96719 -1.41947,1.71189 -3.2806,2.90289 -5.58339,3.57301 z"
         id="path3048"
         inkscape:connector-curvature="0"
         style="fill:none;stroke:#000000;stroke-opacity:1" />
      <path
         d="m 574.15282,715.3162 c -3e-5,2.36374 -0.35641,4.64218 -1.06916,6.83532 -0.7128,2.19316 -1.74541,4.12434 -3.09782,5.79357 -1.38902,1.71797 -3.05825,3.06736 -5.00769,4.04819 -1.94949,0.98082 -4.14873,1.47123 -6.59773,1.47123 -3.24099,0 -5.7753,-0.88639 -7.60292,-2.65919 -1.82762,-1.77279 -2.74143,-4.29187 -2.74143,-7.55723 0,-2.48555 0.36552,-4.80664 1.09657,-6.96325 0.73105,-2.15658 1.78498,-4.08167 3.16179,-5.77529 1.34025,-1.63265 3.00034,-2.9394 4.98028,-3.92025 1.97991,-0.9808 4.15174,-1.47121 6.51548,-1.47124 3.22878,3e-5 5.76309,0.88033 7.60292,2.64092 1.83978,1.76063 2.75968,4.2797 2.75971,7.55722 z m -6.9267,10.81954 c 1.02345,-1.38899 1.79715,-2.93942 2.32109,-4.65131 0.52389,-1.71186 0.78585,-3.59735 0.78588,-5.65649 -3e-5,-2.48555 -0.62447,-4.39542 -1.87332,-5.72961 -1.2489,-1.33414 -2.99428,-2.00122 -5.23614,-2.00124 -1.74235,2e-5 -3.31411,0.39905 -4.71527,1.19709 -1.40119,0.79809 -2.60742,1.87943 -3.6187,3.24403 -0.97474,1.34028 -1.72407,2.89681 -2.24798,4.66958 -0.52392,1.77281 -0.78588,3.59739 -0.78588,5.47374 0,2.50994 0.62443,4.43809 1.87332,5.78443 1.24887,1.34635 3.00034,2.01953 5.25442,2.01952 1.71795,10e-6 3.28057,-0.39598 4.68786,-1.18795 1.40725,-0.79197 2.59216,-1.8459 3.55472,-3.16179 z"
         id="path3050"
         inkscape:connector-curvature="0"
         style="fill:none;stroke:#000000;stroke-opacity:1" />
      <path
         d="m 601.32959,708.77331 -9.70468,0 -5.57426,24.12464 -3.65524,0 5.57425,-24.12464 -9.70469,0 0.6945,-3.08869 23.06462,0 z"
         id="path3052"
         inkscape:connector-curvature="0"
         style="fill:none;stroke:#000000;stroke-opacity:1" />
      <path
         d="m 618.12547,712.44683 c -2e-5,-0.64574 -0.0975,-1.19098 -0.29242,-1.63572 -0.19496,-0.4447 -0.49348,-0.82546 -0.89553,-1.14227 -0.46302,-0.37768 -1.02958,-0.63964 -1.6997,-0.78588 -0.67014,-0.14618 -1.49257,-0.21929 -2.46729,-0.21931 l -4.09388,0 -2.43074,10.49056 3.83801,0 c 1.19404,2e-5 2.22969,-0.10964 3.10697,-0.32897 0.87724,-0.2193 1.6753,-0.6031 2.39418,-1.1514 0.80414,-0.60919 1.42858,-1.37375 1.87332,-2.29367 0.4447,-0.91989 0.66706,-1.89767 0.66708,-2.93334 z m 4.05733,20.45112 -4.25837,0 -7.16429,-10.87437 -5.17217,0 -2.50385,10.87437 -3.65525,0 6.26876,-27.21333 7.42015,0 c 1.65703,3e-5 3.00338,0.10664 4.03905,0.31984 1.03563,0.21325 1.93726,0.60009 2.70488,1.16054 0.6823,0.49957 1.2184,1.10269 1.60831,1.80935 0.38987,0.7067 0.58482,1.59005 0.58484,2.65005 -2e-5,2.26627 -0.70975,4.25534 -2.12918,5.96719 -1.41947,1.71189 -3.2806,2.90289 -5.58339,3.57301 z"
         id="path3054"
         inkscape:connector-curvature="0"
         style="fill:none;stroke:#000000;stroke-opacity:1" />
      <path
         d="m 652.74067,715.3162 c -3e-5,2.36374 -0.35642,4.64218 -1.06916,6.83532 -0.7128,2.19316 -1.74541,4.12434 -3.09783,5.79357 -1.38902,1.71797 -3.05824,3.06736 -5.00769,4.04819 -1.94948,0.98082 -4.14872,1.47123 -6.59772,1.47123 -3.241,0 -5.7753,-0.88639 -7.60292,-2.65919 -1.82763,-1.77279 -2.74144,-4.29187 -2.74144,-7.55723 0,-2.48555 0.36553,-4.80664 1.09658,-6.96325 0.73104,-2.15658 1.78497,-4.08167 3.16179,-5.77529 1.34025,-1.63265 3.00034,-2.9394 4.98027,-3.92025 1.97992,-0.9808 4.15174,-1.47121 6.51549,-1.47124 3.22878,3e-5 5.76308,0.88033 7.60291,2.64092 1.83978,1.76063 2.75969,4.2797 2.75972,7.55722 z m -6.9267,10.81954 c 1.02345,-1.38899 1.79714,-2.93942 2.32108,-4.65131 0.5239,-1.71186 0.78586,-3.59735 0.78588,-5.65649 -2e-5,-2.48555 -0.62446,-4.39542 -1.87331,-5.72961 -1.2489,-1.33414 -2.99428,-2.00122 -5.23615,-2.00124 -1.74235,2e-5 -3.3141,0.39905 -4.71527,1.19709 -1.40119,0.79809 -2.60742,1.87943 -3.6187,3.24403 -0.97474,1.34028 -1.72406,2.89681 -2.24797,4.66958 -0.52393,1.77281 -0.78589,3.59739 -0.78588,5.47374 -1e-5,2.50994 0.62443,4.43809 1.87331,5.78443 1.24887,1.34635 3.00034,2.01953 5.25442,2.01952 1.71796,10e-6 3.28057,-0.39598 4.68786,-1.18795 1.40725,-0.79197 2.59216,-1.8459 3.55473,-3.16179 z"
         id="path3056"
         inkscape:connector-curvature="0"
         style="fill:none;stroke:#000000;stroke-opacity:1" />
      <path
         d="m 675.7139,732.89795 -4.31319,0 -7.43843,-24.34396 -5.62909,24.34396 -3.41765,0 6.28703,-27.21333 5.44632,0 6.79876,22.22391 5.13562,-22.22391 3.41766,0 z"
         id="path3058"
         inkscape:connector-curvature="0"
         style="fill:none;stroke:#000000;stroke-opacity:1" />
    </g>
    <g
       style="font-size:38.19311905px;font-style:oblique;font-variant:normal;font-weight:normal;font-stretch:normal;text-align:start;line-height:125%;letter-spacing:0px;word-spacing:0px;writing-mode:lr-tb;text-anchor:start;fill:none;stroke:#000000;stroke-opacity:1;font-family:Verdana;-inkscape-font-specification:Verdana Oblique"
       id="text3909"
       transform="translate(4,0)">
      <path
         d="m 567.58184,686.30128 c -0.4849,2.07626 -1.10032,3.8448 -1.84625,5.30563 -0.74599,1.46084 -1.73438,2.69478 -2.96519,3.70183 -1.14383,0.92001 -2.38398,1.60381 -3.72048,2.05138 -1.33652,0.44758 -2.90614,0.67137 -4.70886,0.67137 -2.92169,0 -5.0974,-0.65893 -6.52715,-1.97679 -1.42976,-1.31786 -2.14463,-3.13925 -2.14463,-5.46416 0,-0.78325 0.0528,-1.51056 0.15852,-2.18193 0.10567,-0.67135 0.23932,-1.3738 0.40095,-2.10733 l 3.84169,-16.61625 3.7298,0 -3.87899,16.80274 c -0.1492,0.58434 -0.27042,1.24016 -0.36366,1.96746 -0.0933,0.72732 -0.13987,1.29612 -0.13987,1.70639 0,1.56652 0.46622,2.76316 1.39868,3.58993 0.93244,0.82677 2.32489,1.24016 4.17737,1.24015 1.33028,10e-6 2.49895,-0.20513 3.50601,-0.61541 1.00703,-0.41028 1.88353,-1.02569 2.62951,-1.84625 0.67134,-0.77082 1.20905,-1.62557 1.61313,-2.56424 0.40404,-0.93865 0.75527,-2.06692 1.05367,-3.38479 l 3.89764,-16.89598 3.7298,0 z"
         id="path3061"
         inkscape:connector-curvature="0"
         style="fill:none;stroke:#000000;stroke-opacity:1" />
      <path
         d="m 591.1355,676.58516 c -2e-5,-0.65891 -0.0995,-1.21527 -0.29838,-1.66909 -0.19894,-0.45377 -0.50354,-0.84229 -0.9138,-1.16556 -0.47246,-0.38539 -1.05058,-0.65269 -1.73436,-0.80191 -0.68381,-0.14916 -1.52301,-0.22376 -2.51761,-0.22378 l -4.17737,0 -2.48032,10.70451 3.91629,0 c 1.21839,2e-5 2.27516,-0.11188 3.17033,-0.33568 0.89513,-0.22377 1.70947,-0.6154 2.44301,-1.17488 0.82054,-0.62162 1.45771,-1.40177 1.91152,-2.34045 0.45378,-0.93865 0.68067,-1.93637 0.68069,-2.99316 z m 4.14008,20.86821 -4.34522,0 -7.3104,-11.09615 -5.27766,0 -2.55491,11.09615 -3.7298,0 6.3966,-27.76834 7.57149,0 c 1.69082,3e-5 3.06463,0.10882 4.12143,0.32636 1.05675,0.2176 1.97677,0.61233 2.76005,1.18421 0.6962,0.50976 1.24324,1.12518 1.64111,1.84625 0.39782,0.72112 0.59674,1.62248 0.59676,2.7041 -2e-5,2.3125 -0.72422,4.34212 -2.1726,6.0889 -1.44843,1.7468 -3.34751,2.96209 -5.69727,3.64587 z"
         id="path3063"
         inkscape:connector-curvature="0"
         style="fill:none;stroke:#000000;stroke-opacity:1" />
      <path
         d="m 626.60587,669.68503 -16.523,27.76834 -4.92333,0 -3.6925,-27.76834 3.84169,0 3.03978,24.39287 14.32242,-24.39287 z"
         id="path3065"
         inkscape:connector-curvature="0"
         style="fill:none;stroke:#000000;stroke-opacity:1" />
      <path
         d="m 649.43223,669.68503 -0.72731,3.15168 -14.60216,0 -1.7903,7.83257 14.60215,0 -0.72731,3.13303 -14.60215,0 -2.42437,10.49938 14.60215,0 -0.72731,3.15168 -18.29465,0 6.3966,-27.76834 z"
         id="path3067"
         inkscape:connector-curvature="0"
         style="fill:none;stroke:#000000;stroke-opacity:1" />
      <path
         d="m 674.86944,669.68503 -13.29673,15.59055 -2.81599,12.17779 -3.7298,0 2.72275,-11.78616 -6.19146,-15.98218 3.95358,0 4.81144,12.47617 10.49938,-12.47617 z"
         id="path3069"
         inkscape:connector-curvature="0"
         style="fill:none;stroke:#000000;stroke-opacity:1" />
    </g>
    <g
       style="font-size:345.45397949px;font-style:oblique;font-variant:normal;font-weight:normal;font-stretch:normal;text-align:start;line-height:125%;letter-spacing:0px;word-spacing:0px;writing-mode:lr-tb;text-anchor:start;fill:none;stroke:none;font-family:Sans;-inkscape-font-specification:Sans Oblique"
       id="text3917"
       transform="translate(-32,0)">
      <path
         d="m 58.426085,768.89758 140.172005,-247.28297 38.96477,0 40.82025,247.28297 -32.04895,0 -11.97619,-71.18241 -100.02647,0 -39.639495,71.18241 z m 90.074425,-96.65289 81.80917,0 -9.61469,-62.07376 c -3.71108,-24.62691 -6.01635,-45.14947 -6.91582,-61.56773 -5.62277,14.16922 -13.83179,30.98084 -24.62709,50.43493 z"
         id="path3003"
         inkscape:connector-curvature="0"
         style="fill:none;stroke:#000000;stroke-opacity:1" />
    </g>
    <g
       style="font-size:281.21038818px;font-style:oblique;font-variant:normal;font-weight:normal;font-stretch:normal;text-align:start;line-height:125%;letter-spacing:0px;word-spacing:0px;writing-mode:lr-tb;text-anchor:start;fill:none;stroke:#000000;stroke-opacity:1;font-family:Sans;-inkscape-font-specification:Sans Oblique"
       id="text3921"
       transform="translate(-22,0)">
      <path
         d="m 267.55575,663.03315 26.36347,-2.47157 -0.27462,7.0028 c -4e-5,7.78094 1.78498,14.89815 5.35508,21.35166 3.57,6.4536 9.47432,11.44251 17.71296,14.96677 8.23851,3.5243 18.03326,5.28644 29.38429,5.28642 16.1109,2e-5 28.40011,-3.52426 36.86767,-10.57285 8.46729,-7.04853 12.70101,-15.10403 12.70115,-24.16652 -1.4e-4,-6.31618 -2.24287,-12.08319 -6.72817,-17.30102 -4.57713,-5.12616 -17.07231,-12.08318 -37.48557,-20.87109 -15.83648,-6.86539 -26.63817,-12.12892 -32.4051,-15.79062 -9.06251,-5.94998 -15.74491,-12.42641 -20.04723,-19.42933 -4.30242,-7.00267 -6.4536,-14.98951 -6.45356,-23.96055 -4e-5,-10.34385 2.83769,-19.6809 8.51321,-28.0112 5.67541,-8.32993 13.98264,-14.69195 24.92172,-19.08605 10.93892,-4.39371 23.2739,-6.59067 37.00498,-6.59087 16.3855,2e-4 30.208,2.7464 41.46755,8.23858 11.25923,5.49259 19.42915,12.81577 24.50979,21.96957 5.08028,9.15415 7.6205,17.89619 7.62069,26.22616 -1.9e-4,0.82401 -0.046,2.1971 -0.13731,4.11929 l -25.95154,2.05965 c -1.7e-4,-5.67532 -0.50363,-10.115 -1.51041,-13.31905 -1.83096,-5.58377 -4.66869,-10.29806 -8.5132,-14.1429 -3.84483,-3.8445 -9.13125,-6.93397 -15.85928,-9.26841 -6.72831,-2.33409 -14.25745,-3.50122 -22.58746,-3.5014 -14.64647,1.8e-4 -26.04317,3.29561 -34.19013,9.8863 -6.22478,5.03486 -9.33713,11.71726 -9.33706,20.04723 -7e-5,4.9433 1.28148,9.36009 3.84467,13.25039 2.56304,3.89058 7.1858,7.71236 13.86829,11.46536 4.75998,2.65478 16.06513,7.91832 33.91551,15.79063 14.46316,6.40789 24.44099,11.44258 29.93353,15.10407 7.32302,4.8517 12.95272,10.73313 16.8891,17.6443 3.93604,6.91133 5.90414,14.76087 5.90432,23.54863 -1.8e-4,10.89328 -3.3185,20.93977 -9.95496,30.13949 -6.6368,9.19977 -15.81366,16.31699 -27.53061,21.35167 -11.71722,5.03469 -25.1278,7.55203 -40.23176,7.55203 -22.79349,0 -41.39895,-4.96603 -55.81642,-14.8981 -14.41755,-9.93206 -21.67207,-27.80519 -21.76359,-53.61947 z"
         id="path3006"
         inkscape:connector-curvature="0"
         style="fill:none;stroke:#000000;stroke-opacity:1" />
    </g>
    <g
       style="font-size:234.34199524px;font-style:oblique;font-variant:normal;font-weight:normal;font-stretch:normal;text-align:start;line-height:125%;letter-spacing:0px;word-spacing:0px;writing-mode:lr-tb;text-anchor:start;fill:none;stroke:#000000;stroke-opacity:1;font-family:Sans;-inkscape-font-specification:Sans Oblique"
       id="text3925"
       transform="translate(-2,0)">
      <path
         d="m 419.37857,639.33869 21.96956,-2.05964 -0.22885,5.83566 c -4e-5,6.48412 1.48748,12.41513 4.46257,17.79306 2.975,5.37799 7.89526,9.53542 14.7608,12.4723 6.86542,2.93692 15.02772,4.40537 24.48691,4.40536 13.42574,10e-6 23.66675,-2.93689 30.72306,-8.81071 7.05607,-5.87378 10.58417,-12.58669 10.58429,-20.13877 -1.2e-4,-5.26349 -1.86906,-10.06933 -5.60682,-14.41752 -3.81427,-4.2718 -14.22692,-10.06932 -31.23797,-17.39257 -13.19706,-5.72116 -22.19847,-10.10744 -27.00425,-13.15886 -7.55209,-4.95831 -13.12076,-10.35534 -16.70602,-16.1911 -3.58535,-5.83556 -5.378,-12.49126 -5.37797,-19.96713 -3e-5,-8.61987 2.36474,-16.40075 7.09434,-23.34266 4.72951,-6.94162 11.6522,-12.24329 20.7681,-15.90505 9.11577,-3.66142 19.39492,-5.49222 30.83749,-5.49239 13.65458,1.7e-4 25.17333,2.28866 34.55629,6.86549 9.38269,4.57715 16.19096,10.6798 20.42482,18.30797 4.23357,7.62845 6.35042,14.91349 6.35058,21.85513 -1.6e-4,0.68667 -0.0383,1.83092 -0.11442,3.43275 l -21.62629,1.71637 c -1.4e-4,-4.72944 -0.41969,-8.42917 -1.25867,-11.09921 -1.5258,-4.65314 -3.89058,-8.58172 -7.09434,-11.78575 -3.20402,-3.20375 -7.60937,-5.77831 -13.21607,-7.72368 -5.60692,-1.94507 -11.88121,-2.91768 -18.82288,-2.91783 -12.20539,1.5e-4 -21.70264,2.74635 -28.49177,8.23859 -5.18732,4.19571 -7.78095,9.76438 -7.78089,16.70602 -6e-5,4.11941 1.06791,7.80008 3.2039,11.04199 2.13586,3.24215 5.98816,6.42697 11.5569,9.55447 3.96665,2.21232 13.38762,6.5986 28.26293,13.15886 12.05263,5.33991 20.36749,9.53548 24.9446,12.58672 6.10253,4.04309 10.79394,8.94428 14.07425,14.70359 3.28004,5.75944 4.92012,12.30072 4.92027,19.62385 -1.5e-4,9.07774 -2.76541,17.44982 -8.2958,25.11625 -5.53066,7.66647 -13.17804,13.59749 -22.94217,17.79306 -9.76436,4.19557 -20.93983,6.29336 -33.52647,6.29336 -18.99458,0 -34.49912,-4.13836 -46.51368,-12.41509 -12.01463,-8.27671 -18.06006,-23.17099 -18.13633,-44.68289 z"
         id="path3009"
         inkscape:connector-curvature="0"
         style="fill:none;stroke:#000000;stroke-opacity:1" />
    </g>
    <g
       style="font-size:197.40228271px;font-style:oblique;font-variant:normal;font-weight:normal;font-stretch:normal;text-align:start;line-height:125%;letter-spacing:0px;word-spacing:0px;writing-mode:lr-tb;text-anchor:start;fill:none;stroke:#000000;stroke-opacity:1;font-family:Sans;-inkscape-font-specification:Sans Oblique"
       id="text3929"
       transform="translate(22,0)">
      <path
         d="m 609.95278,662.59839 29.59107,-141.30457 43.76008,0 c 7.96797,1.5e-4 13.87975,0.32144 17.73536,0.96388 6.29723,1.09254 11.61462,3.00423 15.95218,5.73508 4.33734,2.73112 7.69484,6.45811 10.07253,11.18099 2.37744,4.72312 3.56622,9.94412 3.56635,15.66302 -1.3e-4,7.77539 -2.13672,14.61892 -6.40979,20.53061 -4.27331,5.91187 -10.81161,10.40996 -19.61492,13.4943 7.64665,2.50615 13.36566,6.28134 17.15703,11.32557 3.79113,5.04435 5.68676,10.94007 5.68688,17.68716 -1.2e-4,7.77533 -2.23311,15.22931 -6.69895,22.36198 -4.46609,7.13272 -10.37787,12.64288 -17.73536,16.53051 -7.3577,3.88765 -15.56672,5.83147 -24.62709,5.83147 z m 35.85628,-80.96578 28.62719,0 c 13.68698,8e-5 23.53459,-2.18471 29.54287,-6.55437 6.00806,-4.36949 9.01215,-10.73108 9.01226,-19.0848 -1.1e-4,-3.98391 -0.93186,-7.42174 -2.79525,-10.31349 -1.8636,-2.89152 -4.35362,-4.99598 -7.47006,-6.31341 -3.11663,-1.31717 -8.98022,-1.97582 -17.59078,-1.97595 l -30.073,0 z m -13.59069,64.9654 32.19354,0 c 8.54632,10e-6 14.29745,-0.28915 17.25342,-0.86749 5.97596,-1.02812 10.82748,-2.77917 14.55457,-5.25314 3.72689,-2.47393 6.65065,-5.73505 8.77129,-9.78336 2.12043,-4.04826 3.18069,-8.28932 3.1808,-12.7232 -1.1e-4,-6.61858 -2.07245,-11.64681 -6.21702,-15.08469 -4.14477,-3.43777 -12.0325,-5.15669 -23.66321,-5.15675 l -35.85628,0 z"
         id="path3015"
         inkscape:connector-curvature="0"
         style="fill:none;stroke:#000000;stroke-opacity:1" />
    </g>
    <g
       style="font-size:197.40228271px;font-style:oblique;font-variant:normal;font-weight:normal;font-stretch:normal;text-align:start;line-height:125%;letter-spacing:0px;word-spacing:0px;writing-mode:lr-tb;text-anchor:start;fill:none;stroke:#000000;stroke-opacity:1;font-family:Sans;-inkscape-font-specification:Sans Oblique"
       id="text3933"
       transform="translate(40,0)">
      <path
         d="m 874.8223,662.59839 26.1211,-125.2078 -46.36255,0 3.37357,-16.09677 111.23156,0 -3.37357,16.09677 -45.977,0 -26.1211,125.2078 z"
         id="path3018"
         inkscape:connector-curvature="0"
         style="fill:none;stroke:#000000;stroke-opacity:1" />
    </g>
    <g
       transform="matrix(1.0177752,0,0,0.98253524,12,0)"
       style="font-size:221.91719055px;font-style:oblique;font-variant:normal;font-weight:normal;font-stretch:normal;text-align:start;line-height:125%;letter-spacing:0px;word-spacing:0px;writing-mode:lr-tb;text-anchor:start;fill:none;stroke:#000000;stroke-opacity:1;font-family:Sans;-inkscape-font-specification:Sans Oblique"
       id="text3937">
      <path
         d="m 542.15961,616.70938 4.11761,-19.6128 59.81361,0 -4.00924,19.6128 z"
         id="path3012"
         inkscape:connector-curvature="0"
         style="fill:none;stroke:#000000;stroke-opacity:1" />
    </g>
  </g>
</svg>
